<svg xmlns="http://www.w3.org/2000/svg" width="113.82" height="120" viewBox="0 0 113.82 120"><defs><style>.b{fill:#ed2f81}.c{fill:#139950}.g{fill:#815c3c}.h{fill:#6a4825}.j{fill:#e8cc8f}.k{fill:#fee3a2}.l{fill:#a31c78}.m{fill:#991766}.n{fill:#fff}.o{fill:#f1cab3}.p{fill:#f1ddcd}</style></defs><path d="M111.728 90.894c-4.967-6.224-12.335-9.191-17.716-15.06-8.489-9.258-21.4-45.035-31.058-63.707-2.739-5.3-6.478-11.014-12.361-11.983-2.658-.438-5.364.2-7.97.869q-8.564 2.211-16.947 5.059a60.8 60.8 0 00-14.054 6.333c-4.3 2.833-8.042 6.759-9.831 11.59a29.96 29.96 0 00-.7 18.207C15.395 93.369-.463 100.49.037 105.772a19.876 19.876 0 003.219 8.411 12.038 12.038 0 006.906 5.495l.646-.769a259.027 259.027 0 0178.629-1.127c1.97.274 4.529 2.533 6.486 2.181 2.869-.516 8.353-.256 9.558-4.986 1.127-4.428 4.612-7.075 6.711-11.133s2.387-9.379-.464-12.95z" fill="#ebebeb"/><path class="b" d="M51.932 117.213q.016.936.085 1.87l-9.646-.19c-5.689-.112-11.383-.225-17.071-.107-.007-.084-.016-.168-.025-.253a.218.218 0 00.233-.253c-.266-2.21 1.6-3.593 3.353-4.487a17.593 17.593 0 016.05-1.634 61.729 61.729 0 016.494-.407 12.793 12.793 0 016.322 1.177 9.141 9.141 0 012.411 1.9c.455.5.8 1.1 1.205 1.634a2.071 2.071 0 00-.005.517c.026.223.283.472.515.3.028-.026.054-.046.079-.067z"/><path class="c" d="M78.892 118.61q-.491-.016-.982-.008c-1.163.022-2.322.157-3.479.264a155.53 155.53 0 01-17.514.314l-4.9-.1q-.069-.933-.085-1.87l.059-.049c.044.037.09.074.137.11.232.176.49-.073.516-.3a2.114 2.114 0 000-.516c.41-.534.751-1.132 1.205-1.633a9.119 9.119 0 012.41-1.905 12.794 12.794 0 016.323-1.177 61.718 61.718 0 016.493.407 17.591 17.591 0 016.05 1.634c1.754.895 3.62 2.278 3.353 4.487-.031.257.242.313.416.21-.004.048-.003.09-.002.132zM75.683 104.772c.008.95-.015 1.9-.078 2.85a70.5 70.5 0 01-.251 2.756c-.05.482-.118.962-.183 1.442a5.44 5.44 0 00-.091.664c0 .1 0 .2.011.3a17.027 17.027 0 00-2.731-1.024 2.142 2.142 0 00.244-.648q.211-.731.362-1.477a20.572 20.572 0 00.38-2.91 19.428 19.428 0 00-.063-2.964c-.048-.5-.113-.99-.2-1.481-.024-.141-.042-.287-.07-.43l2.552.4c.03.844.113 1.684.118 2.522zM78.807 62.983l.862 1.171q-1.429-.031-2.852.08c.429-.758.881-1.512 1.255-2.3a4.149 4.149 0 00.735 1.049z"/><path class="b" d="M27.159 62.572a1.68 1.68 0 01-.762 2.037 1.352 1.352 0 01-1.02 0l-.012-.06a.062.062 0 00-.119 0 1.3 1.3 0 01-.689-.743 1.188 1.188 0 01.253-1.137 1.127 1.127 0 00.069.145.106.106 0 00.192-.025 1.4 1.4 0 00.057-.451 4.835 4.835 0 01.92-.616.184.184 0 00.044-.035 1.35 1.35 0 011.067.885z"/><path d="M43.292 50.552a6.122 6.122 0 01.019 1.308 3.451 3.451 0 01-.361.837.343.343 0 00-.017.183 7.886 7.886 0 01-4.293.176 17 17 0 01-2.272-.6 4.784 4.784 0 01-.47-1.049 3.23 3.23 0 01-.06-1.2 3.757 3.757 0 01.384-1.191 4.323 4.323 0 01.577-.738q.213-.035.429-.061a1.291 1.291 0 00-.131.143 2.057 2.057 0 00-.216 2.006 2.918 2.918 0 003.964 1.389 2.194 2.194 0 001.34-1.88 2.815 2.815 0 00-.375-1.546c.14.026.28.052.419.082a3.041 3.041 0 011.063 2.141z" fill="#629dbd"/><path d="M68.166 50.211a3.217 3.217 0 01-.06 1.2 4.721 4.721 0 01-.47 1.049 16.976 16.976 0 01-2.272.6 7.884 7.884 0 01-4.292-.176.344.344 0 00-.018-.183 3.475 3.475 0 01-.361-.837 6.079 6.079 0 01.02-1.308 3.038 3.038 0 011.058-2.138c.139-.03.28-.057.42-.082a2.8 2.8 0 00-.375 1.546 2.193 2.193 0 001.34 1.88 2.918 2.918 0 003.966-1.385 2.056 2.056 0 00-.217-2.006 1.285 1.285 0 00-.13-.143q.216.027.429.061a4.328 4.328 0 01.577.738 3.756 3.756 0 01.385 1.184z" fill="#4a896d"/><path d="M62.365 37.102q.193.437.425.856a7.143 7.143 0 00-1.285.382 13.823 13.823 0 01-2.334.8 2.969 2.969 0 01-.626.048c-.294-.011-.218-.21-.084-.4a2.584 2.584 0 011.027-.768c.9-.421 1.873-.48 2.787-.817a.149.149 0 00.09-.101z" fill="#4a413d"/><path class="g" d="M76.49 57.534l-.015.069c-.03.141-.063.283-.1.424a29.76 29.76 0 01-.392 1.483l-.003.013.008.015a8.307 8.307 0 01.729 2.042c.082.333.152.662.206.977l.018.11.058-.1a12.54 12.54 0 01.787-1.168l.02-.026-.02-.025a.657.657 0 01-.067-.356v-.026c0-.3.014-.61.028-.909l.02-.463c.008-.23.013-.46.019-.691.009-.372.018-.756.036-1.134v-.057l-.054.014a1.289 1.289 0 01-1.23-.153zM77.66 73.849a38.1 38.1 0 00-2.189-6.632c-.217-.5-.459-1.033-.717-1.573q-.081-.17-.165-.337a18.634 18.634 0 00-.2-.4 4.5 4.5 0 01-.171-.441l-.067-.189-.043.089a31.543 31.543 0 01-1.532 2.784l-.02.034.032.022a5.7 5.7 0 01.625.5c.443.414.8.767 1.106 1.112a18.163 18.163 0 011.893 2.448 10.189 10.189 0 011.584 4.352l.014.13.086-.152v-.014c.016-.1.034-.205.054-.308v-.015c-.09-.476-.185-.951-.29-1.41z"/><path class="g" d="M78.255 70.687a23.641 23.641 0 00-.3-3.015 23.219 23.219 0 00-.39-1.857l-.044-.179a3.111 3.111 0 01-.069-.467c-.009-.092-.018-.187-.033-.286l-.006-.037h-.037c-.4.022-.8.051-1.173.086a.245.245 0 01-.234-.115.344.344 0 01-.024-.341 54.99 54.99 0 01.76-1.392l.005-.012v-.013c0-.042-.009-.085-.013-.127a3.424 3.424 0 00-.025-.227 16.657 16.657 0 00-.213-1.049c-.1-.395-.221-.785-.344-1.163-.059-.186-.12-.371-.176-.558l-.04-.13-.04.13a30.911 30.911 0 01-1.614 4.145l-.009.022.014.02c.048.066.1.131.145.2a4.715 4.715 0 01.363.535c.148.27.289.55.412.8.28.556.549 1.133.822 1.765a36.448 36.448 0 011.3 3.5c.3.943.561 1.919.785 2.9l.057.247.027-.276.024-.253a22.951 22.951 0 00.07-2.853z"/><path class="g" d="M78.487 73.683c-.007.08-.016.16-.026.241l.082.017.027-.085a20.368 20.368 0 00.583-2.982q.111-.8.227-1.6t.226-1.6c.04-.291.075-.593.108-.885a17.337 17.337 0 01.29-1.916l.011-.049h-.05c-.8-.027-1.621-.022-2.436.018h-.062l.027.057c.028.057.057.111.085.164a2.208 2.208 0 01.187.422c.074.249.137.5.2.743.118.491.222 1 .309 1.5a22.272 22.272 0 01.3 2.879 23.156 23.156 0 01-.088 3.076z"/><path class="g" d="M80.796 73.317a12.127 12.127 0 001.622-7.817 19.782 19.782 0 00-1.15-4.639c-.274-.747-.6-1.525-.958-2.313-.1-.222-.218-.447-.331-.664a10.016 10.016 0 01-.478-1.01l-.024-.061-.046.048a2.907 2.907 0 01-1.009.655l-.021.009c-.058.024-.12.049-.191.074l-.028.011v.03c.014.564 0 1.138-.018 1.693l-.009.349c0 .13 0 .261-.006.393 0 .322-.007.656-.041.977a.906.906 0 01-.044.22l-.011.03.026.018a.265.265 0 01.075.087l.021.037.037-.02a.394.394 0 01.245-.037.293.293 0 01.231.18.34.34 0 01.033.182v.017l.011.013a7.316 7.316 0 00.14.17l.1.134.183.249.936 1.275-.031-.176c-.04-.219-.059-.447-.08-.668a8.735 8.735 0 00-.059-.556 13.528 13.528 0 00-.335-1.574 16.131 16.131 0 00-.73-1.969c-.139-.331-.283-.672-.414-1.015-.005-.016.011-.032.026-.037s.024 0 .029 0a8.517 8.517 0 011.342 2.948 12.9 12.9 0 01.353 1.708l.012.091a3.78 3.78 0 01.021 1.4v.018l.027.037q.2.277.407.556a.263.263 0 01.008.287.311.311 0 01-.275.176l-.149-.007v.042a18.011 18.011 0 01-.251 2.121c-.05.316-.1.643-.143.96q-.087.662-.168 1.325c-.072.579-.147 1.178-.228 1.766a19.021 19.021 0 01-.627 3.109 14.27 14.27 0 01-.41 1.136l-.005.011v.012a4.62 4.62 0 01.072.469l.008.075.059-.046a9.61 9.61 0 002.246-2.489zM77.338 47.269l.055-.026-.044-.041a4.115 4.115 0 01-.209-.207l-.085-.088.013.122a33.408 33.408 0 01.14 5.108l-.006.114.078-.083a5.34 5.34 0 011.715-1.285l.05-.02-.032-.043a9.578 9.578 0 01-1.716-3.457.074.074 0 01.041-.094z"/><path class="g" d="M79.32 49.276a1.172 1.172 0 01-.108-.226v-.01l-.006-.007a19.508 19.508 0 01-1.358-1.419l-.007-.006a6.041 6.041 0 01-.269-.214l-.119-.1.053.145a12.481 12.481 0 001.829 3.3l.017.022.027-.007a1.93 1.93 0 01.7-.049 1.624 1.624 0 00.853-.054l.062-.026-.052-.043c-.09-.076-.179-.151-.267-.228-.268-.23-.532-.461-.784-.687l-.01-.009h-.014a.742.742 0 01-.547-.382zM79.633 48.728l.022.087a.565.565 0 00.565.458.112.112 0 01.114.078.128.128 0 01-.021.149.683.683 0 01-.088.064l-.046.03.04.036c.328.295.652.575.961.834l.027.022.027-.023a1.724 1.724 0 00.517-.8l.013-.039-.038-.013a17.739 17.739 0 01-1.8-.736l-.217-.107zM81.774 49.247l.054.019v-.057a1.246 1.246 0 00-.456-1.087 1.273 1.273 0 00-1.373-.026.9.9 0 00-.251.244l-.027.039.043.022c.271.136.558.268.851.393.368.157.748.305 1.159.453z"/><path class="g" d="M93.533 50.734a24.206 24.206 0 01-9.341-.4c-.7-.17-1.365-.358-1.98-.559l-.04-.013-.012.04a1.389 1.389 0 01-.039.114 2.186 2.186 0 01-.546.812l-.034.033.037.03a40.671 40.671 0 003.229 2.342c.309.2.626.405.933.6a27.264 27.264 0 012.464 1.7 16.454 16.454 0 012.676 2.711 10.123 10.123 0 011.8 3.132v.006a.045.045 0 01-.03.05.064.064 0 01-.077-.021c-.263-.382-.516-.776-.761-1.156a20.982 20.982 0 00-1.7-2.39 16.612 16.612 0 00-2.846-2.618c-.586-.422-1.2-.821-1.794-1.208a50.934 50.934 0 01-1.674-1.123 40.143 40.143 0 01-2.436-1.879l-.023-.02-.053.035-.042.027a1.405 1.405 0 01-.7.2 2.628 2.628 0 01-.405-.032 2.625 2.625 0 00-.423-.03h-.084l.053.064c.207.248.428.494.655.733a35.1 35.1 0 004.222 3.576c1.029.781 2.092 1.59 3.072 2.467 2.919 2.613 4.439 5.131 4.648 7.695a.169.169 0 010 .062.237.237 0 01-.248.153.187.187 0 01-.189-.154 10.258 10.258 0 00-2.045-4.8 29.135 29.135 0 00-5.422-5.087c-.538-.424-1.093-.862-1.627-1.3a24.014 24.014 0 01-3.414-3.3l-.02-.024-.028.011a5.143 5.143 0 00-1.507.989 6.422 6.422 0 00-.453.471c-.051.057-.1.113-.155.17l-.009.011v.014c-.011.144-.021.286-.034.43l-.007.076.068-.036a1.738 1.738 0 011.79.168 2.622 2.622 0 01.905 2.544v.016l.008.015c.065.109.121.226.176.34.038.08.077.159.117.234.061.114.123.226.186.339l.026.047.037-.025a.685.685 0 01.082-.043l.05-.026a.044.044 0 01.048 0 .066.066 0 01.029.054.032.032 0 01-.021.028l-.056.026-.083.038-.047.016.024.043c.079.139.166.286.264.449a16.786 16.786 0 001.353 1.9 19.041 19.041 0 001.578 1.694c.261.25.534.494.812.727.066.055.136.109.21.165a2.043 2.043 0 01.538.519.037.037 0 010 .011.022.022 0 01-.009.017.028.028 0 01-.023.007 2 2 0 01-.746-.455l-.136-.112c-.3-.239-.6-.49-.88-.746a15.806 15.806 0 01-1.626-1.726 17.753 17.753 0 01-1.359-1.919 15.998 15.998 0 01-.623-1.109l-.077-.148-.037.07a.43.43 0 01-.029.046l-.016.024.016.024a9.052 9.052 0 01.9 1.758c.074.171.146.34.219.5a29.1 29.1 0 011.011 2.552 15.908 15.908 0 01.61 9.057 10.725 10.725 0 01-1.676 3.628 8.6 8.6 0 01-1.489 1.608l.046.069a12.468 12.468 0 001.331-.844 11.934 11.934 0 004.171-5.441 12.416 12.416 0 00.742-3.636 12.545 12.545 0 00-.037-1.84c-.024-.251-.063-.5-.1-.745-.032-.211-.066-.429-.09-.644a2.09 2.09 0 01-.012-.111v-.016l-.012-.011c-.11-.1-.209-.192-.3-.291a.141.141 0 01-.03-.168.175.175 0 01.183-.088 5.357 5.357 0 012.07.9c.632.393 1.285.841 1.934 1.332.682.513 1.269.991 1.792 1.46.3.27.583.552.843.816l.053.056.066.069.03-.025a.867.867 0 01.388-.183h.026l.031-.125c.031-.118.062-.242.087-.361l.03-.146a20.342 20.342 0 00.328-2.049 9.7 9.7 0 00-.04-2.371l-.005-.034a6.831 6.831 0 00-.507-1.751 13.515 13.515 0 00-2.184-3.227 68.582 68.582 0 00-1.416-1.577l-.291-.318c-.146-.161-.292-.32-.44-.48-.034-.035-.075-.089-.125-.151a1.787 1.787 0 00-.4-.413l-.02-.011-.021.011a.176.176 0 01-.231-.034.36.36 0 01-.075-.349l.018-.047-.05-.009a4.383 4.383 0 01-.581-.138 2.483 2.483 0 01-1.237-.9.224.224 0 01.012-.28.153.153 0 01.212-.02 6.256 6.256 0 003.685.545 17.871 17.871 0 004.3-.623 9.469 9.469 0 002.28-1.125l.219-.14-.251.065c-.699.18-1.417.328-2.137.44z"/><path class="g" d="M97.733 48.5l-.111.036a17.964 17.964 0 01-1.895.508 19.438 19.438 0 01-3.826.409 18.734 18.734 0 01-12.008-4.235 19.182 19.182 0 01-4-4.522v-.008c-.041-.066-.083-.131-.123-.2l-.184-.3.109.334a31.463 31.463 0 011.314 5.965v.018l.014.011c.2.149.391.308.578.462a11.276 11.276 0 00.963.735c.216.141.45.282.694.417l.035.019.021-.034a1.1 1.1 0 01.062-.095 1.688 1.688 0 012.08-.4 1.717 1.717 0 01.794 1.752v.033l.033.011a24.245 24.245 0 007.263 1.194h.307a24.69 24.69 0 007.087-1.095l.011-.006.34-.238 1.595-1.116-.042-.072a10.064 10.064 0 01-1.111.417zM76.793 8.015a12.231 12.231 0 014.853 3.563c.328.4.651.825.982 1.309l.071-.042a28.1 28.1 0 00-1.634-2.83 9.7 9.7 0 00-4.155-3.716 10.991 10.991 0 00-1.446-.491l-.019-.005-.017.013c-.53.4-1.095.817-1.683 1.229l-.079.056.094.019a16.642 16.642 0 013.033.895z"/><path class="g" d="M77.069 12.406a14.067 14.067 0 013.16 2.906 15.037 15.037 0 012.141 3.967c.169.433.331.877.488 1.307a28.734 28.734 0 001.324 3.2 16.724 16.724 0 003.042 3.973 8.137 8.137 0 004.177 2.53 6.965 6.965 0 001.257.108 16.576 16.576 0 002.855-.331l.638-.11h.013l.238-.231-.145.033a2.593 2.593 0 01-.938.021 5.822 5.822 0 01-1.585-.478 13.776 13.776 0 01-2.977-1.925 12.487 12.487 0 01-2.462-2.462 12.617 12.617 0 01-1.391-2.95l-.115-.312c-.165-.44-.349-.905-.566-1.425-.49-.824-.936-1.7-1.365-2.542-.194-.38-.394-.773-.6-1.154a25.144 25.144 0 00-3.153-4.922 11.929 11.929 0 00-5.209-3.47 18.668 18.668 0 00-2.717-.691h-.016l-.014.01a82.922 82.922 0 01-3.008 1.954l-.084.053.1.024a20.788 20.788 0 016.912 2.917z"/><path class="g" d="M68.513 11.839a14.034 14.034 0 014.16 2.458 15.328 15.328 0 013.054 3.859c.779 1.334 1.462 2.746 2.122 4.111a48.235 48.235 0 002.692 5.042 24.247 24.247 0 007.407 7.649 17.29 17.29 0 007.919 2.626h.012a41.598 41.598 0 002.429-.6l.3-.08-.013-.082c-.232.015-.466.022-.7.021a9.829 9.829 0 01-3.426-.626 9.651 9.651 0 01-2.637-1.534 9.526 9.526 0 01-1.124-1.072c-.15-.169-.3-.356-.468-.569a1.651 1.651 0 01-.157-.245l-.007-.014-.016-.005a1.162 1.162 0 01-.67-.5.1.1 0 01-.011-.1.157.157 0 01.123-.083 2.2 2.2 0 01.445 0h.012l.011-.005a.153.153 0 01.178.02l.01.008h.011c.13.018.264.042.393.065a4.434 4.434 0 00.949.1 5.45 5.45 0 002.124-.532 9.085 9.085 0 001.8-1.147l.124-.1.128-.11-.165.038a10.468 10.468 0 01-4.157.21 8 8 0 01-4.232-2.5 18.1 18.1 0 01-2.937-3.634 24.521 24.521 0 01-1.639-3.793l-.135-.367a18.836 18.836 0 00-1.991-4.212 13.025 13.025 0 00-3.1-3.15A20.526 20.526 0 0069.695 9.7h-.016l-.015.01c-.7.43-1.406.865-2.093 1.284l-.551.338.087.027c.487.139.956.304 1.406.48z"/><path class="g" d="M66.726 14.236a17 17 0 013.445 3.12 19 19 0 012.681 4.423c.219.48.432.973.64 1.45a33.679 33.679 0 001.765 3.66 18.376 18.376 0 003.56 4.267 32.6 32.6 0 004.372 3.266 25.074 25.074 0 005.121 2.59 14.3 14.3 0 004.791.879q.342 0 .677-.02c.142-.008.281-.02.4-.03l.32-.027-.317-.055a17.985 17.985 0 01-6.869-2.817 24.966 24.966 0 01-6.984-7.351 48.317 48.317 0 01-2.77-5.169c-.621-1.281-1.262-2.6-1.982-3.867a15.439 15.439 0 00-3.14-4.029 13.864 13.864 0 00-4.437-2.531c-.426-.155-.873-.3-1.329-.435l-.018-.005-.015.009c-.7.43-1.277.785-1.812 1.122l-.365.229.067.033a17.721 17.721 0 012.199 1.288z"/><path class="g" d="M100.405 36.477a2.7 2.7 0 01-.293.1l-.046.013.019.043a.153.153 0 010 .117.152.152 0 01-.088.082c-.7.273-1.388.51-2.039.7l-.32.1.334-.014c.094 0 .19-.008.285-.014a.107.107 0 01.106.107.094.094 0 01-.074.114 12.312 12.312 0 01-1.947.133h-.009a15.991 15.991 0 01-3.035.37 14.929 14.929 0 01-5.907-1.2 27.274 27.274 0 01-4.887-2.678 33.534 33.534 0 01-4.2-3.282 18.275 18.275 0 01-3.352-4.1 33.56 33.56 0 01-1.769-3.666c-.224-.517-.455-1.051-.693-1.573a18.172 18.172 0 00-2.805-4.5 17.064 17.064 0 00-3.648-3.135 17.138 17.138 0 00-1.893-1.05l-.02-.01-.02.013a71.81 71.81 0 00-1.366.891l-.052.034.051.034c.322.216.653.425.974.628.578.364 1.174.74 1.723 1.168a17.324 17.324 0 012.361 2.246c2.677 3.059 4.338 6.808 5.945 10.433 1.65 3.725 3.356 7.576 6.166 10.682a24.166 24.166 0 009.149 6.183 28.1 28.1 0 005.289 1.48c.4.07.808.13 1.263.185l.272.033-.249-.112a7.7 7.7 0 01-1.084-.593 16.787 16.787 0 01-3.055-2.746q-.193-.211-.389-.422a30.384 30.384 0 01-2.6-3.085.138.138 0 01.017-.194l.016-.014v-.021a.166.166 0 01.058-.142.114.114 0 01.116-.021 9.6 9.6 0 003.1.6h.005a11.7 11.7 0 003.252-.525 12.641 12.641 0 003.236-1.324 7.152 7.152 0 001.38-1.156c.108-.114.218-.235.324-.353.145-.162.295-.328.449-.483l.149-.147z"/><path class="g" d="M73.72 35.893l-.067-.291a11.876 11.876 0 01-.118-.58.1.1 0 01.073-.115.085.085 0 01.106.063l.049.157a27.354 27.354 0 001.034 2.908c.029.067.059.134.09.2a19.552 19.552 0 001.621 2.835 18.3 18.3 0 009.623 7.152 18.965 18.965 0 005.586.841c.343 0 .687-.009 1.03-.028a18.689 18.689 0 003.281-.471c.555-.131 1.1-.285 1.626-.459.178-.059.355-.126.522-.191l.2-.076h-.212a25.3 25.3 0 01-4.333-.511 28.1 28.1 0 01-5.9-1.825 24.2 24.2 0 01-8.665-6.3c-2.675-3.107-4.346-6.925-5.962-10.619l-.1-.226c-1.737-3.968-3.388-7.485-6.018-10.341a16.5 16.5 0 00-2.232-2.034 20.373 20.373 0 00-1.156-.79l-.049.067a14.864 14.864 0 014.743 6.89 21.711 21.711 0 01.783 4.446c.077.731.156 1.486.272 2.226a10.03 10.03 0 001.949 4.8l.009.011h.012c.112.031.2.059.282.09.044.016.089.032.133.051l.025.01.019-.018a.348.348 0 01.274-.094.315.315 0 01.23.149c.389.586.76 1.2 1.1 1.821z"/><path class="g" d="M69.214 28.914c-.116-.738-.194-1.5-.27-2.227a22.285 22.285 0 00-.73-4.288 14.374 14.374 0 00-2.588-4.8 15.188 15.188 0 00-3.488-3.136l-.024-.015-.022.015c-.585.4-1.121.777-1.638 1.159l-.039.029.035.034c.161.158.327.324.507.505a16.482 16.482 0 013.365 4.593 17.6 17.6 0 011.347 6.313l.023.342a33.7 33.7 0 01.014 6.721c-.065.491-.154.993-.239 1.477a21.545 21.545 0 00-.33 2.357v.014l.007.011.022.037.016.028c.061.1.127.206.2.309h-.495v2.077h2.077v-2.077h-.729a5.378 5.378 0 01.937-2.932 4.247 4.247 0 012.961-1.95 3.61 3.61 0 01.727-.008l.095.008-.058-.075a9.783 9.783 0 01-1.683-4.521z"/><path class="g" d="M65.333 34.08a33.736 33.736 0 00-.022-6.666l-.028-.4a16.545 16.545 0 00-1.51-6.494 18.323 18.323 0 00-3.517-4.554l-.087-.086-.026-.024-.028.021c-.186.139-.375.282-.561.427l-.027.021.015.031c.145.279.277.558.394.83a14.8 14.8 0 01.916 4.475c.045.463.092.941.153 1.413a54.157 54.157 0 001.382 6.727l.165.635c.439 1.694.895 3.445 1.48 5.118a15.48 15.48 0 00.7 1.7l.062.127.016-.14c.066-.578.175-1.163.28-1.728.092-.499.179-.97.243-1.433z"/><path class="g" d="M64.75 38.03v-.012l-.006-.011a14.647 14.647 0 01-1.037-2.368c-.6-1.73-1.07-3.547-1.519-5.3l-.155-.6a53.176 53.176 0 01-1.314-6.508c-.068-.528-.114-1.067-.16-1.589-.051-.6-.1-1.217-.191-1.824a10.427 10.427 0 00-.895-2.981q-.068-.146-.142-.29l-.022-.045-.04.032c-.113.088-.225.178-.337.268l-.023.018.009.027a10.108 10.108 0 01.31 1.236 7.946 7.946 0 01-.784 5.174 19.892 19.892 0 01-2.569 3.513c-.186.219-.372.438-.556.658a11.793 11.793 0 00-2.71 4.683 7.646 7.646 0 00.629 5l.147.308-.069-.334a7.353 7.353 0 01.353-3.968 17.146 17.146 0 011.423-2.89 3.636 3.636 0 011.934-1.792 3.446 3.446 0 012.8.782 6.6 6.6 0 011.913 2.158 12.052 12.052 0 011.011 2.949 12.478 12.478 0 00.985 2.91 9.544 9.544 0 00.938 1.429l.081.1-.007-.13a7.169 7.169 0 01.003-.603zM51.585 34.825l-.158-.4a28.654 28.654 0 01-1.047-3.1c-.1-.37-.184-.712-.256-1.045l-.045-.212-.036.213a14.607 14.607 0 00-.2 2.933V33.232a14.789 14.789 0 002.319 3.2l.173.181-.105-.227a31.748 31.748 0 01-.645-1.561z"/><path class="g" d="M55.343 22.574a17.584 17.584 0 00-1.357 1.562 11.469 11.469 0 00-1.392 2.472 12.771 12.771 0 00-.91 5.563 11.328 11.328 0 00.341 2.158l.082-.013a7.519 7.519 0 01.141-2.177c.47-2.206 1.929-3.92 3.341-5.576a22.8 22.8 0 002.338-3.081 7.8 7.8 0 00.928-5.713 9.657 9.657 0 00-.178-.692l-.017-.061-.049.04c-.184.152-.369.306-.549.46l-.012.01v.017a7.473 7.473 0 01-1.885 4.138c-.269.306-.55.606-.822.893z"/><path class="g" d="M50.863 31.88c.2.674.439 1.355.718 2.084l.08-.023a13.5 13.5 0 01-.246-1.9 12.781 12.781 0 01.824-5.335 11.889 11.889 0 011.262-2.422 18.263 18.263 0 011.721-2.055l.139-.151a9.467 9.467 0 001.838-2.573 6.551 6.551 0 00.447-1.536l.019-.115-.087.078a28.881 28.881 0 00-3.1 3.168 20.2 20.2 0 00-4.226 8.161v.016a20.986 20.986 0 00.611 2.603z"/><path class="h" d="M75.463 5.808a15.607 15.607 0 00-4.887-.422 20.252 20.252 0 00-6.185 1.388l-.3.115.315-.034c.322-.037.646-.069.969-.1l.311-.032a26.526 26.526 0 014.309-.062 27.377 27.377 0 013.761.46h.018l.014-.01c.59-.412 1.157-.827 1.686-1.23l.068-.052zM69.044 7.048a36.371 36.371 0 00-3.68.053c-.61.042-1.268.113-2.013.219-.12.017-.239.037-.358.056h-.011c-.553.258-1.112.545-1.661.851l-.181.1.207-.024a5.505 5.505 0 011.156 0c1.82.186 3.774.406 5.736.766.664.123 1.31.26 1.918.408h.016l.014-.009a83.115 83.115 0 003.012-1.957l.084-.057-.1-.018a28.059 28.059 0 00-4.139-.388zM68.682 9.475c-1.737-.345-3.52-.563-5.245-.773-.086-.01-.187-.024-.3-.04-.8-.112-2.14-.3-2.8.2a.964.964 0 00-.375.667.094.094 0 01-.1.081.062.062 0 01-.059-.073 1.282 1.282 0 01.067-.344l.041-.115-.1.066c-.369.241-.739.494-1.1.755l-.195.143-.082.061.042.071a3.385 3.385 0 011.772-.225c.736.069 1.482.2 2.2.334l.472.085a33.307 33.307 0 014.195.981l.018.005.49-.3c.687-.42 1.4-.854 2.092-1.285l.086-.053-.1-.023a35.517 35.517 0 00-1.019-.218z"/><path class="h" d="M63.098 10.719h-.009c-.816-.158-1.659-.322-2.493-.446a3.391 3.391 0 00-2.558.386.055.055 0 01-.064 0 .1.1 0 01-.047-.086l.009-.1-.076.059c-.259.2-.518.411-.794.638l-.1.078h.123a15.655 15.655 0 017.43 1.7l.021.011.322-.2c.535-.336 1.11-.692 1.81-1.121l.081-.049-.09-.027c-1.265-.377-2.57-.648-3.565-.843z"/><path class="h" d="M56.794 11.419h-.016l-.012.011-.327.277h-.006l-.128.109-.031.027.028.031.064.076.086.1.012.014h.032c.075.008.149.014.223.025a12.9 12.9 0 014.938 1.712l.047-.069-.168-.135a8.253 8.253 0 00-1.845-1.23 6.945 6.945 0 00-3.153-.485.048.048 0 01-.049-.031.069.069 0 01.009-.072.041.041 0 01.023-.011 5.317 5.317 0 013.152.291 8.254 8.254 0 012.02 1.275c.261.2.531.413.812.608l.23.158.023.015.023-.015c.444-.3.9-.6 1.366-.889l.063-.04-.068-.033a18.531 18.531 0 00-7.348-1.719z"/><path class="h" d="M56.707 12.235l-.122-.026.136.157.121.14.007.006a40.911 40.911 0 013.603 3.177l.026.024.028-.021a51.057 51.057 0 011.636-1.157l.051-.034-.052-.034a15.982 15.982 0 00-5.434-2.232zM58.594 14.425l-.414-.373-.062.056a16.951 16.951 0 011.422 2.25l.023.044.039-.03c.186-.144.374-.287.559-.425l.039-.029-.034-.034c-.507-.5-1.048-.988-1.572-1.459zM57.49 13.659l-.071.043.031.068.01.022c.226.358.447.744.673 1.179a11.551 11.551 0 01.78 1.87l.018.058.048-.038.337-.268.026-.021-.014-.03a20.356 20.356 0 00-1.838-2.883zM58.04 15.409l-.137-.3.059.323a7.7 7.7 0 01.124 1.381 6.933 6.933 0 01-.039.726l-.011.1.08-.068c.179-.153.363-.307.548-.458l.022-.018-.009-.026a12.049 12.049 0 00-.637-1.66zM56.552 12.893l-.27-.405-.021-.032c-.075-.112-.151-.224-.226-.338l-.026-.04-.1.091c-.043.038-.088.076-.13.115l-.013.011v.019a9.742 9.742 0 01-1.558 4.43c-.381.658-.8 1.307-1.207 1.935-.472.731-.96 1.486-1.393 2.26a11.843 11.843 0 00-1.555 5.178 14.727 14.727 0 00.2 3.164l.034.2.047-.2a20.122 20.122 0 014.209-8.127 28.914 28.914 0 013.094-3.16l.011-.01v-.014a7.2 7.2 0 00.095-1.157 7.278 7.278 0 00-.5-2.647 6.92 6.92 0 00-.691-1.273z"/><path class="h" d="M49.772 25.697a12.177 12.177 0 011.571-4.91c.445-.794.955-1.566 1.448-2.312.409-.621.833-1.262 1.218-1.913a13.307 13.307 0 001.1-2.244 8.54 8.54 0 00.407-1.694l.017-.117-.086.079c-.508.465-1.009.94-1.489 1.413-.612.6-1.195 1.211-1.881 1.943l-.016.016.007.023a.093.093 0 01-.007.072.061.061 0 01-.044.026l-.08.012-.157.167-.172.181c-.213.222-.455.476-.676.75l-.019.024.017.025a.218.218 0 01.011.235c-.235.424-.464.84-.683 1.25l-.005.01v.011a1.286 1.286 0 00.082.4.111.111 0 01-.062.152.162.162 0 01-.211-.064l-.037-.07-.037.071a16.721 16.721 0 00-1.3 3.2 14.727 14.727 0 00.478 9.336 14.289 14.289 0 00.678 1.456l.084.157-.006-.178a14.6 14.6 0 01.2-2.917v-.016a15.372 15.372 0 01-.35-4.574z"/><path d="M46.148 39.416c.19.69-.87.106-1.121-.04a6.422 6.422 0 00-2.125-.993 9.913 9.913 0 00-2.668.165c-1.6.189-3.217.333-4.822.539.214-.111.433-.219.659-.318.881-.388 1.766-.781 2.675-1.1a7.588 7.588 0 014.939-.271 4.591 4.591 0 011.841 1.114 2.342 2.342 0 01.622.904z" fill="#8b6f40"/><path class="j" d="M25.895 61.013v-.039c-.028-.3-.032-.612-.035-.914q0-.192-.006-.383l-.01-.35c-.015-.555-.032-1.129-.016-1.692v-.022l-.028-.011a3.934 3.934 0 01-.67-.308l-.072-.043.009.083a3.644 3.644 0 01-.032.8c-.015.135-.031.274-.038.406-.026.482-.038.966-.036 1.438 0 .5.018 1.01.049 1.518 0 .028 0 .057.007.087l.008.094.1-.052.012-.012.005-.016a.865.865 0 01.715-.574zM42.407 77.995a32.628 32.628 0 01-3.212-2.199l-.118-.091.054.139q.066.172.134.342a13.38 13.38 0 01.5 1.438c.2.726.36 1.437.485 2.112a29.915 29.915 0 01.413 3.204l.009.109.061-.049c.271-.214.554-.445.842-.686l.136-.113c.246-.207.5-.42.755-.628l.024-.018-.011-.028a.219.219 0 01.015-.182.045.045 0 01.034-.02h.1l-.011-.05a7.342 7.342 0 01-.089-.606v-.016a17.634 17.634 0 00-.109-.807 29.178 29.178 0 00-.291-1.555.145.145 0 01.061-.159l.037-.02a.129.129 0 01.023 0h.012a.128.128 0 01.064.016.14.14 0 01.07.085 16.4 16.4 0 01.433 2.16c.009.068.024.147.041.231a3.491 3.491 0 01.072.512v.08l.064-.047a9.53 9.53 0 011.379-.877 5.833 5.833 0 011.273-.491l.118-.029-.11-.049a32.043 32.043 0 01-3.258-1.708z"/><path class="j" d="M40.336 83.087c0-.051 0-.1-.009-.155a31.857 31.857 0 00-.093-1.084c-.074-.7-.182-1.435-.317-2.174s-.28-1.4-.446-2.05c-.065-.257-.124-.521-.182-.778-.088-.4-.18-.808-.3-1.2v-.013l-.011-.008a32.911 32.911 0 01-3.52-3.219l-.1-.1.025.138c.038.2.07.415.1.618.023.151.046.3.071.451l.151.892.151.891c.218 1.278.416 2.418.606 3.483.343 1.93.727 3.965 1.139 6.048l.011.055.049-.026a.068.068 0 01.06 0 .048.048 0 01.031.033c.012.057.021.117.028.17l.009.065.055-.036a42.104 42.104 0 002.481-1.775l.018-.014v-.022a6.26 6.26 0 00-.007-.19zM36.112 78.806a247.477 247.477 0 01-.86-5.362c-.018-.126-.039-.252-.059-.378a10.291 10.291 0 01-.132-1.065v-.016l-.011-.011a32.709 32.709 0 01-2.912-3.692l-.087-.129.011.155c.063.885.135 1.827.235 3.051a135.622 135.622 0 002.2 15.481c.019.053.036.105.052.159l.014.049.045-.024a40.817 40.817 0 002.687-1.572l.024-.015.001-.031c-.435-2.246-.84-4.467-1.208-6.6z"/><path class="j" d="M33.471 83.337a144.192 144.192 0 01-1.131-8.351 134.783 134.783 0 01-.508-6.32 26.802 26.802 0 01-.032-.885v-.011l-.006-.01A31.354 31.354 0 0128.472 61l-.109-.313.029.33c.09 1.05.158 2.121.224 3.157l.1 1.6c.191 2.776.38 5.6.562 8.33.325 4.853.66 9.872 1.023 14.8a.251.251 0 010 .032v.066l.061-.024c1.3-.518 2.579-1.1 3.8-1.733l.028-.014-.006-.031a119.073 119.073 0 01-.713-3.863zM29.991 88.908c-.091-1.519-.2-3.063-.3-4.557l-.139-2.054c-.179-2.676-.355-5.4-.524-8.03l-.229-3.538-.375-5.784q-.041-.628-.086-1.255c-.085-1.227-.172-2.5-.212-3.743v-.011a29.155 29.155 0 01-.612-2.31l-.017-.075-.052.043a1.3 1.3 0 01-1.21.137l-.056-.014v.057c.018.378.028.763.036 1.135.005.23.011.46.019.689 0 .155.012.31.02.464.014.3.03.607.028.908v.066l.032.007a2.182 2.182 0 011.171.737 2.306 2.306 0 01.065 2.592 1.921 1.921 0 01-2.036.962l-.057-.011.007.057c.069.523.1 1.06.139 1.58l.034.487c.067.92.131 1.89.188 2.883a178.374 178.374 0 01.217 15.846c-.026.876-.058 1.764-.1 2.64-.009.216-.011.434-.013.665 0 .314-.005.638-.029.953v.059l.057-.017a46.59 46.59 0 004.1-1.377l.077-.03-.07-.045a.152.152 0 01-.073-.116zM50.764 16.274a22.715 22.715 0 00-3.78.882 25.51 25.51 0 00-4.684 2.139 30.74 30.74 0 00-12.268 14.3A48.329 48.329 0 0026.867 43.9c-.589 2.967-.889 6.008-1.178 8.949l-.037.374.055-.011a1.674 1.674 0 011.083.124l.066.034-.006-.074a31.064 31.064 0 014.657-19.482.346.346 0 01.056-.067l.015-.014v-.021a.258.258 0 01.111-.253 35.196 35.196 0 011.938-1.142l.01-.006.006-.01c.132-.23.278-.456.418-.676l.172-.269c.4-.635.835-1.262 1.3-1.866a25.022 25.022 0 015.7-5.388 25.064 25.064 0 013.44-2 16.078 16.078 0 013.714-1.392.153.153 0 01.032 0h.028l.011-.026a11.756 11.756 0 011.468-2.707l.006-.008v-.01a1.632 1.632 0 01.053-.217 4.784 4.784 0 01.817-1.4l.065-.083z"/><path class="k" d="M54.672 12.037a8.827 8.827 0 00-1.589-1.521 11.386 11.386 0 00-4.28-1.9 24.168 24.168 0 00-4.964-.7 27.323 27.323 0 00-10.027 1.471 26.065 26.065 0 00-8.707 5.039 30.224 30.224 0 00-6.2 7.706c-3.238 5.654-5.066 12.381-5.589 20.565a164.67 164.67 0 00.423 20.625c.085 1.368.174 2.782.253 4.17q.1 1.793.21 3.588c.174 2.941.353 5.983.5 8.975a69.286 69.286 0 01-.156 12.2l-.007.053.053-.006a22.807 22.807 0 011.687-.12h.035v-.034c.092-.68.21-1.573.312-2.473.809-7.181.576-14.523.35-21.623l-.015-.476c-.205-6.477-.461-14.537.517-22.176.495-3.869 1.312-7.719 2.046-10.974a44.585 44.585 0 013.078-9.952 25.04 25.04 0 0112.435-11.737 26.26 26.26 0 0119.388-.45l.028.017.023-.023.086-.085c.035-.036.07-.07.107-.105l.027-.026z"/><path class="k" d="M51.966 11.797a27.562 27.562 0 00-9.763-.565 24.885 24.885 0 00-9.285 3.024 24.6 24.6 0 00-11.2 13.513 81.467 81.467 0 00-2.427 9.736l-.132.635a87.563 87.563 0 00-1.629 11 167.082 167.082 0 00-.045 18.658q.055 1.579.107 3.157c.243 7.6.355 14.444-.728 21.153l.002.05h.052c.39-.018.809-.041 1.225-.083a31.711 31.711 0 002.439-.343l.084-.015-.062-.057a.229.229 0 01-.075-.178q0-1.324-.005-2.652l-.049-21.382q0-1.672-.01-3.346c-.008-2.419-.016-4.921-.012-7.38a67.849 67.849 0 01.626-10.315 55.911 55.911 0 012.611-9.8 79.268 79.268 0 013.182-7.924c2.782-5.85 6.084-9.9 10.094-12.381a23.914 23.914 0 018.383-3.032 49.1 49.1 0 018.866-.743h.017l.012-.012.034-.059-.045-.015a29.578 29.578 0 00-2.267-.644z"/><path class="k" d="M52.327 12.984c-5.618.389-12.023 1.131-16.951 5.037-3.595 2.849-6.481 7.029-9.081 13.154a88.839 88.839 0 00-3.107 8.553 46.785 46.785 0 00-1.987 9.873c-.262 3.108-.251 6.28-.24 9.347v.956l.027 10.526q.028 10.527.053 21.05a.254.254 0 01-.02.1l-.033.074.078-.015a54.85 54.85 0 004.465-1.035l.029-.009v-.03c.005-.117.013-.234.022-.351s.014-.211.02-.316c.023-.468.045-.935.064-1.4.042-.952.077-1.952.1-2.972a195.105 195.105 0 00-.414-18.953 25.11 25.11 0 01-.076-1.265v-.03l-.028-.009a1.9 1.9 0 01-1.368-2.042 2.106 2.106 0 01.706-1.246c.043-.038.086-.072.13-.106l.016-.012v-.074c0-.1-.005-.2-.011-.3a25.122 25.122 0 01.011-3.027c.005-.087.009-.177.012-.268a2.865 2.865 0 01.159-1.013l.013-.03-.027-.02a1.927 1.927 0 01-.764-1.064 2.615 2.615 0 01.9-2.555 1.293 1.293 0 01.115-.081l.018-.011v-.022c.116-1.787.332-3.528.529-4.995a70.267 70.267 0 011.052-5.989c1.7-7.615 4.727-13.8 9.008-18.374a27.77 27.77 0 017.371-5.69 22.011 22.011 0 014.3-1.724 17.97 17.97 0 013.694-.7h.018l.012-.014a43.18 43.18 0 012.705-3.008l.083-.085-.117.014c-.474.059-.979.116-1.486.151z"/><path class="k" d="M47.398 21.398c-.336.109-.683.222-1.017.354-.7.275-1.406.589-2.089.934a25.222 25.222 0 00-6.329 4.527 26.014 26.014 0 00-2.6 2.969 23.338 23.338 0 00-1.185 1.742l-.076.128.132-.07c.518-.279 1.031-.546 1.554-.818.318-.166.635-.334.954-.5 1.008-.533 2.051-1.084 3.109-1.551.124-.055.262-.114.434-.186h.009l.007-.008c.1-.117.184-.237.27-.355l.1-.139.3-.418c.122-.171.247-.347.376-.517a6.366 6.366 0 011.588-1.489 30.888 30.888 0 014.65-2.388l.02-.008v-.021a15.1 15.1 0 01.512-2c.045-.135.092-.27.14-.406l.029-.084-.082.031c-.257.089-.536.189-.806.273z"/><path class="k" d="M47.355 26.627v-.081l-.147.041a3.4 3.4 0 00-.811.366 7.675 7.675 0 00-.791.575c-.182.145-.37.294-.563.428a.06.06 0 01-.045.009.1.1 0 01-.062-.055.055.055 0 01.006-.053 4.291 4.291 0 011.295-1.182l.015-.009a2.593 2.593 0 011.065-.444h.039v-.039a15.826 15.826 0 01.155-1.953l.006-.042h-.041a.37.37 0 01-.133-.046l-.019-.018-.025.011a26.739 26.739 0 00-4.353 2.3 7.823 7.823 0 00-1.807 1.936l-.112.156-.112.157.124-.044a9.123 9.123 0 012.934-.581 6.6 6.6 0 011 .06 6.45 6.45 0 01.974.206 4.255 4.255 0 011.556.712l.089.078-.02-.117a14.807 14.807 0 01-.217-2.371z"/><path class="l" d="M55.735 71.517c-.359.246-.714.5-1.1.708a5.76 5.76 0 01-3.858.593 5.762 5.762 0 01-2.686-1.344 13.285 13.285 0 003.484.578c.247.006.382-.111.412-.25.03.139.164.256.411.25a13.193 13.193 0 003.337-.535zM53.631 68.627a3.93 3.93 0 012.041.451c-.164-.032-.335-.081-.489-.107-.952-.157-1.687.8-2.584 1.155a2.171 2.171 0 01-1.462.039 8.386 8.386 0 01-1.448-.826 2.134 2.134 0 00-1.22-.332 3.745 3.745 0 011.883-.381 2.643 2.643 0 01.939.234 1.917 1.917 0 00.592.233.255.255 0 00.063.008h.093a.242.242 0 00.062-.008 1.887 1.887 0 00.588-.233 2.64 2.64 0 01.942-.233z"/><path class="m" d="M58.56 70.38a6.007 6.007 0 01-.465.734 6.549 6.549 0 01-1.637 1.549 7 7 0 01-2.4 1.036 5.851 5.851 0 01-1.554.055 3.5 3.5 0 00-.512 0 3.505 3.505 0 00-.512 0 5.867 5.867 0 01-1.556-.055 7 7 0 01-2.4-1.036 6.539 6.539 0 01-1.637-1.549 6.177 6.177 0 01-.465-.734c.35.188.713.362 1.085.52a15.638 15.638 0 001.587.574 5.762 5.762 0 002.686 1.344 5.76 5.76 0 003.858-.593c.381-.21.736-.462 1.1-.708a15.173 15.173 0 001.739-.617q.555-.237 1.083-.52z"/><path class="m" d="M57.764 69.584c.181 0 .43.016.679.009a12.883 12.883 0 01-1.344.678 15.168 15.168 0 01-4.7 1.1.425.425 0 00-.411.311.428.428 0 00-.412-.311 15.168 15.168 0 01-4.7-1.1 12.751 12.751 0 01-1.344-.678c.25.008.5-.005.679-.009a4.6 4.6 0 001.977-.45c.091-.043.181-.086.273-.126a2.134 2.134 0 011.22.332 8.387 8.387 0 001.448.826 2.171 2.171 0 001.462-.039c.9-.351 1.632-1.312 2.584-1.155.155.026.326.075.489.107l.116.056a4.6 4.6 0 001.984.449z"/><path class="n" d="M71.85 49.807a.371.371 0 00.076.056 5.988 5.988 0 00-1.163.95 9.373 9.373 0 01-1.593 1 16.16 16.16 0 01-.4.193 4.017 4.017 0 00.126-1.856 3.465 3.465 0 00-.51-1.362 7.277 7.277 0 00-.225-.324c.034.009.068.015.1.022a14.8 14.8 0 011.844.572q.451.173.887.376a1.538 1.538 0 00.726.232c.041.049.085.091.132.141zM60.401 48.773h.014a4.463 4.463 0 00-.5 1.79 5.761 5.761 0 00.063 1.846c-1.037-.5-2.029-1.12-3.015-1.7l.215-.368c.5-.239.939-.622 1.434-.872a12.534 12.534 0 011.789-.696zM46.822 50.34l.216.368c-.985.576-1.978 1.192-3.014 1.7a5.737 5.737 0 00.063-1.846 4.443 4.443 0 00-.5-1.79h.014a12.471 12.471 0 011.785.7c.498.245.94.628 1.436.868zM35.746 48.488c.034-.007.069-.014.1-.022-.084.112-.16.223-.226.324a3.464 3.464 0 00-.509 1.362 4.016 4.016 0 00.126 1.856 8.24 8.24 0 01-.4-.193 9.409 9.409 0 01-1.594-1 5.96 5.96 0 00-1.162-.95.387.387 0 00.076-.056l.135-.139a1.533 1.533 0 00.725-.232q.438-.2.888-.376a14.735 14.735 0 011.841-.574z"/><path class="o" d="M52.534 111.56a18.084 18.084 0 00-5.707-.554l-.211.014.2.066a9.67 9.67 0 012.181 1.028 9.983 9.983 0 012.33 2.051c.209.253.43.526.63.816l.034.05.035-.05c.205-.3.433-.578.63-.816a9.862 9.862 0 011.8-1.684l.043-.031-.041-.034a4.843 4.843 0 00-1.924-.856zM22.051 103.215a18.788 18.788 0 00-2.468.48c-1.769.517-3.04 1.929-4.293 3.452a19.579 19.579 0 00-2.871 4.626 21.111 21.111 0 00-1.084 3.67c-.1.441-.205.9-.32 1.345-.045.239-.091.5-.126.758-.047.36-.08.742-.1 1.137v.02l.014.012c.245.228.163.645-.027.956l-.045.072.084-.009c2.016-.22 4.072-.4 6.111-.544h.034v-.034a33.286 33.286 0 011.666-7.668 17.951 17.951 0 015.368-7.945c.3-.245.621-.482.945-.7l.154-.1-2.424.383c-.203.027-.41.058-.618.089zM56.423 87.404a44.33 44.33 0 01.078-3.734v-.016a23.919 23.919 0 01.36-3.269l.016-.076-.072.028c-.715.283-1.423.537-2.107.752a30.35 30.35 0 01-1.54.439 5.357 5.357 0 01-.844.159 1.661 1.661 0 01-.318 0h-.006a1.661 1.661 0 01-.318 0 5.347 5.347 0 01-.845-.159 28.426 28.426 0 01-3.087-.975l-.026-.009-.019.02a.458.458 0 01-.278.139c-.06.007-.122.014-.184.019h-.045l.008.044a27.312 27.312 0 01.287 2.887v.012c.048.73.076 1.493.084 2.269v.015l.011.012a29.428 29.428 0 009.58 7.092l.088.04-.031-.091a19.087 19.087 0 01-.792-5.598zM27.248 56.313l-.007-.036h-.038a1.828 1.828 0 01-1.294-.669.278.278 0 01-.045-.327 1.129 1.129 0 01.76-.544.893.893 0 01.324 0l.056.011-.001-.063q-.035-.276-.066-.554v-.028l-.028-.007a.206.206 0 01-.039-.016 1.322 1.322 0 00-1.262-.161l-.02.011v.022l-.047.466-.038.257a.223.223 0 01-.242.2.173.173 0 01-.165-.19v-.041-.08l.011-.178-.089.155a1.983 1.983 0 00-.263 1.144 1.458 1.458 0 001.063 1.156l.041.016.014-.041a.119.119 0 01.129-.083.126.126 0 01.112.121l.01.1.025.009a2.052 2.052 0 00.457.107.9.9 0 00.091 0c.256 0 .341-.124.453-.29l.1-.147a.124.124 0 01.026-.023l.023-.015-.01-.055a17.764 17.764 0 00-.041-.227z"/><path class="o" d="M26.506 55.359l-.048.032.045.035a1.478 1.478 0 00.39.224c.068.026.136.045.193.061l.062.018-.01-.064c-.023-.139-.043-.278-.064-.418l-.007-.043-.043.009a3.228 3.228 0 01-.136.024.931.931 0 00-.382.122zM77.113 55.654a1.493 1.493 0 00.389-.224l.044-.035-.046-.032a.929.929 0 00-.383-.122c-.053-.009-.107-.017-.159-.03l-.044-.011-.007.045c-.02.143-.042.286-.064.429l-.01.064.062-.017c.069-.023.144-.044.218-.067z"/><path class="o" d="M78.571 54.04c-.469-.386-.946-.2-1.435.045a.289.289 0 01-.062.022l-.028.007v.029c-.021.184-.042.367-.066.551l-.008.058.058-.012a.9.9 0 01.346 0 1.127 1.127 0 01.76.544.277.277 0 01-.044.327 1.828 1.828 0 01-1.316.668h-.037l-.061.322.029.014a.117.117 0 01.043.032c.04.052.072.1.1.147a.484.484 0 00.453.29.877.877 0 00.09 0 2.048 2.048 0 00.457-.107l.026-.009.008-.1a.127.127 0 01.113-.122.118.118 0 01.129.083l.013.041.041-.016a1.459 1.459 0 001.07-1.169 2.028 2.028 0 00-.679-1.645zM70.18 47.833a17.266 17.266 0 00-.895-.918l-.031-.03-.029.033a4.177 4.177 0 01-.859.745l-.083.053.1.022a15.132 15.132 0 011.462.416h.026a1.516 1.516 0 00.366-.189l.037-.026-.03-.036zM68.895 46.612l.025-.031-.03-.026a11.572 11.572 0 00-.547-.451c-.2-.155-.407-.3-.614-.428l-.04-.026-.02.044a3.964 3.964 0 01-1.259 1.643l-.087.064.108.011c.453.046.906.113 1.348.2h.017l.014-.009a4.879 4.879 0 001.085-.991zM67.252 45.405l-.035-.017a5.767 5.767 0 00-2.015-.609h-.042v.042a4.3 4.3 0 01-1.06 2.461l-.066.074h.1a15.864 15.864 0 011.669.016h.018l.013-.013a5.511 5.511 0 001.408-1.91zM64.691 44.748h-.046a5.638 5.638 0 00-.937.075 7.624 7.624 0 00-.759.165l-.03.007v.031a7.765 7.765 0 01-.063.7 3.005 3.005 0 01-.651 1.747l-.1.094.134-.023a15.93 15.93 0 011.323-.163h.017l.011-.012a4.6 4.6 0 001.1-2.573zM62.401 45.221v-.062l-.059.022a7.774 7.774 0 00-2.564 1.568l-.012.011v.016a3.718 3.718 0 01-.339 1.437l-.046.091.1-.034.354-.12.089-.03a14.948 14.948 0 011.482-.412l.13-.033-.131-.049s-.011-.006-.01-.012 0-.009.014-.011c.274-.033.526-.422.622-.622a4.321 4.321 0 00.339-1.358 7.36 7.36 0 00.031-.402zM58.077 48.792l-.095.143.149-.084a7.563 7.563 0 011.024-.463l.025-.009v-.026c.026-.237.066-.478.1-.71l.058-.36.02-.132-.091.1a11.336 11.336 0 00-1.19 1.541zM44.705 47.219l-.091-.1.02.132a16 16 0 00.061.372c.039.235.079.478.1.718v.026l.024.009a7.61 7.61 0 011.048.473l.149.084-.094-.143a11.238 11.238 0 00-1.217-1.571zM44.214 46.756v-.017l-.012-.011a7.763 7.763 0 00-2.56-1.556l-.058-.021v.062c.005.133.016.271.032.409a4.314 4.314 0 00.339 1.358c.11.233.365.591.621.622.013 0 .014.009.014.011s0 .007-.009.011l-.124.05.131.03a15.167 15.167 0 011.5.416l.089.03c.1.034.211.071.328.113l.1.034-.045-.091a3.764 3.764 0 01-.346-1.45zM40.39 47.364l.011.013h.017c.435.034.878.087 1.318.16l.133.022-.1-.093a3.009 3.009 0 01-.646-1.743 7.335 7.335 0 01-.062-.7v-.031l-.03-.008a7.478 7.478 0 00-.737-.159 5.591 5.591 0 00-.96-.074h-.046l.005.045a4.592 4.592 0 001.097 2.568zM36.734 45.411l.015.036a5.558 5.558 0 001.4 1.9l.013.012h.018a15.8 15.8 0 011.668-.018h.1l-.066-.074a4.31 4.31 0 01-1.059-2.457v-.043l-.043.005a5.789 5.789 0 00-2.012.616zM36.195 47.618h.016c.445-.086.9-.153 1.346-.2l.109-.011-.088-.064a3.956 3.956 0 01-1.26-1.634l-.019-.043-.041.026c-.2.122-.4.263-.6.416-.179.137-.362.289-.56.462l-.03.026.025.031a4.826 4.826 0 001.083.984zM34.767 46.929l-.028-.032-.032.029c-.291.278-.579.574-.884.91l-.066.074-.032.035.039.026a1.472 1.472 0 00.363.184h.025c.468-.159.958-.3 1.456-.414l.1-.022-.083-.053a4.162 4.162 0 01-.858-.737zM50.271 64.431l.1.026-.055-.089a.09.09 0 01-.008-.012.364.364 0 01.045-.339.5.5 0 01.384-.218l.12-.006h.012l.012-.005.01-.007a1.829 1.829 0 01.364-.208.71.71 0 01.632 0 .486.486 0 01.2.62.35.35 0 01-.1.151l-.069.054-.075.072h1.247l-.021-.056q-.013-.036-.024-.075a.345.345 0 01.142-.407.44.44 0 01.514.03c.376.313 1.128-.02 1.512-.267.6-.385.446-1.11.245-1.7-.124-.361-.283-.716-.436-1.06-.089-.2-.182-.406-.266-.612a30.391 30.391 0 01-.687-1.839 31.34 31.34 0 01-.956-3.605l-.082.009c.007.651-.016 1.258-.066 1.857a11.91 11.91 0 01-2.742 6.976c-.128.142-.287.353-.192.547a.337.337 0 00.24.163zM72.442 35.106l-.012-.023h-.026a2.074 2.074 0 01-.783-.182c-.079-.029-.161-.06-.247-.089a2.65 2.65 0 00-1.2-.128 3.25 3.25 0 00-2.149 1.615 4.716 4.716 0 00-.236.431l-.03.062h.069a3.34 3.34 0 01.5.024 7.656 7.656 0 014.647 2.627 18.467 18.467 0 012.332 3.394l.149.266-.073-.3a34.866 34.866 0 00-2.941-7.697zM60.397 33.586l.138.119 1 .864.1.08-.03-.124c-.13-.553-.264-1.125-.451-1.672a5.665 5.665 0 00-1.36-2.2c-.572-.571-1.428-1.323-2.259-1.224-.777.09-1.25.916-1.594 1.518l-.023.04c-.3.521-.613 1.083-.889 1.661l-.084.178.149-.13a.86.86 0 01.127-.091 2.038 2.038 0 01.784-.213 5.734 5.734 0 012.78.1 5.652 5.652 0 011.612 1.094z"/><path class="o" d="M34.716 63.237a39.658 39.658 0 01-2.189-4.568 24.455 24.455 0 01-.911-12.919V45.729a3.429 3.429 0 01.014-2.49.021.021 0 01.028-.01c.015 0 .031.014.03.029a7.361 7.361 0 00.051 1.46l.036.244.047-.242c.011-.055.022-.11.035-.164a49.48 49.48 0 015.191-13.02l.063-.117-.422.216c-1.089.558-2.214 1.136-3.344 1.654h-.009l-.015.02-.01.013a.043.043 0 01-.05.014l-.015-.005-.015.006c-.405.184-.769.343-1.112.485l-.036.015.013.037a.3.3 0 01-.03.255 33.666 33.666 0 00-4.215 13.035 31.057 31.057 0 004.272 19.25 28.183 28.183 0 002.005 2.871 32.59 32.59 0 008.221 7.365l.272.167.171.1-.116-.163a123.566 123.566 0 01-7.96-13.517z"/><path class="p" d="M93.194 118.703v-.02a12.428 12.428 0 00-.228-1.896c-.113-.443-.217-.9-.317-1.335a21.113 21.113 0 00-1.086-3.678 19.564 19.564 0 00-2.869-4.626c-1.253-1.523-2.524-2.935-4.294-3.452a18.645 18.645 0 00-2.472-.484c-.207-.031-.414-.062-.62-.095l-4.6-.726.005.053c.072.745.078 1.51.084 2.25v.08c.007.944-.029 1.928-.107 2.925a27.656 27.656 0 01-.389 2.967c-.09.48-.187.935-.3 1.387a4.426 4.426 0 01-.391 1l-.018.036.037.019a8.2 8.2 0 012.609 2.108 3.268 3.268 0 01.727 3.117.244.244 0 01-.1.117l-.021.012v.188h.04a26.857 26.857 0 013.1.3 88.46 88.46 0 012.2.364 33.669 33.669 0 005.7.662 12.058 12.058 0 003.208-.4l.056-.015-.031-.048a.68.68 0 01.061-.784zM72.202 102.373a7.29 7.29 0 00-.047-.231 3.038 3.038 0 01-.074-.449v-.033l-1.112-.176a41.56 41.56 0 01-5.664-1.162 14.887 14.887 0 01-2.952-1.232l-.043-.024-.016.047a6.326 6.326 0 01-1.161 1.832 8.962 8.962 0 01-2.042 1.8 8.567 8.567 0 01-2.489 1.091 8.044 8.044 0 01-.823.151 3.43 3.43 0 00-2.012.738.057.057 0 01-.065.017.076.076 0 01-.046-.069.07.07 0 01.018-.047 1.981 1.981 0 01.971-.668 6.33 6.33 0 01.956-.213c.128-.022.255-.043.382-.068a8.333 8.333 0 002.588-.976 8.873 8.873 0 002.2-1.785 9.023 9.023 0 00.944-1.36c.116-.191.235-.387.358-.578l.024-.036-.037-.023a12.347 12.347 0 01-1.66-1.175 10.632 10.632 0 01-3.017-4.265c-.014-.036-.028-.072-.04-.107l-.008-.02a8.006 8.006 0 01-.122-.346l-.005-.017-.017-.008a29.337 29.337 0 01-9.553-7.072l-.074-.083v.111c.005.469 0 .962-.006 1.466a17.828 17.828 0 01-.958 6.077 10.659 10.659 0 01-3.013 4.261 12.326 12.326 0 01-1.032.779l-.034.022.023.035a13.239 13.239 0 003.526 3.678 12.212 12.212 0 002.338 1.247 9.019 9.019 0 001.009.314 8.681 8.681 0 011.007.313l.059.024v-.062c0-.189-.007-.383-.006-.576v-.1a1.894 1.894 0 01.02-.367v-.041l-.048-.028-.04-.022a3.2 3.2 0 01-1.533-1.408.214.214 0 01.072-.245.27.27 0 01.3-.039 2.3 2.3 0 01.42.351 3.412 3.412 0 00.295.263 4.267 4.267 0 00.8.493 4.745 4.745 0 00.958.326c.072.016.142.029.211.041l.066.012h.008l.083-.015c.06-.011.122-.022.184-.036a4.738 4.738 0 00.958-.326 4.245 4.245 0 00.8-.493 3.422 3.422 0 00.288-.262 2.313 2.313 0 01.419-.351.271.271 0 01.3.039.215.215 0 01.071.245 3.194 3.194 0 01-1.533 1.408l-.088.05v.04a1.878 1.878 0 01.02.376v1.297c0 .179.007.364.014.562 0 .053 0 .1.007.153 0 .077.009.149.007.22v.021l.03.009c.128.038.246.079.353.122.495.2 1.355.631 1.554 1.355a.3.3 0 01-.114.314.282.282 0 01-.322.022 4.818 4.818 0 01-.533-.393 3.041 3.041 0 00-.9-.572 2.836 2.836 0 00-.838-.17 3.324 3.324 0 00-.335.009 2.289 2.289 0 01-.424 0h-.01a2.282 2.282 0 01-.424 0 3.319 3.319 0 00-.335-.009 2.827 2.827 0 00-.839.17 3.055 3.055 0 00-.9.572 4.65 4.65 0 01-.531.393.282.282 0 01-.322-.022.3.3 0 01-.114-.314c.2-.724 1.058-1.16 1.553-1.355.108-.043.227-.084.353-.122l.03-.009v-.032c0-.074 0-.151.007-.233 0-.045.005-.091.007-.139.011-.284.016-.581.016-.881v-.053h-.049a6.208 6.208 0 01-2.213-.62l-.123-.042a12.135 12.135 0 01-2.275-1.258 11.117 11.117 0 01-3.432-3.742l-.022-.039-.037.024a14.3 14.3 0 01-3.667 1.662 41.6 41.6 0 01-5.663 1.153l-8.1 1.282-.017.007c-.326.222-.645.459-.95.706a18.037 18.037 0 00-5.394 7.982 33.391 33.391 0 00-1.67 7.687l-.006.05h.05c.763-.053 1.532-.1 2.285-.142 1.957-.107 3.949-.18 6.089-.224h.044v-.044l-.025-.253v-.037h-.05a.28.28 0 01-.261-.16 3.267 3.267 0 01.727-3.117 8.358 8.358 0 012.819-2.218 16.83 16.83 0 013.205-1.235 25.757 25.757 0 013.278-.745 57.867 57.867 0 017.129-.562 14.071 14.071 0 014.643.63h.017a18 18 0 015.68.552 4.773 4.773 0 011.885.839l.026.021.026-.019c.168-.124.347-.247.533-.367a12.11 12.11 0 016.825-1.658 57.878 57.878 0 017.129.562 22.512 22.512 0 012.662.577l.056.015v-.058a1.539 1.539 0 01.1-.531c.02-.066.041-.135.06-.207.125-.46.234-.935.325-1.41a19.528 19.528 0 00.32-2.753 20.41 20.41 0 00-.061-2.817 17.163 17.163 0 00-.194-1.459z"/><path class="p" d="M52.896 103.363l.009-.069-.066.026a2.3 2.3 0 01-.829.2h-.037a2.3 2.3 0 01-.829-.2l-.065-.026.008.069c.032.278.051.573.061.956.009.326.011.649.007.958v.271h.045a1.756 1.756 0 01.778.088l.016.005.015-.005a1.753 1.753 0 01.778-.088h.045v-.118-.153c0-.312 0-.635.007-.958.004-.263.016-.609.057-.956zM67.479 42.172l.014-.053.051.025a.042.042 0 01.009.008 3 3 0 01.4 2.692l-.008.03.027.016a9.441 9.441 0 011.347.975l.039.034.024-.047c.026-.05.05-.1.072-.15a6.449 6.449 0 00.42-2.8.027.027 0 01.022-.028.033.033 0 01.037.013 3.229 3.229 0 01-.193 3.318l-.016.029.024.023c.381.356.753.738 1.106 1.135l.034.028.045-.045a4.422 4.422 0 00.874-1.209 5.783 5.783 0 00.482-2.9c0-.014.014-.025.029-.029s.024 0 .029.01a3.774 3.774 0 01-.443 3.445 4.671 4.671 0 01-.777.956l-.029.027.026.03c.235.278.469.575.692.881a4.32 4.32 0 01.5.927.237.237 0 01-.08.3l-.03.022.019.033a.041.041 0 01.008.02c.115.512-.5 1.063-.874 1.393l-.012.011a7.975 7.975 0 01-1.241.9l-.039.024.026.037.07.1a1.034 1.034 0 00.061.086 3.31 3.31 0 00.41.4c.034.028.069.053.105.079a.659.659 0 01.245.249.029.029 0 010 .024h-.007c-.285.066-.634-.278-.783-.424a2.633 2.633 0 01-.338-.393l-.02-.033-.034.019-.171.094a12.672 12.672 0 01-1.862.774l-.053.018.031.046c.041.058.078.12.109.175l.024.039a2.335 2.335 0 01.287.788.118.118 0 01-.083.126.071.071 0 01-.092-.043 7.63 7.63 0 00-.378-.716c-.026-.043-.057-.086-.089-.132s-.074-.1-.1-.155l-.02-.02-.032.009c-.5.151-1.024.282-1.6.4l-.059.012.032.051a.812.812 0 01.087.242 1.709 1.709 0 01.066.685.057.057 0 01-.045.05.11.11 0 01-.105-.038 1.744 1.744 0 01-.264-.888l.011-.059-.059.011a10.2 10.2 0 01-2.39.2h-.048l.005.048v.068a1.263 1.263 0 01-.139.656.084.084 0 01-.12.043.118.118 0 01-.06-.157 1.041 1.041 0 00.086-.562.521.521 0 00-.018-.086l-.008-.027h-.029a6.412 6.412 0 01-1.9-.462c-.1-.042-.2-.085-.3-.131l-.06-.028v.066a.487.487 0 01-.039.167c-.012.037-.026.075-.036.117a1.344 1.344 0 00-.015.554.148.148 0 01-.121.159.107.107 0 01-.135-.091 1.751 1.751 0 01-.011-.621v-.016a.633.633 0 01.147-.381l.05-.041-.059-.028c-.447-.214-.9-.462-1.4-.758l-.049-.03-.013.056a.064.064 0 01-.006.019 5.01 5.01 0 01-.056.147c-.043.113-.088.229-.121.348l-.027.1a1.143 1.143 0 01-.151.385.065.065 0 01-.041.027.029.029 0 01-.02 0 .575.575 0 01-.216-.455.967.967 0 01.322-.725.108.108 0 01.024-.017l.062-.034-.061-.037c-.617-.385-1.217-.8-1.773-1.185l-.028-.02-.024.024a.181.181 0 01-.23.01.215.215 0 01-.1-.247 11.555 11.555 0 012.4-3.946c.21-.231.436-.457.672-.672l.015-.012v-.02a10.343 10.343 0 00-.144-1.236c-.035-.222-.07-.45-.1-.676a.047.047 0 01.035-.055.083.083 0 01.1.026 3.385 3.385 0 01.462 1.572l.006.08.062-.05a8.971 8.971 0 012.525-1.466l.029-.014v-.031-.044c-.012-.149-.032-.3-.051-.445a4.817 4.817 0 01-.059-.872.1.1 0 01.068-.081.054.054 0 01.064.019 2.5 2.5 0 01.476 1.246l.007.047.047-.013a6.683 6.683 0 011.739-.259h.042v-.042a8.028 8.028 0 00-.124-1.168.027.027 0 01.015-.032.024.024 0 01.032.011 2.877 2.877 0 01.485 1.209l.006.033h.033a6.017 6.017 0 01.928.133 6.2 6.2 0 011.341.472l.049.024.011-.053a4.91 4.91 0 00.082-.965c0-.216-.026-.435-.049-.646a5.769 5.769 0 01-.047-.776.045.045 0 01-.007-.01zM51.991 68.424l.026-.019a2.694 2.694 0 01.812-.381 4.009 4.009 0 012.272.009 6.318 6.318 0 01.963.389 4.942 4.942 0 001.3.465 6.581 6.581 0 001.05.067H58.692a.888.888 0 01.575.126l.025.018.024-.018c.087-.062.17-.124.254-.187a3.793 3.793 0 011.3-.721.1.1 0 01.081.02s.012.012.011.02c-.1.639-.723 1.06-1.32 1.466-.043.03-.089.059-.133.088l-.014.01-.007.03c0 .009 0 .02-.007.031a4.3 4.3 0 01-.188.53 5.294 5.294 0 01-.531.966 7.078 7.078 0 01-1.819 1.772 8.1 8.1 0 01-2.483 1.156 4.962 4.962 0 01-1.566.163l-.127-.007a5.379 5.379 0 01-.758-.078h-.018a5.377 5.377 0 01-.76.078l-.127.007a4.967 4.967 0 01-1.566-.163 8.1 8.1 0 01-2.484-1.156 7.062 7.062 0 01-1.829-1.768 5.294 5.294 0 01-.531-.966 4.5 4.5 0 01-.189-.529.382.382 0 01-.009-.043v-.018l-.016-.011-.133-.088c-.6-.406-1.216-.826-1.32-1.466 0-.008.009-.017.011-.02a.1.1 0 01.082-.02 3.8 3.8 0 011.3.72c.084.063.168.126.254.188l.025.018.024-.018a.888.888 0 01.575-.126H45.577a6.579 6.579 0 001.049-.067 4.929 4.929 0 001.3-.465 6.325 6.325 0 01.964-.389 4.007 4.007 0 012.271-.009 2.719 2.719 0 01.812.381zm1.134-13.553l-.055-.268a29.716 29.716 0 01-.545-3.833 24.016 24.016 0 01-.07-1.657v-.381-.258c-.011-.4-.026-.937.261-1.149.016-.012.043 0 .058.012.2.163.2.478.2.755v.187q.029.6.062 1.21c.044.833.123 1.7.235 2.567a30.314 30.314 0 002.554 8.798c.4.885 1.083 2.365.11 3.334a2.914 2.914 0 01-2.223.782.828.828 0 01-.63-.564l-.01-.028h-1.114v-.007l-.042.03-.014.011-.009.007a5.043 5.043 0 01-.195.131 2.308 2.308 0 01-.435.23.687.687 0 01-.939-.4l-.008-.02-.02-.005a.254.254 0 01-.179-.128c-.073-.147.057-.32.178-.454a11.988 11.988 0 002.763-7.025c.048-.606.067-1.215.067-1.877zM34.342 39.276h.01l.009-.006a9.893 9.893 0 011.7-.892c.142-.063.283-.126.418-.188a19.528 19.528 0 013.318-1.256 6.908 6.908 0 014.92.4 4.414 4.414 0 011.678 1.52 1.28 1.28 0 01.159 1.133.561.561 0 01-.518.278 2.391 2.391 0 01-1.136-.411l-.057-.031c-.151-.085-.3-.178-.447-.267-.222-.135-.45-.275-.686-.395a3.164 3.164 0 00-1.46-.319 9.475 9.475 0 00-1.42.144c-.149.023-.3.046-.448.066-.684.094-1.379.2-2.052.3-1.46.219-2.97.446-4.461.584h-.01l-.077.047a.061.061 0 01-.086-.014l-.014-.018-.082.008a.258.258 0 01-.268-.25.25.25 0 01.193-.3c.271-.049.546-.093.817-.133zm.3 24.007a123.579 123.579 0 007.962 13.519l.012.011c.145.089.292.178.439.263a30.542 30.542 0 004.261 2.1c.868.344 1.751.649 2.624.907.276.082.558.155.831.226.2.052.4.1.6.159a4.408 4.408 0 01.6.216l.017.008.017-.008a4 4 0 01.6-.216c.2-.055.4-.107.6-.159.273-.071.555-.144.831-.226a31.099 31.099 0 002.624-.907 31.139 31.139 0 004.972-2.526 32.626 32.626 0 008.222-7.365 28.11 28.11 0 001.787-2.511 30.963 30.963 0 004.492-19.6 31.53 31.53 0 00-.758-4.364v-.011a18.557 18.557 0 00-2.342-3.409 7.737 7.737 0 00-4.7-2.654 3.4 3.4 0 00-.508-.025H67.8l-.011.023a5.616 5.616 0 00-.193 4.388l.005.013.011.007a.479.479 0 01.237.424.629.629 0 01-.306.51l-.057.032-.058.018a.541.541 0 01-.414-.05 10.527 10.527 0 01-3.893-3.642l-.015-.024-.138.025a4.992 4.992 0 00-.9.223c-.247.094-.5.2-.735.294-.218.089-.444.181-.667.267a7.03 7.03 0 01-1.475.427h-.022a1.594 1.594 0 01-1.191-.114.518.518 0 01-.211-.471c.055-.535.874-1.173 1.3-1.4a5.279 5.279 0 013.206-.685l.112.049-.041-.1a10.707 10.707 0 01-.418-1.177c-.114-.392-.211-.8-.3-1.186l-.013-.054-.01-.008-1-.864-.138-.119a5.723 5.723 0 00-1.637-1.111 5.809 5.809 0 00-2.82-.1 2.091 2.091 0 00-.816.223 1.1 1.1 0 00-.139.1l-.011.014c-.172.36-.314.694-.433 1.022-.532 1.459-.9 3.525.37 5.079a.478.478 0 01-.023.616.352.352 0 01-.483.052 15.53 15.53 0 01-3.953-3.7 15.8 15.8 0 01-2.781-5.972l-.015-.069-.053.047a.5.5 0 01-.4.126 1.8 1.8 0 01-.585-.246c-.093-.052-.189-.106-.287-.15a5.755 5.755 0 00-.956-.328 6.05 6.05 0 00-1.918-.141 11.388 11.388 0 00-3.92 1.2c-.917.434-1.833.9-2.618 1.3l-.012.005-.006.011a49.573 49.573 0 00-5.2 13.041l-.035.167v.014a4.761 4.761 0 00.431 1.444 4.379 4.379 0 00.874 1.209l.01.009.02.02.031.034.03-.034c.355-.4.726-.781 1.1-1.133l.024-.023-.017-.029a3.231 3.231 0 01-.2-3.331.034.034 0 01.038-.013.027.027 0 01.022.028 6.443 6.443 0 00.42 2.8c.026.054.051.109.079.163l.024.047.039-.034a9.367 9.367 0 011.344-.976l.026-.016-.007-.03a3 3 0 01.4-2.7.041.041 0 01.046-.01.046.046 0 01.03.042 5.652 5.652 0 01-.047.775c-.023.211-.046.43-.049.646a5 5 0 00.082.976l.01.054.049-.024a6.2 6.2 0 011.362-.483 6.238 6.238 0 01.906-.132h.034l.005-.032a2.853 2.853 0 01.484-1.211.026.026 0 01.032-.011.026.026 0 01.015.032 8.172 8.172 0 00-.124 1.168v.042h.043a6.689 6.689 0 011.741.252l.045.012.007-.047a2.5 2.5 0 01.475-1.24.053.053 0 01.064-.018.1.1 0 01.068.08 4.9 4.9 0 01-.059.874 8.815 8.815 0 00-.05.443v.07l.027.01a8.934 8.934 0 012.527 1.458l.062.049.007-.079a3.356 3.356 0 01.458-1.556.084.084 0 01.1-.026.048.048 0 01.036.055c-.028.227-.063.457-.1.678a10.544 10.544 0 00-.143 1.214v.02l.014.013c.237.214.471.447.695.691a11.554 11.554 0 012.4 3.946.215.215 0 01-.1.247.181.181 0 01-.23-.01l-.025-.024-.028.02c-.564.393-1.17.81-1.783 1.193l-.057.035.057.035.014.011a.964.964 0 01.321.726.574.574 0 01-.216.454.027.027 0 01-.02 0 .063.063 0 01-.04-.027 1.135 1.135 0 01-.152-.389c-.008-.033-.016-.066-.026-.1a3.592 3.592 0 00-.122-.349c-.019-.049-.037-.1-.058-.152l-.011-.059-.051.031c-.5.3-.953.544-1.393.753l-.056.027.046.041a.669.669 0 01.141.381v.012a1.763 1.763 0 01-.011.62.108.108 0 01-.135.091.148.148 0 01-.125-.172 1.356 1.356 0 00-.015-.554 1.137 1.137 0 00-.037-.118.528.528 0 01-.037-.152v-.062l-.057.026c-.092.041-.184.082-.277.121a6.467 6.467 0 01-1.924.464h-.028l-.008.028a.54.54 0 00-.018.084 1.028 1.028 0 00.087.562.118.118 0 01-.061.157.084.084 0 01-.12-.043 1.275 1.275 0 01-.139-.656v-.009-.059l.005-.047h-.048a10.251 10.251 0 01-2.39-.2l-.06-.011.012.06a1.731 1.731 0 01-.264.891.108.108 0 01-.1.038.057.057 0 01-.045-.05 1.709 1.709 0 01.066-.685.8.8 0 01.09-.245l.034-.051-.06-.012c-.562-.116-1.1-.252-1.6-.4l-.032-.01-.016.029a1.822 1.822 0 01-.107.163 1.803 1.803 0 00-.089.132 8.247 8.247 0 00-.378.715.07.07 0 01-.092.044.117.117 0 01-.082-.125 2.267 2.267 0 01.287-.789l.022-.039c.033-.057.07-.122.113-.182l.033-.046-.054-.017a12.738 12.738 0 01-1.85-.776c-.065-.034-.13-.068-.195-.1l-.035-.018-.02.033a2.532 2.532 0 01-.344.4c-.149.147-.5.49-.783.424a.011.011 0 01-.007-.005.033.033 0 010-.024.647.647 0 01.245-.249c.036-.026.071-.051.1-.078a3.235 3.235 0 00.412-.4c.014-.018.036-.049.061-.087s.048-.07.076-.108l.027-.037-.039-.023a7.924 7.924 0 01-1.225-.891l-.012-.011c-.37-.33-.988-.881-.874-1.394a.081.081 0 01.009-.02l.019-.032-.031-.022a.239.239 0 01-.08-.3 4.332 4.332 0 01.5-.926c.215-.3.445-.589.682-.869l.026-.03-.029-.027a4.7 4.7 0 01-.791-.969 4.864 4.864 0 01-.456-.954l-.052-.151-.028.157a24.545 24.545 0 00.914 12.963 39.751 39.751 0 002.201 4.577z"/><path d="M85.455 88.744c-.1.282-.172.564-.228.783a9.011 9.011 0 00-.238 2.634 11.506 11.506 0 00.414 2.554c.083.294.182.583.291.868a14.07 14.07 0 00-1.8.122 10.68 10.68 0 00-.535.094 9.657 9.657 0 00.1-1.438 12.168 12.168 0 00-.325-3.122 10 10 0 00-.57-1.538c-.071-.17-.141-.346-.216-.52a9.252 9.252 0 003.107-.437zm-3.671 6.977a.39.39 0 01-.057.1.3.3 0 00-.285.051.59.59 0 00-.194.522c-.553.2-1.081.459-1.627.695a6.574 6.574 0 00-2.049 1.166.449.449 0 00.434.745c.665-.151 1.294-.508 1.946-.715a11.4 11.4 0 011.9-.366 13.477 13.477 0 012.009-.082 16.135 16.135 0 011.937.083c.632.082 1.261.255 1.882.4.277.064.553.135.824.222.129.042.255.089.382.134l.12.047c.04.018.082.036.121.056a5.794 5.794 0 01.761.427c.032.02.194.15.206.155l.226.2c.074.066.138.138.2.209a2.058 2.058 0 00.143.191 2.371 2.371 0 001.093.819 1.083 1.083 0 001.228-.5c.762-1.672-.946-3.1-2.314-3.749a9.8 9.8 0 00-3.038-.872c-.072-.147-.152-.291-.215-.433a9.2 9.2 0 01-.389-1.044 9.475 9.475 0 01-.4-2.1 13.636 13.636 0 01.03-2.2c.033-.357.07-.712.114-1.068a5.814 5.814 0 00.07-.612 12.9 12.9 0 002.3-1.4c1.21-.92 2.507-2.2 2.645-3.8a.5.5 0 00-.628-.478c-1.391.433-2.491 1.639-3.607 2.449a10.685 10.685 0 01-3.931 1.84c-2.4.552-5.561.21-7.186-1.96-.363-.486-1.186-.043-.836.489a8.712 8.712 0 005.261 3.655 11.863 11.863 0 01.629 1.686 16.978 16.978 0 01.385 2.054 11.363 11.363 0 01.027 2.123 3.042 3.042 0 01-.117.861zM58.094 71.114a6.549 6.549 0 01-1.637 1.549 7 7 0 01-2.4 1.036 5.851 5.851 0 01-1.554.055 3.5 3.5 0 00-.512 0 3.505 3.505 0 00-.512 0 5.867 5.867 0 01-1.556-.055 7 7 0 01-2.4-1.036 6.539 6.539 0 01-1.637-1.549 6.177 6.177 0 01-.465-.734c.35.188.713.362 1.085.52a15.474 15.474 0 001.587.574 13.285 13.285 0 003.484.578c.247.006.382-.111.412-.25.03.139.164.256.411.25a13.223 13.223 0 003.333-.534 15.306 15.306 0 001.739-.618q.557-.237 1.085-.52a6.008 6.008 0 01-.463.734zm-11.876-1.53a4.6 4.6 0 001.977-.45c.091-.043.181-.086.273-.126a3.751 3.751 0 011.883-.381 2.647 2.647 0 01.939.234 1.918 1.918 0 00.592.233.255.255 0 00.063.008h.093a.242.242 0 00.062-.008 1.881 1.881 0 00.593-.233 2.64 2.64 0 01.938-.234 3.93 3.93 0 012.041.451l.116.056a4.6 4.6 0 001.977.45c.181 0 .43.016.679.009a12.883 12.883 0 01-1.344.678 15.168 15.168 0 01-4.7 1.1.425.425 0 00-.411.311.428.428 0 00-.412-.311 15.176 15.176 0 01-4.7-1.1 12.806 12.806 0 01-1.343-.678c.254.007.502-.006.683-.009zm14.634-1.447a4.785 4.785 0 00-1.563.914 1 1 0 00-.638-.135 8.528 8.528 0 01-1.283-.07 20.446 20.446 0 01-2.256-.853 4.023 4.023 0 00-2.3-.009 2.836 2.836 0 00-.825.387 2.817 2.817 0 00-.824-.387 4.021 4.021 0 00-2.3.009 20.594 20.594 0 01-2.256.853 8.538 8.538 0 01-1.284.07.994.994 0 00-.637.135 4.8 4.8 0 00-1.563-.914c-.064-.019-.154.03-.145.085.106.657.72 1.075 1.338 1.495l.134.088c0 .015.006.03.01.047a4.6 4.6 0 00.191.535 5.369 5.369 0 00.535.974 7.079 7.079 0 001.828 1.783 8.2 8.2 0 002.505 1.164 5.066 5.066 0 001.58.164 6.5 6.5 0 00.893-.087 6.475 6.475 0 00.891.087 5.06 5.06 0 001.579-.164 8.191 8.191 0 002.5-1.162 7.065 7.065 0 001.829-1.783 5.37 5.37 0 00.535-.974 4.261 4.261 0 00.19-.535.475.475 0 00.011-.047c.045-.029.09-.058.133-.088.618-.42 1.231-.838 1.338-1.495.004-.057-.083-.106-.147-.087zM52.411 49.112c0 .554.032 1.108.07 1.66a29.634 29.634 0 00.542 3.839c.018.089.036.178.056.268a31.354 31.354 0 00.957 3.611q.315.93.688 1.841c.229.557.507 1.1.7 1.67s.359 1.275-.228 1.652c-.337.216-1.1.575-1.464.27a.437.437 0 00-.723.421.988.988 0 00.025.077c.422 1.194 2.3.415 2.922-.2.958-.954.372-2.348-.1-3.38a30.349 30.349 0 01-2.543-8.786 34.387 34.387 0 01-.234-2.564q-.033-.606-.062-1.211c-.015-.31.043-.756-.222-.971a.092.092 0 00-.109-.014c-.373.274-.266 1.025-.274 1.439a23.72 23.72 0 00-.001.378zM50.28 64.39a.729.729 0 00.992.429 2.378 2.378 0 00.443-.235l.2-.132a.041.041 0 01.009-.008l.034-.026.064-.049a.4.4 0 00.111-.172.528.528 0 00-.219-.668.741.741 0 00-.668 0 1.8 1.8 0 00-.372.213l-.014.007c-.039 0-.078.005-.118.006a.488.488 0 00-.468.614.079.079 0 00.006.021zM36.071 38.77c.881-.388 1.766-.781 2.675-1.1a7.588 7.588 0 014.939-.271 4.592 4.592 0 011.841 1.114 2.342 2.342 0 01.622.9c.19.69-.87.106-1.121-.04a6.422 6.422 0 00-2.125-.993 9.912 9.912 0 00-2.668.165c-1.6.189-3.217.333-4.822.539.214-.109.433-.215.659-.314zM33.605 40c.02 0 .039 0 .059-.005a.1.1 0 00.141.024l.069-.043c2.179-.2 4.349-.585 6.514-.884a5.394 5.394 0 013.3.106c.389.2.751.446 1.131.66a2.546 2.546 0 001.214.447c.841-.03.7-.979.392-1.474a4.467 4.467 0 00-1.691-1.532 6.889 6.889 0 00-4.949-.406 19.392 19.392 0 00-3.325 1.259 13.091 13.091 0 00-2.129 1.084q-.411.062-.818.13c-.351.059-.272.665.092.634zM42.933 52.879a7.886 7.886 0 01-4.293.176 17 17 0 01-2.272-.6 4.785 4.785 0 01-.47-1.049 3.23 3.23 0 01-.06-1.2 3.757 3.757 0 01.384-1.191 4.323 4.323 0 01.577-.738c.142-.024.285-.043.429-.061a1.289 1.289 0 00-.131.143 2.056 2.056 0 00-.216 2.006 2.918 2.918 0 003.967 1.386 2.194 2.194 0 001.34-1.88 2.815 2.815 0 00-.375-1.546c.14.026.28.052.419.082a3.041 3.041 0 011.061 2.141 6.122 6.122 0 01.019 1.308 3.476 3.476 0 01-.36.837.336.336 0 00-.019.186zm-7.693-.871a8.24 8.24 0 01-.4-.193 9.453 9.453 0 01-1.594-1 5.96 5.96 0 00-1.162-.95.413.413 0 00.076-.055l.135-.139a1.533 1.533 0 00.725-.232q.438-.2.888-.376a14.736 14.736 0 011.844-.572c.034-.007.069-.014.1-.022-.084.112-.16.223-.226.324a3.464 3.464 0 00-.509 1.362 4.008 4.008 0 00.123 1.853zm-1.7-3.782c.036.024.074.047.114.069-.074.028-.16.057-.249.088.035-.053.085-.105.135-.157zm.32-.364c.282-.31.574-.614.879-.9a4.2 4.2 0 00.864.745 15.29 15.29 0 00-1.46.416 1.414 1.414 0 01-.352-.179c.019-.031.043-.056.066-.082zm1.831-1.725a7.158 7.158 0 01.593-.414 3.985 3.985 0 001.273 1.65q-.679.07-1.35.2a4.808 4.808 0 01-1.074-.976c.178-.158.363-.312.555-.46zm3.1-1.314a4.357 4.357 0 001.07 2.481 15.75 15.75 0 00-1.672.018 5.556 5.556 0 01-1.395-1.888 5.73 5.73 0 011.991-.611zm1.506.041q.376.061.733.157c.009.247.032.486.062.71a3.066 3.066 0 00.658 1.766q-.657-.108-1.322-.16a4.538 4.538 0 01-1.088-2.547 5.5 5.5 0 01.95.074zm3.882 1.894a3.864 3.864 0 00.339 1.464 27.42 27.42 0 00-.417-.142 15.064 15.064 0 00-1.5-.417.053.053 0 00-.016-.1c-.24-.029-.487-.383-.589-.6a4.35 4.35 0 01-.335-1.345 6.058 6.058 0 01-.032-.406 7.723 7.723 0 012.544 1.546zm1.216 2.71c.5.249.938.632 1.433.872l.216.368c-.985.576-1.978 1.192-3.014 1.7a5.732 5.732 0 00.063-1.846 4.443 4.443 0 00-.5-1.79h.014a12.472 12.472 0 011.782.696zm.5-.653a7.7 7.7 0 00-1.054-.476c-.039-.365-.11-.728-.165-1.093a11.369 11.369 0 011.218 1.57zm-2.413 4.64a1.579 1.579 0 00.078.285 1.32 1.32 0 01.014.537c-.039.223.3.32.342.095a1.806 1.806 0 00.011-.635.728.728 0 00-.156-.416c.475-.226.94-.482 1.4-.755v.012c.06.164.13.324.176.492a1.5 1.5 0 00.184.5.087.087 0 00.119.031.844.844 0 00-.1-1.244l-.024-.009a42.632 42.632 0 001.785-1.195c.168.164.478-.049.4-.281a11.555 11.555 0 00-2.406-3.961 9.557 9.557 0 00-.7-.694c.025-.635.164-1.256.24-1.889.014-.116-.153-.141-.207-.057a3.442 3.442 0 00-.465 1.575 9.063 9.063 0 00-2.533-1.466v-.039a9.724 9.724 0 00.109-1.322c-.005-.093-.136-.174-.206-.085a2.56 2.56 0 00-.484 1.26 6.715 6.715 0 00-1.752-.253 8.123 8.123 0 01.124-1.163.067.067 0 00-.122-.051 2.916 2.916 0 00-.492 1.228 6.087 6.087 0 00-.912.133 6.254 6.254 0 00-1.372.485 4.949 4.949 0 01-.082-.967c.007-.476.112-.949.1-1.423a.087.087 0 00-.146-.061 2.96 2.96 0 00-.412 2.744 9.492 9.492 0 00-1.35.981c-.028-.053-.053-.107-.078-.161a6.371 6.371 0 01-.417-2.785.075.075 0 00-.138-.037 3.288 3.288 0 00.2 3.374c-.387.36-.756.741-1.106 1.136l-.03-.031a4.381 4.381 0 01-.866-1.2 4.7 4.7 0 01-.427-1.432 7.3 7.3 0 01-.051-1.452c0-.07-.109-.106-.138-.037a3.489 3.489 0 00-.015 2.519 4.909 4.909 0 00.46.964 4.736 4.736 0 00.8.977q-.359.424-.684.872a4.367 4.367 0 00-.505.934.279.279 0 00.094.354.1.1 0 00-.014.032c-.12.542.531 1.115.9 1.445a8 8 0 001.232.9c-.059.082-.109.161-.135.193a3.211 3.211 0 01-.407.4c-.127.1-.293.187-.36.343a.058.058 0 00.035.086c.293.068.629-.245.821-.434a2.567 2.567 0 00.35-.41l.2.1a12.84 12.84 0 001.85.772 2.492 2.492 0 00-.138.224 2.337 2.337 0 00-.293.8c-.025.143.18.26.253.107.115-.241.239-.482.377-.711.055-.093.138-.191.2-.3.529.161 1.066.293 1.6.4a.838.838 0 00-.1.26 1.731 1.731 0 00-.066.7c.022.116.168.1.224.03a1.773 1.773 0 00.271-.925 10.354 10.354 0 002.4.2c0 .023 0 .047-.006.068a1.315 1.315 0 00.143.677c.085.173.334.022.256-.149a.988.988 0 01-.083-.539.521.521 0 01.016-.078 6.425 6.425 0 001.937-.467c.09-.028.183-.069.275-.11z"/><path d="M97.261 49.244l-.34.239a24.4 24.4 0 01-7.38 1.09 24.367 24.367 0 01-7.251-1.192 1.752 1.752 0 00-.816-1.793 1.721 1.721 0 00-2.133.411 1.068 1.068 0 00-.065.1c-.235-.13-.466-.268-.691-.415-.546-.358-1.022-.805-1.539-1.2a31.357 31.357 0 00-1.316-5.973c.043.069.086.136.13.2a19.267 19.267 0 004.005 4.532A18.769 18.769 0 0091.9 49.487a19.345 19.345 0 003.833-.41 17.669 17.669 0 001.9-.509 10.989 10.989 0 001.221-.447zm-3.854 2.209a17.74 17.74 0 01-4.289.621 6.251 6.251 0 01-3.66-.539c-.238-.151-.428.17-.279.361a2.546 2.546 0 001.257.918 4.6 4.6 0 00.585.139.4.4 0 00.082.389.215.215 0 00.283.045 3.132 3.132 0 01.515.556c.246.264.487.532.731.8.478.52.954 1.042 1.416 1.575a13.338 13.338 0 012.176 3.215 6.728 6.728 0 01.5 1.741 9.6 9.6 0 01.043 2.394 19.93 19.93 0 01-.335 2.087l-.021.105c-.03.149-.072.3-.111.458a.907.907 0 00-.407.192 4.57 4.57 0 01-.093-.1 19.756 19.756 0 00-.845-.818c-.574-.516-1.178-1-1.794-1.463s-1.273-.921-1.938-1.334a5.4 5.4 0 00-2.086-.9.2.2 0 00-.189.326c.1.1.2.2.3.295 0 .039.007.077.012.116.05.464.146.922.19 1.389a12.282 12.282 0 01.038 1.834 12.47 12.47 0 01-.74 3.624 11.84 11.84 0 01-4.156 5.421 12.16 12.16 0 01-1.326.841 8.569 8.569 0 001.5-1.616 10.708 10.708 0 001.686-3.64 16.019 16.019 0 00-.612-9.081 29.071 29.071 0 00-1.013-2.556 12.755 12.755 0 00-1.125-2.268.362.362 0 00.031-.051c.032.062.066.125.1.186.178.341.367.678.568 1.006a17.537 17.537 0 001.361 1.923 15.639 15.639 0 001.63 1.731q.427.39.881.749a2.568 2.568 0 00.9.574.068.068 0 00.082-.064.058.058 0 00-.009-.031 3.257 3.257 0 00-.757-.7 16.804 16.804 0 01-.809-.725 18.808 18.808 0 01-1.575-1.69 16.649 16.649 0 01-1.349-1.9c-.09-.147-.178-.3-.264-.447h.006l.136-.063c.105-.049.012-.215-.092-.158-.04.022-.092.043-.135.071-.064-.114-.128-.23-.189-.346-.1-.186-.185-.39-.294-.576a2.65 2.65 0 00-.92-2.588 1.776 1.776 0 00-1.834-.172c.012-.143.024-.285.034-.43.2-.217.386-.439.606-.638a5.174 5.174 0 011.493-.981 23.907 23.907 0 003.42 3.31c2.441 2.007 5.12 3.831 7.042 6.381a10.276 10.276 0 012.037 4.777c.039.268.461.237.519 0a.241.241 0 00.006-.075c-.254-3.123-2.423-5.717-4.662-7.722-2.356-2.11-5.1-3.745-7.292-6.042q-.343-.357-.653-.731c.274-.011.534.068.827.063a1.445 1.445 0 00.717-.209c.024-.014.046-.031.07-.046.79.656 1.6 1.287 2.438 1.881 1.136.807 2.337 1.517 3.468 2.331a16.636 16.636 0 012.84 2.611 39.511 39.511 0 012.462 3.543c.056.082.2.041.181-.059a.16.16 0 010-.016 10.008 10.008 0 00-1.809-3.145 16.468 16.468 0 00-2.683-2.718c-1.07-.858-2.257-1.546-3.4-2.3a40.869 40.869 0 01-3.226-2.34 2.224 2.224 0 00.556-.827l.04-.117c.654.214 1.318.4 1.984.56a24.089 24.089 0 009.357.4q1.079-.168 2.138-.442a9.477 9.477 0 01-2.273 1.125zM78.514 75.785a4.672 4.672 0 00-.074-.473c.154-.374.293-.754.412-1.139a19.018 19.018 0 00.629-3.116c.14-1.029.261-2.061.4-3.092.134-1.01.356-2.06.394-3.084h.107a.353.353 0 00.3-.528c-.14-.193-.281-.385-.423-.577a4.045 4.045 0 00-.033-1.51 12.741 12.741 0 00-.354-1.714 8.477 8.477 0 00-1.348-2.967.066.066 0 00-.078-.018.075.075 0 00-.048.092c.379 1 .857 1.944 1.141 2.98a12.946 12.946 0 01.334 1.569c.062.406.068.822.14 1.225l-.362-.492c-.155-.212-.312-.425-.467-.639l-.282-.383c-.024-.032-.091-.108-.14-.171a.38.38 0 00-.038-.205.334.334 0 00-.262-.2.448.448 0 00-.271.042.305.305 0 00-.087-.1.969.969 0 00.046-.23c.048-.452.037-.919.048-1.374.018-.68.044-1.362.026-2.044a3.3 3.3 0 00.215-.084 2.961 2.961 0 001.024-.665c.222.575.56 1.125.811 1.675.348.758.67 1.527.957 2.311a19.883 19.883 0 011.147 4.629 12.151 12.151 0 01-1.615 7.79 9.5 9.5 0 01-2.249 2.492zm-.511-9.561c-.061-.249-.122-.5-.2-.745a3.558 3.558 0 00-.275-.594q1.215-.058 2.432-.018c-.21.912-.27 1.883-.4 2.8-.146 1.068-.306 2.133-.453 3.2a20.146 20.146 0 01-.582 2.976 2.754 2.754 0 01-.026.085c.009-.08.017-.16.024-.241a22.916 22.916 0 00.085-3.077 22.362 22.362 0 00-.3-2.884 20.306 20.306 0 00-.306-1.507zm.136 7.314l-.027.276q-.336-1.467-.787-2.9a36.076 36.076 0 00-1.3-3.505c-.258-.6-.53-1.187-.823-1.767a27.563 27.563 0 00-.413-.8 7.276 7.276 0 00-.511-.735 30.608 30.608 0 001.615-4.151c.174.572.379 1.135.52 1.719q.125.519.212 1.046c.02.114.025.235.038.351-.261.462-.51.931-.761 1.393a.347.347 0 00.3.518q.585-.055 1.171-.086c.039.261.039.5.1.756.056.224.114.447.166.673q.154.676.269 1.36a23.714 23.714 0 01.3 3.009 23.041 23.041 0 01-.07 2.838zm-.279 2.04c-.006.014-.014.026-.021.039a10.232 10.232 0 00-1.591-4.371 18.321 18.321 0 00-1.9-2.453 17.913 17.913 0 00-1.108-1.114 5.831 5.831 0 00-.629-.508 31.49 31.49 0 001.534-2.787 5.325 5.325 0 00.206.539c.117.249.242.494.361.743q.373.777.717 1.571c.466 1.083.89 2.184 1.259 3.3q.541 1.638.929 3.322c.107.466.207.936.3 1.406-.022.103-.04.206-.058.308zm-.078-17.8c-.03.608-.035 1.217-.056 1.825-.015.457-.05.917-.048 1.374a.729.729 0 00.076.407 12.706 12.706 0 00-.79 1.172q-.085-.494-.206-.98a8.307 8.307 0 00-.733-2.052q.215-.735.393-1.485l.1-.424a1.361 1.361 0 001.263.161zm1.025 5.207l.862 1.171q-1.429-.031-2.852.08c.429-.758.881-1.512 1.255-2.3a4.149 4.149 0 00.735 1.049zm.976-14.619a.881.881 0 01.241-.232 1.226 1.226 0 011.326.024 1.207 1.207 0 01.439 1.052 21.33 21.33 0 01-1.157-.453 15.946 15.946 0 01-.849-.393zm.13.548a18.083 18.083 0 001.8.738 1.689 1.689 0 01-.5.782q-.487-.408-.959-.833a.706.706 0 00.092-.068.177.177 0 00-.124-.3.524.524 0 01-.52-.426c.064.034.137.07.21.105zm-.964-.508l.177.1c0 .019-.006.037-.008.057zm.224.66a1.233 1.233 0 00.111.234.783.783 0 00.58.4q.389.349.785.689l.267.227a1.58 1.58 0 01-.833.051 1.958 1.958 0 00-.718.05 12.394 12.394 0 01-1.824-3.29c.089.074.18.145.27.214a19.668 19.668 0 001.362 1.422zm-.193 1.781a5.339 5.339 0 00-1.73 1.295 33.361 33.361 0 00-.141-5.115c.068.072.139.141.211.208a.116.116 0 00-.063.141 9.71 9.71 0 001.723 3.468zm-2.1 4.833c.023-.143.045-.286.066-.43a1.507 1.507 0 01.528.145 1.442 1.442 0 01-.379.217c-.071.025-.14.045-.213.065zm1.244-.043a.321.321 0 00.049-.376 1.174 1.174 0 00-.787-.564.943.943 0 00-.364 0q.037-.275.067-.551a.325.325 0 00.071-.026c.463-.232.928-.431 1.389-.05a1.979 1.979 0 01.659 1.612 1.444 1.444 0 01-1.037 1.123.165.165 0 00-.322.047l-.007.074a2.009 2.009 0 01-.447.106c-.382.037-.408-.156-.611-.416a.163.163 0 00-.057-.044l.048-.255a1.857 1.857 0 001.349-.68zm-10.342-8.066q-.672-.13-1.352-.2a4 4 0 001.276-1.661q.313.2.611.426c.186.144.367.295.544.449a4.861 4.861 0 01-1.078.985zm2.071.544a15.054 15.054 0 00-1.466-.416 4.2 4.2 0 00.868-.753c.31.295.606.6.892.916l.06.068a1.514 1.514 0 01-.354.184zm-9.141 2.437a3.04 3.04 0 011.058-2.138c.139-.03.28-.057.42-.082a2.8 2.8 0 00-.375 1.546 2.193 2.193 0 001.34 1.88 2.918 2.918 0 003.969-1.389 2.054 2.054 0 00-.217-2.006 1.284 1.284 0 00-.13-.143c.144.018.287.038.429.061a4.327 4.327 0 01.577.738 3.756 3.756 0 01.383 1.191 3.217 3.217 0 01-.06 1.2 4.721 4.721 0 01-.47 1.049 16.975 16.975 0 01-2.272.6 7.884 7.884 0 01-4.292-.176.344.344 0 00-.018-.183 3.475 3.475 0 01-.361-.837 6.078 6.078 0 01.019-1.312zm4.485-5.731a5.7 5.7 0 012 .605 5.518 5.518 0 01-1.4 1.9 15.946 15.946 0 00-1.673-.022 4.348 4.348 0 001.073-2.484zm-1.639 2.519q-.667.053-1.327.163a3.053 3.053 0 00.664-1.771c.03-.222.053-.46.063-.7a7.594 7.594 0 01.756-.164 5.557 5.557 0 01.93-.075 4.545 4.545 0 01-1.086 2.546zm-3.649.741l-.445.151a3.83 3.83 0 00.344-1.452 7.727 7.727 0 012.55-1.561 6.038 6.038 0 01-.032.4 4.369 4.369 0 01-.336 1.345c-.1.216-.348.57-.589.6a.053.053 0 00-.014.1h.007a14.823 14.823 0 00-1.485.416zm-1.8.735a11.414 11.414 0 011.191-1.539c-.054.359-.124.713-.162 1.073a7.5 7.5 0 00-1.027.465zm1.869 3.588c-1.037-.5-2.029-1.12-3.015-1.7l.215-.368c.5-.239.939-.622 1.434-.872a12.536 12.536 0 011.785-.7h.014a4.463 4.463 0 00-.5 1.79 5.757 5.757 0 00.07 1.849zm10.364-4.119c.041-.024.081-.048.118-.074.05.055.1.111.144.167a2.843 2.843 0 01-.262-.093zm.648 1.147a1.538 1.538 0 00.726.232c.043.047.087.093.134.139a.394.394 0 00.076.055 5.988 5.988 0 00-1.163.95 9.417 9.417 0 01-1.593 1 16.16 16.16 0 01-.4.193 4.017 4.017 0 00.126-1.856 3.465 3.465 0 00-.51-1.362 7.277 7.277 0 00-.225-.324c.034.009.068.015.1.022a14.8 14.8 0 011.844.572q.448.18.884.383zm.617 17.311a27.969 27.969 0 01-1.783 2.512 32.634 32.634 0 01-8.211 7.354 30.863 30.863 0 01-4.965 2.523c-.859.341-1.735.645-2.62.906-.474.139-.954.253-1.429.385a4.018 4.018 0 00-.605.218 4.462 4.462 0 00-.606-.218c-.476-.132-.956-.245-1.429-.385q-1.33-.392-2.621-.906a30.48 30.48 0 01-4.255-2.092 18.223 18.223 0 01-.439-.264q-.136-.082-.271-.167a32.613 32.613 0 01-8.211-7.354 28.062 28.062 0 01-2-2.859 31.032 31.032 0 01-4.267-19.224 33.664 33.664 0 014.211-13.019.344.344 0 00.032-.289q.562-.234 1.114-.485a.084.084 0 00.095-.027.241.241 0 00.019-.025c1.234-.565 2.44-1.19 3.649-1.811a89.635 89.635 0 012.617-1.3 11.317 11.317 0 013.905-1.2 5.967 5.967 0 011.892.147 5.611 5.611 0 01.949.325 3.69 3.69 0 00.883.4.542.542 0 00.43-.136 15.764 15.764 0 002.788 5.988 15.562 15.562 0 003.964 3.708c.471.306.873-.347.561-.728-1.191-1.457-.966-3.388-.364-5.04.126-.345.272-.684.432-1.018.27-.566.577-1.116.887-1.658.347-.6.814-1.448 1.587-1.537.822-.1 1.688.676 2.225 1.213a5.645 5.645 0 011.35 2.184c.187.547.319 1.11.451 1.672.1.411.193.822.312 1.229a10.788 10.788 0 00.42 1.182.174.174 0 00-.023-.009 5.144 5.144 0 00-3.234.69c-.493.258-1.864 1.3-1.1 1.937a1.669 1.669 0 001.245.119 7.047 7.047 0 001.484-.43c.47-.181.932-.382 1.4-.562a5.56 5.56 0 011.007-.241 10.571 10.571 0 003.908 3.656.576.576 0 00.447.053.1.1 0 000 .021c-.015.474.09.947.1 1.423a4.941 4.941 0 01-.08.957 6.255 6.255 0 00-1.35-.475 5.95 5.95 0 00-.934-.134 2.94 2.94 0 00-.492-1.227.067.067 0 00-.122.051 7.918 7.918 0 01.123 1.163 6.72 6.72 0 00-1.75.26 2.554 2.554 0 00-.485-1.266c-.07-.088-.2-.008-.207.085a9.606 9.606 0 00.11 1.322v.047a9.055 9.055 0 00-2.537 1.473 3.467 3.467 0 00-.468-1.592c-.053-.084-.221-.059-.207.057.076.639.218 1.266.241 1.909-.237.215-.463.441-.676.674a11.543 11.543 0 00-2.405 3.961c-.079.232.23.445.4.281.576.4 1.167.808 1.775 1.187a.158.158 0 00-.031.021.844.844 0 00-.1 1.244.089.089 0 00.121-.031 1.541 1.541 0 00.183-.5c.046-.168.116-.328.176-.492 0-.009.006-.017.008-.024.457.275.924.533 1.4.76a.7.7 0 00-.164.423 1.776 1.776 0 00.011.635c.042.226.381.128.342-.095a1.322 1.322 0 01.014-.537 1.28 1.28 0 00.078-.3c.1.046.2.089.3.132a6.411 6.411 0 001.913.465.58.58 0 01.017.08.994.994 0 01-.083.539c-.078.171.172.322.257.149a1.322 1.322 0 00.143-.677c0-.022 0-.045-.006-.069a10.3 10.3 0 002.4-.2 1.778 1.778 0 00.272.92c.056.075.2.086.224-.03a1.731 1.731 0 00-.066-.7.882.882 0 00-.093-.255 18.89 18.89 0 001.6-.4c.059.1.139.2.194.289a8.038 8.038 0 01.375.711c.072.153.278.036.254-.107a2.381 2.381 0 00-.293-.8c-.038-.065-.082-.144-.134-.218a12.632 12.632 0 001.869-.777l.179-.1a2.653 2.653 0 00.343.4c.193.189.529.5.822.434a.059.059 0 00.035-.086c-.068-.157-.235-.239-.362-.343a3.2 3.2 0 01-.405-.4c-.026-.031-.072-.105-.129-.184a8.025 8.025 0 001.247-.906c.369-.33 1.021-.9.9-1.445a.088.088 0 00-.013-.032.279.279 0 00.094-.354 4.37 4.37 0 00-.505-.934q-.33-.454-.694-.884a4.716 4.716 0 00.784-.964 3.844 3.844 0 00.446-3.483c-.029-.069-.142-.033-.138.037a5.772 5.772 0 01-.478 2.884 4.406 4.406 0 01-.866 1.2l-.019.019c-.351-.4-.72-.776-1.108-1.139a3.286 3.286 0 00.193-3.36.075.075 0 00-.138.037 6.352 6.352 0 01-.419 2.795c-.022.049-.047.1-.071.148a9.422 9.422 0 00-1.354-.979 2.951 2.951 0 00-.415-2.733.1.1 0 00-.02-.014.587.587 0 00.071-1.006 5.559 5.559 0 01.191-4.354 4.625 4.625 0 01.234-.427 3.143 3.143 0 012.119-1.6 2.617 2.617 0 011.184.126 2.989 2.989 0 001.043.274 34.645 34.645 0 012.932 7.69 31.455 31.455 0 01.757 4.358 30.981 30.981 0 01-4.489 19.579zM44.369 80.236a9.539 9.539 0 00-1.385.881 7.031 7.031 0 00-.112-.747 16.607 16.607 0 00-.434-2.165.183.183 0 00-.089-.11.18.18 0 00-.084-.022.134.134 0 00-.053 0c-.012.008-.026.014-.039.021a.187.187 0 00-.083.2c.109.514.209 1.033.29 1.553q.064.4.11.806c0 .026.048.422.091.626h-.05a.083.083 0 00-.074.042.263.263 0 00-.016.216c-.3.244-.6.495-.892.741q-.416.347-.841.685v-.032q-.039-.542-.1-1.083-.117-1.067-.313-2.125c-.132-.712-.3-1.418-.485-2.116a17.634 17.634 0 00-.639-1.784q.715.555 1.464 1.072.858.593 1.754 1.13a31.7 31.7 0 003.265 1.712 6 6 0 00-1.285.499zm-6.545 4.819c-.009-.059-.017-.115-.029-.172a.108.108 0 00-.151-.062q-.6-3.018-1.139-6.047-.311-1.741-.606-3.483-.152-.892-.3-1.783c-.06-.353-.107-.715-.172-1.072a32.763 32.763 0 003.524 3.221c.2.645.312 1.324.48 1.977.173.678.319 1.36.445 2.048.132.72.239 1.444.316 2.171q.056.542.093 1.083c.009.116.01.232.02.346q-1.205.932-2.481 1.773zm-2.225 1.37c-.334.191-.672.376-1.01.557a3.361 3.361 0 00-.053-.161 135.013 135.013 0 01-2.2-15.471q-.124-1.521-.236-3.05a32.547 32.547 0 002.916 3.7c.026.485.122.968.191 1.448q.13.9.272 1.791.28 1.788.588 3.572.568 3.309 1.206 6.6-.821.527-1.671 1.013zm-5.252 2.522a.34.34 0 000-.037c-.566-7.709-1.054-15.425-1.585-23.135-.11-1.582-.193-3.174-.33-4.757a31.389 31.389 0 003.331 6.767c.007.3.016.591.032.887q.06 1.056.136 2.11.152 2.109.372 4.211a144.06 144.06 0 001.131 8.354q.32 1.941.712 3.869-1.862.969-3.796 1.73zm-4.4 1.5c.04-.541.02-1.1.042-1.619q.059-1.32.1-2.64.079-2.641.083-5.285.009-5.284-.3-10.566-.083-1.442-.188-2.884c-.05-.687-.082-1.384-.173-2.069 1.9.366 3.171-2.112 2.012-3.62a2.218 2.218 0 00-1.2-.752v-.033c0-.457-.033-.917-.049-1.374-.02-.609-.026-1.218-.055-1.825a1.379 1.379 0 001.247-.146l.094.407q.229.967.521 1.912c.053 1.668.189 3.337.3 5l.375 5.784.753 11.567c.147 2.2.306 4.406.439 6.61a.2.2 0 00.092.158q-2.011.778-4.091 1.372zm-.224-4.92q-.04 1.486-.1 2.971-.03.7-.064 1.4c-.012.222-.031.445-.041.668q-1.664.462-3.363.818-.547.113-1.1.218a.307.307 0 00.024-.122l-.053-21.05L21 59.905c-.009-3.434-.053-6.876.237-10.3a47 47 0 011.985-9.865 88.845 88.845 0 013.11-8.549c2.085-4.91 4.827-9.775 9.07-13.138 4.83-3.829 10.972-4.615 16.927-5.028.5-.034.993-.089 1.489-.148q-.294.3-.583.6a45.005 45.005 0 00-2.126 2.409 18.363 18.363 0 00-3.7.7 22.053 22.053 0 00-4.308 1.727 27.935 27.935 0 00-7.381 5.7c-4.763 5.092-7.519 11.656-9.02 18.393a71.116 71.116 0 00-1.052 5.993c-.222 1.654-.422 3.327-.53 5a1.362 1.362 0 00-.118.084 2.647 2.647 0 00-.917 2.6 1.967 1.967 0 00.779 1.086 3.955 3.955 0 00-.175 1.3q-.047.757-.05 1.516t.04 1.516c.007.11.009.229.012.349-.044.034-.087.07-.131.107a2.154 2.154 0 00-.721 1.271 1.938 1.938 0 001.4 2.088c.016.631.082 1.264.122 1.893q.088 1.319.161 2.638.138 2.6.208 5.2.139 5.231-.004 10.477zm-7.588 6.507c-.406.04-.815.064-1.225.084 1.125-6.971.953-14.13.728-21.161-.231-7.267-.624-14.55-.063-21.811a87.709 87.709 0 011.628-11 86.978 86.978 0 012.561-10.361 24.58 24.58 0 0111.176-13.49 26.338 26.338 0 0119.017-2.453c.762.181 1.515.4 2.259.641a48.945 48.945 0 00-8.874.743 23.939 23.939 0 00-8.4 3.037c-4.649 2.875-7.8 7.545-10.109 12.4a79.734 79.734 0 00-3.184 7.928 56.407 56.407 0 00-2.613 9.808 67.259 67.259 0 00-.626 10.321c-.006 3.576.014 7.152.022 10.727l.049 21.382q0 1.325.005 2.652a.272.272 0 00.088.209c-.81.141-1.623.261-2.437.341zm-1.863.113c-.566.026-1.131.055-1.689.12a70.061 70.061 0 00.156-12.208c-.2-4.19-.468-8.376-.708-12.563-.472-8.239-1.2-16.537-.676-24.789.456-7.137 2-14.294 5.584-20.548a30.214 30.214 0 016.191-7.7 25.9 25.9 0 018.693-5.031 27.475 27.475 0 0110.012-1.469 24.124 24.124 0 014.955.7 11.53 11.53 0 014.265 1.891 8.877 8.877 0 011.581 1.514l-.193.19-.012-.007a26.379 26.379 0 00-19.413.454 24.983 24.983 0 00-12.453 11.758 44.491 44.491 0 00-3.081 9.961c-.82 3.632-1.575 7.284-2.048 10.978-.941 7.351-.751 14.793-.517 22.183.234 7.361.492 14.757-.335 22.092a98.552 98.552 0 01-.31 2.47zM26.807 53.3a1.712 1.712 0 00-1.11-.128c.306-3.1.6-6.194 1.209-9.264a48.684 48.684 0 013.163-10.3A30.881 30.881 0 0142.324 19.33 25.652 25.652 0 0147 17.195a22.5 22.5 0 013.774-.88 4.777 4.777 0 00-.824 1.408 1.723 1.723 0 00-.055.223 11.785 11.785 0 00-1.473 2.715.23.23 0 00-.039 0 15.968 15.968 0 00-3.724 1.4 24.906 24.906 0 00-3.446 2 25.151 25.151 0 00-5.713 5.4q-.694.905-1.3 1.87c-.191.3-.4.619-.591.945a36.56 36.56 0 00-1.941 1.144.3.3 0 00-.13.293.4.4 0 00-.063.075 30.922 30.922 0 00-4.665 19.508zm.224 1.956c.021.14.041.279.064.418a2.003 2.003 0 01-.19-.061 1.446 1.446 0 01-.379-.217 1.391 1.391 0 01.507-.144zm-.879 1.6a.165.165 0 00-.321-.047 1.447 1.447 0 01-1.037-1.123 1.927 1.927 0 01.262-1.127v.122c-.012.324.462.31.494 0l.072-.719a1.285 1.285 0 011.224.162.314.314 0 00.047.018c.02.184.043.37.066.554a.928.928 0 00-.339 0 1.172 1.172 0 00-.788.564.318.318 0 00.049.376 1.871 1.871 0 001.327.683l.049.266a.152.152 0 00-.036.032c-.2.26-.23.453-.612.416a2.01 2.01 0 01-.447-.106l-.008-.073zm-1.083 5.94a1.4 1.4 0 00.055-.453 4.8 4.8 0 01.92-.616.183.183 0 00.044-.035 1.35 1.35 0 011.068.88 1.68 1.68 0 01-.762 2.037 1.352 1.352 0 01-1.02 0l-.012-.06a.062.062 0 00-.119 0 1.3 1.3 0 01-.689-.743 1.186 1.186 0 01.254-1.137 1.113 1.113 0 00.068.145.106.106 0 00.195-.02zm.034-5.468a4.04 4.04 0 00.676.311c-.017.681.009 1.364.027 2.044.011.43 0 .87.041 1.3a.907.907 0 00-.749.6v.007l-.042.022c0-.04-.008-.079-.009-.117q-.046-.757-.049-1.516c0-.478.011-.958.037-1.435a7.589 7.589 0 00.07-1.218zm17.821-31.37a6.416 6.416 0 00-1.6 1.5c-.233.308-.45.626-.68.936-.116.156-.237.331-.371.493q-.219.09-.435.186c-1.387.613-2.72 1.355-4.064 2.053-.52.27-1.039.541-1.555.819l.105-.174q.509-.8 1.078-1.565a25.782 25.782 0 012.59-2.964 25.223 25.223 0 016.319-4.52q1.019-.515 2.085-.932c.6-.235 1.23-.408 1.836-.631-.048.136-.1.271-.14.407a15.052 15.052 0 00-.514 2 31.164 31.164 0 00-4.654 2.392zm2.067 2.048a.094.094 0 00.078-.015c.463-.318.87-.71 1.353-1a3.346 3.346 0 01.8-.363l.094-.027v.027a14.816 14.816 0 00.22 2.373 4.3 4.3 0 00-1.571-.72 6.4 6.4 0 00-.982-.208 6.638 6.638 0 00-1.006-.061 9.187 9.187 0 00-2.948.584c.055-.078.105-.149.147-.2a7.777 7.777 0 011.8-1.927 26.435 26.435 0 014.345-2.295.423.423 0 00.152.052 16.047 16.047 0 00-.155 1.958 2.664 2.664 0 00-1.1.46 4.363 4.363 0 00-1.307 1.193.117.117 0 00.077.169zm10.482-15.391a8.556 8.556 0 01-.4 1.686 13.374 13.374 0 01-1.1 2.238c-.849 1.434-1.849 2.771-2.667 4.226a12.187 12.187 0 00-1.576 4.928 15.37 15.37 0 00.354 4.592q.113.529.257 1.048a28.689 28.689 0 001.049 3.108c.255.643.508 1.317.8 1.961a14.74 14.74 0 01-2.312-3.192 14.226 14.226 0 01-.676-1.452 14.614 14.614 0 01-.477-9.31 16.882 16.882 0 011.3-3.192c.1.19.431.091.348-.123a1.221 1.221 0 01-.08-.389c.222-.416.451-.831.683-1.249a.259.259 0 00-.013-.279c.282-.35.6-.667.845-.928l.147-.156.065-.01a.11.11 0 00.085-.15 68.823 68.823 0 011.879-1.941q.73-.722 1.489-1.416zm.331-.3l.2-.174.247.37.27.405a6.969 6.969 0 01.685 1.267 7.285 7.285 0 01.5 2.632 7.1 7.1 0 01-.094 1.151 6.516 6.516 0 01-.445 1.525 9.336 9.336 0 01-1.83 2.561 19.525 19.525 0 00-1.864 2.21 11.915 11.915 0 00-1.266 2.43 12.814 12.814 0 00-.826 5.351 13.6 13.6 0 00.247 1.9 29.185 29.185 0 01-.717-2.081 20.806 20.806 0 01-.614-2.593 14.61 14.61 0 01-.2-3.156 11.749 11.749 0 011.55-5.159c.8-1.438 1.772-2.771 2.6-4.195a9.738 9.738 0 001.557-4.444zm.656-.573c.11-.1.221-.188.333-.283a18.463 18.463 0 017.331 1.717 17.12 17.12 0 011.889 1.048 17.1 17.1 0 013.639 3.127 18.4 18.4 0 012.8 4.5 57.712 57.712 0 002.461 5.242 18.339 18.339 0 003.36 4.11 33.6 33.6 0 004.21 3.287 27.336 27.336 0 004.894 2.683 15.014 15.014 0 005.923 1.2 15.954 15.954 0 003.043-.37 12.264 12.264 0 001.954-.133c.171-.026.13-.312-.041-.3-.094.006-.19.01-.285.014a26.68 26.68 0 002.041-.706.189.189 0 00.11-.254 2.688 2.688 0 00.3-.1c-.268.268-.517.567-.773.836a7.134 7.134 0 01-1.372 1.15 12.514 12.514 0 01-3.227 1.32 11.841 11.841 0 01-3.24.523 9.622 9.622 0 01-3.092-.6.183.183 0 00-.227.207.178.178 0 00-.024.248 35.447 35.447 0 002.993 3.511 16.624 16.624 0 003.064 2.753 7.829 7.829 0 001.089.6c-.421-.051-.841-.11-1.262-.184a28.132 28.132 0 01-5.281-1.477 24.034 24.034 0 01-9.133-6.173c-5.537-6.122-6.678-14.907-12.11-21.114a17.357 17.357 0 00-2.367-2.251c-.856-.667-1.8-1.192-2.7-1.8l-.23-.157a14.215 14.215 0 00-2.84-1.889 5.4 5.4 0 00-3.176-.293.093.093 0 00-.045.024.1.1 0 00.072.174 6.941 6.941 0 013.134.481 9.119 9.119 0 012 1.36 13.03 13.03 0 00-4.954-1.717 5.68 5.68 0 00-.224-.025h-.018c-.05-.057-.1-.117-.151-.174.047-.043.089-.08.132-.115zm1.426-1.169c-.009.088.089.183.176.12a3.338 3.338 0 012.529-.379c.836.123 1.67.286 2.5.447 1.2.233 2.4.493 3.567.838.446.131.889.274 1.326.434a13.852 13.852 0 014.424 2.523 15.423 15.423 0 013.131 4.018c1.691 2.964 2.9 6.161 4.753 9.038a25.089 25.089 0 007 7.363 18.115 18.115 0 006.885 2.823c-.13.012-.263.023-.4.03a13.928 13.928 0 01-5.451-.856 25.176 25.176 0 01-5.113-2.587 32.78 32.78 0 01-4.366-3.262 18.279 18.279 0 01-3.553-4.257 54.976 54.976 0 01-2.4-5.105 19.231 19.231 0 00-2.688-4.433 17.108 17.108 0 00-3.453-3.128 17.684 17.684 0 00-2.208-1.291 15.758 15.758 0 00-7.45-1.7q.389-.324.791-.637zm.849-.639q.539-.389 1.1-.753a1.3 1.3 0 00-.07.356c-.009.161.226.152.245 0 .179-1.385 2.55-.9 3.424-.792 1.754.214 3.508.428 5.243.772q.512.1 1.022.22a20.683 20.683 0 017.622 3.28 13.075 13.075 0 013.087 3.14 18.9 18.9 0 011.986 4.2 26.984 26.984 0 001.776 4.166 17.956 17.956 0 002.944 3.643 8.17 8.17 0 004.256 2.512 10.555 10.555 0 004.172-.21c-.04.036-.082.07-.123.1a9.043 9.043 0 01-1.8 1.141 5.377 5.377 0 01-2.108.528 7.847 7.847 0 01-1.335-.166.2.2 0 00-.225-.025 2.26 2.26 0 00-.454 0 .165.165 0 00-.142.246 1.209 1.209 0 00.692.515 1.678 1.678 0 00.159.251c.15.2.306.386.471.571a9.484 9.484 0 001.128 1.077 9.65 9.65 0 002.648 1.541 9.822 9.822 0 003.441.629c.233 0 .467-.006.7-.022-.907.242-1.811.493-2.728.68a17.3 17.3 0 01-7.9-2.62 24.328 24.328 0 01-7.392-7.629c-1.867-2.918-3.071-6.17-4.812-9.152a15.45 15.45 0 00-3.063-3.87 14.054 14.054 0 00-4.172-2.465q-.691-.27-1.4-.491a33.887 33.887 0 00-4.2-.981c-.886-.156-1.781-.336-2.678-.42a3.455 3.455 0 00-1.792.229c.093-.066.185-.135.277-.202zm4.264-2.518a27.7 27.7 0 012.368-.273 36.947 36.947 0 013.676-.054 28.438 28.438 0 014.133.4 18.358 18.358 0 012.711.69 11.924 11.924 0 015.192 3.458 25.219 25.219 0 013.147 4.913c.648 1.227 1.25 2.5 1.963 3.7.2.469.384.942.562 1.419a14.017 14.017 0 001.512 3.271 12.437 12.437 0 002.472 2.472 13.836 13.836 0 002.986 1.931 5.957 5.957 0 001.6.481 2.654 2.654 0 00.952-.022 6.847 6.847 0 00-.122.119 13.636 13.636 0 01-4.736.332 7.944 7.944 0 01-4.155-2.518 16.7 16.7 0 01-3.035-3.963 47.377 47.377 0 01-1.81-4.5 15.332 15.332 0 00-2.154-3.987 14.126 14.126 0 00-3.169-2.914 20.96 20.96 0 00-6.927-2.928 33.586 33.586 0 00-1.919-.408c-1.9-.349-3.818-.571-5.74-.767a5.4 5.4 0 00-1.166 0q.813-.458 1.659-.853zm7.58-1.989a15.694 15.694 0 014.874.421 10.9 10.9 0 011.441.488 9.685 9.685 0 014.135 3.7 28.708 28.708 0 011.633 2.825c-.309-.45-.635-.89-.985-1.313a12.3 12.3 0 00-4.868-3.573 16.95 16.95 0 00-3.041-.9 27.464 27.464 0 00-3.766-.46 26.668 26.668 0 00-4.315.062c-.428.044-.855.086-1.281.133a20.248 20.248 0 016.172-1.383zm-4.076 34.948a9.635 9.635 0 01-1.321-1.189 8.324 8.324 0 01-.022-.414 5.809 5.809 0 001.287 1.43c.018.057.035.115.056.173zm-.242-.942a8.888 8.888 0 01-1.045-1.367c-.014-.022-.025-.044-.039-.065.082-1.276.4-2.556.569-3.832a35.484 35.484 0 00-.036-7.072 17.629 17.629 0 00-1.35-6.327 16.769 16.769 0 00-3.373-4.6q-.251-.254-.507-.506a40.761 40.761 0 00-3.606-3.18l-.176-.2a15.947 15.947 0 015.418 2.225 15.088 15.088 0 013.478 3.128 14.246 14.246 0 012.581 4.782 45.593 45.593 0 011 6.51 10.072 10.072 0 001.689 4.544 3.639 3.639 0 00-.735.007 4.267 4.267 0 00-2.991 1.969 5.494 5.494 0 00-.877 3.983zm-2.192-3.891c-.657-1.878-1.143-3.828-1.645-5.75a53.632 53.632 0 01-1.38-6.721c-.256-2-.262-4.014-1.072-5.9a11.964 11.964 0 00-.395-.833 17.1 17.1 0 00-1.425-2.256c.668.606 1.346 1.2 1.986 1.83l.087.086a18.488 18.488 0 013.508 4.543 16.32 16.32 0 011.506 6.478 35.82 35.82 0 01.049 7.055c-.13 1-.4 2.085-.521 3.161a15.512 15.512 0 01-.698-1.694zm-12-1.224a11.4 11.4 0 01-.34-2.149 12.683 12.683 0 01.908-5.545 11.415 11.415 0 011.386-2.463c.653-.881 1.459-1.629 2.175-2.455a7.522 7.522 0 001.9-4.16 7.2 7.2 0 00.04-.731 7.752 7.752 0 00-.125-1.389 12.262 12.262 0 01.633 1.66q.1.341.178.69a7.756 7.756 0 01-.923 5.684c-1.752 2.964-4.936 5.153-5.685 8.669a7.558 7.558 0 00-.152 2.189zm10.725 3.639a7.144 7.144 0 00-1.285.382 13.824 13.824 0 01-2.334.8 2.969 2.969 0 01-.626.048c-.294-.011-.218-.21-.084-.4a2.581 2.581 0 011.027-.768c.9-.421 1.873-.48 2.787-.817a.149.149 0 00.09-.1q.188.437.42.855zm-1.012-6.606a6.643 6.643 0 00-1.925-2.171 3.448 3.448 0 00-2.838-.789 3.654 3.654 0 00-1.958 1.81 17.2 17.2 0 00-1.427 2.9 7.393 7.393 0 00-.355 3.99 7.58 7.58 0 01-.627-4.974 11.675 11.675 0 012.7-4.667 24.753 24.753 0 003.13-4.177 7.968 7.968 0 00.787-5.2 10.031 10.031 0 00-.31-1.241 11.631 11.631 0 00-.783-1.876 16.17 16.17 0 00-.675-1.182c-.012-.028-.024-.057-.038-.085a19.835 19.835 0 011.833 2.875c.049.1.1.192.141.288a10.4 10.4 0 01.891 2.971c.161 1.132.2 2.278.35 3.412a53.7 53.7 0 001.315 6.513c.508 1.976 1 3.982 1.675 5.909a14.806 14.806 0 001.039 2.376c-.007.2-.007.406 0 .606a9.54 9.54 0 01-.934-1.422c-.986-1.853-.987-4.032-1.995-5.866zm11.835 4.26q-.515-.934-1.1-1.823a.365.365 0 00-.567-.062 3.222 3.222 0 00-.418-.143 10.008 10.008 0 01-1.941-4.775c-.35-2.231-.356-4.512-1.056-6.677a15.01 15.01 0 00-4.756-6.911c.391.254.781.51 1.154.789a16.383 16.383 0 012.226 2.029c2.728 2.961 4.415 6.682 6.01 10.33 1.663 3.8 3.334 7.681 6.068 10.855a24.244 24.244 0 008.68 6.313 28.113 28.113 0 005.911 1.828 25.82 25.82 0 004.34.512c-.173.066-.346.132-.52.19q-.8.265-1.623.458a18.613 18.613 0 01-3.272.47 19.029 19.029 0 01-6.6-.812 18.253 18.253 0 01-9.6-7.136 19.347 19.347 0 01-1.617-2.829 7.177 7.177 0 01-.09-.2 28.2 28.2 0 01-1.081-3.06.134.134 0 00-.258.072c.017.194.061.388.105.582zm-.646 74.025a20.662 20.662 0 00.38-2.91 19.33 19.33 0 00-.063-2.964c-.048-.5-.113-.99-.2-1.481-.024-.141-.042-.287-.07-.43l2.552.4c.025.84.108 1.68.114 2.523.008.95-.015 1.9-.078 2.85a70.5 70.5 0 01-.251 2.756c-.05.482-.118.962-.183 1.442a5.44 5.44 0 00-.091.664c0 .1 0 .2.011.3a17.027 17.027 0 00-2.731-1.024 2.142 2.142 0 00.244-.648q.211-.729.361-1.478zm-20.999-6.075h.037a2.376 2.376 0 00.845-.2c-.037.319-.052.637-.06.959s-.011.639-.007.96v.225a1.8 1.8 0 00-.8.091 1.806 1.806 0 00-.8-.091v-.225q.007-.48-.007-.96c-.009-.322-.024-.64-.06-.959a2.379 2.379 0 00.852.2zm49.632-57.49a.47.47 0 00-.728-.093c-1.88 1.488-4.535.687-6.3-.558a44.147 44.147 0 01-4.758-4.577 9.1 9.1 0 005.306-.226 12.418 12.418 0 003.4-1.392 7.558 7.558 0 001.4-1.175 6.39 6.39 0 001.171-1.579.253.253 0 00-.168-.34.575.575 0 00.046-.075.174.174 0 00-.062-.235 2.26 2.26 0 00-1.36.018 10.615 10.615 0 01-1.664.146 9.082 9.082 0 01-3.15-.542 10.187 10.187 0 01-3.7-2.459c.088 0 .174.007.26.008a6.062 6.062 0 002.393-.5 8.249 8.249 0 002-1.247 9.87 9.87 0 001.736-1.725c.187-.255-.124-.485-.364-.41a.261.261 0 00-.158-.115c-.258-.066-.5-.166-.764-.209-.221-.036-.442-.062-.661-.108a6.76 6.76 0 01-1.561-.529 14.342 14.342 0 01-2.718-1.81 9.693 9.693 0 01-2.2-2.328 18.071 18.071 0 01-1.333-3.077c-.852-2.212-1.859-4.366-2.9-6.5a37.736 37.736 0 00-2.96-5.377 10.644 10.644 0 00-4.391-3.791 15.157 15.157 0 00-6.559-1.054 23.039 23.039 0 00-12.19 4.5 33.588 33.588 0 00-2.7 2.126 4.486 4.486 0 012.221-3.49c.719-.386 1.526-.57 2.261-.923a3.9 3.9 0 001.633-1.423 2.947 2.947 0 00-.323-3.669 1.631 1.631 0 00-1.754-.524 2.6 2.6 0 00-1.119 1.694 1.236 1.236 0 00.931 1.48.773.773 0 00.8-1.079.106.106 0 00-.2.053.5.5 0 01-.666.451.772.772 0 01-.35-.83 2.094 2.094 0 01.4-.833c.232-.33.466-.613.914-.488a2.264 2.264 0 011.253 2.814 3.883 3.883 0 01-2.681 2.3 5.636 5.636 0 00-2.707 1.727 4.254 4.254 0 00-.287.423 3.112 3.112 0 00-.4-1.408 4.9 4.9 0 00-2.812-1.96c-.91-.312-2.632-.933-2.885.505s1.408 2.029 2.559 1.745a.3.3 0 00.181-.445 2.387 2.387 0 00-.37-.362.175.175 0 00-.29.168l.016.067a1.78 1.78 0 01-1.1-.209.819.819 0 01-.305-1.07c.305-.443 1.1-.086 1.505.036a9.594 9.594 0 011.392.517 3.093 3.093 0 011.848 2.039 3.947 3.947 0 01-.106 1.816 18.24 18.24 0 01-.243.85c-.035.117-.074.231-.105.348-.014.05-.025.1-.037.153-1.564-2.741-5.037-3.8-7.97-4.313a27.614 27.614 0 00-10.514.209 27.8 27.8 0 00-9.655 4.065 29.254 29.254 0 00-7.363 7.217c-4.162 5.769-6.344 12.733-7.265 19.726-1.1 8.37-.472 16.846.008 25.237l.74 12.945a127.221 127.221 0 01.3 12.787c-.045 1.049-.114 2.1-.178 3.146-.032.537.63.778 1.022.574a16.1 16.1 0 003.3.012 48.011 48.011 0 003.612-.326 38.5 38.5 0 006.954-1.605A43.977 43.977 0 0040.805 84.4c1.066-.8 2.056-1.706 3.156-2.458a7.084 7.084 0 011.61-.875 5.077 5.077 0 011-.226c.058.862.158 1.719.2 2.582q.05.947.069 1.9.014.688.007 1.375a20.2 20.2 0 01-.7 5.674 8.313 8.313 0 01-3 4.383 15.553 15.553 0 01-4.89 2.315 49.65 49.65 0 01-6.2 1.222l-6.573 1.04-3.246.514a24.493 24.493 0 00-3.007.564 9.765 9.765 0 00-4.535 3.375 21.34 21.34 0 00-3.405 5.254 9.637 9.637 0 00-1.022 5.846 11.07 11.07 0 00-.31 2.666.434.434 0 00.733.3 1.143 1.143 0 00.118-.164c.189-.31.289-.758.02-1.008.016-.379.047-.757.1-1.133.034-.253.078-.5.126-.755a32.569 32.569 0 011.4-5.006 19.592 19.592 0 012.865-4.617c1.165-1.418 2.453-2.907 4.272-3.438a24.674 24.674 0 013.088-.578l2.24-.354 1.087-.172 6.492-1.027a45.764 45.764 0 006.193-1.245 14.494 14.494 0 003.677-1.667 11.122 11.122 0 003.444 3.768 12.068 12.068 0 002.282 1.262 6.531 6.531 0 002.345.669v.011c0 .293 0 .586-.016.88 0 .136-.017.257-.014.374-.13.038-.25.08-.357.122a2.5 2.5 0 00-1.578 1.383.343.343 0 00.5.383 7.942 7.942 0 011.427-.962 2.8 2.8 0 01.827-.168c.258-.011.51.04.762.009.254.031.505-.02.764-.009a2.8 2.8 0 01.826.168 7.975 7.975 0 011.428.962.343.343 0 00.5-.383 2.508 2.508 0 00-1.586-1.381 3.965 3.965 0 00-.356-.122c0-.117-.01-.238-.014-.374q-.012-.3-.014-.6v-.277c0-.293.007-.586.007-.879a2.583 2.583 0 00-.02-.479.02.02 0 010-.008l.067-.037a3.4 3.4 0 001.551-1.431c.095-.249-.227-.457-.435-.334a7.229 7.229 0 00-.711.616 4.208 4.208 0 01-.791.489 4.743 4.743 0 01-.95.322c-.09.021-.18.035-.266.051-.087-.016-.176-.03-.267-.051a4.744 4.744 0 01-.95-.322 4.2 4.2 0 01-.79-.489 7.228 7.228 0 00-.712-.616c-.207-.122-.53.085-.435.334a3.4 3.4 0 001.552 1.431l.067.037a.043.043 0 010 .008 2.644 2.644 0 00-.021.479c0 .192 0 .385.006.577-.645-.26-1.369-.368-2.017-.628a12.144 12.144 0 01-2.329-1.243 13.173 13.173 0 01-3.516-3.667 12.189 12.189 0 001.035-.781 10.694 10.694 0 003.025-4.278 17.844 17.844 0 00.962-6.09q.014-.733.006-1.467a39.967 39.967 0 00-.084-2.271 27.311 27.311 0 00-.289-2.9l.184-.018a.506.506 0 00.3-.153q.768.289 1.55.536.764.241 1.541.44a5.584 5.584 0 00.851.161 1.858 1.858 0 00.326 0 1.859 1.859 0 00.326 0 5.587 5.587 0 00.851-.161q.777-.2 1.542-.44a30.745 30.745 0 002.11-.752 24.038 24.038 0 00-.362 3.29c-.08 1.244-.1 2.492-.078 3.738a18.8 18.8 0 00.792 5.616c.038.116.079.232.122.347l.049.128a10.7 10.7 0 003.025 4.278 12.457 12.457 0 001.666 1.179 15.289 15.289 0 01-1.3 1.933 8.855 8.855 0 01-2.185 1.777 8.289 8.289 0 01-2.576.97 10.554 10.554 0 00-1.344.283 2.021 2.021 0 00-.99.681.112.112 0 00-.028.073.107.107 0 00.184.081c.686-.7 1.929-.649 2.815-.878a8.653 8.653 0 002.5-1.1 9.042 9.042 0 002.051-1.808 6.357 6.357 0 001.169-1.844 15.031 15.031 0 002.959 1.236 45.722 45.722 0 006.193 1.245l.556.088a6.207 6.207 0 00.12.684q.128.724.2 1.458a20.247 20.247 0 01.06 2.811 19.357 19.357 0 01-.318 2.747 20.5 20.5 0 01-.324 1.408 2.535 2.535 0 00-.163.751 22.265 22.265 0 00-2.667-.578 58.2 58.2 0 00-7.134-.563 12.189 12.189 0 00-6.848 1.665q-.272.176-.536.368a9.894 9.894 0 00-1.8 1.691c-.211.255-.432.529-.633.819-.2-.29-.421-.564-.631-.819a10.06 10.06 0 00-2.339-2.06 9.66 9.66 0 00-2.19-1.033 14.141 14.141 0 00-4.657-.633 58.2 58.2 0 00-7.134.563 26.02 26.02 0 00-3.284.746 16.809 16.809 0 00-3.217 1.237 8.447 8.447 0 00-2.835 2.222 3.257 3.257 0 00-.732 3.158.32.32 0 00.3.186.218.218 0 00.234-.259c-.266-2.209 1.6-3.592 3.353-4.487a17.606 17.606 0 016.051-1.633 61.706 61.706 0 016.493-.407 12.791 12.791 0 016.321 1.181 9.141 9.141 0 012.41 1.905c.455.5.8 1.1 1.205 1.634a2.072 2.072 0 000 .515c.026.223.283.472.515.3.027-.02.053-.04.078-.061l.059-.049c.044.037.09.074.137.11.232.176.49-.073.516-.3a2.114 2.114 0 000-.516c.41-.534.751-1.132 1.205-1.633a9.119 9.119 0 012.41-1.905 12.794 12.794 0 016.323-1.177 61.717 61.717 0 016.493.407 17.6 17.6 0 016.049 1.631c1.754.9 3.62 2.279 3.353 4.487-.031.257.242.314.416.211a.293.293 0 00.12-.137 3.259 3.259 0 00-.733-3.158 8.256 8.256 0 00-2.623-2.119 4.451 4.451 0 00.395-1c.113-.461.212-.922.3-1.389a27.81 27.81 0 00.389-2.971c.077-.974.115-1.952.107-2.929-.006-.77-.009-1.56-.084-2.334l1.214.192 3.328.526a24.668 24.668 0 013.087.578c1.821.531 3.108 2.021 4.273 3.438a19.534 19.534 0 012.858 4.614 32.527 32.527 0 011.4 5.006c.048.251.093.5.126.755.049.376.08.754.1 1.133a.726.726 0 00-.072.83.059.059 0 00.008.016 1.238 1.238 0 00.2.325.435.435 0 00.734-.3 11.077 11.077 0 00-.311-2.666 9.638 9.638 0 00-1.022-5.854 21.37 21.37 0 00-3.402-5.254 9.762 9.762 0 00-4.528-3.373 24.467 24.467 0 00-3.007-.564l-3.246-.514-6.573-1.04a49.593 49.593 0 01-6.2-1.222 15.551 15.551 0 01-4.891-2.315 8.316 8.316 0 01-3-4.383 20.167 20.167 0 01-.7-5.674c-.011-1.091.018-2.181.076-3.271s.205-2.2.241-3.3l.295-.124a32.139 32.139 0 005.6-3.1 32.893 32.893 0 008.866-9.12c.1.131.2.26.312.387q.5.562 1 1.116a17.625 17.625 0 011.818 2.306 8.76 8.76 0 011.558 5.478.475.475 0 00.6.455 12.564 12.564 0 005.918-4.047 12.908 12.908 0 002.785-6.99 12.561 12.561 0 00-.031-2.258 10.821 10.821 0 00-.171-1.16c.358.232.731.445 1.091.674a26.193 26.193 0 012.3 1.646c.7.564 1.369 1.172 2.046 1.766a2.351 2.351 0 00.264.2.817.817 0 00.993.4.842.842 0 00.552-.613 1.49 1.49 0 000-.248c0 .037.041-.085.056-.138.063-.226.1-.464.149-.693a21.882 21.882 0 00.4-2.629 8.894 8.894 0 00-.888-4.812 16.222 16.222 0 00-2.9-3.784 22.17 22.17 0 00-1.92-1.8 25.626 25.626 0 003.775-.3 10.237 10.237 0 003.758-1.31c1.214-.725 2.352-1.592 3.508-2.4.649-.455 1.35-.876 1.957-1.385a1.245 1.245 0 00.456-1.576z"/></svg>