<svg xmlns="http://www.w3.org/2000/svg" width="122.87" height="120" viewBox="0 0 122.87 120"><defs><style>.b,.g{fill:#9c7553}.b{stroke:#9c7553}.b,.e,.f,.i,.k,.n,.o{stroke-linejoin:round;stroke-width:.24px}.d{fill:#fff}.e,.q{fill:#f1cab3}.e{stroke:#f1cab3}.f{fill:#977866;stroke:#977866}.h,.i{fill:#e3b8a1}.i{stroke:#e3b8a1}.j{fill:#cca58f}.k{fill:#4b3a36;stroke:#4b3a36}.l{fill:#139950}.m{fill:#c2c3c3}.n{fill:#ed77a1;stroke:#ed77a1}.o{fill:#e7628c;stroke:#e7628c}</style></defs><path d="M19.993 118.714c-6.138-1.668-11.288-6.145-14.564-11.592A41.006 41.006 0 01.152 88.978c-1.168-15.7 4.427-32.158 16.231-42.579s29.917-13.805 44-6.764c15.5 7.746 23.694 25.669 38.821 34.119 5.562 3.106 12.027 4.915 16.5 9.447 4.244 4.3 6.049 10.438 6.859 16.422.858 6.345.158 13.985-5.306 17.329-3.889 2.38-8.835 1.7-13.348 1.049a284.693 284.693 0 00-85.751.691" fill="#ebebeb"/><path class="b" d="M113.217 20.902a28.006 28.006 0 01-.435 5.2 21.912 21.912 0 01-1.293 4.85 15.516 15.516 0 01-5.075 6.366 17.4 17.4 0 01-4.162 2.282 20.342 20.342 0 01-3.729-1.639 18.012 18.012 0 005.831-2.5 13.247 13.247 0 002.854-2.494 13.21 13.21 0 002.015-3.413 21.833 21.833 0 001.283-4.313 21.827 21.827 0 00.459-4.458 16.6 16.6 0 00-2.251-8.139 13.988 13.988 0 00-4.828-4.687 17.635 17.635 0 00-13.4-2.095 15.384 15.384 0 00-5.934 2.991 45.153 45.153 0 01.11-5.225 21.246 21.246 0 013.232-1.549 16.13 16.13 0 019.677-.779 20.564 20.564 0 017.812 3.858 20.841 20.841 0 017.834 15.744z"/><path class="b" d="M110.324 18.754a20.231 20.231 0 01-.782 8.528 13.8 13.8 0 01-3.968 6.706 16.526 16.526 0 01-6.555 3.415c-.344.094-.689.174-1.036.243a20.277 20.277 0 01-2.971-2.191 27.441 27.441 0 004.256-1.794 15.023 15.023 0 006.159-6.214 14.347 14.347 0 001.75-8.587 12.872 12.872 0 00-4.4-8.093 11.6 11.6 0 00-9.107-2.358 14.707 14.707 0 00-4.7 1.433 10.15 10.15 0 00-3.9 3.231c-.046.07-.091.14-.134.212q-.253-1.874-.349-3.764a14.138 14.138 0 014.5-2.666 16.832 16.832 0 0113.124.792 14.9 14.9 0 015.188 4.016 14.993 14.993 0 012.925 7.091z"/><path class="b" d="M106.549 18.071a13.249 13.249 0 01-1 8.022 15.387 15.387 0 01-5.126 6.338 20.51 20.51 0 01-4.244 2.141q-.761.3-1.539.543-.612-.571-1.173-1.194-.348-.387-.677-.791c.472-.184.942-.373 1.412-.55a19.575 19.575 0 004.335-2.148 12.311 12.311 0 003.013-3 11.848 11.848 0 001.894-4.088 12.2 12.2 0 00-.053-4.958 8.293 8.293 0 00-1.311-3.266 9.18 9.18 0 00-2.371-2.318 10.511 10.511 0 00-6.457-1.807 8.429 8.429 0 00-5.9 2.867 9.652 9.652 0 00-1.791 3.012q-.3-1.365-.507-2.748a5.314 5.314 0 01.324-.613 9.307 9.307 0 013.661-3.148 14.071 14.071 0 014.327-1.415 11.333 11.333 0 018.623 1.819 12.324 12.324 0 014.56 7.302z"/><path class="b" d="M102.627 17.386a12.766 12.766 0 01.544 4.26 9.979 9.979 0 01-1.255 4.284 12.47 12.47 0 01-5.9 5.423c-1.151.54-2.357.93-3.534 1.405q-.489-.626-.935-1.285a20.226 20.226 0 002.677-.885 11.585 11.585 0 002.708-1.563 9.386 9.386 0 001.873-2.079 9.325 9.325 0 001.639-5.295 7.993 7.993 0 00-1.721-4.788 7.244 7.244 0 00-9.3-1.725 6.4 6.4 0 00-3.035 4.06 4.934 4.934 0 00-.093.659q-.286-.993-.525-2a8.915 8.915 0 011.839-3.54 7.9 7.9 0 015.205-2.781 9.992 9.992 0 015.974 1.295 8.22 8.22 0 013.839 4.555z"/><path d="M102.855 114.159c.117 1.393-.008 2.768 0 4.16a.242.242 0 00.007.056l-.157.072a139.276 139.276 0 01-19.989 1.548c-3.374-.038-6.741-.284-10.106-.533-11.032-.816-22.075-1.671-33.138-1.667q-10.323 0-20.615 1-.506-.183-1-.381a.193.193 0 00.025-.1c0-1.392-.123-2.767-.006-4.16a19.557 19.557 0 01.81-4.113c.19-.613.411-1.234.668-1.847a58.911 58.911 0 0015.194 3.9q8.188 1.2 16.411 2.2a71.953 71.953 0 009.409.545 71.95 71.95 0 009.409-.545q8.214-1 16.411-2.2a58.91 58.91 0 0015.194-3.9c.256.613.478 1.234.667 1.847a19.468 19.468 0 01.806 4.118z" fill="#3cc2da"/><path class="d" d="M98.931 104.143a13.458 13.458 0 012.337 3.661 38.85 38.85 0 01-1.755.652 80.007 80.007 0 01-15.343 3.262c-2.348.32-4.7.626-7.047.935q2.649-.644 5.258-1.445a120.923 120.923 0 0014.8-5.707 8.647 8.647 0 001.7-1.016.23.23 0 00.042-.332z"/><path class="b" d="M99.989 21.401a8.59 8.59 0 01-1.165 4.778 9.235 9.235 0 01-1.742 2.215 9.865 9.865 0 01-2.48 1.615 18.672 18.672 0 01-3.192 1.15l-.064.018q-.561-.852-1.064-1.742a8.027 8.027 0 001.221-.047 7.468 7.468 0 003.928-1.682 6.76 6.76 0 002.162-7.257 5.177 5.177 0 00-5.335-3.729c-2.248.289-4.394 2.392-3.638 4.8a2.517 2.517 0 002.817 1.8 1.935 1.935 0 001.465-2.393 1.353 1.353 0 01.281 1.07 3.174 3.174 0 01-1.016 2.081c-1.344 1.158-3.267.475-4.3-.727a4.577 4.577 0 01-.861-1.539 4.9 4.9 0 010-3.067A6.127 6.127 0 0190 15.363a6.768 6.768 0 018.32 1.77 7.648 7.648 0 011.669 4.268z"/><path class="e" d="M98.906 104.142l-.013.012a.2.2 0 00-.205-.056 20.481 20.481 0 00-3.624 1.434q-1.794.795-3.61 1.537-3.639 1.485-7.359 2.735a87.591 87.591 0 01-15.224 3.694 65.4 65.4 0 01-8.47.662 65.4 65.4 0 01-8.47-.662 87.6 87.6 0 01-15.223-3.691q-3.723-1.245-7.358-2.734-1.817-.741-3.611-1.537a20.481 20.481 0 00-3.624-1.438.206.206 0 00-.193.042l-.015.016-.013-.012.015-.016a9.371 9.371 0 01.857-.818c2.133-1.787 4.908-2.347 7.614-2.553a70.37 70.37 0 018.963.121c1.676.086 3.36.126 5.038.075a33.683 33.683 0 002.5-.161 12.123 12.123 0 001.259-.159c.054-.011.107-.023.161-.037a1.01 1.01 0 00.977 1 .843.843 0 00.169-.022.953.953 0 00-.094.682.957.957 0 001.076.674.783.783 0 00-.019.08 1.039 1.039 0 00.973 1.186 1.009 1.009 0 00.173 0 .169.169 0 00.107.032 1.034 1.034 0 00-.027.543.817.817 0 001.33.407 1.018 1.018 0 00.214-.219l.129.035a1.012 1.012 0 00-.183.713.97.97 0 001.1.873 1.107 1.107 0 00.434-.143 1.032 1.032 0 00.03.367.9.9 0 001.1.632 1.012 1.012 0 00.534-.321l.026.019a.617.617 0 00-.075.816 1.14 1.14 0 001.5.071.912.912 0 00.04.187 1.1 1.1 0 001.53.432 1.075 1.075 0 00.475-.509v.121a8.891 8.891 0 00.25 1.88 12.385 12.385 0 01.018 1.315c-.006.14.188.149.231.031.028-.075.055-.151.081-.227l.083.227c.043.118.237.109.231-.031a12.578 12.578 0 01.018-1.315 8.845 8.845 0 00.252-1.88v-.121a1.074 1.074 0 00.474.509 1.1 1.1 0 001.53-.432.871.871 0 00.042-.187 1.141 1.141 0 001.5-.071.633.633 0 00-.1-.847l.026-.019a1.011 1.011 0 00.559.351.9.9 0 001.1-.632 1.048 1.048 0 00.03-.367 1.107 1.107 0 00.433.143.969.969 0 001.095-.873 1.021 1.021 0 00-.159-.681l-.024-.032.139-.023.028.036a1.044 1.044 0 00.177.171.817.817 0 001.33-.407 1.041 1.041 0 00-.028-.543.17.17 0 00.107-.032 1.008 1.008 0 00.173 0 1.038 1.038 0 00.972-1.186.781.781 0 00-.019-.08.957.957 0 001.076-.674.945.945 0 00-.093-.682.857.857 0 00.17.022 1.009 1.009 0 00.976-1c.054.013.108.026.162.037a12.109 12.109 0 001.258.159c.831.086 1.664.137 2.5.161a62.21 62.21 0 005.037-.075 70.383 70.383 0 018.963-.121c2.707.206 5.481.766 7.614 2.553a9.455 9.455 0 01.874.833z"/><path class="f" d="M98.509 37.988a20.338 20.338 0 003.729 1.639 22.8 22.8 0 01-13.618.535.258.258 0 00-.234.049c.024-.193.046-.388.066-.583q.068-.694.1-1.391a3.978 3.978 0 001.628.145c.764-.012 1.527.078 2.293.062a35.212 35.212 0 004.788-.211c.416-.067.836-.148 1.248-.245z"/><path class="b" d="M94.137 17.553a5.24 5.24 0 013.144 4.974 6.375 6.375 0 01-3.425 5.486 6.9 6.9 0 01-3.358.8c-.2 0-.389-.013-.579-.03a41.016 41.016 0 01-.877-1.714 6.93 6.93 0 002.435.282 4.986 4.986 0 003.235-1.349 4.344 4.344 0 001.149-3.786c-.2-1.333-.825-3-2.118-3.635a2.2 2.2 0 00-2.959 1.06 2.459 2.459 0 00.075 2.374c.126.274.5.064.441-.2a.207.207 0 00.037-.087 4.809 4.809 0 01.3-.988l.1.041c-.046.123.121.258.255.2a2.526 2.526 0 01.245-.095.243.243 0 00.01.057 1.4 1.4 0 01-.455 1.441 1.472 1.472 0 01-1.574.1 2.341 2.341 0 01-.811-3.154 3.892 3.892 0 014.73-1.777z"/><path class="b" d="M95.271 21.838a3.975 3.975 0 01-.862 3.762 4.428 4.428 0 01-2.932 1.256 6.575 6.575 0 01-2.736-.412q-.214-.458-.414-.921c.085.046.17.09.258.132a4.354 4.354 0 003.959-.132 3.672 3.672 0 002.032-2.593 3.4 3.4 0 00-1.039-3.382 1.349 1.349 0 00-1.355-.292 1.886 1.886 0 00-.89 1 3.89 3.89 0 00-.26.787 1.445 1.445 0 01-.01-.585 2.294 2.294 0 01.53-1 1.6 1.6 0 011.419-.571c1.356.182 2.029 1.79 2.3 2.951z"/><path class="f" d="M94.996 35.478a20.275 20.275 0 002.971 2.191 35.347 35.347 0 01-7.562.315 4.1 4.1 0 01-1.8-.124.2.2 0 00-.044-.016c.012-.5.007-1-.012-1.506a6.333 6.333 0 002.418.05 26.273 26.273 0 003-.609c.34-.09.686-.192 1.029-.301z"/><path class="g" d="M93.821 20.654a3.171 3.171 0 01.32 1.726 3.162 3.162 0 01-1.653 2.6 3.876 3.876 0 01-3.8.163 5.84 5.84 0 01-.713-.442q-.184-.444-.358-.894c.09.1.184.192.282.282 1.271 1.168 3.41 1.561 4.729.217a3.752 3.752 0 001.028-2.3c.043-.638-.17-1.546-.924-1.644a1.226 1.226 0 00-.945.358.16.16 0 00-.051.066l-.1-.041c.033-.08.067-.158.1-.234.152-.332.4-.8.814-.832.54-.045 1.045.558 1.271.975z"/><path class="f" d="M94.623 35.137a27.265 27.265 0 01-3.636.852 6.59 6.59 0 01-2.455 0 27.54 27.54 0 00-.186-2.047 3.453 3.453 0 002.507-.1 27.92 27.92 0 001.921-.694q.328.4.677.791.558.626 1.172 1.198z"/><path class="f" d="M92.474 32.777l-.085.035a11.388 11.388 0 01-2.842.919 1.6 1.6 0 01-1.249-.241.135.135 0 00-.021-.016q-.128-.855-.312-1.7a.155.155 0 00.057.036 4.869 4.869 0 003.032-.182l.485-.134q.447.655.935 1.283z"/><path class="f" d="M90.277 29.456q.5.889 1.064 1.742a5.258 5.258 0 01-3.24.318.127.127 0 00-.174.086 26.825 26.825 0 00-.844-2.971 7.281 7.281 0 003.194.825zM89.352 27.718c.183.362.37.723.564 1.08a10.584 10.584 0 01-2.943-.794.222.222 0 00-.12-.014 28.725 28.725 0 00-1.647-3.607 7.358 7.358 0 003.833 2.7c.103.213.206.424.313.635zM88.323 25.51q.2.462.414.921a6.713 6.713 0 01-3.7-3.336 10.538 10.538 0 01-.686-4.71 10.752 10.752 0 01.686-4.257q.212 1.381.507 2.748a8.286 8.286 0 00-.521 3.145 6.512 6.512 0 003.3 5.489z"/><path class="b" d="M86.824 29.834a24.809 24.809 0 01.912 11.115c-.644 4.045-2.543 7.641-4.506 11.181.031-.224.059-.448.085-.672a5.488 5.488 0 00.865-1.615c.254-.6.475-1.207.714-1.809s.5-1.176.7-1.786a14.716 14.716 0 00.473-1.927c.223-1.247.3-2.5.4-3.765.094-1.106.534-2.426.083-3.5a.181.181 0 00-.167-.122l-.008-.19a8.274 8.274 0 00.876-.078.126.126 0 000-.241c-.952-.14-1.919-.116-2.877-.172a34.928 34.928 0 01-2.96-.294 43.788 43.788 0 01-5.513-1.176 37.883 37.883 0 01-10.159-4.352c-.868-.553-1.685-1.177-2.509-1.792a13.025 13.025 0 01-1.226-.978 7.393 7.393 0 00-.956-.822c-.016-.446-.057-.888-.077-1.291a11.027 11.027 0 01.014-1.153 17.383 17.383 0 011.555 1.453 17.433 17.433 0 002.037 1.743 38.315 38.315 0 004.824 2.918 33.869 33.869 0 0010.749 3.739 28.379 28.379 0 003.245.257c.583.016 1.166.016 1.75.024a11 11 0 001.671-.043c.212-.03.126-.315-.047-.339a9.9 9.9 0 00-1.489-.022q-.807.013-1.616 0a29.58 29.58 0 01-2.96-.185 26.759 26.759 0 01-5.454-1.288 40.143 40.143 0 01-5.274-2.258 41.074 41.074 0 01-4.8-2.82 17.6 17.6 0 01-2.377-1.975 14.971 14.971 0 00-1.782-1.615c.016-.24.035-.48.05-.72.032-.5.067-.99.1-1.486a32.956 32.956 0 008.6 6.154 58.391 58.391 0 0010.572 3.422c1.132.294 2.276.548 3.415.815 1.028.241 2.09.337 3.135.483.174.024.334-.232.135-.32a3.392 3.392 0 00-.413-.147.155.155 0 00.092-.248 6.279 6.279 0 00-2.03-1.277c-.84-.468-1.69-.921-2.531-1.386q-2.436-1.344-4.947-2.532c-3.405-1.609-6.868-3.09-10.223-4.806-1.863-.953-3.714-1.929-5.617-2.8.041-.668.076-1.336.111-2a5.071 5.071 0 011.034.047c.5.04 1 .015 1.494.047a11.576 11.576 0 012.874.623c1.8.591 3.576 1.273 5.339 1.956a35.079 35.079 0 019.555 5.324 20.81 20.81 0 014.2 4.375.165.165 0 00.285-.166 15.1 15.1 0 00-3.647-4.049 30.971 30.971 0 00-4.555-3.222 63.107 63.107 0 00-10.574-4.462 13.394 13.394 0 00-3.217-.781c-.55-.048-1.1-.033-1.651-.053a7.234 7.234 0 00-1.119-.02q.044-.851.1-1.7c.025-.411.059-.822.095-1.231a31.757 31.757 0 014.858.82 21.531 21.531 0 014.836 1.833c1.53.766 3.126 1.386 4.641 2.179a40.543 40.543 0 014.281 2.627c.761.527 1.5 1.08 2.208 1.679s1.38 1.27 2.07 1.9a.125.125 0 00.179-.02 28.01 28.01 0 012.069 4.992z"/><path class="f" d="M87.614 23.794q.175.449.358.894a6.048 6.048 0 01-2.452-4.749 7.707 7.707 0 01.242-2.082q.239 1 .525 2a5.27 5.27 0 001.327 3.937z"/><path class="h" d="M86.446 52.719a2.109 2.109 0 01.065 2.209 1.994 1.994 0 01-1.784.875 3.034 3.034 0 01-1.057-.212c-.305-.12-.6-.406-.941-.341a.216.216 0 00-.058.02c.075-.332.145-.664.211-1a1.2 1.2 0 001.9.039 1.118 1.118 0 00-.191-1.478 1.733 1.733 0 00-.825-.428c-.049-.011-.1-.023-.153-.032q.309-.519.614-1.04a.112.112 0 01.009-.016.291.291 0 00.193.269 5.53 5.53 0 011.175.37 2.381 2.381 0 01.842.765z"/><path class="b" d="M86.532 32.168h.006c-.7-.188-1.452-.19-2.162-.331-.981-.194-1.957-.447-2.929-.679a125.247 125.247 0 01-5.486-1.438 43.871 43.871 0 01-5.308-1.848 27.681 27.681 0 01-4.8-2.689 36.6 36.6 0 01-4.649-3.86l.058-.765c.028-.349.051-.7.073-1.047 3.325 1.585 6.547 3.372 9.894 4.914 3.364 1.551 6.774 3.017 10.025 4.8.94.516 1.883 1.024 2.821 1.542.83.458 1.664.879 2.457 1.401zM81.074 37.565q-1.492-.3-2.98-.626a49.129 49.129 0 01-9.644-3.036 33.555 33.555 0 01-4.169-2.218q-.985-.62-1.919-1.317a15.434 15.434 0 00-1.673-1.295.24.24 0 00-.029-.049 3.541 3.541 0 00.4-1.76c.251.2.474.437.709.66a11.392 11.392 0 00.979.8c.758.57 1.508 1.154 2.294 1.686a31.194 31.194 0 004.915 2.641 45.366 45.366 0 0010.746 3.245c1.083.182 2.178.3 3.274.382a22.366 22.366 0 002.4.09l.008.19a.175.175 0 00-.169.214 14.7 14.7 0 01-.18 3.406c-.105 1.263-.175 2.524-.4 3.773a20.091 20.091 0 01-1.132 3.6c-.228.588-.437 1.182-.679 1.766-.121.292-.252.582-.393.866l-.018.037q.088-.943.127-1.888c.009-.222.017-.445.023-.667a.151.151 0 00.159-.131 25.193 25.193 0 00.8-5.274c-.006-.89-.141-1.763-.2-2.649-.043-.612.132-1.559-.314-2.053a.171.171 0 00-.289.119q-1.333-.247-2.646-.512z"/><path class="f" d="M84.561 9.52q.1 1.888.349 3.764a9.849 9.849 0 00-1.065 4.994 11.624 11.624 0 00.66 4.87 28.954 28.954 0 00-3.17-4.28 8.207 8.207 0 01-.322-1.946 7.943 7.943 0 01.316-2.031 10.232 10.232 0 011.627-3.626 11.806 11.806 0 011.605-1.745z"/><path class="f" d="M84.64 3.628a45.151 45.151 0 00-.11 5.225q-.486.407-.933.863a10.17 10.17 0 00-2.184 3.252 10.148 10.148 0 00-.911 4.138 5.767 5.767 0 00.141 1.019 31.192 31.192 0 00-5.137-4.311q.262-.586.559-1.158a22.677 22.677 0 018.575-9.028z"/><path class="h" d="M83.783 53.075c.265.111.628.38.524.717a.5.5 0 01-.674.266c-.283-.147-.311-.444-.373-.719a.281.281 0 00-.175-.2l.045-.274a6.29 6.29 0 00.653.21z"/><path class="b" d="M84.035 42.729a21.713 21.713 0 01-.47 4.034 31.047 31.047 0 00-1.252-8.489q.706.09 1.414.176c.025.207.065.415.073.62.014.349.006.7.035 1.046.077.871.195 1.735.2 2.613zM81.432 19.953a27.892 27.892 0 013.059 4.419 15.95 15.95 0 00-3.336-2.986 41.159 41.159 0 00-4.367-2.788c-1.539-.846-3.176-1.47-4.746-2.252a23.975 23.975 0 00-4.774-1.954c-.938-.238-1.891-.408-2.844-.576a21.467 21.467 0 00-2.717-.341c.054-.592.109-1.183.152-1.776l.038-.5a.266.266 0 00.069.036 17.1 17.1 0 002.107.425 10.23 10.23 0 011.92.562c1.223.485 2.435.969 3.678 1.4a31.556 31.556 0 017.375 3.362c1.268.851 2.459 1.8 3.75 2.624a.139.139 0 00.2-.158l.436.503z"/><path class="e" d="M57.414 40.178c.057-.224.061-.325-.152-.426a5.37 5.37 0 00-.5-.2 14.08 14.08 0 00-1.949-.577 29.487 29.487 0 00-7.308-.438 9.285 9.285 0 00-1.888.138 7.131 7.131 0 00-1.661.758q-.753.411-1.508.818.848-.162 1.7-.3c4.313-.673 8.849-.729 12.884 1.122a3.855 3.855 0 00.382-.895zm.279 8.447a3.323 3.323 0 00-.653-1.716 8.068 8.068 0 00-1.148-1.476 8.723 8.723 0 00-1.534-1.238 5.535 5.535 0 01-.095-.315c-.153-.555-.228-1.124-.368-1.68-.021-.082-.126-.054-.135.018a4.331 4.331 0 00.2 1.735 9.773 9.773 0 00-1.218-.589c-.133-.054-.266-.1-.4-.15a4.344 4.344 0 00-.334-1.2.084.084 0 00-.143 0 1.414 1.414 0 000 1.053 9.281 9.281 0 00-1.486-.291l-.042-.173a1.99 1.99 0 00-.353-.987.072.072 0 00-.119.032 1.856 1.856 0 00.082 1.089 10.24 10.24 0 00-1.812.044c-.1-.23-.2-.459-.284-.694-.114-.309-.164-.622-.246-.937-.038-.142-.123-.252-.259-.106-.164.176-.084.538-.03.741a8.206 8.206 0 00.372 1.055 11.053 11.053 0 00-1.347.295 6.666 6.666 0 01-.278-.841 4.81 4.81 0 00-.234-.95.087.087 0 00-.149 0c-.226.3-.094.773-.009 1.1a6.649 6.649 0 00.27.813 12.015 12.015 0 00-1.187.453l-.3.135a5.4 5.4 0 01-.443-.882c-.1-.286-.1-.586-.191-.87a.078.078 0 00-.115-.047c-.61.425.075 1.5.337 1.941l.028.046c-.375.188-.747.4-1.109.622a10.518 10.518 0 01-.419-.537 4.833 4.833 0 01-.622-1.073 5.915 5.915 0 00-.283-.8.076.076 0 00-.119-.016c-.512.547.367 1.707.693 2.136.128.169.27.341.422.507a8.85 8.85 0 00-1.859 1.64.216.216 0 00-.046.16.168.168 0 000 .112 3.272 3.272 0 001.027 1.23 11.411 11.411 0 001.364 1.077 11.316 11.316 0 003.13 1.469 11.263 11.263 0 003.374.459 11.064 11.064 0 001.113-.08.192.192 0 00.05.009.719.719 0 00.31-.057 18.973 18.973 0 002.52-.576 20.984 20.984 0 002.09-.689 3.1 3.1 0 001.449-.946c.03.047.062.094.1.139.141.188.421.013.434-.189zm11.112 17.3c.163-.118.013-.39-.162-.276-.831.54-2.82 2.038-2.953 2.162a2.022 2.022 0 01-.73.117c-.793-.021-1.35-.692-2.132-.783a2.439 2.439 0 00-1.854.607 2.5 2.5 0 00-.568.71 2.46 2.46 0 00-.567-.71 2.436 2.436 0 00-1.853-.607c-.784.091-1.339.762-2.133.783a2.018 2.018 0 01-.729-.117c-.133-.124-2.121-1.623-2.953-2.162-.176-.114-.325.158-.162.276.579.421 2.971 2.554 3.014 2.6a5.222 5.222 0 01.617.962c.378.727.648 1.5 1.05 2.217a4 4 0 001.513 1.621 2.444 2.444 0 002.107.145.35.35 0 00.1-.062.369.369 0 00.1.062 2.443 2.443 0 002.107-.145 3.994 3.994 0 001.513-1.621c.4-.715.672-1.491 1.05-2.217a5.263 5.263 0 01.617-.962c.034-.038 2.425-2.171 3.005-2.592zm9.562-25.681q-.757-.405-1.508-.818a7.122 7.122 0 00-1.661-.758 9.271 9.271 0 00-1.887-.138 29.5 29.5 0 00-7.309.438 14.109 14.109 0 00-1.949.577c-.168.063-.338.126-.5.2-.212.1-.209.2-.152.426a3.825 3.825 0 00.382.894c4.034-1.852 8.572-1.8 12.885-1.122q.846.146 1.695.309zm1.726 6.527a.164.164 0 000-.112.216.216 0 00-.046-.16 9.117 9.117 0 00-2.075-1.783c.126-.143.245-.289.354-.432.326-.428 1.2-1.589.693-2.136a.076.076 0 00-.119.016 5.933 5.933 0 00-.281.8 4.9 4.9 0 01-.622 1.074c-.11.148-.231.308-.361.468a13.824 13.824 0 00-1.134-.609c.266-.442.936-1.508.33-1.931a.079.079 0 00-.115.047c-.087.284-.088.584-.191.87a5.132 5.132 0 01-.415.834l-.04-.018a11.813 11.813 0 00-1.464-.538 6.744 6.744 0 00.263-.8c.085-.326.217-.8-.009-1.1a.087.087 0 00-.149 0 4.858 4.858 0 00-.234.95 6.619 6.619 0 01-.275.833 11.08 11.08 0 00-1.362-.26 8.122 8.122 0 00.384-1.082c.053-.2.134-.564-.031-.741-.135-.145-.22-.035-.257.107-.083.314-.134.627-.248.936-.091.248-.2.49-.3.733a9.97 9.97 0 00-1.818.011c0-.011.006-.021.008-.032a2.02 2.02 0 00.1-1.152.073.073 0 00-.12-.032 2 2 0 00-.354.986 8.915 8.915 0 01-.069.282 8.981 8.981 0 00-1.507.353 1.641 1.641 0 00.047-1.224.084.084 0 00-.144 0 4.712 4.712 0 00-.343 1.239l-.049.162-.059.023a9.583 9.583 0 00-1.6.818 4.707 4.707 0 00.292-2.032c-.009-.071-.114-.1-.135-.018-.14.557-.215 1.126-.368 1.681a9.159 9.159 0 01-.209.652 8.627 8.627 0 00-1.136.969 8.071 8.071 0 00-1.149 1.476 3.335 3.335 0 00-.653 1.716c.013.2.293.377.446.184a1.667 1.667 0 00.1-.139 3.1 3.1 0 001.448.946 21.1 21.1 0 002.09.689 19.058 19.058 0 002.521.576.722.722 0 00.311.057.181.181 0 00.049-.009 11.094 11.094 0 001.114.08 11.255 11.255 0 003.374-.459 11.32 11.32 0 003.131-1.469 11.4 11.4 0 001.363-1.077 3.259 3.259 0 001.019-1.216zm1.721-8.563a39.132 39.132 0 01.99 11.726 34.675 34.675 0 01-7.343 18.915 35.329 35.329 0 01-6.813 6.56 35.363 35.363 0 01-4.04 2.552c-1.363.737-2.778 1.336-4.2 1.942-.772-.329-1.542-.656-2.3-1-8.146-4.874-13.794-13.533-16.664-22.678a29.245 29.245 0 01-1.571-9.239 36.846 36.846 0 011.683-9.165 59.056 59.056 0 005.922-1.411 38.391 38.391 0 008.936-3.851q.826-.5 1.621-1.053a29.461 29.461 0 0021.2 6.311c.855.161 1.714.284 2.579.399zM64.169 61.407a.968.968 0 00.808-1.21 3.034 3.034 0 00-.3-.749c-.158-.323-.306-.65-.449-.981a19.117 19.117 0 01-.723-1.923 25.573 25.573 0 01-.86-8.594c.066-1.708.181-3.423.154-5.133a.144.144 0 00-.287 0c-.133 1.383-.158 2.776-.215 4.164l-.006.146c-.03.753-.065 1.506-.093 2.26a39.541 39.541 0 01-1.3 6.827 39.207 39.207 0 01-1.484 4.288 3.2 3.2 0 01-.68.466 4.218 4.218 0 00.646.126.247.247 0 00.114.2.864.864 0 00.447.09 3.882 3.882 0 01.453 0 .4.4 0 00.4-.313.221.221 0 00.023-.042c.055-.01.111-.018.165-.025.428.048.859.085 1.288.111a.156.156 0 00.1.147 3.057 3.057 0 001.799.145z"/><path class="d" d="M79.481 46.841c-.108.111-.21.231-.319.341q-.3.3-.633.583a10.619 10.619 0 01-1.52 1.078 11.6 11.6 0 01-1.537.755 2.918 2.918 0 00.289-.706 3.7 3.7 0 00.018-1.686 5.183 5.183 0 00-.26-.856c-.035-.09-.067-.188-.1-.281a39.8 39.8 0 014.062.772z"/><path class="i" d="M78.577 37.677c.222.044.443.086.665.126a29.461 29.461 0 01-21.2-6.311q.334-.233.661-.475a9.365 9.365 0 001.7-1.4 9.418 9.418 0 001.7 1.4c.735.545 1.5 1.053 2.282 1.527a38.378 38.378 0 008.939 3.851c1.737.514 3.488.929 5.253 1.282z"/><path class="b" d="M75.239 14.427a30.291 30.291 0 015.687 4.948 32.606 32.606 0 00-6.79-4.531c-2.442-1.112-5.036-1.827-7.507-2.866a11.4 11.4 0 00-2.1-.709c-.813-.169-1.636-.278-2.448-.458a.215.215 0 00-.16.024c.006-.1.009-.2.011-.3q1.456-.36 2.939-.6a31.156 31.156 0 017.9 3q.914.5 1.793 1.055a15.91 15.91 0 00-.094.231 2.552 2.552 0 01.66.35l.02.016a.434.434 0 00.075-.123c.005-.016.009-.029.014-.037z"/><path class="j" d="M77.497 45.199c.6.377 1.165.793 1.736 1.214-.9-.236-1.8-.449-2.711-.617a3.091 3.091 0 00.975-.597z"/><path class="k" d="M76.862 39.425q.753.411 1.508.818-.849-.162-1.7-.3c-4.313-.673-8.851-.729-12.885 1.122a3.827 3.827 0 01-.382-.894c-.057-.224-.06-.325.152-.426a5.37 5.37 0 01.5-.2 14.109 14.109 0 011.949-.577 29.5 29.5 0 017.309-.438 9.271 9.271 0 011.887.138 7.122 7.122 0 011.662.757z"/><path class="j" d="M76.413 44.589c.265.13.52.271.77.418a2.544 2.544 0 01-.868.582.132.132 0 00-.086.155 27.535 27.535 0 00-1.265-.188 5.742 5.742 0 00.816-.655 3.624 3.624 0 00.364-.438c.091.04.18.082.269.126zM75.752 44.288a6.14 6.14 0 01-1.161 1.221c-.481-.056-.964-.1-1.446-.13a4.4 4.4 0 001.178-1.59 11.932 11.932 0 011.429.499z"/><path class="l" d="M75.18 46.973a3.616 3.616 0 01.116 1.272 2.648 2.648 0 01-.363 1.088 1.876 1.876 0 01-.381.456c-.044.038-.138.138-.213.2a10.675 10.675 0 01-3.567.4c-.3-.018-.6-.05-.891-.092a5.361 5.361 0 01-.477-.422 3.084 3.084 0 01-.61-1.034 3.469 3.469 0 01.178-2.577c.419-.09.843-.162 1.268-.217a2.482 2.482 0 00-.394 1.041 2.747 2.747 0 00.991 2.545 2.809 2.809 0 002.5.284 1.986 1.986 0 001.331-2.019 3.1 3.1 0 00-.781-1.969c.322.02.643.047.964.08a1.713 1.713 0 00.109.3 5.826 5.826 0 01.22.664z"/><path class="j" d="M73.925 43.684a3.562 3.562 0 01-1.323 1.669 20.423 20.423 0 00-1.4 0 4.915 4.915 0 001.258-1.685l.1-.222a10.373 10.373 0 011.365.238zM72.111 43.414a5.071 5.071 0 01-.413.829 6.866 6.866 0 01-.968 1.139c-.493.034-.986.089-1.478.171a4.356 4.356 0 00.925-1.491c.076-.19.142-.382.2-.578a9.178 9.178 0 011.734-.07z"/><path class="m" d="M71.947 100.43a.507.507 0 01-.26.581c-.259.105-.682-.247-.444-.5a.706.706 0 01.609-.106.123.123 0 00.063.01z"/><path class="e" d="M71.252 99.486a.648.648 0 00-.279.123.227.227 0 000 .384.81.81 0 00-.25.245.8.8 0 00-.025.813 1.037 1.037 0 00-.144-.029.223.223 0 00-.247.219.891.891 0 00-.52.408.9.9 0 00-.129.482.833.833 0 00-.677 0 .207.207 0 000 .353l-.025.013a1.033 1.033 0 00-.483.665.876.876 0 00-.019.281 1.177 1.177 0 00-.6.156.935.935 0 00-.22 1.379l-.139.023c-.129-.172-.384-.348-.6-.216a.185.185 0 00-.041.037.139.139 0 00-.111-.119c-.159-.029-.219-.11-.4-.055a.961.961 0 00-.338.205 1.059 1.059 0 00-.352.7.921.921 0 00.018.262.406.406 0 00-.054-.009.217.217 0 00-.2-.2 1 1 0 00-1.144.808.85.85 0 00.182.677l-.026.019a2.667 2.667 0 00-.484-.43c-.114-.409-.719-.422-1.047-.21a.788.788 0 00-.365.558.947.947 0 00-.257-.107.3.3 0 00-.193.012.639.639 0 00-.35-.234.558.558 0 00-.621.193c.059-.339.126-.677.205-1.015a5.054 5.054 0 01.754-2.107 1.735 1.735 0 01.665-.512 3.824 3.824 0 001.041-.464l.051.008a.2.2 0 00.153-.365c-.151-.11-.171-.3-.319-.428a.75.75 0 00-.441-.178 2.031 2.031 0 00-.676-.008 2.977 2.977 0 00-1.215.635 3.381 3.381 0 00-.933 1.3 3.372 3.372 0 00-.933-1.3 2.97 2.97 0 00-1.216-.635 2.023 2.023 0 00-.674.008.75.75 0 00-.441.178c-.149.127-.168.318-.319.428a.2.2 0 00.153.365l.051-.008a3.819 3.819 0 001.041.464 1.717 1.717 0 01.664.512 5.047 5.047 0 01.758 2.1c.079.338.146.676.205 1.015a.558.558 0 00-.621-.193.634.634 0 00-.35.234.3.3 0 00-.193-.012.92.92 0 00-.257.107.786.786 0 00-.365-.558c-.329-.212-.933-.2-1.048.21a2.523 2.523 0 00-.509.46l-.026-.019a.861.861 0 00.207-.708 1 1 0 00-1.144-.808.216.216 0 00-.2.2.473.473 0 00-.055.009.872.872 0 00.02-.262 1.062 1.062 0 00-.352-.7.967.967 0 00-.338-.205c-.176-.055-.236.026-.4.055a.138.138 0 00-.111.119.228.228 0 00-.042-.037c-.214-.132-.469.044-.6.216l-.129-.035a.934.934 0 00-.229-1.366 1.178 1.178 0 00-.6-.156.856.856 0 00-.019-.281 1.034 1.034 0 00-.482-.665l-.025-.013a.208.208 0 000-.353.833.833 0 00-.677 0 .906.906 0 00-.129-.482.891.891 0 00-.52-.408.224.224 0 00-.248-.219 1.094 1.094 0 00-.143.029.8.8 0 00-.023-.813.815.815 0 00-.251-.245.227.227 0 000-.384.647.647 0 00-.279-.123 7.011 7.011 0 001.156-.681 10.821 10.821 0 003.273-3.712 17.134 17.134 0 001.647-5.074 30.689 30.689 0 00.464-5.717q-.014-1.162-.116-2.32a36.441 36.441 0 009.15 7.746l.05.291a17.133 17.133 0 001.647 5.074 10.823 10.823 0 003.274 3.712 7.033 7.033 0 001.159.688z"/><path class="m" d="M70.887 101.835a.339.339 0 01-.035.426c-.153.164-.574.2-.627-.08a.4.4 0 01.171-.37c.125-.076.267 0 .4.016a.641.641 0 00.091.008z"/><path class="j" d="M69.905 43.559l-.044.126a3.94 3.94 0 01-1.34 2.009c-.441.1-.878.217-1.307.358a4.811 4.811 0 00.848-1.34c.1-.234.193-.471.281-.709a8.733 8.733 0 011.562-.444z"/><path class="m" d="M69.864 103.044a.474.474 0 01-.39.592c-.249.058-.518-.068-.442-.359a.542.542 0 01.186-.284c.121-.089.241-.048.37-.1a.27.27 0 00.126-.107.6.6 0 01.15.258zM68.414 104.057a.486.486 0 01.3.589c-.083.31-.413.279-.59.06s-.18-.538.126-.646a.567.567 0 01.122-.028.154.154 0 00.042.025z"/><path class="d" d="M68.263 48.98a3.886 3.886 0 00.607 1.128c-.655-.144-1.3-.327-1.944-.523a16.407 16.407 0 01-1.736-.6c-.392-.17-.752-.391-1.13-.581.168-.092.317-.213.48-.321q.363-.242.745-.457a12.722 12.722 0 011.5-.713 13.367 13.367 0 011.621-.526 3.513 3.513 0 00-.143 2.593z"/><path class="j" d="M67.82 44.227c-.034.092-.069.186-.1.278a6.029 6.029 0 01-1.141 1.773q-.246.093-.487.2a9.31 9.31 0 00-.716.336 11.215 11.215 0 00.55-1.222l.091-.217a8.2 8.2 0 011.803-1.148z"/><path class="m" d="M67.073 105.59a.364.364 0 01-.388.4.416.416 0 01-.441-.408.551.551 0 01.19-.361 1.288 1.288 0 01.159-.092c.042-.025.122-.116.156-.122a.126.126 0 00.076-.048c.035.219.24.39.248.631zM65.462 106.101c.115.3.2.818-.253.78a.386.386 0 01-.372-.337.434.434 0 01.441-.41.288.288 0 00.184-.033z"/><path class="j" d="M65.528 45.802a4.989 4.989 0 01-.646 1.272 7.509 7.509 0 00-.193.114c-.133.081-.281.166-.43.257.069-.122.14-.242.215-.359a7.359 7.359 0 011.054-1.284z"/><path class="i" d="M60.938 80.425a28.441 28.441 0 004.417-2.081c-.076.316-.121.646-.176.962q-.144.826-.246 1.659a30.111 30.111 0 00-.22 3.314 30.8 30.8 0 00.413 5.426 36.441 36.441 0 01-9.15-7.746 30.988 30.988 0 00-.351-2.654c-.055-.316-.1-.646-.175-.962a27.239 27.239 0 004.847 2.227.274.274 0 00.1.013.272.272 0 00.105-.013c.149-.046.292-.095.436-.145z"/><path class="n" d="M63.798 68.304a3.041 3.041 0 00.962.265 13.73 13.73 0 01-.507.347 4.04 4.04 0 01-.672-.078 7.4 7.4 0 00-1.767-.273 1.887 1.887 0 00-.725.187 3.44 3.44 0 01.049-.08 1.881 1.881 0 01.721-.621 1.645 1.645 0 01.876-.181 3.378 3.378 0 011.063.434z"/><path class="i" d="M64.189 60.463c0 .127 0 .132-.138.17a3.2 3.2 0 01-.526.079 6.747 6.747 0 00-1.115.194.2.2 0 00-.133.145 4.587 4.587 0 00-1.3-.044c-.051 0-.1-.011-.152-.018a.3.3 0 00-.129-.324.485.485 0 00-.071-.028.483.483 0 00-.235-.079 1.327 1.327 0 00-.606.067.909.909 0 00-.275.178l-.206-.034c.037-.088.075-.177.11-.266a4.635 4.635 0 001.371-2.624 8.311 8.311 0 00.113-1.664 39.54 39.54 0 001.3-6.827 81.18 81.18 0 00-.05 1.7 19.634 19.634 0 001.281 7.576c.128.329.273.653.423.971a2.353 2.353 0 01.338.828z"/><path class="m" d="M63.713 107.182c.071.062.411.317.388.428s-.3.1-.371.085a.847.847 0 01-.394-.163c-.181-.138-.337-.412-.107-.573a.66.66 0 01.1-.054 3.275 3.275 0 01.384.277z"/><path class="n" d="M64.608 69.286c-.235.441-.435.9-.654 1.349a7.13 7.13 0 01-.141.273 7.138 7.138 0 01-6.907-.163l-.055-.11c-.219-.448-.42-.908-.655-1.349a10.4 10.4 0 00.95.588 6.291 6.291 0 003.256.943 6.292 6.292 0 003.257-.943 10.282 10.282 0 00.949-.588z"/><path class="o" d="M64.251 68.917c-.158.1-.319.2-.482.3a7.22 7.22 0 01-3.2 1.062.964.964 0 00-.169.015.945.945 0 00-.168-.015 6.991 6.991 0 01-3-.952 3.868 3.868 0 012.785-.009 1.09 1.09 0 00.107.132.192.192 0 00.243.025.607.607 0 01.051.026.3.3 0 01.011-.033.193.193 0 00.253-.018 3.2 3.2 0 00.4-.7 1.887 1.887 0 01.725-.187 7.4 7.4 0 011.767.273 4.041 4.041 0 00.677.081z"/><path d="M62.166 9.44q1.36.182 2.7.49-1.483.237-2.939.6c0-.157 0-.313-.008-.469a1.751 1.751 0 00-.1-.555.8.8 0 00-.052-.1c.156.006.298.019.399.034z" stroke="#977866" stroke-linejoin="round" stroke-width=".24" fill="#9c7553"/><path class="m" d="M62.118 107.515a.393.393 0 01.286.473c-.077.19-.418.186-.579.123a.515.515 0 01-.307-.566.611.611 0 01.048-.164.281.281 0 01.042-.059 1.252 1.252 0 00.151.059c.056.019.114.03.168.054a.216.216 0 00.063.016.291.291 0 00.128.064z"/><path class="q" d="M62.276 61.055a.235.235 0 00-.009.066c-.43-.026-.86-.063-1.288-.111a4.588 4.588 0 011.297.045z"/><path class="o" d="M63.813 70.909c-.6 1.122-1.6 2.287-3.008 1.863a.366.366 0 00-.4.14.363.363 0 00-.4-.14c-1.473.444-2.5-.857-3.094-2.026a7.138 7.138 0 006.902.163z"/><path class="f" d="M61.237 9.364a.191.191 0 000 .083 8.492 8.492 0 00-.079 1.279q-1.449.39-2.862.9c-.486.073-.974.128-1.465.176a36.582 36.582 0 00-4.51.629 40.668 40.668 0 00-7.95 2.846q.591-.44 1.2-.852l.014.032.01.022a3.944 3.944 0 01.7-.388 2.697 2.697 0 01-.044-.108q.877-.557 1.792-1.055a30.8 30.8 0 0110.6-3.49c.459-.061.919-.113 1.378-.162.251.031.748.057 1.216.088z"/><path class="g" d="M61.16 10.726c0 .129 0 .258-.006.385a13.845 13.845 0 00-1.994.36c-.286.061-.574.113-.862.157q1.412-.51 2.862-.902z"/><path class="b" d="M61.132 11.543c-.053.758-.13 1.513-.2 2.267a17.875 17.875 0 01-2.468.2c-1.08.078-2.163.222-3.233.38a36.423 36.423 0 00-4.473.958 37.037 37.037 0 015.743-3.024 24.72 24.72 0 002.454-.327c.73-.148 1.452-.308 2.177-.454z"/><path class="e" d="M60.896 56.218a8.312 8.312 0 01-.113 1.664 4.635 4.635 0 01-1.371 2.624 39.208 39.208 0 001.484-4.288z"/><path class="b" d="M60.898 14.201c-.008.1-.018.2-.025.3-.063.844-.1 1.69-.14 2.536a5.625 5.625 0 01-1.1.135c-.512.04-1.022.126-1.531.2-1.132.164-2.254.4-3.368.66a60.784 60.784 0 00-6.381 1.817 49.094 49.094 0 00-5.357 2.242q.746-.873 1.549-1.691a35.969 35.969 0 014.982-4.227 36.827 36.827 0 015.286-1.272c1.209-.2 2.43-.353 3.651-.454a14.691 14.691 0 002.434-.246z"/><path class="q" d="M60.826 60.993c.051.007.1.013.152.018a2.44 2.44 0 00-.165.025.164.164 0 00.013-.043z"/><path class="b" d="M60.717 17.436c-.037.77-.076 1.539-.139 2.307 0 .032 0 .065-.007.1a7.832 7.832 0 01-2.356 1.357c-.952.4-1.917.772-2.888 1.12-2.169.776-4.392 1.376-6.582 2.087a75.355 75.355 0 00-9.847 3.962 27.137 27.137 0 013.4-5.428l.139-.071a54.88 54.88 0 0112.013-4.325c1.22-.295 2.45-.567 3.693-.753a31.313 31.313 0 011.752-.229 5.662 5.662 0 00.822-.127z"/><path class="b" d="M60.531 20.364q-.075.979-.139 1.957c-.027.409-.059.822-.085 1.234-.868 1.015-2.367 1.46-3.54 1.969-1.908.825-3.8 1.678-5.751 2.406-3.886 1.451-7.835 2.824-11.841 3.909-.56.152-1.121.3-1.681.447q.211-.834.489-1.646t.625-1.617q1.96-.98 3.98-1.836a78.906 78.906 0 016.211-2.318c2.146-.7 4.328-1.285 6.448-2.064q1.573-.578 3.118-1.233a8.662 8.662 0 002.166-1.208zM41.729 37.148c-1.6.341-3.211.667-4.822.957a18.43 18.43 0 010-2q1.088-.133 2.168-.32a35.921 35.921 0 006.066-1.712c1.962-.708 3.9-1.493 5.87-2.172a45.706 45.706 0 005.788-2.284 23.423 23.423 0 002.342-1.306 4.4 4.4 0 001.278-1.182 4.285 4.285 0 01-.336 1.914.192.192 0 00-.018.061 17.137 17.137 0 00-1.618 1.261q-.465.346-.941.674t-.979.643a33.5 33.5 0 01-4.17 2.218 49.061 49.061 0 01-9.645 3.036z"/><path d="M60.428 69.468a.3.3 0 00-.011.033l-.051-.026a.2.2 0 00.036-.029.2.2 0 00.026.022z" fill="#e7628c"/><path class="b" d="M60.273 24.803c.01.528.075 1.089.116 1.652a3.734 3.734 0 01-1.622 1.594c-.636.383-1.308.715-1.97 1.05a41.911 41.911 0 01-5.671 2.255c-3.786 1.271-7.441 2.984-11.369 3.793-.929.191-1.872.329-2.814.445a19.847 19.847 0 01.431-2.8c.508-.14 1.017-.274 1.528-.411 2.054-.55 4.083-1.2 6.1-1.875s4.017-1.375 6-2.113c1.945-.722 3.842-1.563 5.737-2.4a11.76 11.76 0 003.539-1.891 16.3 16.3 0 00-.005.701z"/><path class="n" d="M59.667 68.673c.141.211.209.442.349.644a3.868 3.868 0 00-2.785.009l-.2-.111c-.341-.2-.67-.418-.991-.646a3.045 3.045 0 00.962-.265 3.384 3.384 0 011.064-.432 1.646 1.646 0 01.876.181 1.869 1.869 0 01.725.62z"/><path class="q" d="M59.301 60.773l.208.035a.407.407 0 00-.128.22.313.313 0 000 .071 4.212 4.212 0 01-.646-.126 3.2 3.2 0 00.68-.466l-.114.266z"/><path class="m" d="M59.284 107.546a.513.513 0 01-.305.566c-.162.063-.5.066-.58-.123a.394.394 0 01.285-.474.3.3 0 00.128-.065.217.217 0 00.062-.016c.055-.023.113-.035.168-.054a1.209 1.209 0 00.151-.059.312.312 0 01.043.059.561.561 0 01.048.166zM57.574 106.959c.231.161.075.435-.106.573a.849.849 0 01-.4.163c-.068.01-.349.017-.371-.085s.317-.365.389-.428a3.278 3.278 0 01.38-.277.652.652 0 01.108.054z"/><path class="k" d="M57.249 39.749c.213.1.21.2.152.426a3.855 3.855 0 01-.382.894c-4.035-1.852-8.57-1.8-12.884-1.122q-.853.134-1.7.3.756-.405 1.508-.818a7.13 7.13 0 011.661-.758 9.285 9.285 0 011.888-.138 29.486 29.486 0 017.308.438 14.08 14.08 0 011.949.577c.168.059.338.122.5.201z"/><path class="f" d="M56.486 12.325h.016a37.038 37.038 0 00-5.743 3.024q-.784.22-1.561.471a34.42 34.42 0 00-10.564 5.391q-.33.256-.646.529.658-.921 1.389-1.786a29.893 29.893 0 013-3.057 13.818 13.818 0 011.548-.87c1.276-.622 2.6-1.168 3.919-1.678a34.163 34.163 0 014.165-1.339 32.212 32.212 0 014.477-.685z"/><path class="i" d="M58.091 78.91c-.64-.293-1.275-.6-1.9-.938a35.312 35.312 0 01-4.041-2.553 35.392 35.392 0 01-6.813-6.56 34.674 34.674 0 01-7.34-18.914 39.11 39.11 0 01.991-11.726 49.748 49.748 0 002.558-.4 36.846 36.846 0 00-1.683 9.165 29.245 29.245 0 001.571 9.239c2.872 9.15 8.517 17.809 16.657 22.687z"/><path class="j" d="M56.331 47.09c.074.117.146.237.214.359-.147-.092-.3-.176-.429-.257q-.347-.21-.709-.4a12.873 12.873 0 01-.6-1.4c0-.01-.008-.02-.011-.03q.122.1.239.208a7.5 7.5 0 011.296 1.52z"/><path class="d" d="M56.271 48.088c.162.108.312.229.479.321-.379.19-.737.411-1.13.581a16.365 16.365 0 01-1.737.6c-.64.2-1.288.379-1.944.523a3.85 3.85 0 00.606-1.128 3.509 3.509 0 00-.139-2.588 13.366 13.366 0 011.621.526 12.79 12.79 0 011.5.713l.346.2c.13.079.262.165.398.252z"/><path class="m" d="M55.526 106.136a.434.434 0 01.442.41.386.386 0 01-.372.337c-.454.039-.367-.48-.253-.78a.288.288 0 00.183.033z"/><path class="j" d="M55.006 46.601c-.1-.044-.193-.087-.289-.128q-.478-.2-.973-.37a5.423 5.423 0 01-.938-1.53q-.1-.253-.19-.508a8.27 8.27 0 011.719.951c.088.219.18.432.266.639.122.293.249.626.405.946z"/><path class="m" d="M54.562 105.578a.416.416 0 01-.442.408.364.364 0 01-.387-.4c.007-.241.212-.408.248-.631a.129.129 0 00.077.048c.033.006.114.1.156.122a1.177 1.177 0 01.157.092.55.55 0 01.191.361z"/><path class="j" d="M52.457 44.78a4.638 4.638 0 00.674 1.13q-.669-.193-1.352-.318a4.261 4.261 0 01-1.121-1.839 12.23 12.23 0 01-.084-.25 8.872 8.872 0 011.53.37c.107.307.233.607.353.907z"/><path class="m" d="M52.555 104.065c.3.107.308.42.125.646s-.507.25-.59-.06a.486.486 0 01.3-.589.2.2 0 00.042-.025.567.567 0 01.123.028z"/><path class="l" d="M51.835 46.255a3.476 3.476 0 01.178 2.577 3.084 3.084 0 01-.61 1.034 5.282 5.282 0 01-.478.422c-.294.042-.591.074-.89.092a10.677 10.677 0 01-3.567-.4c-.074-.058-.169-.158-.213-.2a1.88 1.88 0 01-.382-.456 2.636 2.636 0 01-.362-1.088 3.584 3.584 0 01.116-1.272 5.69 5.69 0 01.219-.668 1.713 1.713 0 00.109-.3c.32-.034.641-.06.963-.08a3.109 3.109 0 00-.781 1.969 1.988 1.988 0 001.332 2.019 2.809 2.809 0 002.5-.284 2.748 2.748 0 00.991-2.545 2.493 2.493 0 00-.4-1.041c.431.063.855.134 1.275.221z"/><path class="m" d="M51.773 103.277c.076.291-.193.417-.442.359a.474.474 0 01-.39-.592.594.594 0 01.15-.257.268.268 0 00.126.107c.128.052.249.011.369.1a.538.538 0 01.187.283z"/><path class="j" d="M50.345 44.13a4.55 4.55 0 00.8 1.361 15.967 15.967 0 00-1.444-.131 6.486 6.486 0 01-.878-1.049 5.344 5.344 0 01-.432-.876 9.222 9.222 0 011.721.011 7.083 7.083 0 00.233.684z"/><path class="m" d="M50.408 101.806a.4.4 0 01.171.37c-.051.277-.473.243-.625.08a.339.339 0 01-.035-.426.661.661 0 00.091-.008c.131-.016.273-.087.398-.016zM49.563 100.515c.237.248-.185.6-.444.5a.508.508 0 01-.26-.581l.033-.011a.125.125 0 00.063-.01.7.7 0 01.608.102z"/><path class="f" d="M43.5 18.687a38.275 38.275 0 016.022-2.51 35.97 35.97 0 00-4.982 4.227q-.8.818-1.549 1.691a49.586 49.586 0 00-5.791 3.341 23.654 23.654 0 00-2.182 1.569 28.369 28.369 0 011.268-2.585 7.245 7.245 0 01.543-.8 11.493 11.493 0 011.791-1.793 28.592 28.592 0 014.88-3.14z"/><path class="j" d="M49.234 45.345c-.468-.009-.937 0-1.405.025a3.729 3.729 0 01-1.23-1.613 10.46 10.46 0 011.351-.272l.111.255a4.806 4.806 0 001.173 1.605zM46.206 43.87a4.556 4.556 0 001.109 1.533c-.473.035-.947.085-1.42.145a6.114 6.114 0 01-1.094-1.149 12 12 0 011.405-.529zM44.744 44.968a5.426 5.426 0 00.779.63 41.32 41.32 0 00-.49.072q-.369.056-.737.125a.132.132 0 00-.088-.137 2.473 2.473 0 01-.8-.519c.317-.2.645-.382.986-.55l.022-.01a3.5 3.5 0 00.328.389z"/><path class="d" d="M45.389 46.068c-.038.093-.071.191-.106.281a5.181 5.181 0 00-.26.856 3.709 3.709 0 00.018 1.686 2.92 2.92 0 00.29.706 11.553 11.553 0 01-1.537-.755 10.706 10.706 0 01-1.521-1.078c-.218-.186-.43-.38-.632-.583-.11-.11-.211-.23-.319-.341a39.742 39.742 0 014.067-.772z"/><path class="b" d="M44.715 12.656q.3.57.559 1.158a31.194 31.194 0 00-4.873 4.038 9.7 9.7 0 00-1-5.462 12.851 12.851 0 00-4.288-5.084 14.285 14.285 0 00-7.135-2.054 13.834 13.834 0 00-3.983.187 13.728 13.728 0 00-3.713 1.471 19.542 19.542 0 00-3.237 2.3 26.309 26.309 0 012.242-6.475 20.312 20.312 0 013.949-1.431 16.13 16.13 0 019.677.779 22.462 22.462 0 0111.802 10.573z"/><path class="j" d="M43.975 45.855c-.806.157-1.606.348-2.4.558.5-.373 1.007-.741 1.529-1.082a3.012 3.012 0 00.871.524z"/><path class="f" d="M42.293 22.954a27.136 27.136 0 00-3.4 5.428q-1.1.534-2.176 1.11a17.773 17.773 0 00-2.541 1.589 8.875 8.875 0 00-.685.586q.215-.916.49-1.817t.6-1.757a6.055 6.055 0 01.655-.665 19.2 19.2 0 012.01-1.463 52.254 52.254 0 015.047-3.011z"/><path class="b" d="M38.197 11.02a10.486 10.486 0 011.91 6.009 6.214 6.214 0 01-.184 1.321l-.115.122a29.007 29.007 0 00-3.926 5.351l-.026-.016a7.931 7.931 0 00.931-2.679 11.278 11.278 0 00-2.8-8.68c-3.548-4.223-9.912-3.573-14.108-.716a11.454 11.454 0 00-3.436 3.638 30.565 30.565 0 01.132-3.058q.114-1.227.337-2.444a21.708 21.708 0 011.87-1.519 13.1 13.1 0 017.064-2.751 21.633 21.633 0 013.932.248 14.15 14.15 0 013.683.992 11.545 11.545 0 014.736 4.182z"/><path class="d" d="M38.424 111.211q2.608.8 5.258 1.445c-2.349-.309-4.7-.616-7.047-.935a80 80 0 01-15.343-3.264 35.53 35.53 0 01-1.755-.652 13.474 13.474 0 012.335-3.659l.013.012a.23.23 0 00.044.33 8.678 8.678 0 001.7 1.016 120.826 120.826 0 0014.795 5.707z"/><path class="h" d="M38.135 55.269a.208.208 0 00-.058-.02c-.34-.065-.636.222-.942.341a3.027 3.027 0 01-1.056.212 1.994 1.994 0 01-1.784-.875 2.106 2.106 0 01.066-2.209 2.379 2.379 0 01.842-.763 5.531 5.531 0 011.175-.37.291.291 0 00.193-.269l.009.016q.3.522.613 1.04l-.152.032a1.727 1.727 0 00-.825.428 1.118 1.118 0 00-.193 1.478 1.2 1.2 0 001.9-.039q.099.501.212.998z"/><path class="f" d="M38.601 29.028q-.344.795-.625 1.617t-.489 1.646c-.567.152-1.132.311-1.692.491-.529.171-1.048.377-1.591.5a2.863 2.863 0 00-.97.458.224.224 0 00-.147.056l-.01.009q.1-.636.222-1.267c.118-.146.245-.285.376-.419a8.3 8.3 0 011.036-.876 19.054 19.054 0 012.229-1.353q.824-.445 1.661-.862z"/><path class="b" d="M38.492 38.272a28.74 28.74 0 00-.876 3.91 16.689 16.689 0 01-.693-3.716h.022l1.547-.194z"/><path class="h" d="M37.675 52.862l.046.274a.278.278 0 00-.175.2c-.062.274-.091.572-.374.719a.494.494 0 01-.673-.266c-.105-.337.259-.605.523-.717a6.289 6.289 0 00.653-.21z"/><path class="f" d="M37.615 42.181q-.174 1.132-.266 2.277a9.594 9.594 0 01-.828-3.061 12.852 12.852 0 01-.077-1.572 15.4 15.4 0 00.018-1.583.156.156 0 00-.3-.042 5.337 5.337 0 00-.193 1.625 12.666 12.666 0 00.1 1.746 8.258 8.258 0 001.046 3.166.156.156 0 00.217.063 35.4 35.4 0 00-.067 3.607 29.464 29.464 0 01-1.817-4.3 15.186 15.186 0 01-.465-2.454c-.092-.836-.121-1.673-.259-2.5-.028-.169-.265-.11-.279.038a14.078 14.078 0 00.562 5.106 28.215 28.215 0 002.161 4.734.147.147 0 00.126.09q.079 1.522.285 3.035c-1.963-3.54-3.861-7.136-4.505-11.181a22.618 22.618 0 01-.224-4.952l.115.008a.223.223 0 00.17.263 11.812 11.812 0 003.008-.1c.255-.028.512-.057.768-.089a18.428 18.428 0 000 2c-.189.033-.157.351.025.354a16.689 16.689 0 00.679 3.722zM37.367 32.793a19.846 19.846 0 00-.431 2.8l-.426.051a27.78 27.78 0 01-1.63.145c-.458.025-.917 0-1.374.011a.179.179 0 00-.154-.059c-.17.01-.29.016-.371.188a.285.285 0 00-.025.092l-.115-.008q.055-.9.176-1.793a.237.237 0 00.243.021c.183-.1.338-.24.517-.344a2.167 2.167 0 01.662-.205c.5-.111.988-.313 1.477-.472s.965-.292 1.451-.427z"/><path class="b" d="M35.941 16.652a9.534 9.534 0 01.46 4.371 7.944 7.944 0 01-1.831 3.883 6.237 6.237 0 01-3.927 2.291c-1.579.123-3.072-1.01-4.068-2.139a4.232 4.232 0 01-1.082-4.062c.44-1.234 2.161-2.315 3.384-1.448.661.468.654 1.331.694 2.062a.136.136 0 00.272 0 2.623 2.623 0 00-.33-2.03 2.066 2.066 0 00-1.847-.737 3.118 3.118 0 00-2.74 2.75 5.1 5.1 0 001.654 4.088 5.366 5.366 0 004.292 1.914 6.786 6.786 0 004-2.389 8.525 8.525 0 00.985-1.4l.026.016a28.823 28.823 0 00-1.954 4.149.217.217 0 00-.119.014 9.647 9.647 0 01-3.523.824 6.9 6.9 0 01-3.357-.8 6.375 6.375 0 01-3.425-5.486 5.239 5.239 0 013.144-4.975 3.893 3.893 0 014.727 1.776 2.341 2.341 0 01-.811 3.154 1.47 1.47 0 01-1.573-.1 1.4 1.4 0 01-.456-1.441c.1-.327-.412-.557-.562-.237a.03.03 0 010 .007.219.219 0 00-.308-.026c-1.333 1.12-.582 3.336.483 4.366 1.38 1.334 3.238.515 4.47-.59a6.109 6.109 0 002.144-4.426 8.229 8.229 0 00-1.518-4.982 5.759 5.759 0 00-4.366-2.57 10.455 10.455 0 00-6.154 1.832 8.959 8.959 0 00-3.653 4.952 8.309 8.309 0 00.8 6.105 13.468 13.468 0 004.273 4.649 16.383 16.383 0 003.241 1.793 7.348 7.348 0 003.657.539c.6-.092 1.163-.351 1.754-.5-.049.232-.1.464-.138.7a.566.566 0 00-.135.488.3.3 0 00.04.068c-.094.578-.17 1.158-.225 1.741a.178.178 0 00-.058.02 6.425 6.425 0 01-3.857.256 15.85 15.85 0 01-4.067-1.061 15.3 15.3 0 01-4.417-2.953c-.257-.594-.5-1.2-.723-1.8a41.1 41.1 0 01-2.758-13.05 9.907 9.907 0 011.559-2.336 12.587 12.587 0 015.959-3.617 10.256 10.256 0 016.947.3 10.062 10.062 0 015.017 6.047z"/><path class="b" d="M31.656 13.94c2.361 1.851 3.67 5.832 2.1 8.557a6.91 6.91 0 01-1.613 1.863 3.833 3.833 0 01-2.26.995c-1.591.018-2.728-2.031-2.441-3.465a1.566 1.566 0 01.427-.811 1.945 1.945 0 001.5 2.241 2.517 2.517 0 002.817-1.8c.756-2.406-1.391-4.509-3.638-4.8a5.175 5.175 0 00-5.334 3.729 6.757 6.757 0 002.161 7.257 7.466 7.466 0 003.927 1.682 7.7 7.7 0 004.291-.713 2.018 2.018 0 00-.14.468.186.186 0 00.039.146q-.34 1.068-.59 2.165a.2.2 0 00-.111-.006c-.581.126-1.129.382-1.715.485a5.9 5.9 0 01-1.856-.051 9.515 9.515 0 01-3.231-1.213 15.483 15.483 0 01-4.639-3.829 9.163 9.163 0 01-2.122-5.4 7.829 7.829 0 012.148-5.417 10.048 10.048 0 014.987-2.847 5.951 5.951 0 015.293.764zM32.357 39.628c.02.195.042.389.066.583a.258.258 0 00-.234-.049 25.988 25.988 0 01-4.626.732 35.634 35.634 0 01-3.552-3.33c.912.166 1.833.289 2.748.442a10.515 10.515 0 002.016.212 16.445 16.445 0 001.867-.216 4.262 4.262 0 001.514-.392.159.159 0 00.086-.122q.011 1.076.115 2.14z"/><path class="b" d="M32.314 35.337c-.054.7-.08 1.41-.074 2.114a.185.185 0 00-.267-.145 5 5 0 01-1.575.341 12.988 12.988 0 01-1.886.175 14.409 14.409 0 01-2.076-.272c-.659-.105-1.319-.2-1.976-.313-.3-.051-.6-.105-.892-.166a19.657 19.657 0 01-1.249-1.6 22.54 22.54 0 01-1.92-3.357 16.288 16.288 0 001.507 1.13 13.578 13.578 0 004.6 2 15.645 15.645 0 004.178.473 4.165 4.165 0 001.63-.38z"/><path class="f" d="M27.545 40.868a19.671 19.671 0 01-13.154-3.549 15.511 15.511 0 01-5.075-6.366 22.028 22.028 0 01-1.292-4.85 28 28 0 01-.433-5.2A20.839 20.839 0 0115.42 5.158a20.584 20.584 0 013.863-2.428 26.309 26.309 0 00-2.242 6.475 20.666 20.666 0 00-2.545 2.648 15.1 15.1 0 00-3.133 6.759 15.713 15.713 0 00.579 7.947 19.192 19.192 0 004.151 6.508 13.445 13.445 0 006.471 4.17c.473.122.951.221 1.431.308a35.633 35.633 0 003.55 3.323z"/><path class="f" d="M23.555 37.049a12.3 12.3 0 01-2.9-.919 12.878 12.878 0 01-3.077-2.155 20.816 20.816 0 01-4.53-5.859 14.908 14.908 0 01-1.511-7.487 14.618 14.618 0 012.264-7.121 18.188 18.188 0 013.111-3.64q-.223 1.216-.337 2.444a30.565 30.565 0 00-.132 3.058 10.451 10.451 0 00-1.158 2.855 13.113 13.113 0 00.875 8.245 15.409 15.409 0 004.226 5.624 22.54 22.54 0 001.92 3.357c.388.556.808 1.087 1.249 1.598z"/><path class="f" d="M19.218 29.307c.228.6.466 1.207.723 1.8a14.93 14.93 0 01-2.147-2.562c-2.386-3.613-3.192-8.408-1.334-12.29a41.1 41.1 0 002.758 13.052z"/><path d="M20.627 76.48a37.039 37.039 0 011.167 4.792 31.551 31.551 0 001.065 4.927.342.342 0 00.652-.047c.025-.077.048-.155.071-.231a.38.38 0 00.06-.11 31.486 31.486 0 001.159-4.9 37.106 37.106 0 011.259-4.77c.4-1.257.851-2.934 2.462-2.921a3.384 3.384 0 012.078.779c.593.442 1.045 1.128 1.731 1.42a.421.421 0 00.557-.466 4.75 4.75 0 00-1.7-2.109 5.171 5.171 0 00-2.353-1.143c-1.963-.32-3.351.938-4.148 2.6a20.954 20.954 0 00-1.411 4.145 20.212 20.212 0 00-1.241-3.772c-.765-1.679-2.128-2.965-4.1-2.682a5.173 5.173 0 00-2.374 1.094 4.75 4.75 0 00-1.74 2.076.421.421 0 00.547.477c.691-.279 1.157-.957 1.758-1.388a3.386 3.386 0 012.093-.739c1.616.017 2.032 1.702 2.408 2.968z"/><path d="M68.717 104.637c-.083.31-.414.279-.591.06s-.18-.539.126-.646a.576.576 0 01.122-.028.154.154 0 00.042.025.486.486 0 01.301.589zm.758-1.01c-.249.058-.518-.068-.443-.359a.542.542 0 01.187-.288c.121-.089.241-.048.37-.1a.27.27 0 00.126-.107.6.6 0 01.151.257.475.475 0 01-.391.597zm1.379-1.376c-.153.164-.574.2-.627-.08a.4.4 0 01.171-.371c.125-.076.267 0 .4.016a.641.641 0 00.09.008.34.34 0 01-.034.427zm-18.463 1.8a.2.2 0 00.042-.025.566.566 0 01.122.028c.3.107.308.421.125.646s-.508.25-.59-.06a.486.486 0 01.301-.593zm-1.447-1.017a.594.594 0 01.15-.257.268.268 0 00.126.107c.129.052.249.011.369.1a.534.534 0 01.186.284c.076.292-.193.417-.442.359a.475.475 0 01-.389-.593zm-1.023-1.21a.661.661 0 00.091-.008c.132-.02.274-.092.4-.016a.4.4 0 01.171.371c-.052.277-.473.244-.626.08a.339.339 0 01-.039-.427zm49.6 6.626a80.074 80.074 0 01-15.355 3.266c-2.35.32-4.7.627-7.053.936q2.651-.645 5.262-1.446a121.023 121.023 0 0014.808-5.711 8.653 8.653 0 001.7-1.017.23.23 0 00.042-.333.2.2 0 00-.205-.056 20.5 20.5 0 00-3.627 1.435q-1.8.8-3.613 1.538-3.636 1.485-7.366 2.736a87.663 87.663 0 01-15.235 3.694 65.45 65.45 0 01-8.477.662 65.459 65.459 0 01-8.476-.662 87.672 87.672 0 01-15.234-3.694q-3.726-1.245-7.364-2.736-1.818-.741-3.613-1.538a20.5 20.5 0 00-3.627-1.435.2.2 0 00-.193.042l-.015.016a.23.23 0 00.044.33 8.684 8.684 0 001.7 1.017 120.923 120.923 0 0014.807 5.711q2.609.8 5.262 1.446c-2.351-.309-4.7-.616-7.053-.936a80.063 80.063 0 01-15.354-3.265c-.591-.2-1.176-.421-1.756-.652a13.483 13.483 0 012.337-3.661l.015-.016a9.378 9.378 0 01.858-.818c2.135-1.788 4.912-2.349 7.62-2.555a70.428 70.428 0 018.969.121c1.678.086 3.363.126 5.042.076.836-.024 1.67-.075 2.5-.161a12.133 12.133 0 001.26-.159c.054-.011.107-.023.161-.037a1.011 1.011 0 00.978 1 .843.843 0 00.169-.022.953.953 0 00-.094.682.958.958 0 001.077.674.784.784 0 00-.019.08 1.04 1.04 0 00.974 1.187 1.009 1.009 0 00.173 0 .169.169 0 00.107.032 1.035 1.035 0 00-.027.544.817.817 0 001.331.407 1.019 1.019 0 00.215-.22.934.934 0 00-.232-1.372 1.179 1.179 0 00-.6-.156.856.856 0 00-.019-.282 1.035 1.035 0 00-.481-.662l-.025-.013a.208.208 0 000-.354.833.833 0 00-.678 0 .906.906 0 00-.129-.482.891.891 0 00-.52-.409.224.224 0 00-.248-.219 1.084 1.084 0 00-.144.029.8.8 0 00-.023-.813.816.816 0 00-.252-.239.227.227 0 000-.385.647.647 0 00-.28-.123 7.017 7.017 0 001.157-.681 10.828 10.828 0 003.275-3.711 17.147 17.147 0 001.649-5.078 30.693 30.693 0 00.465-5.72q-.014-1.163-.116-2.321a32.03 32.03 0 00-.351-2.66c-.054-.316-.1-.646-.175-.962a27.26 27.26 0 004.85 2.228.274.274 0 00.1.013.272.272 0 00.105-.013c.144-.047.287-.1.431-.146a28.433 28.433 0 004.42-2.082c-.076.316-.121.646-.177.962q-.144.827-.246 1.66a30.127 30.127 0 00-.22 3.317 30.817 30.817 0 00.414 5.43l.05.29a17.129 17.129 0 001.654 5.082 10.821 10.821 0 003.275 3.715 7.041 7.041 0 001.157.681.648.648 0 00-.279.123.227.227 0 000 .385.811.811 0 00-.25.245.8.8 0 00-.025.813 1.04 1.04 0 00-.144-.029.223.223 0 00-.247.219.891.891 0 00-.52.409.9.9 0 00-.129.482.833.833 0 00-.678 0 .207.207 0 000 .354l-.025.013a1.032 1.032 0 00-.484.665.855.855 0 00-.018.282 1.179 1.179 0 00-.6.156.936.936 0 00-.22 1.379l.028.036a1.044 1.044 0 00.177.171.817.817 0 001.331-.407 1.042 1.042 0 00-.035-.552.17.17 0 00.107-.032 1.008 1.008 0 00.173 0 1.04 1.04 0 00.974-1.187c-.006-.027-.012-.054-.02-.08a.957.957 0 001.077-.674.946.946 0 00-.093-.682.857.857 0 00.17.022 1.01 1.01 0 00.977-1c.054.013.108.026.162.037a12.12 12.12 0 001.259.159c.832.086 1.666.137 2.5.161 1.679.05 3.364.011 5.041-.076a70.441 70.441 0 018.97-.121c2.709.206 5.485.767 7.62 2.555a9.46 9.46 0 01.87.83 13.468 13.468 0 012.339 3.663c-.574.233-1.159.452-1.75.655zm-50.663-8.032l.033-.011a.125.125 0 00.064-.01.7.7 0 01.608.106c.237.249-.185.6-.444.5a.509.509 0 01-.261-.585zm3.3-24.986a35.417 35.417 0 01-6.818-6.564 34.7 34.7 0 01-7.348-18.928 39.133 39.133 0 01.991-11.734 49.653 49.653 0 003.241-.53 59.146 59.146 0 005.246-1.282 38.409 38.409 0 008.946-3.854q.827-.5 1.622-1.053.335-.233.662-.475a9.37 9.37 0 001.705-1.4 9.423 9.423 0 001.706 1.4c.736.545 1.5 1.054 2.284 1.528a38.408 38.408 0 008.946 3.854 59.061 59.061 0 005.911 1.408c.856.156 1.715.284 2.576.4a39.156 39.156 0 01.991 11.734 34.7 34.7 0 01-7.348 18.928 35.354 35.354 0 01-6.818 6.564 35.391 35.391 0 01-4.043 2.554c-1.364.737-2.78 1.336-4.2 1.943-.772-.329-1.543-.657-2.3-1a31.56 31.56 0 01-1.9-.938 35.339 35.339 0 01-4.054-2.555zM38.076 55.25c-.34-.065-.636.222-.943.342a3.03 3.03 0 01-1.057.212 2 2 0 01-1.785-.875 2.108 2.108 0 01.066-2.21 2.374 2.374 0 01.843-.764 5.579 5.579 0 011.176-.371.291.291 0 00.193-.268l.009.016q.3.522.614 1.041l-.152.032a1.729 1.729 0 00-.825.429 1.118 1.118 0 00-.193 1.479 1.2 1.2 0 001.9-.039q.1.5.21 1a.208.208 0 00-.056-.024zm-.357-2.11a.279.279 0 00-.175.2c-.062.275-.091.573-.374.72a.494.494 0 01-.674-.266c-.105-.337.259-.606.524-.717a6.291 6.291 0 00.653-.209l.047.272zm-4.657-12.16a22.631 22.631 0 01-.225-4.955q.055-.9.176-1.795a.237.237 0 00.243.021c.184-.1.338-.24.518-.345a2.169 2.169 0 01.663-.205c.5-.111.988-.312 1.478-.472s.966-.3 1.452-.432c.508-.14 1.018-.275 1.529-.412 2.055-.551 4.086-1.2 6.1-1.876s4.02-1.376 6.009-2.114c1.947-.722 3.845-1.564 5.741-2.406a11.768 11.768 0 003.542-1.893c-.008.237-.012.473-.007.709.01.529.075 1.09.116 1.653a3.736 3.736 0 01-1.623 1.595c-.636.383-1.309.715-1.971 1.051a41.906 41.906 0 01-5.675 2.256c-3.789 1.272-7.447 2.986-11.378 3.8-.929.191-1.872.329-2.816.445l-.426.051a26.19 26.19 0 01-1.631.145c-.458.025-.918 0-1.375.011a.179.179 0 00-.154-.059c-.17.01-.29.016-.371.188a.267.267 0 00-.025.092.222.222 0 00.169.263 11.823 11.823 0 003.011-.1c.256-.028.513-.057.768-.089q1.089-.133 2.17-.32a35.953 35.953 0 006.074-1.713c1.963-.709 3.9-1.494 5.875-2.174a45.847 45.847 0 005.792-2.286 23.441 23.441 0 002.343-1.307 4.4 4.4 0 001.279-1.183 4.288 4.288 0 01-.336 1.915.192.192 0 00-.018.061 17.146 17.146 0 00-1.622 1.265q-.465.346-.942.675t-.979.643a33.439 33.439 0 01-4.173 2.22 49.1 49.1 0 01-9.652 3.039l-.983.212c-1.6.342-3.214.667-4.826.958a.183.183 0 00.025.354h.017q.775-.1 1.548-.193a28.758 28.758 0 00-.876 3.912q-.174 1.133-.266 2.279a9.6 9.6 0 01-.829-3.063 12.858 12.858 0 01-.077-1.573 15.408 15.408 0 00.018-1.584.156.156 0 00-.305-.042 5.343 5.343 0 00-.193 1.627 12.673 12.673 0 00.1 1.747 8.267 8.267 0 001.047 3.168.156.156 0 00.217.063 35.415 35.415 0 00-.067 3.61 29.482 29.482 0 01-1.818-4.3 15.2 15.2 0 01-.465-2.455c-.092-.837-.121-1.674-.259-2.5-.028-.169-.265-.11-.28.038a14.086 14.086 0 00.562 5.11 28.233 28.233 0 002.163 4.737.147.147 0 00.126.09q.079 1.523.285 3.037c-1.968-3.552-3.868-7.151-4.513-11.194zm-.518-7.917a.3.3 0 00.04.068c-.094.578-.17 1.158-.225 1.742a.178.178 0 00-.058.02 6.431 6.431 0 01-3.86.256 15.862 15.862 0 01-4.07-1.062 15.31 15.31 0 01-4.42-2.955 14.94 14.94 0 01-2.148-2.563c-2.388-3.615-3.194-8.414-1.335-12.3a9.913 9.913 0 011.56-2.337 12.6 12.6 0 015.964-3.62 10.265 10.265 0 016.952.3 10.069 10.069 0 015.021 6.052 9.539 9.539 0 01.46 4.373 7.95 7.95 0 01-1.833 3.886 6.242 6.242 0 01-3.93 2.292c-1.58.123-3.074-1.011-4.071-2.141a4.234 4.234 0 01-1.083-4.065c.44-1.235 2.163-2.317 3.387-1.449.662.469.654 1.332.695 2.064a.137.137 0 00.273 0 2.624 2.624 0 00-.33-2.032 2.068 2.068 0 00-1.848-.737 3.12 3.12 0 00-2.742 2.752 5.1 5.1 0 001.656 4.091 5.371 5.371 0 004.295 1.915 6.791 6.791 0 004-2.39 8.53 8.53 0 00.986-1.4 7.936 7.936 0 00.932-2.681 11.285 11.285 0 00-2.8-8.686c-3.551-4.226-9.92-3.576-14.119-.717a11.462 11.462 0 00-3.438 3.64 10.458 10.458 0 00-1.159 2.857 13.121 13.121 0 00.875 8.251 15.425 15.425 0 004.228 5.628 16.412 16.412 0 001.509 1.131 13.59 13.59 0 004.608 2 15.658 15.658 0 004.181.474 4.169 4.169 0 001.627-.383c-.054.7-.08 1.411-.074 2.116a.185.185 0 00-.267-.145 5.008 5.008 0 01-1.576.341 13 13 0 01-1.887.175 14.42 14.42 0 01-2.077-.272c-.659-.105-1.32-.2-1.978-.313-.3-.051-.6-.105-.892-.166a12.31 12.31 0 01-2.9-.92 12.888 12.888 0 01-3.079-2.156 20.83 20.83 0 01-4.533-5.863 14.916 14.916 0 01-1.512-7.492 14.627 14.627 0 012.266-7.125 18.2 18.2 0 013.114-3.643 21.73 21.73 0 011.872-1.52 13.114 13.114 0 017.069-2.753 21.649 21.649 0 013.935.248 14.169 14.169 0 013.685.993 11.553 11.553 0 014.74 4.186 10.492 10.492 0 011.911 6.013 6.217 6.217 0 01-.184 1.322l-.115.122a29.025 29.025 0 00-3.929 5.355 28.879 28.879 0 00-1.951 4.153.217.217 0 00-.119.014 9.655 9.655 0 01-3.526.825 6.9 6.9 0 01-3.36-.8 6.379 6.379 0 01-3.428-5.49 5.242 5.242 0 013.146-4.978 3.9 3.9 0 014.73 1.778 2.342 2.342 0 01-.811 3.156 1.47 1.47 0 01-1.574-.105 1.4 1.4 0 01-.456-1.442c.1-.326-.412-.557-.562-.236a.029.029 0 010 .007.22.22 0 00-.309-.026c-1.334 1.121-.582 3.338.482 4.369 1.382 1.335 3.241.515 4.474-.591a6.113 6.113 0 002.146-4.429 8.234 8.234 0 00-1.519-4.986 5.763 5.763 0 00-4.37-2.572 10.464 10.464 0 00-6.159 1.833 8.97 8.97 0 00-3.657 4.955 8.318 8.318 0 00.8 6.109 13.477 13.477 0 004.276 4.652 16.4 16.4 0 003.244 1.795 7.355 7.355 0 003.66.539c.6-.092 1.164-.352 1.755-.5-.049.232-.1.464-.138.7a.566.566 0 00-.143.489zm-.354 7.1a26.008 26.008 0 01-4.629.732 19.687 19.687 0 01-13.164-3.551 15.522 15.522 0 01-5.079-6.371 22.041 22.041 0 01-1.293-4.854 28.021 28.021 0 01-.434-5.2 20.854 20.854 0 017.835-15.755 20.624 20.624 0 013.866-2.429A20.321 20.321 0 0123.244 1.3a16.141 16.141 0 019.683.779 22.478 22.478 0 0111.817 10.585q.3.571.56 1.158a31.217 31.217 0 00-4.877 4.04 9.708 9.708 0 00-1.005-5.466 12.86 12.86 0 00-4.291-5.087 14.3 14.3 0 00-7.14-2.055 13.845 13.845 0 00-3.986.187 13.74 13.74 0 00-3.716 1.472 19.557 19.557 0 00-3.239 2.3 20.682 20.682 0 00-2.547 2.65 15.108 15.108 0 00-3.135 6.763 15.722 15.722 0 00.576 7.954 19.2 19.2 0 004.154 6.513 13.455 13.455 0 006.476 4.172c.474.122.951.221 1.432.308.913.166 1.834.289 2.75.443a10.523 10.523 0 002.017.212 16.459 16.459 0 001.869-.216 4.265 4.265 0 001.515-.392.159.159 0 00.086-.122q.011 1.07.115 2.136.03.292.066.584a.256.256 0 00-.234-.055zm13.388-25.694l.011.022a3.95 3.95 0 01.7-.388 2.697 2.697 0 01-.044-.108q.878-.557 1.793-1.056a30.829 30.829 0 0110.606-3.493 53.4 53.4 0 011.379-.162c.258.028.756.056 1.224.087a.191.191 0 000 .083 8.5 8.5 0 00-.079 1.28c0 .129 0 .258-.006.385a13.857 13.857 0 00-2 .36c-.287.061-.575.113-.863.157a29.76 29.76 0 01-1.466.177 36.614 36.614 0 00-4.513.63 40.7 40.7 0 00-7.956 2.848q.591-.441 1.2-.853zm15.745 5.042c3.328 1.586 6.552 3.374 9.9 4.918 3.366 1.552 6.779 3.019 10.033 4.8.94.516 1.884 1.025 2.823 1.543.832.458 1.666.88 2.46 1.4h.006c-.7-.188-1.453-.19-2.163-.331-.982-.194-1.959-.448-2.931-.68a124.029 124.029 0 01-5.49-1.439 43.907 43.907 0 01-5.312-1.85 27.7 27.7 0 01-4.8-2.691 36.624 36.624 0 01-4.653-3.862l.058-.766c.023-.343.047-.693.069-1.042zm-23.345 2.243q.659-.921 1.39-1.787a29.913 29.913 0 013-3.059 13.776 13.776 0 011.55-.87c1.276-.622 2.6-1.168 3.921-1.679a34.19 34.19 0 014.168-1.34 32.236 32.236 0 014.485-.686h.016a24.733 24.733 0 002.456-.328c.726-.148 1.448-.308 2.174-.454-.053.757-.13 1.514-.2 2.269a17.883 17.883 0 01-2.47.2 43.908 43.908 0 00-3.236.38 36.453 36.453 0 00-4.476.959q-.785.22-1.562.471a34.447 34.447 0 00-10.572 5.4q-.328.25-.644.524zm.641.085a28.614 28.614 0 014.882-3.139 38.3 38.3 0 016.027-2.512 36.856 36.856 0 015.29-1.273c1.209-.2 2.432-.354 3.654-.454a14.707 14.707 0 002.438-.251c-.008.1-.018.2-.025.3-.063.844-.1 1.691-.14 2.537a5.63 5.63 0 01-1.1.136c-.513.04-1.023.126-1.532.2-1.133.165-2.256.4-3.371.661a60.639 60.639 0 00-6.385 1.819 49.13 49.13 0 00-5.361 2.244 49.616 49.616 0 00-5.8 3.343 23.673 23.673 0 00-2.184 1.57 28.385 28.385 0 011.269-2.587 7.248 7.248 0 01.543-.805 11.5 11.5 0 011.795-1.79zm19.6-.627c-.952.4-1.918.772-2.891 1.12-2.171.777-4.4 1.377-6.587 2.089a75.414 75.414 0 00-9.855 3.965q-1.1.535-2.177 1.111a17.753 17.753 0 00-2.543 1.59 8.876 8.876 0 00-.686.586q.215-.917.491-1.819t.6-1.759a6 6 0 01.655-.666 19.218 19.218 0 012.011-1.463 52.3 52.3 0 015.051-3.012l.139-.071a54.926 54.926 0 0112.022-4.328c1.221-.3 2.452-.568 3.7-.754a32.187 32.187 0 011.753-.23 5.567 5.567 0 00.82-.121 68.57 68.57 0 01-.139 2.309c0 .032 0 .065-.007.1a7.851 7.851 0 01-2.354 1.352zM33.296 32.535c.118-.146.245-.285.376-.419a8.31 8.31 0 011.037-.877 19.07 19.07 0 012.235-1.359q.824-.441 1.662-.858 1.961-.981 3.983-1.837a78.638 78.638 0 016.216-2.32c2.148-.7 4.331-1.286 6.452-2.066q1.574-.578 3.121-1.234a8.693 8.693 0 002.167-1.209q-.075.978-.139 1.958c-.027.409-.059.822-.085 1.235-.868 1.015-2.369 1.461-3.543 1.97-1.909.826-3.8 1.679-5.755 2.408-3.889 1.451-7.84 2.826-11.85 3.912-.561.152-1.122.3-1.682.447s-1.132.311-1.693.491c-.53.171-1.049.378-1.592.5a2.865 2.865 0 00-.971.458.224.224 0 00-.147.056l-.01.009q.093-.633.218-1.265zm-3.925-9.2a2.519 2.519 0 002.819-1.8c.756-2.408-1.392-4.512-3.64-4.8a5.179 5.179 0 00-5.338 3.732 6.761 6.761 0 002.163 7.262 7.472 7.472 0 003.93 1.683 7.706 7.706 0 004.294-.714 2.018 2.018 0 00-.14.468.186.186 0 00.039.146q-.34 1.068-.591 2.167a.2.2 0 00-.112-.006c-.582.126-1.13.383-1.716.485a5.9 5.9 0 01-1.858-.052 9.521 9.521 0 01-3.234-1.214 15.5 15.5 0 01-4.642-3.831 9.169 9.169 0 01-2.124-5.4 7.833 7.833 0 012.149-5.42 10.068 10.068 0 014.991-2.85 5.959 5.959 0 015.3.765c2.363 1.852 3.673 5.836 2.1 8.563a6.916 6.916 0 01-1.617 1.861 3.834 3.834 0 01-2.261 1c-1.593.018-2.731-2.033-2.443-3.468a1.566 1.566 0 01.426-.811 1.947 1.947 0 001.505 2.234zm32.087-6.2a5.07 5.07 0 011.034.047c.5.04 1 .015 1.495.047a11.588 11.588 0 012.876.623c1.8.592 3.579 1.274 5.343 1.958a35.107 35.107 0 019.563 5.328 20.824 20.824 0 014.2 4.378.165.165 0 00.285-.167 15.115 15.115 0 00-3.649-4.052 30.957 30.957 0 00-4.558-3.224 63.156 63.156 0 00-10.578-4.448 13.4 13.4 0 00-3.22-.781c-.551-.048-1.1-.033-1.652-.053a7.239 7.239 0 00-1.12-.02q.044-.851.1-1.7c.025-.412.059-.822.095-1.232a31.787 31.787 0 014.862.821 21.547 21.547 0 014.84 1.834c1.531.767 3.128 1.387 4.644 2.18a40.658 40.658 0 014.285 2.629c.76.527 1.5 1.081 2.209 1.68s1.381 1.271 2.071 1.905a.125.125 0 00.179-.02 28.025 28.025 0 012.073 4.989 24.823 24.823 0 01.909 11.123c-.645 4.047-2.545 7.646-4.509 11.188.031-.224.059-.448.085-.673a5.491 5.491 0 00.866-1.616c.254-.6.475-1.207.715-1.81s.5-1.177.7-1.788a14.726 14.726 0 00.473-1.929c.223-1.247.3-2.506.4-3.767.094-1.107.534-2.428.083-3.5a.181.181 0 00-.167-.122.175.175 0 00-.169.215 14.711 14.711 0 01-.18 3.408c-.1 1.264-.175 2.525-.405 3.776a20.1 20.1 0 01-1.133 3.6c-.228.588-.437 1.183-.679 1.767-.121.292-.252.582-.393.866l-.019.037q.088-.944.127-1.889c.009-.223.018-.445.023-.668a.151.151 0 00.159-.131 25.209 25.209 0 00.8-5.278c-.006-.891-.141-1.764-.2-2.651-.043-.612.132-1.56-.314-2.054a.171.171 0 00-.289.119q-1.319-.239-2.633-.507-1.493-.3-2.982-.627a49.17 49.17 0 01-9.652-3.039 33.489 33.489 0 01-4.173-2.22q-.986-.621-1.92-1.318a15.386 15.386 0 00-1.675-1.3.209.209 0 00-.028-.049 3.544 3.544 0 00.4-1.761c.251.2.474.437.71.661a11.275 11.275 0 00.979.8c.758.571 1.509 1.156 2.3 1.688a31.221 31.221 0 004.919 2.643 45.4 45.4 0 0010.754 3.247c1.084.182 2.18.3 3.276.382a22.383 22.383 0 002.405.09 8.279 8.279 0 00.877-.078.126.126 0 000-.241c-.952-.14-1.92-.116-2.879-.172a35.04 35.04 0 01-2.963-.294 43.819 43.819 0 01-5.517-1.177 37.914 37.914 0 01-10.167-4.355c-.869-.553-1.686-1.178-2.511-1.794a13.021 13.021 0 01-1.227-.978 7.4 7.4 0 00-.957-.822c-.016-.446-.057-.888-.077-1.292a11.03 11.03 0 01.014-1.154 17.393 17.393 0 011.556 1.454 17.451 17.451 0 002.038 1.744 38.388 38.388 0 004.828 2.917 33.905 33.905 0 0010.758 3.742 28.562 28.562 0 003.247.257c.583.016 1.167.016 1.751.024a11.008 11.008 0 001.672-.043c.212-.03.126-.316-.047-.339a9.9 9.9 0 00-1.49-.022q-.808.013-1.617 0a29.64 29.64 0 01-2.963-.185 26.735 26.735 0 01-5.458-1.289 40.072 40.072 0 01-5.278-2.259 41.1 41.1 0 01-4.808-2.822 17.611 17.611 0 01-2.379-1.977 14.981 14.981 0 00-1.783-1.616c.016-.24.035-.48.05-.72.032-.5.067-.991.1-1.487a32.991 32.991 0 008.609 6.158 58.439 58.439 0 0010.58 3.424c1.133.294 2.278.549 3.418.815 1.029.241 2.091.337 3.138.483.174.025.334-.232.135-.319a3.4 3.4 0 00-.414-.148.155.155 0 00.092-.248 6.283 6.283 0 00-2.032-1.278c-.841-.469-1.691-.922-2.533-1.387q-2.438-1.345-4.951-2.534c-3.408-1.61-6.873-3.092-10.23-4.809-1.865-.954-3.717-1.931-5.621-2.8.028-.678.064-1.347.099-2.014zm.393-5.429l.038-.5a.262.262 0 00.07.036 17.078 17.078 0 002.108.426 10.242 10.242 0 011.921.562c1.224.485 2.437.969 3.681 1.4a31.609 31.609 0 017.38 3.365c1.269.851 2.461 1.806 3.753 2.626a.139.139 0 00.2-.158q.221.25.439.505a27.861 27.861 0 013.061 4.422 15.941 15.941 0 00-3.337-2.988 41.252 41.252 0 00-4.37-2.79c-1.541-.846-3.179-1.471-4.75-2.253a23.993 23.993 0 00-4.778-1.956c-.939-.239-1.893-.409-2.846-.577a21.488 21.488 0 00-2.719-.342c.05-.593.106-1.185.149-1.778zm.314-2.26q1.36.182 2.7.49a31.181 31.181 0 017.906 3q.915.5 1.794 1.056a9.275 9.275 0 00-.093.231 2.561 2.561 0 01.659.35.152.152 0 01.02.017.449.449 0 00.076-.124c0-.011.009-.021.013-.032a30.313 30.313 0 015.691 4.951 32.63 32.63 0 00-6.795-4.534c-2.444-1.113-5.04-1.828-7.512-2.868a11.411 11.411 0 00-2.1-.709c-.814-.169-1.637-.278-2.45-.458a.212.212 0 00-.162.023c.006-.1.009-.2.011-.3 0-.157 0-.313-.008-.469a1.751 1.751 0 00-.1-.556.794.794 0 00-.052-.1c.16.004.301.018.403.032zm13.9 3.219a22.692 22.692 0 018.58-9.034 21.237 21.237 0 013.235-1.55 16.141 16.141 0 019.683-.779 20.58 20.58 0 017.818 3.861 20.855 20.855 0 017.836 15.755 28.023 28.023 0 01-.435 5.2 21.926 21.926 0 01-1.293 4.854 15.526 15.526 0 01-5.078 6.371 17.409 17.409 0 01-4.165 2.283 22.82 22.82 0 01-13.629.536.256.256 0 00-.234.05q.036-.291.066-.584.068-.695.1-1.392a3.98 3.98 0 001.63.145c.765-.012 1.529.078 2.295.062a35.243 35.243 0 004.791-.211c.42-.067.839-.148 1.253-.246a18.012 18.012 0 005.835-2.5 13.235 13.235 0 002.857-2.495 13.219 13.219 0 002.016-3.415 21.845 21.845 0 001.284-4.316 21.841 21.841 0 00.459-4.461 16.606 16.606 0 00-2.252-8.145 14 14 0 00-4.831-4.69 17.649 17.649 0 00-13.408-2.1 15.39 15.39 0 00-5.938 2.993q-.486.408-.933.863a10.169 10.169 0 00-2.191 3.26 10.154 10.154 0 00-.911 4.141 5.771 5.771 0 00.141 1.02 31.216 31.216 0 00-5.141-4.313q.262-.592.56-1.164zm31.108 6.208a12.877 12.877 0 00-4.4-8.1 11.613 11.613 0 00-9.113-2.359 14.72 14.72 0 00-4.7 1.434 10.157 10.157 0 00-3.916 3.232c-.046.07-.091.14-.134.212a9.855 9.855 0 00-1.066 5 11.631 11.631 0 00.66 4.873 28.975 28.975 0 00-3.172-4.282 8.212 8.212 0 01-.322-1.947 7.947 7.947 0 01.316-2.033 10.238 10.238 0 011.628-3.629 11.777 11.777 0 011.606-1.747 14.149 14.149 0 014.506-2.668 16.846 16.846 0 0113.134.792 14.913 14.913 0 015.192 4.019 15 15 0 012.925 7.1 20.254 20.254 0 01-.782 8.534 13.814 13.814 0 01-3.971 6.71 16.529 16.529 0 01-6.56 3.416c-.344.095-.69.174-1.036.244a35.378 35.378 0 01-7.567.316 4.1 4.1 0 01-1.8-.124.2.2 0 00-.044-.016c.012-.5.007-1-.012-1.507a6.338 6.338 0 002.42.05 26.287 26.287 0 003-.609c.346-.092.692-.193 1.035-.3a27.394 27.394 0 004.259-1.8 15.034 15.034 0 006.164-6.218 14.355 14.355 0 001.75-8.594zM90.854 33.845c.647-.2 1.287-.445 1.923-.694.472-.184.943-.373 1.413-.551a19.56 19.56 0 004.338-2.15 12.318 12.318 0 003.015-3 11.855 11.855 0 001.9-4.091 12.207 12.207 0 00-.053-4.961 8.3 8.3 0 00-1.312-3.268 9.187 9.187 0 00-2.373-2.32 10.52 10.52 0 00-6.462-1.808 8.435 8.435 0 00-5.905 2.869 9.65 9.65 0 00-1.792 3.014 8.292 8.292 0 00-.522 3.147 6.516 6.516 0 003.307 5.492c.085.046.17.09.258.132a4.358 4.358 0 003.962-.132 3.675 3.675 0 002.033-2.6 3.4 3.4 0 00-1.04-3.384 1.35 1.35 0 00-1.356-.292 1.888 1.888 0 00-.89 1 3.893 3.893 0 00-.26.787 1.446 1.446 0 01-.01-.585 2.3 2.3 0 01.53-1 1.6 1.6 0 011.421-.571c1.356.186 2.028 1.8 2.3 2.957a3.977 3.977 0 01-.863 3.764 4.431 4.431 0 01-2.934 1.257 6.58 6.58 0 01-2.738-.412 6.717 6.717 0 01-3.707-3.339 10.544 10.544 0 01-.686-4.713 10.758 10.758 0 01.687-4.26 5.318 5.318 0 01.324-.613 9.314 9.314 0 013.664-3.15 14.082 14.082 0 014.33-1.415 11.342 11.342 0 018.63 1.821 12.333 12.333 0 014.561 7.3 13.257 13.257 0 01-1 8.027 15.4 15.4 0 01-5.13 6.342 20.526 20.526 0 01-4.247 2.143q-.761.3-1.54.543a27.285 27.285 0 01-3.639.853 6.6 6.6 0 01-2.457 0c-.035-.684-.1-1.367-.186-2.048a3.456 3.456 0 002.506-.091zm6.742-13.383a5.18 5.18 0 00-5.339-3.732c-2.249.289-4.4 2.393-3.64 4.8a2.519 2.519 0 002.819 1.8 1.936 1.936 0 001.466-2.395 1.354 1.354 0 01.281 1.07 3.176 3.176 0 01-1.017 2.082c-1.345 1.159-3.27.476-4.3-.728a4.581 4.581 0 01-.862-1.54 4.909 4.909 0 010-3.069 6.135 6.135 0 013-3.384 6.773 6.773 0 018.326 1.771 7.653 7.653 0 011.668 4.272 8.6 8.6 0 01-1.166 4.781 9.241 9.241 0 01-1.743 2.217 9.871 9.871 0 01-2.482 1.616 18.687 18.687 0 01-3.195 1.151l-.064.018a5.262 5.262 0 01-3.242.318.127.127 0 00-.174.085 26.875 26.875 0 00-.845-2.972 7.287 7.287 0 003.2.825 8.034 8.034 0 001.221-.047 7.474 7.474 0 003.93-1.683 6.764 6.764 0 002.158-7.256zm-9.3 13.027a.134.134 0 00-.021-.016q-.128-.856-.312-1.7a.155.155 0 00.057.036 4.873 4.873 0 003.035-.182l.485-.134a20.251 20.251 0 002.679-.886 11.6 11.6 0 002.71-1.564 9.391 9.391 0 001.875-2.08 9.331 9.331 0 001.64-5.3 8 8 0 00-1.723-4.791 7.249 7.249 0 00-9.3-1.726 6.407 6.407 0 00-3.037 4.063 4.94 4.94 0 00-.093.659 5.273 5.273 0 001.327 3.942c.09.1.184.192.282.282 1.272 1.169 3.413 1.562 4.733.217a3.754 3.754 0 001.029-2.3c.043-.638-.17-1.547-.924-1.645a1.227 1.227 0 00-.945.358.16.16 0 00-.051.066c-.046.123.121.258.256.2a2.527 2.527 0 01.246-.095.231.231 0 00.01.056 1.4 1.4 0 01-.455 1.442 1.472 1.472 0 01-1.575.105 2.342 2.342 0 01-.811-3.156 3.9 3.9 0 014.731-1.776 5.244 5.244 0 013.147 4.978 6.379 6.379 0 01-3.428 5.49 6.9 6.9 0 01-3.361.8c-.2 0-.39-.013-.58-.03a10.592 10.592 0 01-2.945-.794.222.222 0 00-.12-.014 28.741 28.741 0 00-1.648-3.61 7.364 7.364 0 003.836 2.7 6.936 6.936 0 002.437.282 4.99 4.99 0 003.238-1.35 4.347 4.347 0 001.15-3.789c-.2-1.334-.826-3-2.119-3.637a2.2 2.2 0 00-2.961 1.06 2.461 2.461 0 00.075 2.376c.126.275.5.064.441-.2a.207.207 0 00.037-.087 4.81 4.81 0 01.3-.988c.033-.08.067-.158.1-.234.152-.331.4-.8.815-.832.538-.049 1.043.555 1.269.972a3.166 3.166 0 01.317 1.723 3.161 3.161 0 01-1.654 2.6 3.879 3.879 0 01-3.8.163 5.846 5.846 0 01-.713-.442 6.052 6.052 0 01-2.453-4.753 7.711 7.711 0 01.242-2.083 8.916 8.916 0 011.841-3.542 7.908 7.908 0 015.209-2.783 10 10 0 015.979 1.3 8.225 8.225 0 013.839 4.555 12.773 12.773 0 01.544 4.263 9.984 9.984 0 01-1.256 4.287 12.479 12.479 0 01-5.907 5.426c-1.152.54-2.359.93-3.537 1.406l-.085.035a11.4 11.4 0 01-2.844.919 1.6 1.6 0 01-1.25-.241zm-5.167 19.376a6.292 6.292 0 00.653.209c.265.112.628.381.524.717a.494.494 0 01-.674.266c-.283-.147-.311-.445-.373-.72a.282.282 0 00-.175-.2 5.44 5.44 0 00.049-.271zm-.818-14.594q.706.09 1.415.176c.025.208.065.415.073.621.014.349.006.7.035 1.046.076.873.195 1.737.2 2.615a21.726 21.726 0 01-.47 4.037 31.066 31.066 0 00-1.249-8.494zM84.43 51.58a5.579 5.579 0 011.176.371 2.376 2.376 0 01.844.764 2.111 2.111 0 01.065 2.21 2 2 0 01-1.785.875 3.037 3.037 0 01-1.058-.212c-.306-.12-.6-.407-.942-.342a.216.216 0 00-.058.02c.076-.332.145-.664.211-1a1.2 1.2 0 001.9.039 1.119 1.119 0 00-.191-1.479 1.735 1.735 0 00-.825-.429c-.049-.011-.1-.023-.153-.032q.309-.519.614-1.041a.11.11 0 01.009-.016.29.29 0 00.193.272zm-12.577 48.817a.123.123 0 00.064.01l.032.011a.508.508 0 01-.26.581c-.259.105-.682-.247-.445-.5a.706.706 0 01.609-.102zm30.657 8.518a14.816 14.816 0 00-4.358-6.645c-2.266-1.809-5.217-2.339-8.035-2.546a82.825 82.825 0 00-9.3.069c-1.567.061-3.138.1-4.706.038a31.029 31.029 0 01-1.525-.09.157.157 0 00-.056-.218 3.614 3.614 0 00-1.148-.375 9.566 9.566 0 01-1.222-.287 7.5 7.5 0 01-2.227-1.164c-2.34-1.82-3.424-4.675-3.979-7.518-.08-.41-.149-.82-.21-1.227a31.474 31.474 0 01-.323-5.6q.043-1.395.2-2.782c.056-.479.124-.955.2-1.432a8.629 8.629 0 00.18-1.166 36.364 36.364 0 003.991-2.735A35.534 35.534 0 0081.501 59.32a35.822 35.822 0 001.08-3.647c.142.345.729.532 1.042.637a3.552 3.552 0 001.386.18 2.609 2.609 0 002.2-1.387 2.774 2.774 0 00-.232-2.8 2.879 2.879 0 00-2.543-1.234.252.252 0 00-.055.016 37.6 37.6 0 002.765-5.758 22.966 22.966 0 001.183-4.723.269.269 0 00.141.09c.809.222 1.628.41 2.454.555a21.813 21.813 0 0012.353-1.317 17.754 17.754 0 005.174-3.392 16.019 16.019 0 004.483-7.6 27.231 27.231 0 00.842-10.424 21.712 21.712 0 00-3.258-8.933 21.545 21.545 0 00-6.448-6.378A19.86 19.86 0 0095.179.046a18.429 18.429 0 00-9.453 2.046c-.376.183-.747.376-1.111.58a23.066 23.066 0 00-9.79 10.708 31.908 31.908 0 00-3.039-1.7 29.921 29.921 0 00-5.353-1.958 33.847 33.847 0 00-6.318-1.083.363.363 0 00-.094-.007.36.36 0 00-.094.007 29.669 29.669 0 00-10.9 3.041 31.735 31.735 0 00-3.039 1.7 23.05 23.05 0 00-10.9-11.287A18.427 18.427 0 0025.636.047a18.421 18.421 0 00-5.666 1.451 21.971 21.971 0 00-3.224 1.707 21.529 21.529 0 00-6.448 6.378 21.7 21.7 0 00-3.258 8.933 27.189 27.189 0 00.841 10.424 16.019 16.019 0 004.483 7.6 20 20 0 0015.911 4.935q.811-.085 1.615-.226a26.815 26.815 0 002.456-.555.275.275 0 00.14-.09 22.922 22.922 0 001.183 4.723 37.6 37.6 0 002.77 5.75.245.245 0 00-.054-.016 2.879 2.879 0 00-2.543 1.234 2.769 2.769 0 00-.232 2.8 2.6 2.6 0 002.2 1.387 3.548 3.548 0 001.385-.18c.314-.105.9-.292 1.042-.637a35.463 35.463 0 001.08 3.647 35.543 35.543 0 0011.498 15.922 36.427 36.427 0 003.991 2.735 8.979 8.979 0 00.18 1.166c.079.477.148.953.2 1.432a33.479 33.479 0 01.203 2.782 31.474 31.474 0 01-.323 5.6c-.479 3.223-1.51 6.662-4.189 8.745a7.5 7.5 0 01-2.227 1.164 9.527 9.527 0 01-1.221.287 3.617 3.617 0 00-1.149.375.158.158 0 00-.056.218c-.507.042-1.015.071-1.524.09-1.568.059-3.138.023-4.706-.038a82.827 82.827 0 00-9.3-.069c-2.818.207-5.77.736-8.035 2.546a14.816 14.816 0 00-4.358 6.645 19.425 19.425 0 00-1.035 4.63 13.338 13.338 0 00.186 4.708c.011.04.021.08.034.121a.209.209 0 00.378.044.193.193 0 00.025-.1c0-1.393-.123-2.769-.006-4.162a19.569 19.569 0 01.811-4.116c.19-.613.412-1.235.669-1.848a58.948 58.948 0 0015.2 3.905q8.194 1.2 16.423 2.2a72.021 72.021 0 009.416.546 72.01 72.01 0 009.416-.546q8.22-1 16.423-2.2a58.958 58.958 0 0015.203-3.902c.256.613.478 1.235.668 1.848a19.48 19.48 0 01.811 4.116c.117 1.394-.008 2.77 0 4.162a.243.243 0 00.007.056.179.179 0 00.021.047.209.209 0 00.376-.049c.02-.071.041-.143.059-.215a13.565 13.565 0 00.161-4.612 19.426 19.426 0 00-1.037-4.63z"/><path d="M64.544 48.086q.363-.242.745-.457a12.721 12.721 0 011.5-.713 13.363 13.363 0 011.621-.526 3.512 3.512 0 00-.14 2.588 3.885 3.885 0 00.607 1.128c-.655-.144-1.3-.327-1.944-.523a16.414 16.414 0 01-1.736-.6c-.392-.17-.752-.391-1.13-.581.165-.087.314-.208.477-.316zm-.063-1a7.332 7.332 0 011.054-1.284 4.989 4.989 0 01-.646 1.272 7.509 7.509 0 00-.193.114c-.133.081-.281.166-.429.257q.101-.179.213-.355zm1.537-1.72a8.2 8.2 0 011.807-1.143c-.034.092-.069.186-.1.278a6.024 6.024 0 01-1.141 1.773q-.246.093-.487.2a9.31 9.31 0 00-.716.336 11.079 11.079 0 00.55-1.222 3.55 3.55 0 01.088-.218zm2.332-1.367a8.733 8.733 0 011.562-.444l-.044.126a3.931 3.931 0 01-1.34 2.008c-.441.1-.878.217-1.307.358a4.811 4.811 0 00.848-1.34c.097-.229.192-.465.281-.704zm1.829.059c.076-.19.142-.382.2-.578a9.177 9.177 0 011.733-.069 5.072 5.072 0 01-.413.829 6.838 6.838 0 01-.968 1.139c-.493.034-.986.089-1.478.171a4.356 4.356 0 00.925-1.487zm2.284-.391l.1-.222a10.372 10.372 0 011.364.236 3.563 3.563 0 01-1.323 1.668 20.423 20.423 0 00-1.4 0 4.915 4.915 0 001.258-1.677zm1.86.117a11.929 11.929 0 011.429.5 6.14 6.14 0 01-1.161 1.221c-.481-.056-.964-.1-1.446-.13a4.4 4.4 0 001.174-1.586zm1.819.673c.091.041.181.083.27.127.264.13.519.271.769.418a2.544 2.544 0 01-.868.582.132.132 0 00-.086.155 27.535 27.535 0 00-1.265-.188 5.743 5.743 0 00.816-.655 3.625 3.625 0 00.363-.434zm3.088 1.951c-.9-.237-1.8-.45-2.712-.617a3.091 3.091 0 00.976-.6c.597.384 1.164.801 1.735 1.222zm-.071.766q-.3.3-.633.583a10.619 10.619 0 01-1.52 1.078 11.6 11.6 0 01-1.537.755 2.889 2.889 0 00.289-.706 3.7 3.7 0 00.018-1.686 5.183 5.183 0 00-.26-.856c-.035-.09-.067-.188-.105-.281a39.826 39.826 0 014.067.773c-.108.115-.21.236-.319.346zm-4.226 2.151a1.877 1.877 0 01-.381.456c-.044.038-.138.138-.213.2a10.676 10.676 0 01-3.567.4c-.3-.018-.6-.05-.891-.092a5.362 5.362 0 01-.477-.422 3.084 3.084 0 01-.61-1.034 3.469 3.469 0 01.178-2.577c.419-.09.843-.162 1.268-.217a2.482 2.482 0 00-.394 1.041 2.747 2.747 0 00.991 2.545 2.809 2.809 0 002.5.284 1.986 1.986 0 001.331-2.019 3.1 3.1 0 00-.781-1.969c.322.02.643.047.964.08a1.715 1.715 0 00.109.3 5.83 5.83 0 01.22.668 3.616 3.616 0 01.116 1.272 2.648 2.648 0 01-.363 1.09zm-11.362-.522a1.665 1.665 0 00.1-.139 3.106 3.106 0 001.448.946 21.105 21.105 0 002.09.689 19.054 19.054 0 002.521.576.722.722 0 00.311.057.191.191 0 00.05-.009 11.07 11.07 0 001.113.08 11.255 11.255 0 003.374-.459 11.32 11.32 0 003.131-1.469 11.4 11.4 0 001.363-1.077 3.259 3.259 0 001.027-1.23.164.164 0 000-.112.216.216 0 00-.046-.16 9.117 9.117 0 00-2.075-1.783c.126-.143.245-.289.354-.432.326-.428 1.2-1.589.693-2.136a.076.076 0 00-.119.016 5.934 5.934 0 00-.281.8 4.9 4.9 0 01-.622 1.074c-.11.148-.231.308-.361.468a13.824 13.824 0 00-1.134-.609c.266-.442.936-1.508.33-1.931a.078.078 0 00-.115.047c-.087.284-.088.584-.191.87a5.131 5.131 0 01-.415.834l-.04-.018a11.812 11.812 0 00-1.464-.538 6.746 6.746 0 00.263-.8c.085-.326.217-.8-.009-1.1a.087.087 0 00-.149 0 4.859 4.859 0 00-.234.95 6.618 6.618 0 01-.275.833 11.093 11.093 0 00-1.361-.26 8.218 8.218 0 00.384-1.082c.053-.2.134-.564-.031-.741-.135-.145-.22-.035-.258.107-.083.314-.134.627-.248.936-.091.248-.2.49-.3.733a9.97 9.97 0 00-1.818.011c0-.011.006-.021.008-.032a2.02 2.02 0 00.1-1.152.073.073 0 00-.12-.032 2 2 0 00-.354.986 8.915 8.915 0 01-.069.282 8.98 8.98 0 00-1.507.353 1.641 1.641 0 00.047-1.224.084.084 0 00-.144 0 4.712 4.712 0 00-.343 1.239l-.049.162-.059.023a9.61 9.61 0 00-1.6.818 4.707 4.707 0 00.292-2.032c-.009-.071-.114-.1-.135-.018-.14.557-.215 1.126-.368 1.68a9.7 9.7 0 01-.209.652 8.626 8.626 0 00-1.136.969 8.072 8.072 0 00-1.149 1.476 3.335 3.335 0 00-.653 1.716c.009.215.29.391.442.198zM57.146 69.875a6.291 6.291 0 003.256.943 6.292 6.292 0 003.257-.943 10.284 10.284 0 00.949-.588c-.235.441-.435.9-.654 1.349a7.13 7.13 0 01-.141.273c-.6 1.122-1.6 2.287-3.008 1.863a.366.366 0 00-.4.14.363.363 0 00-.4-.14c-1.473.444-2.5-.857-3.094-2.026l-.055-.11c-.219-.448-.42-.908-.655-1.349a10.4 10.4 0 00.945.588zm-.138-1.57a3.384 3.384 0 011.064-.432 1.646 1.646 0 01.876.181 1.869 1.869 0 01.72.621c.141.211.209.442.349.644a1.021 1.021 0 00.106.132.192.192 0 00.243.025.174.174 0 00.036-.029.2.2 0 00.026.022.193.193 0 00.253-.018 3.2 3.2 0 00.4-.7l.049-.08a1.881 1.881 0 01.721-.621 1.645 1.645 0 01.876-.181 3.377 3.377 0 011.064.432 3.04 3.04 0 00.962.265c-.167.119-.336.235-.508.347s-.319.2-.482.3a7.221 7.221 0 01-3.2 1.062.965.965 0 00-.169.015.946.946 0 00-.168-.015 7 7 0 01-3-.952l-.195-.111c-.341-.2-.67-.418-.991-.646a3.046 3.046 0 00.969-.261zm1.189 5.04a2.444 2.444 0 002.107.145.349.349 0 00.1-.062.369.369 0 00.1.062 2.443 2.443 0 002.107-.145 3.994 3.994 0 001.513-1.621c.4-.715.672-1.491 1.05-2.217a5.262 5.262 0 01.617-.962c.043-.051 2.434-2.184 3.014-2.6.163-.118.013-.39-.162-.276-.831.54-2.82 2.038-2.953 2.162a2.022 2.022 0 01-.73.117c-.793-.021-1.35-.692-2.132-.783a2.439 2.439 0 00-1.854.607 2.5 2.5 0 00-.568.71 2.459 2.459 0 00-.567-.71 2.436 2.436 0 00-1.862-.607c-.784.091-1.339.762-2.133.783a2.018 2.018 0 01-.729-.117c-.133-.124-2.121-1.623-2.953-2.162-.176-.114-.325.158-.162.276.579.421 2.971 2.554 3.014 2.6a5.263 5.263 0 01.617.962c.377.727.647 1.5 1.049 2.217a4 4 0 001.517 1.621zM66.684 105.99a.416.416 0 01-.441-.408.551.551 0 01.19-.361 1.288 1.288 0 01.159-.092c.042-.026.122-.116.156-.122a.126.126 0 00.076-.048c.036.224.241.391.248.631a.364.364 0 01-.388.4zm-1.474.892a.386.386 0 01-.372-.337.433.433 0 01.441-.41.288.288 0 00.183-.033c.115.301.202.816-.252.78zm2.287-1.887c-.129-.172-.384-.348-.6-.216a.205.205 0 00-.041.037.139.139 0 00-.111-.119c-.159-.029-.219-.11-.4-.055a.952.952 0 00-.337.205 1.057 1.057 0 00-.353.7.923.923 0 00.018.262.4.4 0 00-.054-.009.217.217 0 00-.2-.2 1 1 0 00-1.144.808.85.85 0 00.182.677 1.011 1.011 0 00.559.351.9.9 0 001.1-.632 1.049 1.049 0 00.03-.367 1.107 1.107 0 00.433.143.969.969 0 001.095-.873 1.021 1.021 0 00-.159-.681z"/><path d="M63.849 59.637a2.352 2.352 0 01.341.824c0 .127 0 .132-.138.17a3.2 3.2 0 01-.526.079 6.675 6.675 0 00-1.115.194.2.2 0 00-.133.145.225.225 0 00-.009.065.157.157 0 00.1.148 3.057 3.057 0 001.807.143.968.968 0 00.808-1.21 3.034 3.034 0 00-.3-.749c-.158-.323-.306-.65-.449-.981a19.12 19.12 0 01-.723-1.923 25.573 25.573 0 01-.86-8.594c.066-1.708.181-3.423.154-5.133a.144.144 0 00-.287 0c-.133 1.383-.158 2.776-.215 4.165l-.006.145c-.03.753-.065 1.506-.093 2.26a81.18 81.18 0 00-.05 1.7 19.633 19.633 0 001.281 7.576c.119.333.263.657.413.976zM63.729 107.7a.847.847 0 01-.394-.163c-.181-.138-.337-.412-.107-.573a.606.606 0 01.1-.054 3.279 3.279 0 01.38.277c.071.062.411.317.388.428s-.299.085-.367.085zm-1.326.293c-.077.19-.418.186-.579.123a.515.515 0 01-.307-.566.611.611 0 01.048-.164.282.282 0 01.042-.059 1.209 1.209 0 00.151.059c.056.019.114.03.168.054a.216.216 0 00.063.016.291.291 0 00.128.065.393.393 0 01.286.467zm-3.421.123c-.162.063-.5.066-.58-.123a.394.394 0 01.286-.473.3.3 0 00.128-.065.217.217 0 00.062-.016c.055-.023.113-.035.168-.054a1.21 1.21 0 00.151-.059.312.312 0 01.043.059.561.561 0 01.047.164.513.513 0 01-.305.562zm-1.511-.579a.85.85 0 01-.4.163c-.068.01-.349.017-.371-.085s.317-.365.389-.428a3.277 3.277 0 01.38-.277.6.6 0 01.1.054c.238.156.082.431-.098.568zm6.481-.857c-.114-.409-.719-.422-1.047-.21a.788.788 0 00-.365.558.947.947 0 00-.257-.107.3.3 0 00-.193.012.638.638 0 00-.351-.234.557.557 0 00-.62.193c.059-.339.126-.677.205-1.015a5.054 5.054 0 01.751-2.106 1.735 1.735 0 01.665-.512 3.824 3.824 0 001.041-.464l.052.008a.2.2 0 00.153-.365c-.151-.11-.171-.3-.319-.428a.75.75 0 00-.441-.178 2.031 2.031 0 00-.676-.008 2.977 2.977 0 00-1.215.635 3.381 3.381 0 00-.933 1.3 3.372 3.372 0 00-.933-1.3 2.97 2.97 0 00-1.216-.635 2.023 2.023 0 00-.674.008.75.75 0 00-.441.178c-.149.127-.168.318-.319.428a.2.2 0 00.153.365l.051-.008a3.819 3.819 0 001.041.464 1.717 1.717 0 01.664.512 5.046 5.046 0 01.753 2.106c.079.338.146.676.205 1.015a.558.558 0 00-.621-.193.634.634 0 00-.35.234.3.3 0 00-.193-.012.92.92 0 00-.257.107.788.788 0 00-.365-.558c-.329-.212-.933-.2-1.048.21a2.523 2.523 0 00-.509.46.617.617 0 00-.076.816 1.14 1.14 0 001.5.071.913.913 0 00.04.187 1.1 1.1 0 001.53.432 1.075 1.075 0 00.475-.509v.121a8.889 8.889 0 00.25 1.88 12.383 12.383 0 01.018 1.315c-.006.14.188.149.231.031.028-.075.055-.151.081-.227l.083.227c.043.118.237.109.231-.031a12.574 12.574 0 01.018-1.315 8.847 8.847 0 00.252-1.88v-.121a1.074 1.074 0 00.474.509 1.1 1.1 0 001.53-.432.871.871 0 00.042-.187 1.141 1.141 0 001.5-.071.633.633 0 00-.1-.847 2.667 2.667 0 00-.47-.434zM59.938 61.388a3.746 3.746 0 01.454 0 .4.4 0 00.4-.313.22.22 0 00.023-.042.167.167 0 00.013-.042.3.3 0 00-.129-.325.485.485 0 00-.071-.028.483.483 0 00-.234-.079 1.329 1.329 0 00-.607.067.91.91 0 00-.275.178.407.407 0 00-.128.22.314.314 0 000 .071.247.247 0 00.114.2.864.864 0 00.44.093zM52.536 48.978a3.509 3.509 0 00-.139-2.588 13.365 13.365 0 011.621.526 12.793 12.793 0 011.5.713l.346.2c.135.081.268.167.4.254.162.108.312.229.479.321-.379.19-.737.411-1.13.581a16.361 16.361 0 01-1.737.6c-.64.2-1.288.379-1.944.523a3.85 3.85 0 00.604-1.13zm-1.613 1.311c-.294.042-.591.074-.89.092a10.678 10.678 0 01-3.567-.4c-.074-.058-.169-.158-.213-.2a1.88 1.88 0 01-.382-.456 2.636 2.636 0 01-.362-1.088 3.567 3.567 0 01.116-1.272 5.686 5.686 0 01.219-.668 1.715 1.715 0 00.109-.3c.32-.034.641-.06.963-.08a3.109 3.109 0 00-.781 1.969 1.988 1.988 0 001.332 2.019 2.81 2.81 0 002.5-.284 2.749 2.749 0 00.991-2.545 2.493 2.493 0 00-.4-1.041c.425.056.849.127 1.269.217a3.476 3.476 0 01.178 2.577 3.074 3.074 0 01-.61 1.034 5.179 5.179 0 01-.472.426zm-5.876-1.4a2.89 2.89 0 00.289.706 11.558 11.558 0 01-1.537-.755 10.667 10.667 0 01-1.521-1.078c-.218-.186-.43-.38-.632-.583-.11-.11-.211-.23-.319-.341a39.742 39.742 0 014.066-.773c-.038.093-.071.19-.106.281a5.182 5.182 0 00-.26.856 3.7 3.7 0 00.02 1.687zm-1.941-3.558a3 3 0 00.871.523c-.806.157-1.606.348-2.4.559a32.032 32.032 0 011.529-1.082zm1.288-.742l.022-.01a3.5 3.5 0 00.329.389 5.465 5.465 0 00.779.63 41.32 41.32 0 00-.49.072q-.369.056-.737.125a.132.132 0 00-.088-.137 2.473 2.473 0 01-.8-.519c.317-.198.645-.382.986-.55zm1.812-.719a4.567 4.567 0 001.11 1.533c-.473.035-.947.085-1.42.145a6.115 6.115 0 01-1.094-1.149 12.042 12.042 0 011.404-.529zm1.743-.384l.111.255a4.806 4.806 0 001.173 1.606c-.468-.009-.937 0-1.405.025a3.729 3.729 0 01-1.23-1.613 10.463 10.463 0 011.356-.274zm2.162-.038a7.006 7.006 0 00.232.683 4.554 4.554 0 00.8 1.362 15.967 15.967 0 00-1.444-.131 6.518 6.518 0 01-.878-1.049 5.345 5.345 0 01-.432-.876 9.223 9.223 0 011.722.01zm1.988.428c.109.305.23.606.354.906a4.638 4.638 0 00.674 1.13q-.669-.193-1.352-.318a4.259 4.259 0 01-1.121-1.839 12.147 12.147 0 01-.084-.249 8.869 8.869 0 011.529.369zm2.23 1.141c.088.219.18.432.266.639.122.293.249.626.406.946-.1-.044-.193-.087-.289-.128q-.478-.2-.973-.37a5.423 5.423 0 01-.938-1.53q-.1-.253-.19-.508a8.238 8.238 0 011.718.954zm.7.562a7.5 7.5 0 011.3 1.511c.074.117.146.237.214.359-.147-.092-.3-.176-.429-.258q-.347-.21-.709-.4a12.872 12.872 0 01-.6-1.4c0-.01-.008-.02-.011-.03q.116.111.234.218zm.659 4.037a3.106 3.106 0 001.449-.946c.03.047.062.094.1.139.154.193.434.018.447-.184a3.323 3.323 0 00-.653-1.716 8.069 8.069 0 00-1.148-1.476 8.759 8.759 0 00-1.534-1.239 5.5 5.5 0 01-.095-.314c-.153-.555-.228-1.124-.368-1.68-.021-.082-.126-.054-.135.018a4.318 4.318 0 00.2 1.735 9.772 9.772 0 00-1.218-.589c-.133-.054-.266-.1-.4-.15a4.344 4.344 0 00-.334-1.2.084.084 0 00-.143 0 1.414 1.414 0 000 1.053 9.281 9.281 0 00-1.486-.291l-.042-.173a1.983 1.983 0 00-.353-.987.072.072 0 00-.119.032 1.856 1.856 0 00.082 1.089 10.171 10.171 0 00-1.812.044c-.1-.23-.2-.459-.284-.693-.114-.309-.164-.622-.246-.937-.038-.142-.123-.252-.259-.106-.164.176-.084.538-.03.741a8.207 8.207 0 00.372 1.055 11.18 11.18 0 00-1.347.294 6.619 6.619 0 01-.278-.84 4.81 4.81 0 00-.234-.95.087.087 0 00-.149 0c-.226.3-.094.773-.009 1.1a6.533 6.533 0 00.271.813 11.964 11.964 0 00-1.188.453l-.3.135a5.4 5.4 0 01-.443-.882c-.1-.286-.1-.586-.191-.87a.078.078 0 00-.115-.047c-.61.425.074 1.5.337 1.941l.021.032c-.375.188-.747.4-1.109.622a10.518 10.518 0 01-.419-.537 4.834 4.834 0 01-.622-1.073 5.914 5.914 0 00-.283-.8.076.076 0 00-.119-.016c-.512.547.367 1.707.693 2.136.128.169.27.341.422.507a8.85 8.85 0 00-1.859 1.64.216.216 0 00-.046.16.164.164 0 000 .112 3.272 3.272 0 001.027 1.23 11.41 11.41 0 001.364 1.077 11.316 11.316 0 003.13 1.469 11.263 11.263 0 003.374.459 11.064 11.064 0 001.113-.08.191.191 0 00.05.009.719.719 0 00.31-.057 18.971 18.971 0 002.52-.576 20.977 20.977 0 002.087-.682z"/><path d="M55.596 106.882c-.454.038-.367-.48-.253-.78a.288.288 0 00.183.033.434.434 0 01.442.41.386.386 0 01-.372.337zm-1.474-.892a.364.364 0 01-.387-.4c.007-.241.212-.408.248-.631a.129.129 0 00.077.048c.033.006.114.1.156.122a1.176 1.176 0 01.157.092.553.553 0 01.191.361.416.416 0 01-.443.408zm2.4.418a1 1 0 00-1.144-.808.216.216 0 00-.2.2.473.473 0 00-.055.009.873.873 0 00.02-.262 1.062 1.062 0 00-.352-.7.967.967 0 00-.338-.205c-.176-.055-.236.026-.4.055a.138.138 0 00-.111.119.258.258 0 00-.042-.037c-.214-.132-.469.044-.6.216a1.012 1.012 0 00-.183.713.97.97 0 001.1.873 1.107 1.107 0 00.434-.143 1.032 1.032 0 00.03.367.9.9 0 001.1.632 1.012 1.012 0 00.534-.321.861.861 0 00.207-.708z"/></svg>