<svg version="1.0" xmlns="http://www.w3.org/2000/svg" width="933.33" height="933.33" viewBox="0 0 700 700"><path d="M669.5 12.5c-11 6.9-22.4 13.9-25.3 15.7-2.9 1.8-8.2 5.1-11.7 7.3-3.4 2.2-9.7 6.1-13.9 8.7l-7.6 4.7V463.6l-2.6 4c-2.1 3.3-8.1 7.4-34.2 23.4-17.3 10.7-33.6 20.8-36.1 22.4-2.5 1.6-6.2 3.9-8.1 5.1-11 7-60.9 37.5-61.3 37.5-.3 0-.5-56.6-.5-125.8 0-95.2.2-126.2 1.1-127.9 1.2-2.1 4.1-4.2 29.7-20.8 5.8-3.8 18.9-12.4 29.3-19.1l18.7-12.3V203c0-37.4-.3-47-1.2-46.4-.7.5-6.4 4.1-12.6 8.1-6.2 4-11.7 7.3-12.2 7.3-.6 0-1 .3-1 .8 0 .4-.9 1.2-2 1.7-1.2.6-22.1 13.8-46.6 29.4-38.7 24.7-45.6 29.4-52.8 36.5-15.1 14.9-24.4 32.4-29 54.1-2.2 10.4-2.2 317.2 0 325.4 6.3 23.7 27.6 40.5 50.8 40.3 7.6-.1 17.5-2.6 24.3-6 3.4-1.8 55.6-34.4 68.3-42.7 1.9-1.2 8-5.1 13.5-8.5 5.5-3.4 15.1-9.5 21.3-13.4 18.8-11.9 27.4-17.3 34.7-21.7 3.8-2.4 7.4-4.7 8-5.1.5-.5 9.3-6.1 19.5-12.5 10.2-6.3 20.5-13.1 23-15.1 14.8-11.9 26.3-28.6 32.1-46.4 5-15 4.8-4.2 4.8-254.6.1-128.8 0-234.2-.1-234.1-.2 0-9.3 5.6-20.3 12.4zM52.9 119.7c-17.7 3.5-32.6 16.3-39.7 34l-2.7 6.8v491l22 13.7c27.4 17.1 53.7 33.4 55 34.1.7.3 1-79.7.9-239.3V220.1l3 1.6c1.7.9 4.2 2.4 5.6 3.3 1.4 1 26.6 16.5 56 34.5s55.4 34 57.7 35.4c2.2 1.4 7.5 4.7 11.7 7.3 4.8 3 8 5.7 8.6 7.4.7 1.6.9 47 .8 126.8l-.3 124.3-14-8.8c-7.7-4.9-14.7-9.3-15.5-9.9-10.4-6.8-49-31-49.5-31-.3 0-.5 20.9-.5 46.5V604l5.3 3.4c17.3 11.3 72.4 45.9 75.8 47.6 11.2 5.8 28.5 7.5 40 4 18.7-5.7 33.3-21.4 37.2-40.1 1.1-5.2 1.3-35.9 1.2-160.9-.2-166.7.1-157.2-5.1-172.8-5.6-16.6-18.5-34.4-32.9-45.2-3.9-3-42.5-27.4-56.7-35.9-5.2-3.1-23.4-14.4-28.3-17.6-2.7-1.7-9-5.6-13.8-8.6-4.8-3-12.5-7.8-17-10.6-4.5-2.9-8.9-5.6-9.7-6-.9-.5-13.9-8.5-29-17.9-31.8-19.8-31.3-19.5-40.5-22.2-8.9-2.6-17.4-3.1-25.6-1.5z"/></svg>