<svg xmlns="http://www.w3.org/2000/svg" width="324.07" height="176" viewBox="0 0 324.07 176"><path class="a" d="M51.3 120.69v17.43a4.678 4.678 0 004.643 4.643h.228a4.678 4.678 0 004.643-4.643v-17.43h11.8a4.556 4.556 0 003.349-1.37 4.436 4.436 0 001.294-3.273v-.152a4.7 4.7 0 00-1.294-3.349 4.556 4.556 0 00-3.349-1.37h-11.8V37.652a4.556 4.556 0 00-1.37-3.349 4.6 4.6 0 00-3.273-1.294h-7.992a4.435 4.435 0 00-4.11 2.436L.533 108.436A5.036 5.036 0 000 110.72v5.328a4.678 4.678 0 004.643 4.643zm-41.405-9.514L51.3 41.914v69.262zM298.121 120.69v17.43a4.678 4.678 0 004.643 4.643h.228a4.678 4.678 0 004.643-4.643v-17.43h11.8a4.556 4.556 0 003.349-1.37 4.435 4.435 0 001.294-3.273v-.152a4.7 4.7 0 00-1.294-3.349 4.556 4.556 0 00-3.349-1.37h-11.8V37.652a4.556 4.556 0 00-1.37-3.349 4.6 4.6 0 00-3.273-1.294H295a4.435 4.435 0 00-4.11 2.436l-43.536 72.991a5.034 5.034 0 00-.533 2.284v5.328a4.678 4.678 0 004.643 4.643zm-41.405-9.514l41.405-69.262v69.262z"/><path d="M210.23 157.817l-9.484-12.924a4.411 4.411 0 00-3.56-1.8 4.43 4.43 0 00-3.566 1.808l-14.056 19.253-14.053-19.254a4.422 4.422 0 00-7.134 0l-14.058 19.254-14.05-19.254a4.424 4.424 0 00-7.136 0l-10.272 14.072V57.184a48.685 48.685 0 0197.369 0zM161.546 0a57.407 57.407 0 00-57.5 57.184v110c0 1.5.07 3.067.217 4.8a4.4 4.4 0 004.383 4.016c.082 0 .159 0 .241-.008a4.406 4.406 0 003.754-1.8l14.059-19.251 14.056 19.251c.038.054.09.092.133.144a3.907 3.907 0 00.431.46 3.725 3.725 0 00.292.264c.042.032.078.07.12.1a3.843 3.843 0 00.371.215c.111.065.215.137.33.192a4.56 4.56 0 00.775.277c.044.011.082.031.121.039a4.383 4.383 0 00.912.107c.026 0 .057.008.082.008.052 0 .1-.022.159-.023a4.424 4.424 0 001.007-.157c.082-.021.164-.034.242-.062a4.386 4.386 0 001.067-.537c.036-.025.078-.033.112-.058.069-.049.12-.114.186-.164a3.85 3.85 0 00.319-.283 4.374 4.374 0 00.331-.37c.048-.055.1-.1.143-.156l14.057-19.248 14.058 19.253c.039.055.1.094.138.147a4.061 4.061 0 00.422.452c.1.092.2.186.3.268.044.032.073.073.116.1.116.083.246.142.366.212s.219.141.337.195a4.471 4.471 0 00.774.278c.042.01.078.031.12.038a4.376 4.376 0 00.912.108c.025 0 .056.007.082.007.052 0 .1-.022.159-.023a4.5 4.5 0 001.008-.156c.082-.021.163-.035.241-.062a4.365 4.365 0 001.067-.535c.034-.025.077-.033.111-.057.069-.05.122-.112.186-.165.112-.09.219-.185.322-.285a4.324 4.324 0 00.323-.362c.047-.058.1-.1.146-.163l14.062-19.264 13.711 18.684a4.415 4.415 0 007.959-2.261c.091-1.222.18-2.674.18-4.163v-110A57.406 57.406 0 00161.546 0z"/><path d="M137.161 69.083a3.96 3.96 0 113.982-3.96 3.976 3.976 0 01-3.982 3.96zm0-16.686a12.726 12.726 0 1012.8 12.726 12.776 12.776 0 00-12.8-12.723zM186.729 69.083a3.96 3.96 0 113.982-3.96 3.976 3.976 0 01-3.982 3.96zm0-16.686a12.726 12.726 0 1012.8 12.726 12.777 12.777 0 00-12.8-12.723zM161.535 90.8a39.776 39.776 0 00-37.027 24.82 4.433 4.433 0 008.226 3.309 31.126 31.126 0 0157.6 0 4.433 4.433 0 108.226-3.309 39.777 39.777 0 00-37.025-24.82z"/><path class="b" d="M179.488 175.992a4.343 4.343 0 01-.913-.108c-.042-.007-.077-.028-.12-.038a4.486 4.486 0 01-.775-.278c-.117-.054-.222-.129-.336-.2s-.249-.128-.367-.211c-.042-.03-.071-.07-.115-.1-.1-.082-.2-.175-.3-.267a4.125 4.125 0 01-.421-.452c-.042-.053-.1-.093-.138-.148l-14.057-19.25-14.053 19.251c-.044.057-.1.1-.143.156a4.4 4.4 0 01-.331.37 3.7 3.7 0 01-.319.284c-.066.05-.116.115-.185.164-.035.025-.077.033-.112.059a4.425 4.425 0 01-1.066.536c-.078.028-.161.04-.242.062a4.48 4.48 0 01-1.007.157c-.056 0-.107.023-.159.023-.025 0-.056-.009-.083-.009a4.342 4.342 0 01-.912-.107c-.04-.008-.076-.028-.121-.039a4.571 4.571 0 01-.776-.277c-.115-.055-.219-.127-.329-.192a3.82 3.82 0 01-.373-.216c-.041-.032-.077-.07-.119-.1a3.536 3.536 0 01-.292-.264 3.9 3.9 0 01-.431-.459c-.043-.051-.095-.09-.133-.144l-14.054-19.253-14.06 19.248a4.407 4.407 0 01-3.754 1.8c-.082 0-.159.009-.241.009a4.4 4.4 0 01-4.385-4.02 56.307 56.307 0 01-.217-4.8v-110a57.5 57.5 0 01115 0v110c0 1.49-.089 2.941-.18 4.163a4.416 4.416 0 01-7.96 2.261l-13.713-18.677-14.062 19.264c-.044.06-.1.105-.146.163a4.348 4.348 0 01-.324.362c-.1.1-.211.2-.322.285-.064.053-.116.115-.185.165-.034.024-.077.032-.111.058a4.4 4.4 0 01-1.068.536c-.078.028-.16.041-.241.063a4.553 4.553 0 01-1.008.156c-.055 0-.107.023-.159.023-.024-.001-.057-.009-.082-.009zM165.511 144.9l14.053 19.253 14.055-19.253a4.431 4.431 0 013.566-1.809 4.409 4.409 0 013.56 1.8l9.482 12.924V57.184a48.685 48.685 0 00-97.368 0v101.789l10.274-14.073a4.423 4.423 0 017.136 0l14.051 19.253 14.058-19.253a4.421 4.421 0 017.133 0zm28.324-23.235a4.433 4.433 0 01-3.5-2.74 31.125 31.125 0 00-57.6 0 4.433 4.433 0 01-8.225-3.309 40.029 40.029 0 0174.054 0 4.4 4.4 0 01-.6 4.388 4.452 4.452 0 01-4.129 1.661zm-19.9-56.543a12.8 12.8 0 1112.8 12.726 12.777 12.777 0 01-12.804-12.725zm8.815 0a3.982 3.982 0 103.982-3.959 3.976 3.976 0 00-3.986 3.96zm-58.383 0a12.8 12.8 0 1112.8 12.726 12.776 12.776 0 01-12.803-12.725zm8.815 0a3.982 3.982 0 103.982-3.959 3.976 3.976 0 00-3.985 3.96z"/></svg>