<svg xmlns="http://www.w3.org/2000/svg" width="20" height="20" viewBox="0 0 20 20"><g data-name="Group 731"><g data-name="Group 730" fill="#e1332b"><path data-name="Path 1432" d="M18.4 9A8.5 8.5 0 0011 1.5V0H9v1.5A8.5 8.5 0 001.6 9H0v2h1.5a8.493 8.493 0 007.4 7.4V20h2v-1.6a8.493 8.493 0 007.4-7.4H20V9zm-2 2a6.364 6.364 0 01-5.4 5.4V15H9v1.4A6.364 6.364 0 013.6 11H5V9H3.6A6.364 6.364 0 019 3.6V5h2V3.6A6.364 6.364 0 0116.4 9H15v2z"/><circle data-name="Ellipse 34" cx="3" cy="3" r="3" transform="translate(7 7)"/></g></g></svg>