<svg xmlns="http://www.w3.org/2000/svg" width="20.89" height="10.39" viewBox="0 0 20.89 10.39"><g data-name="Group 8" transform="translate(-451 -2335.804)" fill="#fff"><rect data-name="Rectangle 491" width="2" height="2" rx="1" transform="translate(451 2340)"/><rect data-name="Rectangle 492" width="16" height="2" rx="1" transform="translate(454 2340)"/><path data-name="Union 1" d="M466.04 2345.924a.918.918 0 01-.272-.655.918.918 0 01.272-.655l3.613-3.614-3.613-3.614a.919.919 0 01-.272-.655.922.922 0 01.272-.656.927.927 0 011.31 0l4.27 4.269a.924.924 0 01.272.655.926.926 0 01-.272.656l-4.27 4.269a.919.919 0 01-.655.272.918.918 0 01-.655-.272z"/></g></svg>