<svg xmlns="http://www.w3.org/2000/svg" width="28.13" height="25.1" viewBox="0 0 28.13 25.1"><g data-name="Group 638" fill="#e1332b"><path data-name="Path 1307" d="M27.452.764a1.216 1.216 0 00-1.95 0L8.975 20.794l-6.351-7.7a1.216 1.216 0 00-1.95 0 1.932 1.932 0 000 2.364l7.331 8.882a1.216 1.216 0 001.95 0l17.5-21.212a1.932 1.932 0 00-.003-2.364z"/><path data-name="Path 1307 - Outline" d="M26.478.003a1.515 1.515 0 011.169.584 2.3 2.3 0 010 2.822L10.15 24.521a1.462 1.462 0 01-2.339 0l-7.326-8.84a2.3 2.3 0 010-2.822 1.515 1.515 0 011.169-.584 1.515 1.515 0 011.169.584l6.157 7.429L25.308.588a1.515 1.515 0 011.17-.585zM8.98 24.442a1.012 1.012 0 00.781-.39l17.5-21.114a1.534 1.534 0 000-1.885.976.976 0 00-1.562 0L8.98 21.225l-6.545-7.9a1.012 1.012 0 00-.781-.39 1.012 1.012 0 00-.781.39 1.534 1.534 0 000 1.885l7.328 8.842a1.011 1.011 0 00.779.39z"/></g></svg>