<svg xmlns="http://www.w3.org/2000/svg" width="20" height="17.85" viewBox="0 0 20 17.85"><g data-name="Group 638" fill="#2b973d"><path data-name="Path 1307" d="M19.44.619a.858.858 0 00-1.375 0L6.413 14.73 1.935 9.306a.858.858 0 00-1.375 0 1.36 1.36 0 000 1.666l5.166 6.257a.858.858 0 001.375 0L19.44 2.285a1.36 1.36 0 000-1.666z"/><path data-name="Path 1307 - Outline" d="M18.825.003a1.077 1.077 0 01.831.416 1.633 1.633 0 010 2.006L7.216 17.433a1.04 1.04 0 01-1.663 0L.345 11.149a1.633 1.633 0 010-2.006 1.077 1.077 0 01.831-.416 1.077 1.077 0 01.831.416l4.377 5.282L17.993.416a1.077 1.077 0 01.832-.413zM6.385 17.378a.719.719 0 00.555-.277L19.38 2.09a1.091 1.091 0 000-1.34.694.694 0 00-1.111 0L6.385 15.09 1.731 9.475a.719.719 0 00-.555-.278.72.72 0 00-.555.278 1.091 1.091 0 000 1.34l5.209 6.288a.719.719 0 00.555.275z"/></g></svg>