<svg xmlns="http://www.w3.org/2000/svg" width="32.21" height="32.21" viewBox="0 0 32.21 32.21"><path d="M17.364 15.98a1.258 1.258 0 01-1.258 1.258 1.258 1.258 0 01-1.258-1.258 1.258 1.258 0 011.258-1.258 1.258 1.258 0 011.258 1.258zM26.171 0a1.258 1.258 0 00-1.258 1.258 1.258 1.258 0 001.258 1.258 1.258 1.258 0 001.258-1.258A1.258 1.258 0 0026.171 0zm4.152 5.1a1.258 1.258 0 00-1.258 1.258 1.258 1.258 0 001.258 1.258 1.258 1.258 0 001.258-1.258A1.258 1.258 0 0030.324 5.1zM22.4 18.307a1.258 1.258 0 00-1.258 1.258 1.258 1.258 0 001.258 1.258 1.258 1.258 0 001.258-1.258 1.258 1.258 0 00-1.258-1.258zM8.556 12.331a1.258 1.258 0 001.258 1.258 1.258 1.258 0 001.258-1.258 1.258 1.258 0 00-1.258-1.258 1.258 1.258 0 00-1.258 1.258zm1.258 5.977a1.258 1.258 0 00-1.258 1.258 1.258 1.258 0 001.258 1.258 1.258 1.258 0 001.258-1.258 1.258 1.258 0 00-1.258-1.259zm6.291 3.964a1.258 1.258 0 00-1.258 1.258 1.258 1.258 0 001.258 1.258 1.258 1.258 0 001.258-1.258 1.258 1.258 0 00-1.258-1.259zm4.041 8.252a4.622 4.622 0 013.27-1.366h.035a1.258 1.258 0 001.258-1.251 1.258 1.258 0 00-1.251-1.266h-.042a7.153 7.153 0 00-5.06 2.113 3.142 3.142 0 01-2.251.94 3.142 3.142 0 01-2.251-.94 7.154 7.154 0 00-5.06-2.113h-.061a3.141 3.141 0 01-2.237-.927 3.141 3.141 0 01-.927-2.256 7.152 7.152 0 00-2.113-5.1 3.142 3.142 0 01-.94-2.251 3.141 3.141 0 01.94-2.251 7.154 7.154 0 002.113-5.1A3.14 3.14 0 016.5 6.5a3.129 3.129 0 012.256-.927 7.161 7.161 0 005.1-2.113 3.14 3.14 0 011.788-.907 6.357 6.357 0 00-.041.722 6.164 6.164 0 001.77 4.348 6.028 6.028 0 004.332 1.818h.2a6.062 6.062 0 001.663 3.357 6.133 6.133 0 004.424 1.8 5.988 5.988 0 001.248-.127 3.143 3.143 0 01.456 1.637 3.141 3.141 0 01-.94 2.25 7.154 7.154 0 00-2.113 5.1 1.258 1.258 0 001.258 1.251h.008a1.258 1.258 0 001.251-1.266 4.622 4.622 0 011.366-3.3 5.641 5.641 0 001.688-4.041 5.65 5.65 0 00-1.612-3.962 1.262 1.262 0 00-1.374-.288 3.328 3.328 0 01-1.235.224 3.514 3.514 0 01-3.643-3.624v-.4a1.258 1.258 0 00-.369-.89l-.063-.063a1.258 1.258 0 00-1.23-.321 3.644 3.644 0 01-.981.142 3.622 3.622 0 01-3.586-3.649 3.486 3.486 0 01.269-1.375 1.258 1.258 0 00-.027-1.047 1.259 1.259 0 00-.81-.663A5.693 5.693 0 0016.105 0a5.641 5.641 0 00-4.041 1.688 4.622 4.622 0 01-3.27 1.366h-.026a5.636 5.636 0 00-4.051 1.664 5.64 5.64 0 00-1.664 4.051 4.622 4.622 0 01-1.366 3.3A5.641 5.641 0 000 16.105a5.641 5.641 0 001.688 4.041 4.622 4.622 0 011.366 3.3 5.64 5.64 0 001.664 4.051 5.639 5.639 0 004.016 1.664h.035a4.614 4.614 0 013.3 1.366 5.641 5.641 0 004.041 1.688 5.641 5.641 0 004.036-1.692z" fill="#1d1d1b"/></svg>