<svg width="40" height="40" viewBox="0 0 40 40" fill="none" xmlns="http://www.w3.org/2000/svg"><path fill-rule="evenodd" clip-rule="evenodd" d="M10 1.667a5 5 0 00-5 5v26.666a5 5 0 005 5h20a5 5 0 005-5V15c0-.442-.176-.866-.488-1.178L22.845 2.155a1.667 1.667 0 00-1.178-.488H10zM8.821 5.488A1.667 1.667 0 0110 5h10v10c0 .92.746 1.667 1.667 1.667h10v16.666A1.667 1.667 0 0130 35H10a1.667 1.667 0 01-1.667-1.667V6.667c0-.442.176-.866.488-1.179zm20.489 7.845l-5.977-5.976v5.976h5.977zm-15.977 0a1.667 1.667 0 100 3.334h3.334a1.667 1.667 0 000-3.334h-3.334zm-1.666 8.334c0-.92.746-1.667 1.666-1.667h13.334a1.667 1.667 0 010 3.333H13.333c-.92 0-1.666-.746-1.666-1.666zm0 6.666c0-.92.746-1.666 1.666-1.666h13.334a1.667 1.667 0 010 3.333H13.333c-.92 0-1.666-.746-1.666-1.667z" fill="#E1332B"/></svg>