<svg xmlns="http://www.w3.org/2000/svg" width="31.39" height="31.39" viewBox="0 0 31.39 31.39"><path data-name="001-facebook" d="M15.693 0a15.552 15.552 0 017.924 2.155 15.851 15.851 0 013.964 23.943 15.989 15.989 0 01-8.855 5.288V20.105h3.078l.7-4.433h-4.667v-2.9a2.523 2.523 0 01.537-1.667 2.454 2.454 0 011.969-.749h2.814V6.469q-.061-.019-1.149-.154a22.846 22.846 0 00-2.48-.154 6.2 6.2 0 00-4.451 1.587 6.135 6.135 0 00-1.672 4.555v3.369H9.857v4.433h3.546v11.281a15.605 15.605 0 01-9.6-5.288A15.833 15.833 0 017.771 2.155 15.557 15.557 0 0115.692 0z"/></svg>