<svg viewBox="0 0 310 310" xmlns="http://www.w3.org/2000/svg" fill-rule="evenodd" clip-rule="evenodd" stroke-linejoin="round" stroke-miterlimit="2"><g transform="translate(-1057.61 -661.622)"><path fill="none" d="M1057.61 661.62h310v310h-310z"/><clipPath id="a"><path d="M1057.61 661.62h310v310h-310z"/></clipPath><g clip-path="url(#a)"><path d="M1368.21 695.358c0-18.279-14.842-33.118-33.115-33.118h-243.767c-18.283 0-33.116 14.84-33.116 33.118v243.765c0 18.278 14.833 33.117 33.116 33.117h243.767c18.273 0 33.116-14.839 33.116-33.117V695.358z" fill="#0a48f7"/><path d="M1161.309 762.113a88.11 88.11 0 014.152-4.784c5.633-6.03 12.092-11.242 19.121-15.534 1.08-.667 1.945-1.193 1.976-1.213 7.06-4.097 14.681-7.227 22.576-9.34 11.23-3.037 23.046-4.008 34.726-2.604.234.027.467.054.694.086 3.06.378 6.1.912 9.102 1.606 28.076 6.502 52.588 26.738 64.05 53.55 11.83 27.675 9.18 61.068-7.474 86.687-21.07 32.411-63.406 49.411-102.213 38.344-1.622-.464-2.85-.908-4.752-1.485 0 0-2.152-.702-3.868-1.19-15.145-4.307-31.377-4.552-46.561-.892l-15.89 4.261-8.166-30.477c11.422-6.218 18.684-19.909 15.792-33.518-.164-.569-16.058-59.928-16.058-59.928-3.04-13.91-16.606-24.525-31.233-24.115l-8.163-30.462c7.734-2.081 15.465-4.167 23.207-6.214 16.98-4.553 35.853-.959 50.557 8.908a113.799 113.799 0 00-13.987 13.523c-4.947-2.857-10.471-4.748-16.276-5.372a42.816 42.816 0 00-15.686 1.26l-4.784 1.282c16.837 4.87 30.793 19.262 34.765 36.917l-.038-.187c7.831 29.257 16.224 60.7 16.224 60.7 3.248 15.754-1.594 32.782-12.852 44.527l-.133.133.682-.152c19.305-4.203 39.346-3.185 57.91 2.908 0 0 3.578 1.216 6.709 2.004 25.28 6.362 53.613-1.996 71.417-21.332 19.647-21.34 25.124-54.682 12.174-81.63-10.978-22.849-34.434-38.992-59.839-41.249-.253-.015-.507-.035-.76-.054-27.078-2.055-54.654 12.143-68.607 35.794a71.507 71.507 0 00-1.98 3.59c-1.89-7.079-4.1-15.351-6.514-24.348zm17.613 57.016c17.944 18.583 35.568 37.479 53.835 55.746l53.832-55.746-21.082-36.52h-65.503c-7.025 12.175-14.054 24.346-21.082 36.52zm75.678-17.628l8.513 14.743-30.356 31.44-30.36-31.44 8.514-14.743h43.689z" fill="#fff" fill-rule="nonzero"/></g></g></svg>