<svg xmlns="http://www.w3.org/2000/svg" width="23.58" height="28.75" viewBox="0 0 23.58 28.75"><g data-name="Group 639"><path data-name="Path 1308" d="M23.523 16.869l-2.121-5.3 2.121-5.3a.842.842 0 00-.782-1.155h-9.826v-1.97a.842.842 0 00-.842-.842H1.685V.842A.843.843 0 000 .842v27.065a.843.843 0 001.685 0v-12.69h6.738v1.965a.844.844 0 00.842.842h13.476a.842.842 0 00.782-1.155zM11.23 13.532H1.685V3.987h9.545zm.07 2.808l1.37-1.37a.852.852 0 00.247-.6V6.794H21.5l-1.784 4.46a.843.843 0 000 .626l1.784 4.46z" fill="#e1332b"/></g></svg>