<svg xmlns="http://www.w3.org/2000/svg" width="20" height="20" viewBox="0 0 20 20"><g data-name="Group 725"><path data-name="Path 1424" d="M19.556 8.26l-2.294-.56a7.573 7.573 0 00-.529-1.26L17.8 4.656a.586.586 0 00-.088-.716l-1.656-1.657a.584.584 0 00-.716-.088l-1.783 1.068a7.548 7.548 0 00-1.257-.525L11.74.444A.586.586 0 0011.172 0H8.828a.585.585 0 00-.568.444s-.391 1.6-.564 2.294a7.522 7.522 0 00-1.33.566L4.518 2.195a.588.588 0 00-.716.088L2.145 3.94a.586.586 0 00-.088.716L3.2 6.565a7.551 7.551 0 00-.462 1.129L.444 8.26A.586.586 0 000 8.828v2.344a.585.585 0 00.444.568l2.295.564a7.557 7.557 0 00.539 1.281l-1.023 1.706a.586.586 0 00.088.716L4 17.664a.588.588 0 00.716.088l1.709-1.024a7.549 7.549 0 001.271.535l.564 2.294a.585.585 0 00.568.443h2.344a.586.586 0 00.568-.444l.564-2.294a7.443 7.443 0 001.3-.552l1.736 1.041a.586.586 0 00.716-.088l1.657-1.657a.586.586 0 00.088-.716l-1.053-1.755a7.5 7.5 0 00.514-1.231l2.294-.564a.586.586 0 00.444-.568V8.828a.586.586 0 00-.444-.568zM10 14.1a4.1 4.1 0 114.1-4.1 4.107 4.107 0 01-4.1 4.1z" fill="#e1332b"/></g></svg>