<svg xmlns="http://www.w3.org/2000/svg" width="154.15" height="88.67" viewBox="0 0 154.15 88.67"><g data-name="Group 890" transform="translate(-1510.362 -5.057)"><path data-name="Path 1525" d="M1663.954 58.704l-.42-.35.01-1.124a.121.121 0 00-.09-.122l-.222-.062-.42-1.781a3.869 3.869 0 01.05-.395c.072-.452 0-.492-.655-.879a.129.129 0 00-.1-.01l-.867.3-.437-.2-.19-.69a.125.125 0 00-.127-.092l-.872.045-.879-.607.072-.785a.142.142 0 00-.01-.065l-1.3-2.768.26-.762.455-.3a.118.118 0 00.055-.1.122.122 0 00-.05-.1l-.815-.6.275-.777a.12.12 0 000-.072l-.15-.575a.132.132 0 00-.095-.092l-.742-.157a.129.129 0 00-.117.037.125.125 0 00-.03.117l.14.527-.212.175-.909-.092-1.2-.8-.055-.292a.132.132 0 00-.13-.1l-1.339.057-.772-.412a.126.126 0 00-.155.192l.355.417-.12.14-.137-.1a.123.123 0 00-.1-.022.122.122 0 00-.085.067l-.187.4-.09-.072c-.607-.477-.607-.477-.655-1.137-.007-.1-.015-.21-.027-.337a.125.125 0 00-.1-.112l-1.332-.245-.167-.83a.128.128 0 00-.122-.1l-.875-.012a.117.117 0 00-.1.05.122.122 0 00-.02.112l.062.207-.235.155-.4-.46a.128.128 0 00-.13-.04l-.3.09-.4-.555.155-.232a.123.123 0 00-.022-.162l-.327-.29.065-.31a.121.121 0 00-.055-.132l-1.257-.775a.13.13 0 00-.137 0l-.647.445a.132.132 0 00-.055.1l-.015.512a.147.147 0 00.012.055l.13.292a.125.125 0 00.2.04l.285-.262.285.057.012.84-.615-.142-.055-.2a.128.128 0 00-.087-.087.131.131 0 00-.12.03l-.46.432-.61.007a.135.135 0 00-.1.047l-.727.9-1.039.17-.872-.685.025-.512a.124.124 0 00-.09-.127l-1.067-.287-.137-.929a.189.189 0 00-.012-.04l-.917-1.734a.189.189 0 00-.027-.035l-.745-.667a.128.128 0 00-.085-.032h-.32a.125.125 0 00-.117.087l-.1.325-.417-.182-.13-.522a.106.106 0 00-.035-.057l-1.09-1.079.137-.232 2.3-.507a.113.113 0 00.09-.08c.037-.1.067-.187.095-.265.142-.412.142-.412.6-.412h.37a.123.123 0 00.12-.107c.025-.2.052-.36.075-.487.1-.615.082-.657-.567-1.167l-.232-.182.585-1.389a.127.127 0 00-.09-.172l-.275-.057-.425-.657a.1.1 0 00-.06-.047l-.675-.252a.125.125 0 00-.115.012.127.127 0 00-.055.1v.894l-1.519 1.117-.447-.377a.126.126 0 00-.117-.022l-1 .31-1.124-.182a.136.136 0 00-.045 0l-.847.18a.128.128 0 00-.1.112l-.037.365-.337.057-.18-.7a.132.132 0 00-.087-.09l-.7-.2a.219.219 0 00-.04 0l-.562.035a.124.124 0 00-.117.115l-.037.467h-.11l-.182-.532.292-.832a.126.126 0 00-.062-.152l-.23-.115.2-.412a.132.132 0 00-.018-.135.128.128 0 00-.13-.04l-1.257.347-.929-.482-1.027-1.074.06-.695a.131.131 0 00-.037-.1.128.128 0 00-.1-.032l-1.322.165-.64-.385-.017-.342a.125.125 0 00-.117-.12l-1.285-.067-1.2-.722a.127.127 0 00-.13 0l-.457.285-1.229-.869a.1.1 0 00-.082-.022l-.785.062a.122.122 0 00-.107.077l-.5 1.247a.125.125 0 00.055.155l1.1.622.837 2.564a.128.128 0 00.075.077l1.214.447c.067.162.13.287.18.39.185.382.185.382-.22 1.062a.127.127 0 000 .13l.525.832-.445.325-.457-.872a.132.132 0 00-.11-.067.124.124 0 00-.11.065l-.4.7-1.212-.012a.124.124 0 00-.115.075l-.337.752c-.095.012-.255.035-.315.04l-.315-.285a.122.122 0 00-.092-.03.118.118 0 00-.087.042l-.49.582-.145-.062a.124.124 0 00-.167.067l-.645 1.589-.795.335a.137.137 0 00-.055.045c-.17.25-.3.455-.417.625-.447.687-.447.687-.994.48a11.78 11.78 0 00-.977-.325l-1.1-1.029.067-.3a.121.121 0 00-.035-.117l-.582-.557v-.117c.04-1.642.04-1.707-.665-2.319-.225-.2-.532-.465-.944-.889l-1.184-1.976a.114.114 0 00-.115-.06l-.782.055a4.2 4.2 0 01-.745-.947c0-.18-.03-1.047-.03-1.047a.122.122 0 00-.112-.12l-1.272-.122a.119.119 0 00-.1.035l-.435.427-.3-.727a.137.137 0 00-.072-.067l-.242-.095.08-.182a.124.124 0 00-.03-.142l-.35-.32a.135.135 0 00-.107-.03l-.5.095-.277-.627.285-.495.292.22a.124.124 0 00.15 0 .127.127 0 00.045-.142l-.165-.46.63-.237a.124.124 0 00.08-.095l.057-.34h.717a.127.127 0 00.117-.075l.35-.832.6.322a.121.121 0 00.12 0l.36-.207.027-.022.9-.944a.124.124 0 00.015-.15l-.217-.37.385-.157a.129.129 0 00.075-.14l-.122-.63.8-.322a.128.128 0 00.075-.147 9.005 9.005 0 00-1.934-2.581c-.157-.17-.295-.315-.395-.43a.124.124 0 00-.1-.042l-1.227.057-.142-.217a.12.12 0 00-.09-.055l-.964-.11a.12.12 0 00-.135.09l-.345 1.254-.55.185-.335-.55a.119.119 0 00-.06-.05l-1.519-.627a.123.123 0 00-.137.03l-.795.85a.114.114 0 00-.03.06l-.185.882-.2-.075a.129.129 0 00-.14.037l-.377.45-.577-.36.65-.482a.118.118 0 00.05-.087.127.127 0 00-.03-.1l-.435-.487-.247-1.374a.131.131 0 00-.082-.1l-.732-.26a.131.131 0 00-.092 0l-1.619.715-.4-.095-.197-1.113a.144.144 0 00-.012-.035l-.83-1.659a.125.125 0 00-.075-.062.112.112 0 00-.1.01l-.8.44-1.562.187-.542-.595a.12.12 0 00-.04-.03l-1.7-.757a.167.167 0 00-.047-.012l-1-.022a.055.055 0 01-.02 0 11.558 11.558 0 01-2.374-.939c-.142-.067-.26-.122-.335-.155a.12.12 0 00-.147.035c-.012.012-.725.869-.914 1.1l-.325-.055-.117-1.939a.105.105 0 00-.015-.052l-.3-.542a.127.127 0 00-.065-.055l-.979-.37-.685-.972-.195-1.422.512-.74a.126.126 0 00-.03-.172l-.343-.247-.012-.577a.122.122 0 00-.092-.117l-.692-.177.032-.367a.126.126 0 00-.058-.122.127.127 0 00-.13 0l-1.1.62-.29-.16-.045-1.129a.121.121 0 00-.062-.1.127.127 0 00-.12 0c-.09.047-.165.087-.232.12-.432.217-.457.26-.45.767v.117c-.145.012-.262.03-.357.042l-.225.03a1.443 1.443 0 01-.007-.325v-.322a.122.122 0 00-.075-.117l-.987-.422a.126.126 0 00-.1 0 .121.121 0 00-.067.072l-.1.282h-.222l-.4-.385a.128.128 0 00-.15-.017l-.795.475a.153.153 0 00-.052.06 3.038 3.038 0 01-.227.432c-.225.362-.152.445.33.882a.124.124 0 00.15.015l.31-.192.252.5-.162.927c-.107.115-.2.2-.267.27-.342.327-.317.4-.01.874l.075.117-.24.415a.134.134 0 00-.015.087l.152.77-.81.137-1.294-.48a.146.146 0 00-.1.007.129.129 0 00-.062.077l-.035.132-.427-.277a.125.125 0 00-.137 0c-.06.037-.11.072-.155.1-.267.185-.267.185-.625.052a.123.123 0 00-.16.067c0 .017-.595 1.439-.73 1.764l-.552.082-.53-.33a.122.122 0 00-.11-.01l-.46.172-.2-.537a.122.122 0 00-.147-.077l-.372.1-1.432-.647.35-1.264.325-.255a.133.133 0 00.045-.107l-.057-.934a.119.119 0 00-.057-.1.125.125 0 00-.115-.01l-1.457.633-.24-.112.747-2.094a.123.123 0 00-.018-.117l-.82-1.059a.122.122 0 00-.137-.042l-.535.175-.052-.33a.126.126 0 00-.092-.1l-.73-.19-.122-.045-.855-.445a.126.126 0 00-.135.012l-.76.577-.6-.21-.532-.667a.13.13 0 00-.14-.04c-.537.192-.537.192-.695-.02a3.877 3.877 0 00-.252-.317.126.126 0 00-.16-.022l-.929.58a.124.124 0 00-.055.08.128.128 0 00.015.095l.25.38-.085.347-.407.195a.121.121 0 00-.07.11l-.025.732a.131.131 0 00.052.1l.552.395a.124.124 0 00.11.017l.8-.242.032.177-.485.23a.126.126 0 00-.07.1.12.12 0 00.055.112l.2.137-.06.08a.126.126 0 00-.022.11.123.123 0 00.075.082 10.29 10.29 0 001.367.45c.26.07.417.11.45.182a1.678 1.678 0 01-.067.67c-.025.132-.055.285-.085.462l-.72-.11a.125.125 0 00-.1.027.129.129 0 00-.047.09l-.01.237-.9.27-.792-.375a.131.131 0 00-.1 0l-.752.275a.122.122 0 00-.077.092l-.2.907-3 1.187a.132.132 0 00-.065.057l-.237.452-.36.1c-.6.18-.6.18-1.317-.285l-.142-.095a.136.136 0 00-.127 0l-.8.427a.137.137 0 00-.05.05c-.322.572-.322.572-.6.52a3.827 3.827 0 00-.5-.07.131.131 0 00-.127.085l-.3.87a.163.163 0 000 .077l.212.717-.665.055a.122.122 0 00-.11.095l-.1.422-1.664-.272a.141.141 0 00-.065.007l-.767.285-.255-.195a.125.125 0 00-.092-.025.126.126 0 00-.082.047l-.38.5-.869-.462a.128.128 0 00-.12 0l-1.364.742-.957-.152a.115.115 0 00-.07.01l-.722.325a.125.125 0 00-.065.16l.112.285c.262.655.262.655-.042 1.009-.09.107-.207.242-.347.427a.122.122 0 00-.012.132c0 .01.125.247.2.395l-.532.262a.12.12 0 00-.047.04c-.082.122-.152.23-.215.325-.39.59-.39.59-.752.42a6.634 6.634 0 00-.667-.277l-.537-1.027a.113.113 0 00-.075-.06l-.42-.125a.125.125 0 00-.117.022.127.127 0 00-.042.112l.095.725-1.094.67a.12.12 0 00-.057.092 4.82 4.82 0 00-.027.6c0 .295 0 .307-.555.422l-.24-.53a.13.13 0 00-.115-.075l-.7.007a.128.128 0 00-.115.082l-1.142 3.051-1.112-.1-.12-.342a.127.127 0 00-.187-.065l-.992.637-1.157-.345a.127.127 0 00-.16.107l-.256 2.142-.865.987-.837.23a.128.128 0 00-.065.045 32.07 32.07 0 00-2.611-1.709.12.12 0 00-.112 0 .126.126 0 00-.072.09c0 .012-.075.377-.135.665l-.175-.33a.126.126 0 00-.162-.055l-1.352.6a.117.117 0 00-.06.055l-.575 1.1-.642-.585a.131.131 0 00-.107-.03l-3.623.7a.124.124 0 00-.082.057l-.57.919a.115.115 0 00-.017.075l.04.555-.282-.115a.121.121 0 00-.122.017l-.612.47a.12.12 0 00-.042.057l-.207.592-.635.02a.128.128 0 00-.122.125v.944l-.557.242a.113.113 0 00-.062.055l-.417.8a.127.127 0 00-.01.085c.032.155.065.277.09.372.02.077.04.155.047.2h-.517a.136.136 0 00-.092.045.117.117 0 00-.027.095l.092.762-.242.38a.126.126 0 000 .135l.29.44-.28.307a.127.127 0 000 .172l.045.045-.63-.085-.285-.582.4-.8a.124.124 0 00-.042-.147l-1.152-.835h0c.022-.08.042-.157.057-.207l.045.03a2.608 2.608 0 00.295.182h0a.121.121 0 00.182-.11.141.141 0 00-.007-.045c0-.017-.25-.715-.25-.715a.13.13 0 00-.112-.085l-1.107-.055-.022-1.069a.1.1 0 00-.017-.06l-.345-.572a.117.117 0 00-.115-.06l-1.884.145a.123.123 0 00-.112.087.126.126 0 00.047.135l.47.352-.1.23a.122.122 0 00.007.117l.4.642-.832.4a.137.137 0 00-.062.077l-.14.46a.123.123 0 00.045.137l.8.58a.133.133 0 00.1.022l.4-.077.19.757a.127.127 0 00.057.08.121.121 0 00.1.01l.22-.062.152.4a.121.121 0 00.11.08h.027a.124.124 0 00.012.117l.562.847c-.045.085-.087.162-.125.23-.35.635-.385.745-.22 1.844a.055.055 0 000 .02h0c.025.062.17.17.77.61a.13.13 0 00.11.017l.295-.085.5.61-.277.562a.127.127 0 000 .112.124.124 0 00.092.067l1.2.182.212.64a.125.125 0 00.21.045l.132-.145.587.675a.122.122 0 00.085.042l.637.045.025.277a.125.125 0 00.107.112l.547.072.017.52a.126.126 0 00.187.1l.572-.33.065.045a2.351 2.351 0 01.672.607l-.587.934a.114.114 0 00-.012.1.123.123 0 00.067.077l1.6.72.115.482-.847 1.537-.265.072a.126.126 0 00-.092.122l.012.532-.422.067a.126.126 0 00-.1.092l-.23.872a.146.146 0 000 .057l.16.755-1.519.855a.118.118 0 00-.062.117l.04.635a.108.108 0 00.02.06c.142.22.252.4.35.562a2.816 2.816 0 001.592 1.414v-.007a5.487 5.487 0 00.707.04l.137 2.256a.116.116 0 00.04.087.113.113 0 00.092.03l.622-.045.642 2.733a.122.122 0 00.06.08l.717.395a.129.129 0 00.127 0l.222-.137.09.16-.23 1.572a.126.126 0 00.017.085l.507.795.01.62a.126.126 0 00.09.117l1.129.332c1.064.909 1.107 1.054 1.382 1.969.055.185.12.4.2.657a.121.121 0 00.112.085l1.477.072.74.5a.131.131 0 00.117.012.123.123 0 00.075-.092l.125-.6 1.707.535.75.942a.136.136 0 00.082.045l.412.05.1 1.264a.124.124 0 00.115.115l.38.022.135.375a.127.127 0 00.082.077l.385.117.14.582a.125.125 0 00.057.08c.12.067.217.117.295.16.242.125.242.125.18.542l-.007.05a.125.125 0 00.047.117l1.319 1 .15 1.172a.121.121 0 00.06.09c.27.16.47.295.63.4.63.42.75.467 1.891.265l2.271 2.156.225 2.254a.114.114 0 00.05.087l2.089 1.562a.124.124 0 00.1.025l.272-.045a.124.124 0 00.1-.125v-.78l.865.042.587-.077.592 1.044a.117.117 0 00.085.06.111.111 0 00.1-.022l.122-.095a.173.173 0 00.01.025l1.107 2.009a.122.122 0 00.1.065l1 .077a.1.1 0 00.07-.015l.367-.21.535 1.592a.12.12 0 00.082.08l.595.177.46 1.007-.042.775a.124.124 0 00.1.13l1.352.225 1.831 1.814a.123.123 0 00.075.035c1.014.12 1.029.147 1.284.59a6.733 6.733 0 00.387.612.123.123 0 00.082.052l.445.065-.1.5h-.532 0a.126.126 0 00-.1.055l-.325.47a.128.128 0 00.015.16l.43.432a.122.122 0 00.107.035l.217-.035-.08.342a.126.126 0 00.08.147l.515.18-.027.3a.113.113 0 00.042.1.125.125 0 00.11.027l.5-.12-.005.092a.127.127 0 00.1.127l.455.1a.118.118 0 00.107-.025l.315-.255 1.279.152 1.119.525a.119.119 0 00.077.007l.63-.122 1.119.555.192.37a.126.126 0 00.1.065h.007a.123.123 0 00.1-.052l.5-.71c.1.012.192.025.267.035.23.032.347.05.432-.032s.075-.2.055-.412c0-.06-.012-.127-.017-.2l.82.135a.123.123 0 00.135-.072l.57-1.237a.117.117 0 000-.1l-.207-.49.367-.11.687.984a.131.131 0 00.095.052l.912.072.337.325a.125.125 0 00.16.012l1-.732.232.6a.123.123 0 00.142.077l.44-.09.332.855a.109.109 0 00.12.08l.83-.017a.126.126 0 00.1-.052l.445-.642a.127.127 0 00.02-.085l-.177-1.645.317-1.189 1.8-1.569a.116.116 0 00.042-.092l.03-1.424 1.4-.042.132.277a.131.131 0 00.082.067l1.524.41a.123.123 0 00.11-.022l.465-.36a.125.125 0 00.045-.067l.09-.352a.127.127 0 00-.03-.117l-.557-.592.38-1.359.19-.01a.121.121 0 00.095-.05.127.127 0 00.02-.107l-.26-.927.152-.025a.128.128 0 00.1-.1l.175-1.012a.108.108 0 000-.04l-.345-2.184.46-.727a.125.125 0 00.017-.072l-.027-.675 1.232-.015.132.467a.126.126 0 00.107.09l1.854.2-.087.287a.121.121 0 00.015.1l.4.607-.18.6a.123.123 0 00.122.16l.652-.025a.117.117 0 00.07-.022l.747-.547.775.21a.129.129 0 00.155-.087l.325-1.187.274.311a.129.129 0 00.1.045l1.524-.047 1.284 1.012a.221.221 0 00.042.02l.695.215a.121.121 0 00.115-.022l.2-.167.632.455.292.757a.122.122 0 00.092.077 2.446 2.446 0 01.515.137.122.122 0 00.045.035l.845.407a.1.1 0 00.052.012h.842l1.657 1.364a.126.126 0 00.132.018l.345-.162.917.3a.122.122 0 00.137-.042l.572-.75 1.244-.085.18.212-.152.19a.127.127 0 00-.022.107.122.122 0 00.067.085l.515.242a.127.127 0 00.147-.032l.09-.1.162.427a.121.121 0 00.085.077.142.142 0 00.072 0 .589.589 0 010 .12.128.128 0 00.157.125l.475-.12.272.575a.127.127 0 00.1.07.124.124 0 00.112-.05l.15-.2.155.07-.127.512a.123.123 0 00.035.122l.972.907a.256.256 0 00.032.022l2.474 1.144a.112.112 0 00.05.01l3.918.13 1.222.335a.127.127 0 00.147-.072l.132-.3.287.452a.127.127 0 00.12.057l.44-.047a.124.124 0 00.075-.035l1.254-1.257a.153.153 0 00.032-.055l.307-1.107.36-.177 1.089.247a.126.126 0 00.12-.035l.395-.425 1.114 1.007a.118.118 0 00.08.03l1.482.035.392 1.714a.128.128 0 00.06.08.133.133 0 00.1.01l.927-.32.407.152.215.507a.12.12 0 00.072.067l.967.347a.121.121 0 00.1 0l.712-.36.715.17a.125.125 0 00.135-.055 1.38 1.38 0 01.23-.312.642.642 0 01.12.045c.055.025.13.057.225.09l.547 2.466-.19.645a.125.125 0 00.072.15l.507.212a.122.122 0 00.15-.04l.78-1.067a.127.127 0 00.022-.095l-.107-.652.86-.86a.128.128 0 00.025-.137l-.195-.457.947-1.756.982-.67a.138.138 0 00.047-.065l.482-1.472.939-.485a.146.146 0 00.037-.027l.867-.977 1.774.535.59.587a.129.129 0 00.122.032l.272-.075.927 1a.118.118 0 00.095.04l.735-.02a.127.127 0 00.077-.027l1.192-1.014 1.354.989a.126.126 0 00.057.022 3.254 3.254 0 001.374-.247c.132-.042.26-.085.38-.117a.129.129 0 00.085-.08c0-.015.115-.31.16-.43l1.032-.472 1.232-.2a.122.122 0 00.077-.045l1.751-2.154c.482-.032.86-.042 1.164-.052 1.177-.032 1.227-.072 1.382-1.027a15.376 15.376 0 01.427-1.929c.067-.06.175-.165.355-.34l2.074-.037a.091.091 0 00.052-.012l1.032-.5a.1.1 0 00.04-.03l.65-.76a.106.106 0 00.025-.042l.4-1.192a.111.111 0 000-.05l-.12-1.369.542-.9a.127.127 0 00.018-.08l-.107-.865c.085-.16.157-.287.22-.4.325-.567.365-.687.15-1.642.112-.1.34-.32.825-.79a.114.114 0 00.037-.09l-.005-.43 1.714-.322.025-.007 2.269-.957a.129.129 0 00.042-.032l.86-.929a.115.115 0 00.032-.067c.01-.08.025-.175.045-.28a3.035 3.035 0 00.052-1.147l.525.1a.141.141 0 00.095-.02l.855-.587a.12.12 0 00.045-.06l.345-.907 1.2-1.049a.124.124 0 00.04-.127l-.217-.78.6-.49.55-.062.1.32a.124.124 0 00.1.087l.4.062a.1.1 0 00.055 0l1.312-.395 1.684.615a.12.12 0 00.13-.027l.612-.587 1.257-.457a.123.123 0 00.075-.07l.4-1.017a.125.125 0 00-.024-.161z" fill="#f8f8f8" stroke="#e1332b" stroke-linecap="round" stroke-linejoin="round"/><text transform="translate(1563 53)" font-size="18" font-family="Raleway-Bold, Raleway" font-weight="700" letter-spacing=".01em"><tspan x="0" y="0">CZ</tspan></text><ellipse data-name="Ellipse 39" cx="2" cy=".5" rx="2" ry=".5" transform="translate(1548 74)" fill="#e1332b"/><path data-name="Path 1526" d="M1549.998 62.567a3.917 3.917 0 00-3.911 3.912c0 2.713 3.532 6.276 3.683 6.427a.329.329 0 00.461 0c.15-.148 3.682-3.712 3.682-6.427a3.917 3.917 0 00-3.915-3.912zm-1.954 3.912a1.956 1.956 0 011.955-1.956 1.956 1.956 0 011.957 1.956 1.956 1.956 0 01-1.957 1.956 1.956 1.956 0 01-1.955-1.956z" fill="#e1332b"/></g></svg>