<svg xmlns="http://www.w3.org/2000/svg" width="14" height="14" viewBox="0 0 14 14"><path d="M13.62 6.088L7.909.378a1.288 1.288 0 00-1.822 0L.38 6.084l-.006.006a1.288 1.288 0 00.857 2.2H1.5v4.2a1.51 1.51 0 001.507 1.511h2.234a.41.41 0 00.41-.41v-3.298a.689.689 0 01.688-.692h1.318a.689.689 0 01.688.688v3.294a.41.41 0 00.41.41h2.234a1.51 1.51 0 001.511-1.504v-4.2h.211a1.289 1.289 0 00.912-2.2zm-.581 1.242a.466.466 0 01-.331.137h-.621a.41.41 0 00-.41.41v4.612a.689.689 0 01-.688.688H9.165v-2.884a1.51 1.51 0 00-1.508-1.508H6.339a1.51 1.51 0 00-1.508 1.508v2.884H3.007a.689.689 0 01-.688-.688V7.878a.41.41 0 00-.41-.41h-.63a.468.468 0 01-.323-.8L6.667.958a.468.468 0 01.662 0l5.708 5.708a.469.469 0 010 .662zm0 0" fill="#e1332b"/></svg>