<svg xmlns="http://www.w3.org/2000/svg" width="21.01" height="28.5" viewBox="0 0 21.01 28.5"><g data-name="Group 641"><g data-name="Group 640"><path data-name="Path 1309" d="M17.881 3.025A10.433 10.433 0 0010.355 0a10.5 10.5 0 00-7.941 17.2 10.38 10.38 0 012.372 6.617v2.389h1.57V28.5h8.3v-2.289h1.57v-2.388a10.655 10.655 0 012.431-6.69 10.5 10.5 0 00-.776-14.108zm-4.9 23.8H8.026v-.617h4.958zm1.57-2.287h-8.1v-.617h8.1zm-5.3-2.287l-1.868-8.07c.146.01.3.014.458.01a3.929 3.929 0 002.665-1.07 3.929 3.929 0 002.665 1.07c.159 0 .312 0 .458-.01l-1.868 8.07zm8.11-6.176a12.457 12.457 0 00-2.7 6.176h-1.187l2.438-10.534-1.494.612a3.424 3.424 0 01-1.2.192 2.312 2.312 0 01-2-1.158l-.7-1.107-.7 1.107a2.309 2.309 0 01-1.955 1.156 3.414 3.414 0 01-1.254-.19l-1.494-.612 2.416 10.537H6.354A12.023 12.023 0 003.7 16.139a8.835 8.835 0 1113.66-.061z" fill="#e1332b"/></g></g><g data-name="Group 643"><g data-name="Group 642"><path data-name="Path 1310" d="M10.505 3.107v1.67a5.747 5.747 0 015.74 5.74h1.67a7.418 7.418 0 00-7.41-7.41z" fill="#e1332b"/></g></g></svg>