<svg xmlns="http://www.w3.org/2000/svg" width="31.39" height="31.39" viewBox="0 0 31.39 31.39"><path data-name="003-instagram" d="M15.693 11.785a3.909 3.909 0 11-3.97 3.908 3.939 3.939 0 013.97-3.908zm0-1.563a5.472 5.472 0 105.558 5.471 5.515 5.515 0 00-5.558-5.471zm5.729-1.315a1.563 1.563 0 101.588 1.565 1.563 1.563 0 00-1.588-1.565zm-9.609-1.7h7.759a4.535 4.535 0 014.57 4.5v7.975a4.535 4.535 0 01-4.57 4.5h-7.759a4.535 4.535 0 01-4.57-4.5v-7.978a4.535 4.535 0 014.57-4.499zm-.732-1.556a5.391 5.391 0 00-5.432 5.348v9.391a5.39 5.39 0 005.432 5.348H20.3a5.39 5.39 0 005.432-5.348v-9.393A5.391 5.391 0 0020.3 5.65zm4.611-5.65A15.693 15.693 0 110 15.693 15.693 15.693 0 0115.693 0z"/></svg>