<svg xmlns="http://www.w3.org/2000/svg" width="31.39" height="31.39" viewBox="0 0 31.39 31.39"><path data-name="002-linkedin" d="M15.732 0a15.693 15.693 0 1015.654 15.693A15.7 15.7 0 0015.732 0zm-3.913 23.308H7.827V9.538h3.992zM9.94 8.692a1.774 1.774 0 01-1.8-1.846A1.821 1.821 0 019.94 5a1.943 1.943 0 011.878 1.846A1.839 1.839 0 019.94 8.692zm15.576 14.616H21.6v-8.537c0-1-.313-1.692-1.487-1.692a2.36 2.36 0 00-2.424 1.692v8.539h-3.914V9.538h3.913v1.308A6.82 6.82 0 0121.6 9.538c1.252 0 3.913.769 3.913 5.385v8.385z"/></svg>