<svg xmlns="http://www.w3.org/2000/svg" width="31.36" height="32.3" viewBox="0 0 31.36 32.3"><g data-name="Group 697"><g data-name="Group 694"><path data-name="Path 1393" d="M13.912 27.887v-13.43a4.448 4.448 0 00-1.973-3.548L3.9 5.916a2.822 2.822 0 00-1.481-.445A2.466 2.466 0 000 8.091V30.05l3.609 2.248V10.139l6.389 3.925a.485.485 0 01.241.392v11.429l-3.691-2.338v4.328L10 30.061a2.825 2.825 0 001.482.445 2.474 2.474 0 002.429-2.62"/><path data-name="Path 1394" d="M31.364 0L27.73 2.246v19a.757.757 0 01-.327.563l-6.271 3.876V14.229a.434.434 0 01.223-.462l3.412-2.225V7.194l-5.31 3.374a4.73 4.73 0 00-2.021 3.646v13.647a2.468 2.468 0 002.42 2.615 2.889 2.889 0 001.5-.514l8.015-5.051a4.522 4.522 0 001.994-3.549z" fill="#e1332b"/></g></g></svg>