<svg xmlns="http://www.w3.org/2000/svg" width="224" height="79.53" viewBox="0 0 224 79.53"><g data-name="Group 681"><g data-name="Group 666"><path data-name="Path 1354" d="M98.359 31.516h4.293q2.562 0 3.253-.59t.691-2.788q0-2.517-.574-3.123t-2.991-.6h-4.672zm-3.769 9.591V21.241h8.994q4.03 0 5.437 1.4t1.405 5.422q0 3.987-1.34 5.3t-5.413 1.308l-.875.016H98.36v6.418z"/><path data-name="Path 1355" d="M117.188 31.239h5.413a3.515 3.515 0 002.572-.692 4.307 4.307 0 00.629-2.773 4.548 4.548 0 00-.545-2.741 3.262 3.262 0 00-2.392-.619h-5.677zm-3.771 9.868V21.241h9.8c2.437 0 4.113.421 5.039 1.267s1.378 2.371 1.378 4.583a8.491 8.491 0 01-.689 4.12 4.085 4.085 0 01-2.832 1.527v.133q3.305.2 3.305 3.857v4.38h-3.771v-3.624q0-3.069-3.026-3.072h-5.433v6.7z"/><path data-name="Path 1356" d="M141.157 24.298q-3.8 0-4.439.975t-.641 6.753q0 4.28.751 5.152t4.417.875q3.505 0 4.206-.984t.7-5.96q0-4.992-.665-5.9t-4.329-.909m.291-3.232q5.414 0 6.972 1.8t1.558 8.039q0 6.829-1.565 8.6t-7.576 1.775q-5.412 0-7-1.753t-1.587-7.721q0-7.1 1.554-8.923t7.643-1.818"/><path data-name="Path 1357" d="M167.837 27.034h-3.684a3.984 3.984 0 01-.027-.41c-.087-1.115-.336-1.818-.742-2.1a5.988 5.988 0 00-2.882-.428 7.924 7.924 0 00-3.5.493 2.248 2.248 0 00-.822 2.082q0 1.875.67 2.254a15.3 15.3 0 004.424.586q4.438.244 5.741 1.263t1.3 4.235q0 3.962-1.528 5.116t-6.739 1.158q-4.689 0-6.221-1.135t-1.537-4.6l-.016-.727h3.667l.016.423c0 1.389.242 2.235.727 2.546s1.811.466 3.977.466a6.11 6.11 0 003.23-.54q.7-.538.7-2.487a2.548 2.548 0 00-.534-1.914 4.076 4.076 0 00-2.291-.577l-2.079-.13q-4.717-.277-6.026-1.31t-1.31-4.439q0-3.478 1.578-4.636t6.31-1.156q4.477 0 6.04 1.063t1.556 4.147z"/></g><path data-name="Path 1358" d="M179.453 24.616v16.49h-3.768v-16.49h-5.736v-3.369h15.44v3.374z"/><g data-name="Group 667"><path data-name="Path 1359" d="M195.855 24.298q-3.8 0-4.439.975t-.641 6.753q0 4.28.748 5.152c.5.583 1.971.875 4.418.875q3.506 0 4.208-.984t.695-5.96q0-4.992-.661-5.9c-.44-.608-1.885-.909-4.328-.909m.288-3.232q5.418 0 6.973 1.8t1.558 8.039q0 6.829-1.566 8.6t-7.573 1.775q-5.416 0-7-1.753t-1.587-7.721q0-7.1 1.556-8.923t7.639-1.818"/><path data-name="Path 1360" d="M211.555 31.239h5.416a3.5 3.5 0 002.567-.692 4.282 4.282 0 00.635-2.773 4.549 4.549 0 00-.545-2.741 3.275 3.275 0 00-2.4-.619h-5.676zm-3.769 9.868V21.241h9.8q3.651 0 5.033 1.267t1.384 4.583a8.466 8.466 0 01-.692 4.12 4.081 4.081 0 01-2.829 1.527v.133q3.3.2 3.3 3.857v4.38h-3.769v-3.624q0-3.069-3.027-3.072h-5.431v6.7z"/><path data-name="Path 1361" d="M98.359 65.14h5.37q2.706 0 3.5-1.243t.792-5.5q0-4.4-.713-5.589t-3.347-1.194h-5.6zm-3.769 3.172V48.447h9.766q4.162 0 5.83 1.819t1.665 6.376q0 7.434-1.34 9.553t-6.039 2.118z"/></g><path data-name="Path 1362" d="M118.544 51.619v5.128h9.317v2.78h-9.317v5.62h9.912v3.169h-13.682V48.447h13.6v3.173z"/><g data-name="Group 668"><path data-name="Path 1363" d="M146.575 54.239h-3.681a5.049 5.049 0 01-.026-.408c-.086-1.116-.336-1.815-.744-2.1a5.956 5.956 0 00-2.881-.43 7.937 7.937 0 00-3.5.494 2.248 2.248 0 00-.822 2.082q0 1.877.669 2.254a15.235 15.235 0 004.425.584q4.439.248 5.741 1.266t1.3 4.234q0 3.961-1.529 5.118t-6.738 1.156q-4.683 0-6.222-1.135t-1.537-4.6l-.014-.728h3.668l.014.423c0 1.388.245 2.235.729 2.548s1.807.464 3.971.464a6.121 6.121 0 003.233-.539q.7-.539.7-2.487a2.561 2.561 0 00-.529-1.914 4.1 4.1 0 00-2.294-.577l-2.081-.13q-4.716-.277-6.025-1.311t-1.308-4.44q0-3.478 1.579-4.634t6.309-1.158q4.484 0 6.04 1.063t1.558 4.147z"/></g><path data-name="Rectangle 517" d="M150.272 48.446h3.77v19.87h-3.77z"/><g data-name="Group 669"><path data-name="Path 1364" d="M165.978 57.746h8.744l.058 3.945q0 4.308-1.622 5.551t-7.24 1.245q-5.152 0-6.827-1.66t-1.672-6.768q0-6.519.667-8.236A4.792 4.792 0 01160.604 49a15.9 15.9 0 015.735-.728q5.3 0 6.843 1.127t1.54 5h-3.813q-.1-1.95-.854-2.421a8.883 8.883 0 00-3.76-.474q-3.274 0-4.155.816t-.883 3.829l-.012 1.991.03 2.548q0 2.955.871 3.762c.582.538 1.934.809 4.046.809q3.086 0 3.924-.685t.837-3.23l.014-.816h-4.989z"/><path data-name="Path 1365" d="M196.435 48.447v19.866h-6.388l-5.675-10.9c-.283-.542-.724-1.5-1.327-2.852l-.64-1.426-.623-1.427h-.149l.059 1.31.043 1.295.03 2.607v11.395h-3.771V48.447h6.385l5.168 10.071q.685 1.339 1.586 3.246l.756 1.616.76 1.63h.131l-.047-1.282-.039-1.281-.026-2.561V48.447z"/><path data-name="Path 1366" d="M34.257 68.669v-33.07a10.953 10.953 0 00-4.858-8.736l-19.8-12.3a6.949 6.949 0 00-3.648-1.1c-3.41 0-5.955 2.773-5.955 6.451v54.071l8.886 5.534v-54.56l15.733 9.666a1.2 1.2 0 01.594.966v28.143l-9.088-5.758v10.656l8.5 5.383a6.957 6.957 0 003.65 1.1c3.409 0 5.982-2.772 5.982-6.451"/><path data-name="Path 1367" d="M77.233 0l-8.948 5.532v46.781a1.864 1.864 0 01-.8 1.385l-15.442 9.543v-28.2a1.069 1.069 0 01.549-1.136l8.4-5.478V17.716l-13.075 8.307a11.647 11.647 0 00-4.976 8.978v33.6c0 3.671 2.562 6.44 5.958 6.44a7.115 7.115 0 003.689-1.266l19.736-12.437a11.135 11.135 0 004.911-8.739z" fill="#e1332b"/></g></g></svg>