<svg xmlns="http://www.w3.org/2000/svg" width="14.5" height="14.5" viewBox="0 0 14.5 14.5"><g data-name="Group 623"><path data-name="Path 1302" d="M13.915 13.12L9.994 9.2a5.353 5.353 0 10-.8.8l3.921 3.921a.281.281 0 00.4 0l.4-.4a.281.281 0 000-.401zm-8.072-3.059a4.218 4.218 0 114.218-4.218 4.222 4.222 0 01-4.218 4.218z"/><path data-name="Path 1302 - Outline" d="M13.318 14.247a.528.528 0 01-.376-.156l-3.764-3.764a5.6 5.6 0 111.149-1.149l3.765 3.765a.532.532 0 010 .751l-.4.4a.528.528 0 01-.374.153zm-4.1-4.589l4.08 4.08a.031.031 0 00.044 0l.4-.4a.031.031 0 000-.044l-4.08-4.08.138-.173a5.1 5.1 0 10-.758.758zm-3.374.653a4.468 4.468 0 114.467-4.468 4.473 4.473 0 01-4.468 4.468zm0-8.436a3.968 3.968 0 103.967 3.968 3.972 3.972 0 00-3.968-3.968z"/><path data-name="Path 1302 - Outline" d="M13.318 14.247a.528.528 0 01-.376-.156l-3.764-3.764a5.6 5.6 0 111.149-1.149l3.765 3.765a.532.532 0 010 .751l-.4.4a.528.528 0 01-.374.153zm-4.1-4.589l4.08 4.08a.031.031 0 00.044 0l.4-.4a.031.031 0 000-.044l-4.08-4.08.138-.173a5.1 5.1 0 10-.758.758zm-3.374.653a4.468 4.468 0 114.467-4.468 4.473 4.473 0 01-4.468 4.468zm0-8.436a3.968 3.968 0 103.967 3.968 3.972 3.972 0 00-3.968-3.968z"/><path data-name="Path 1302 - Outline - Outline" d="M13.318 14.5a.776.776 0 01-.552-.229l-3.615-3.618a5.853 5.853 0 111.5-1.5l3.615 3.615a.782.782 0 010 1.1l-.4.4a.776.776 0 01-.548.232zM9.234 9.322l4.085 4.085.088-.088-4.085-4.085.283-.35a4.853 4.853 0 10-.721.721zM5.843.5a5.349 5.349 0 015.343 5.343 5.343 5.343 0 00-10.686 0A5.349 5.349 0 015.843.5zm0 10.061a4.718 4.718 0 114.718-4.718 4.723 4.723 0 01-4.718 4.718zm0-8.436a3.718 3.718 0 103.718 3.718 3.722 3.722 0 00-3.718-3.718zm0-.5a4.223 4.223 0 014.218 4.218 4.218 4.218 0 00-8.436 0 4.223 4.223 0 014.218-4.218z"/></g></svg>