<svg xmlns="http://www.w3.org/2000/svg" width="27" height="27" viewBox="0 0 27 27"><g data-name="Group 14" transform="translate(-1424 -69)"><circle data-name="Ellipse 10" cx="13.5" cy="13.5" r="13.5" transform="translate(1424 69)" fill="#e1332b"/><g data-name="Group 1"><path data-name="Path 497" d="M1445.342 76h-14.767a1.577 1.577 0 00-1.575 1.575v9.448a1.577 1.577 0 001.575 1.577h14.767a1.577 1.577 0 001.575-1.575v-9.45a1.577 1.577 0 00-1.575-1.575zm-.242 1.05l-6.735 6.757a.613.613 0 01-.814 0l-6.734-6.757zm-15.05 9.78v-9.062l4.516 4.532zm.767.718l4.491-4.506 1.5 1.506a1.661 1.661 0 002.3 0l1.5-1.506 4.492 4.506zm15.051-.718l-4.517-4.53 4.517-4.531z" fill="#fff"/></g></g></svg>