<svg xmlns="http://www.w3.org/2000/svg" width="27" height="27" viewBox="0 0 27 27"><g data-name="Group 14" transform="translate(-1424 -69)"><circle data-name="Ellipse 10" cx="13.5" cy="13.5" r="13.5" transform="translate(1424 69)" fill="#e1332b"/><g data-name="Group 3"><g data-name="Group 2"><path data-name="Path 498" d="M1438 75a6.006 6.006 0 00-6 6c0 4.159 5.416 9.623 5.646 9.854a.5.5 0 00.708 0c.23-.231 5.646-5.695 5.646-9.854a6.006 6.006 0 00-6-6zm0 14.777c-1.194-1.277-5-5.6-5-8.777a5 5 0 0110 0c0 3.174-3.806 7.5-5 8.777z" fill="#fff"/></g></g><g data-name="Group 5"><g data-name="Group 4"><path data-name="Path 499" d="M1438 78a3 3 0 103 3 3 3 0 00-3-3zm0 5a2 2 0 112-2 2 2 0 01-2 2z" fill="#fff"/></g></g></g></svg>