<svg data-name="Group 874" xmlns="http://www.w3.org/2000/svg" width="155.38" height="36.71" viewBox="0 0 155.38 36.71"><path data-name="Path 1527" d="M11.833 16.535a7.172 7.172 0 016.753-7.171V5.587H0v5.916h.442a1.7 1.7 0 011.674 1.444L5.5 36.436h13.146V23.707a7.171 7.171 0 01-6.813-7.172z" fill="#0061ac"/><path data-name="Path 1528" d="M19.435 9.365a7.173 7.173 0 015.391 2.952h10.449l2.328-6.765H19.435zm6.765 7.171a7.17 7.17 0 01-.849 3.383h7.279l2.39-6.765h-9.561a7.163 7.163 0 01.741 3.382zm-6.765 7.172v3.813h7.566a4.232 4.232 0 003.992-2.845l1.351-3.908h-7.518a7.17 7.17 0 01-5.391 2.94z" fill="#e30520"/><path data-name="Path 1529" d="M24.502 13.407l-5.486-3.17-5.498 3.17v6.335l5.5 3.179 5.5-3.179z" fill="#e30520"/><path data-name="Path 1530" d="M155.385 31.512a5.735 5.735 0 00-1.721-3.239 1.089 1.089 0 00-1.2-.227c-2.916 2.163-4.781 3.586-3.992 1.076l2.833-8.08c.06-.167.084-.263 0-.371a5.678 5.678 0 00-5.438-1.1c-.275.1-.275.1-.371.359-1.458 3.586-2.1 6.275-3.586 8.08-2.916 3.98-5.092 2.892-4.363.347 1.482-7.984 5.379-11.343 11.952-9.144 0 0 .12.06.466-.251a5.737 5.737 0 001.47-4.709.453.453 0 00-.359-.371c-8.713-3.3-17.08 1.757-18.933 11.952-1.1 1.088-6.191 5.068-5.462 2.522l4.04-10.877c1.064-3.155-1.948-7.339-10.757.239a.3.3 0 01-.49-.323l1-2.761v-.166c.215-.586-.143-.789-.143-.789-1.506-.825-5.355-1.279-6.478.586l-3.938 10.339v.084a8.843 8.843 0 01-3.263-.371 5.482 5.482 0 000-3.06c-.359-.729-2.175-2.39-5.45-.227-1.088.717-3.717 4.159-1.912 6.335.215 1.064-3.024 4.434-3.586 2.211s1.434-9.944 6.2-10.757a4.783 4.783 0 014.47 1.446c.359.371.574.562.717.371a10.823 10.823 0 002.2-4.709c0-.1-.131-.227-.359-.371-8.582-7.052-17.439 1.04-18.921 10.47-3.586 2.534-8.008 4.7-9.466 4.685-1.817.359 2.211-9.789 5.486-11.235-.371 2.175 2.881 2.558 5.175.12a7.172 7.172 0 001.745-4.781c-.1-1.793-2.39-1.853-3.944-1.112a17.211 17.211 0 00-4.422 3.263l1.112-2.57a.525.525 0 00-.227-.478 6.06 6.06 0 00-5.881-.418.991.991 0 00-.382.454.559.559 0 00-.06.12l-4.016 11.2c-2.558 1.8-9.108 5.414-11.642 5.4-1.458 0-1.088-1.446-.717-2.175 5.08 0 11.63-4.315 11.654-10.124s-5.426-6.55-9.8-4.387c-5.821 2.881-8.749 12.311-8.367 16.3.693 11.618 12.694 4.4 17.427 1.877.335 7.984 10.889 3.669 16.351 0 1.757 5.689 6.108 4.96 9.383 3.155a17.54 17.54 0 005.152-5.282 12.262 12.262 0 003.586 0l-1.873 5.168a.786.786 0 000 .729c.717 1.088 4.351.741 6.167 0a.693.693 0 00.251-.131.555.555 0 00.12-.227c1.458-5.4 4.028-9.084 9.765-13.745a.307.307 0 01.263 0l.215.2a.4.4 0 010 .12l-3.661 10.137c-1.088 2.546.359 4.673 3.263 4.327s6.538-2.474 9.1-4.279c1.2 6.825 9.323 4.064 11.618 1.853 2.271 4.889 8.032 1.506 11.952-2.092a1.975 1.975 0 00.048-.586zm-86.79-12.454c.729 1.088-1.458 3.586-4.363 3.98 1.507-3.263 3.646-4.709 4.363-3.98z" fill="#0061ac"/><path data-name="Path 1531" d="M59.189 16.919c0-.143 0-.263-.12-.287-.6-.131-4.984 0-4.984 0l3.287-9.789a71.413 71.413 0 019.072-.371c2.546 0 5.45-2.9 6.179-5.438 0-.2 0-.275-.371-.371-5.832-1.613-25.423 0-28.685 1.829a.782.782 0 00-.371.359 8.1 8.1 0 000 5.809c0 .072.12 0 .371 0 2.175-.359 4.351-.729 6.9-1.088l-3.263 9.8a14.873 14.873 0 00-3.586.729c-.179.072-.239.131-.359.359a9.156 9.156 0 00-.371 5.45c.084.335.155.5.394.43a9.942 9.942 0 011.793-.43l-1.819 4.725a3.24 3.24 0 01-2.9 1.8c-.108 0-.143 0-.371.371a6.989 6.989 0 00-.143 5.438c.155.347.2.359.359.371 4.363.359 7.422-1.458 8.869-5.092l2.9-8.367c2.546-.371 3.263-.371 4.363-1.088a13.79 13.79 0 002.856-5.149z" fill="#0061ac"/></svg>