<svg xmlns="http://www.w3.org/2000/svg" width="27" height="27" viewBox="0 0 27 27"><g data-name="Group 14" transform="translate(-1424 -69)"><circle data-name="Ellipse 10" cx="13.5" cy="13.5" r="13.5" transform="translate(1424 69)" fill="#e1332b"/><g fill="#fff"><path data-name="Path 1510" d="M1443.009 89.875h-9.95a.619.619 0 010-1.238h9.95a.966.966 0 001.038-.862v-7.172a.966.966 0 00-1.043-.861.619.619 0 110-1.238 2.2 2.2 0 012.281 2.1v7.171a2.2 2.2 0 01-2.276 2.1z"/><path data-name="Path 1511" d="M1435.28 79.742h-2.221a.619.619 0 010-1.238h2.221a.619.619 0 010 1.238z"/><path data-name="Path 1512" d="M1431.602 90.496h-1.316a2.079 2.079 0 01-2.075-2.074v-9.077a2.079 2.079 0 012.075-2.074h1.316a2.079 2.079 0 012.075 2.074v9.077a2.079 2.079 0 01-2.075 2.074zm-1.316-11.987a.838.838 0 00-.837.837v9.076a.838.838 0 00.837.837h1.316a.838.838 0 00.837-.837v-9.077a.838.838 0 00-.837-.837z"/><path data-name="Path 1513" d="M1442.274 82.059h-6.817a.619.619 0 01-.619-.619v-6.317a.619.619 0 01.619-.619h6.817a.619.619 0 01.619.619v6.317a.619.619 0 01-.619.619zm-6.2-1.238h5.58v-5.082h-5.58z"/><path data-name="Path 1514" d="M1436.313 84.806a.619.619 0 10-.595-.619.619.619 0 00.595.619z"/><path data-name="Path 1515" d="M1438.866 84.806a.619.619 0 10-.595-.619.619.619 0 00.595.619z"/><path data-name="Path 1516" d="M1441.418 84.806a.619.619 0 10-.595-.619.619.619 0 00.595.619z"/><path data-name="Path 1517" d="M1436.313 86.88a.619.619 0 10-.595-.619.619.619 0 00.595.619z"/><path data-name="Path 1518" d="M1438.866 86.88a.619.619 0 10-.595-.619.619.619 0 00.595.619z"/><path data-name="Path 1519" d="M1441.418 86.88a.619.619 0 10-.595-.619.619.619 0 00.595.619z"/></g></g></svg>