<svg xmlns="http://www.w3.org/2000/svg" width="17.23" height="17.23" viewBox="0 0 17.23 17.23"><path d="M12.4 17.23A12.4 12.4 0 010 4.83 4.827 4.827 0 014.83 0a.5.5 0 01.47.317l2.162 5.407a.5.5 0 01-.281.656L4.8 7.331a5.45 5.45 0 005.1 5.094l.95-2.376a.5.5 0 01.656-.281l5.407 2.163a.5.5 0 01.317.469 4.827 4.827 0 01-4.83 4.83zM4.494 1.024A3.819 3.819 0 001.01 4.83 11.39 11.39 0 0012.4 16.22a3.819 3.819 0 003.806-3.485L11.6 10.893l-.894 2.235a.5.5 0 01-.469.317 6.459 6.459 0 01-6.452-6.452.505.505 0 01.315-.469l2.237-.894z" fill="#fff"/></svg>