<svg xmlns="http://www.w3.org/2000/svg" width="27" height="27" viewBox="0 0 27 27"><g data-name="Group 663" transform="translate(-1424 -69)"><circle data-name="Ellipse 10" cx="13.5" cy="13.5" r="13.5" transform="translate(1424 69)" fill="#e1332b"/><path d="M1441.4 91.23a12.4 12.4 0 01-12.4-12.4 4.827 4.827 0 014.83-4.83.5.5 0 01.47.317l2.162 5.407a.5.5 0 01-.281.656l-2.381.951a5.45 5.45 0 005.1 5.094l.95-2.376a.5.5 0 01.656-.281l5.407 2.163a.5.5 0 01.317.469 4.827 4.827 0 01-4.83 4.83zm-7.906-16.206a3.819 3.819 0 00-3.484 3.806 11.39 11.39 0 0011.39 11.39 3.819 3.819 0 003.806-3.485l-4.606-1.842-.894 2.235a.5.5 0 01-.469.317 6.459 6.459 0 01-6.452-6.452.505.505 0 01.315-.469l2.237-.894z" fill="#fff"/></g></svg>