<svg xmlns="http://www.w3.org/2000/svg" width="17.66" height="15.75" viewBox="0 0 17.66 15.75"><path d="M5.1 12.129a.581.581 0 010-1.162c2.144.007 7.8 0 10.011 0a1.286 1.286 0 001.259-1l1.256-5.44a1.045 1.045 0 00-1.014-1.281c-.89 0-8.444-.034-12.313-.05L3.686.92a1.253 1.253 0 00-1.207-.924H.518a.518.518 0 100 1.035h1.964a.216.216 0 01.208.158l2.356 8.739a1.616 1.616 0 00-1.557 1.643A1.624 1.624 0 005.1 13.164h.755a1.812 1.812 0 103.273 0H12.4a1.812 1.812 0 103.26-.027.517.517 0 00-.165-1.008zm3.172 1.812a.776.776 0 11-.777-.776.777.777 0 01.777.776zm5.765.776a.777.777 0 01-.013-1.553h.025a.777.777 0 01-.013 1.553zM16.62 4.291a.008.008 0 010 .009l-.528 2.291H14.3l.305-2.313 2.006.008a.008.008 0 01.009.005zm-5.336 5.647V7.624h1.836l-.305 2.311zm-2.567 0l-.308-2.311h1.839v2.311zm-2.383 0a.28.28 0 01-.27-.206l-.567-2.1h1.87l.308 2.311zm1.938-3.347L7.96 4.249l2.288.009v2.333zm3.012 0V4.263l2.278.009-.306 2.319zM6.916 4.245l.311 2.346H5.216l-.634-2.353zm8.2 5.69h-1.258l.305-2.311h1.69l-.488 2.112a.256.256 0 01-.25.199z" fill="#fff"/></svg>