<svg xmlns="http://www.w3.org/2000/svg" width="29.01" height="25.88" viewBox="0 0 29.01 25.88"><path d="M8.385 19.926a.955.955 0 010-1.909c3.522.012 12.812 0 16.446.006a2.113 2.113 0 002.069-1.646l2.064-8.936a1.717 1.717 0 00-1.666-2.1c-1.462 0-13.872-.056-20.228-.082L6.061 1.517A2.058 2.058 0 004.078 0H.85a.85.85 0 100 1.7h3.228a.354.354 0 01.341.26l3.87 14.357a2.654 2.654 0 00-2.558 2.7 2.668 2.668 0 002.655 2.609h1.24a2.976 2.976 0 105.377 0h5.369a2.976 2.976 0 105.355-.045.85.85 0 00-.271-1.656zm5.2 2.976a1.276 1.276 0 11-1.277-1.275 1.277 1.277 0 011.281 1.275zm9.471 1.275a1.276 1.276 0 01-.021-2.551h.041a1.276 1.276 0 01-.021 2.551zM27.3 7.044a.013.013 0 010 .014l-.87 3.765h-2.938l.5-3.8 3.3.013a.013.013 0 01.008.008zm-8.766 9.277v-3.8h3.016l-.5 3.8zm-4.216 0l-.505-3.8h3.021v3.8zm-3.914 0a.461.461 0 01-.444-.339l-.932-3.458H12.1l.505 3.8zm3.183-5.5l-.511-3.843 3.759.015v3.828zm4.948 0V7.003l3.743.015-.5 3.806zm-7.176-3.85l.512 3.85h-3.3L7.527 6.958zm13.471 9.348h-2.063l.5-3.8h2.776l-.8 3.47a.42.42 0 01-.411.333z"/></svg>