<svg data-name="cpu (1)" xmlns="http://www.w3.org/2000/svg" width="20" height="20" viewBox="0 0 20 20"><g data-name="Group 727"><g data-name="Group 726"><path data-name="Rectangle 577" fill="#e1332b" d="M6 6h8v8H6z"/></g></g><g data-name="Group 729"><g data-name="Group 728"><path data-name="Path 1430" d="M19 11a.945.945 0 001-1 1 1 0 00-1-1h-1V7h1a.945.945 0 001-1 1 1 0 00-1-1h-1V4a2.006 2.006 0 00-2-2h-1V1a1 1 0 10-2 0v1h-2V1a1 1 0 00-1-1 .945.945 0 00-1 1v1H7V1a1 1 0 00-1-1 .945.945 0 00-1 1v1H4a2.006 2.006 0 00-2 2v1H1a.945.945 0 00-1 1 1 1 0 001 1h1v2H1a.945.945 0 00-1 1 1 1 0 001 1h1v2H1a.945.945 0 00-1 1 1 1 0 001 1h1v1a2.006 2.006 0 002 2h1v1a1 1 0 001 1 .945.945 0 001-1v-1h2v1a1 1 0 001 1 .945.945 0 001-1v-1h2v1a1 1 0 002 0v-1h1a2.006 2.006 0 002-2v-1h1a.945.945 0 001-1 1 1 0 00-1-1h-1v-2h1zm-3 5H4V4h12z" fill="#e1332b"/></g></g></svg>