<svg id="ed2f8abc-2cfd-43db-bb90-0862bed3af06" data-name="Vrstva 1" xmlns="http://www.w3.org/2000/svg" viewBox="0 0 907.23 418.16"><defs><style>.b749764b-d20f-424a-af70-ea5279af83ae{fill:#a1a1a1}</style></defs><g id="bd56991d-e89e-449d-8197-188232157521" data-name="Group 877"><g id="a214bea6-eedc-4957-b5c9-dd5e844f0496" data-name="Group 787" opacity=".5"><g id="b4cfc9c4-e084-4e7b-8a1f-e99c2c80fad0" data-name="Group 786"><path id="f30e479f-fc5e-4c0e-950a-fd36fdd46161" data-name="Path 1471" class="b749764b-d20f-424a-af70-ea5279af83ae" d="M903.905 362.323c1.043-.083 2.445-1.015 3.322-.173a6.94 6.94 0 01-3.322 3.671c-.727.323-1.682.2-2.444.524-1.45.6-2.219 2.11-3.488 3.146-1.2.974-2.789 1.81-4.025 2.622-1.186.772-2.91 2.354-4.368 1.217.115-2.044 2.29-2.02 2.8-3.67-.009-1.223-1.09-1.36-1.05-2.62 2.42-2.122 6.23-3.648 6.805-8.034.266-1.94-1.314-6.11 1.051-6.29 2.783-.212 1.213 2.8 1.4 4.366.071.636.724 1.068 1.04 1.924.585 1.53.537 2.923 2.28 3.317z" transform="translate(0 .08)"/><path id="aac47c94-7e51-4d8a-8ef3-8bc9a22cdbb9" data-name="Path 1472" class="b749764b-d20f-424a-af70-ea5279af83ae" d="M886.96 372.804c-.97 2.916-5.22 4.443-8.037 6.291-.86.57-1.567 1.862-2.622 2.267-1.362.544-2.91.366-4.362 1.05-2.308 1.084-4.04 3.207-6.115 4.543-2.03 1.306-5 3.143-7.34 3.318-2.586.2-7.36-1.466-4.192-3.842a45.765 45.765 0 015.766-2.965c4.968-2.5 11.956-4.173 16.07-7.168 2.327-1.69 4.431-3.487 6.642-4.889 1.102-.705 2.963 1.188 4.19 1.395z" transform="translate(0 .08)"/><path id="e92b7d7e-a427-4c9a-a0dd-36aef041ab07" data-name="Path 1473" class="b749764b-d20f-424a-af70-ea5279af83ae" d="M856.736 255.932c.56-.15.544.273.877.348-.21 2.5-1.707 4.13-4.9 3.847-1.425-.133-3.913-1.2-4.015-1.92-.355-2.51 6.445-.965 8.038-2.275z" transform="translate(0 .08)"/><path id="bf2f0390-49d7-41e7-a54c-c584f0386ff7" data-name="Path 1474" class="b749764b-d20f-424a-af70-ea5279af83ae" d="M848.177 267.812c1.261.357 6.873 4.328 5.064 6.111-.978.982-2.24-.52-3.837-.87-2.14-.467-3.78.1-5.242-1.049-1.663-1.3-2.063-4.137-3.847-5.765a7.837 7.837 0 00-4.886-1.749c-2.776.3-2.749 3.481-5.242 4.893-2.386-.257-3.8.436-5.594-.178-1.888-.643-2.836-3.09-4.545-3.313-1.772-.24-5.977 2.86-6.635.172-.532-2.175 2.931-2.89 3.142-4.366.225-1.518-1.359-3.878-2.1-4.545s-1.759-.715-2.62-1.22c-.89-.536-1.583-1.559-2.62-2.1-3.658-1.912-9.247-1.135-10.655-4.2-.249-.545.138-1.14-.175-1.92-.379-.958-1.787-1.268-2.273-2.1-1.24-2.13-.37-5.277 1.747-5.595 1.911-.282 5.678 2.074 6.115 3.5.234.745-.159 1.583 0 2.444.2 1.034 1.742 3.555 3.146 3.667 1.81.15 2.876-2.643 4.54-3.667a8.607 8.607 0 014.547-1.4c1.483.115 2.481 1.284 4.187 1.92 1.222.458 2.744.64 4.2 1.05 1.265.356 2.365 1.1 3.666 1.57 4.16 1.51 9.11 2.391 11.355 5.068.614.733.6 1.814 1.4 2.622.737.745 4.778 1.473 4.89 3.146.087 1.271-1.665 1.344-1.744 2.62-.162 2.558 3.408 2.408 4.016 5.254z" transform="translate(0 .08)"/><path id="af73061d-735e-453d-98f5-ddc7a7c1be59" data-name="Path 1475" class="b749764b-d20f-424a-af70-ea5279af83ae" d="M811.315 372.455a11.13 11.13 0 01-4.368 6.116c-1.575 1.1-6.587 3.313-7.16.177-.159-.874.976-4.929 1.393-5.767 1.236-2.448 2.554-.847 4.545-.525 2.041.33 3.961-1.233 5.59 0z" transform="translate(0 .08)"/><path id="bb485d40-30f3-4449-97a7-007e792afa23" data-name="Path 1476" class="b749764b-d20f-424a-af70-ea5279af83ae" d="M797.687 118.443c.711 2.095 1.2 4.16 1.751 6.114-1.928 2.4-5.736 1.51-8.559 2.793-1.327.6-1.695 2.811-2.973 3.146-1.027.27-1.822-.89-2.793-.873-2.51.05-3.737 4.2-6.815 3.146-1.76 1.05.07 5.073-2.095 5.412-1.54.244-2.387-1.746-3.322-2.968-1.13-1.483-2.745-2.3-2.789-3.495-.049-1.244 2.506-3.326 3.313-4.19.993-1.064 2.942-3.045 4.191-3.323 2.33-.51 4.693.225 6.468-.52 1.53-.653 1.62-3.063 2.444-3.67.7-.518 1.5-.375 2.1-.7a6.342 6.342 0 002.444-6.988c-.583-1.95-3.816-4.086-1.743-6.468 3.093.332 7.175 3.38 7.686 6.468.2 1.2-.469 2.408-.354 3.666a16.706 16.706 0 001.046 2.45z" transform="translate(0 .08)"/><path id="a0466a40-2fd3-4d89-8129-24c34fdccfa5" data-name="Path 1477" class="b749764b-d20f-424a-af70-ea5279af83ae" d="M798.39 99.398c-.393.89-1.183.706-1.92 1.221-.715.5-1.563 2.105-2.444 2.273-1.4.265-2.98-1.376-4.374-1.045-1.635.388-.678 1.646-1.22 3.142-1.435-.305-3.788-1.9-3.845-3.495-.038-1 1.261-1.62 1.576-2.793.516-2-.826-3-1.576-4.893-.053-.282.167-.3.174-.524 1.707-.358 5.06 2.86 8.912 3.493 2.488.41 4.57.188 4.716 2.621z" transform="translate(0 .08)"/><path id="f0fb1755-0b76-41fe-802e-d7eda7441329" data-name="Path 1478" class="b749764b-d20f-424a-af70-ea5279af83ae" d="M791.93 276.724c.176 1.451-2.357 1.284-2.622.344.052-1.126 2.308-1.479 2.622-.344z" transform="translate(0 .08)"/><path id="e2eeced3-54f6-4f69-b185-9a204aab8c76" data-name="Path 1479" class="b749764b-d20f-424a-af70-ea5279af83ae" d="M779.694 84.724c1.732.913 5.921 2.986 2.97 4.893-1.787-.662-3.65-2.922-2.97-4.893z" transform="translate(0 .08)"/><path id="a721cb45-b4b4-47ca-b207-7c07395708cd" data-name="Path 1480" class="b749764b-d20f-424a-af70-ea5279af83ae" d="M771.663 269.038c2-1.09 4.182-3.48 7.684-2.277-.768 2.175-3.4 2.13-5.064 3.146-1.685 1.027-3.11 2.77-5.242 2.97a1.6 1.6 0 00-.7-.7c-.009-1.952 1.937-2.397 3.322-3.139z" transform="translate(0 .08)"/><path id="eda7f32a-8a88-4c07-ae49-6727d235b818" data-name="Path 1481" class="b749764b-d20f-424a-af70-ea5279af83ae" d="M766.946 236.19c2.05.004 3.983-.632 5.408.175-.265 4.37-7.039 1.047-11.523 1.747-.957.146-1.239.886-2.277.52a3.767 3.767 0 013.318-3.14c1.284-.132 3.198.693 5.074.697z" transform="translate(0 .08)"/><path id="b535b775-571f-4618-b080-122f928969ae" data-name="Path 1482" class="b749764b-d20f-424a-af70-ea5279af83ae" d="M768.688 241.602c.2 2.418-3.1 2.686-4.019 4.55 1.452 2.216 2.016 5.32 3.671 7.331-.07 1.333.27 3.075-.527 3.67-3.514.676-5.408-5.646-6.814-7.857-2.689.5-.234 9.1-3.839 8.035-1.768-.525.022-2.982-.353-4.889-.325-1.676-1.967-2.02-2.095-3.326-.1-1.077 1.188-2.219 1.571-3.318.556-1.584.2-4.632 2.095-4.713.935-.042 2.19 1.965 2.8 2.092 2.085.45 4.56-2.127 7.51-1.575z" transform="translate(0 .08)"/><path id="e0e56e91-5299-4756-aa49-19e2288448e3" data-name="Path 1483" class="b749764b-d20f-424a-af70-ea5279af83ae" d="M762.224 267.637c-.643 1.323-4.234.687-4.537-.527.611-1.376 4.238-.96 4.537.527z" transform="translate(0 .08)"/><path id="a24532a2-c611-4bc2-824d-df56db6d0593" data-name="Path 1484" class="b749764b-d20f-424a-af70-ea5279af83ae" d="M758.903 271.823a4.357 4.357 0 01-.69.7c-1.33-.424-2.746-.745-3.147-2.1.98-1.429 3.795-.238 3.837 1.4z" transform="translate(0 .08)"/><path id="ff774582-8aad-4146-86d3-7a92d73163d0" data-name="Path 1485" class="b749764b-d20f-424a-af70-ea5279af83ae" d="M754.188 267.46c-.886 1.258-3.96-.1-5.064 1.221-1.818-.045-3.647-.067-4.019-1.57.524-1.28 2.18-.4 3.493-.525 2.11-.19 5.03-1.673 5.59.873z" transform="translate(0 .08)"/><path id="ef4cf8f2-6dcd-4e4f-9017-f92671940936" data-name="Path 1486" class="b749764b-d20f-424a-af70-ea5279af83ae" d="M729.558 334.37c-.013-1.542-.98-2.9-1.227-4.537-.088-.59.088-1.355 0-2.1-.115-1.08-.649-1.98-.524-2.62.242-1.156 1.592-1.28 1.926-2.27.548-1.63-.67-1.89-.7-3.843-.022-1.38 1.047-2.053 1.75-3.844.324-.83.337-2.378.694-2.969.454-.744 2.387-1.376 3.146-1.742 2.678-1.315 4.826-3.758 7.517-4.2.68-.109 1.605.086 2.095 0 1.585-.276 3.574-1.605 5.766-2.095 2.12-.48 3.994-.3 5.59-1.227a14.559 14.559 0 004.89-5.239c.8-1.92.563-3.538 2.1-4.193.752-.316 1.49.028 2.27-.172a10.779 10.779 0 003.146-1.574c1.218-1.09 1.417-2.877 2.794-4.019a24.414 24.414 0 014.021-2.616 6.927 6.927 0 012.79-.7c2.465.212 3.611 3.65 6.29 2.97.957-.242 1.933-2.276 2.8-3.494 1.26-1.78 2.175-4.182 4.364-4.715 1.768-.433 3.745.68 4.717-.874.22-1.1-.826-1.76 0-2.448 2.038.128 5.48 2.876 8.56 2.968 1.658.053 4.737-1.808 5.067.7.146 1.111-1.243 2.008-1.57 3.146-.234.8.343 1.235-.176 2.1-1.422.56-2.926.855-2.969 2.444-.054 1.993 2.82 2.928 4.54 4.023 1.181.747 2.165 1.888 2.8 2.267.536.317 1.388.468 1.745.7 1.135.736 1.937 2.4 3.5 2.45 1.774.042 3.547-2.22 4.54-4.374 1.16-2.515 1.226-5.568 1.742-8.21.176-.882.8-1.743 1.051-2.62.674-2.388 1.588-5.616 3.666-6.464 2.086 2.21 2.8 6.507 2.452 10.14 1.394 1.058 3.85.705 4.187 3.143.12.843-.417 1.92-.348 2.79.118 1.472 1.213 2.76 1.4 4.02.35 2.327-.388 4.247.693 5.94 1.364 2.136 4.037 2.065 5.766 4.373-.03 1.433.54 2.012.873 3.135.165.535.01 1.4.178 1.754.56 1.167 2.072 1.282 2.62 2.266.27.485.194 1.4.524 2.271.478 1.284 1.63 2.241 2.445 3.495.79 1.214 2.082 2.533 2.27 3.5.35 1.74-.913 2.932-1.225 4.364-.375 1.738 0 3.98-.693 5.766-.81 2.1-2.81 4.17-4.372 6.811a23.222 23.222 0 01-4.893 6.115c-1.1.882-2.414 1.393-3.495 2.277a51.007 51.007 0 00-4.54 4.715c-1.575 1.663-3.48 2.934-4.72 4.362-1.795 2.08-2.686 5.431-5.76 5.767-1.8.2-3.415.044-5.07.7-2.586 1.027-4.3 2.92-5.584 2.97-1.35.041-2.6-1.586-3.847-1.75-1.4-.18-2.5 1.06-4.54 1.047-.835 0-1.252-.494-2.444-.874-2.5-.789-5.242-.757-5.589-3.49-.2-1.49.948-2.16.87-3.5s-1.382-1.667-1.925-2.793c.344-1.2.4-2.722-.874-3.5a3.5 3.5 0 01.7-2.443 23.471 23.471 0 00-3.5 1.4c-1.272.766-2.19 2.531-3.662 2.267-1.383-.486-.32-1.858-.525-2.969-.154-.847-2.087-4.46-2.974-5.065a24.853 24.853 0 00-5.937-2.277c-5.4-.843-8.84 2.044-13.107 2.454-1.094.1-2.286-.184-3.314 0-3.512.614-7.425 3.4-9.612 5.237-3.613.357-7.275-.74-11.008.353-3.7 1.08-5.823 4.165-11.523 3.313-1.13-.97-3.136-1.45-3.146-3.142-.013-1.333 1.971-2.192 2.62-3.144a12.32 12.32 0 001.92-4.893c.036-1.16-.782-2.549-.7-4.015.062-1.143.707-2.365.698-3.499z" transform="translate(0 .08)"/><path id="fdc9363f-481a-4ab7-8d51-60114835834c" data-name="Path 1487" class="b749764b-d20f-424a-af70-ea5279af83ae" d="M726.59 261.52c.952-.133 1.662-.836 2.62-.868 2.033-.08 4.05 1.5 6.458 1.217.525.565.167 1.032.182 1.928 2.042 1.09 5.395.89 6.457 2.965-1.53 1.622-3.8.458-5.766.172-1.772-.252-3.66-.129-5.589-.349-2.443-.283-4.655-1.633-6.982-1.92-1.417-.176-2.864.2-4.2 0-1.57-.242-7.429-2.453-7.512-4.013-.086-1.612 2.637-2.066 5.064-1.752 3.143.41 5.24 3.181 9.267 2.62z" transform="translate(0 .08)"/><path id="a8c53be2-1c17-49bb-a05a-9923ede9da5b" data-name="Path 1488" class="b749764b-d20f-424a-af70-ea5279af83ae" d="M731.3 249.468c-1.319-.37-2.558-.169-3.137-.525-1.2-.736-1.019-2.828-1.4-4.019s-1.834-1.849-2.615-3.493c-1.139-2.383-1.629-7.716 1.394-8.21 1.217-.2 2.47.732 3.317.524 1.685-.415 1.39-2.594 2.8-3.5.78-.5 2.211-.292 3.322-.7a7.513 7.513 0 002.793-2.445c.733-.873 1.306-2.337 2.271-2.968 1.085-.716 2.092-.732 2.97-1.4 2.29-1.746 2.363-4.182 4.19-6.29 1.552-1.783 4.005 1.716 4.2 3.146.868 1.11 2.575 1.384 3.317 2.62-1.027 3.074-3.93 3.341-3.317 7.684a12.429 12.429 0 001.05 2.974c.5 1.023 1.976 2.126 1.92 2.791-.116 1.306-2.746 1.25-3.323 2.62-.53 1.271.038 1.355-.172 3.318-.736 1.425-2.708 1.768-3.322 3.5-.737 2.078.11 4.764-1.57 6.291-1.16-.062-2.432 1-3.84.868-1.53-.14-2.99-2.24-5.422-2.27-.927-.009-2.02.592-2.969.524-.753-.049-1.359-.735-2.457-1.04z" transform="translate(0 .08)"/><path id="f6f2db01-ac10-4f83-ae55-561c55a823d9" data-name="Path 1489" class="b749764b-d20f-424a-af70-ea5279af83ae" d="M719.997 245.58c4.443 0 4.443 6.9 0 6.9s-4.446-6.9 0-6.9z" transform="translate(0 .08)"/><path id="bacf2877-10ed-42b3-8d69-a4f45dac942f" data-name="Path 1490" class="b749764b-d20f-424a-af70-ea5279af83ae" d="M713.481 244.748c.547.075 2.48 2.762 2.448 3.5-.06 1.231-1.909 1.164-2.448 2.793-.82 2.511.371 5.355-1.046 6.643-.794.481-2.227.336-3.493.345a51.384 51.384 0 01-8.388-7.862 19.375 19.375 0 01-2.8-3.146c-.907-1.668-1.23-3.5-2.267-5.064-.916-1.372-2.6-2.352-3.5-3.842-.729-1.227-.8-2.838-1.568-4.02-.722-1.1-1.94-1.569-2.8-2.448-.556-.573-.874-1.468-1.393-2.095-2.2-2.63-6.42-4-6.636-7.862.9-1.023 1.818.384 3.491.7 1.084.2 2.365-.088 3.146.172 1.587.533 2.681 3.011 4.366 4.366.944.76 2.175 1.284 3.14 2.1 1.038.87 1.8 2.112 2.623 2.62 1.138.7 2.712 1.155 4.194 2.1 2.021 1.284 5.626 2.62 6.116 5.244.12.65-.305 1.751-.178 2.263.242.918 1.4 1.315 2.1 2.1.86.974 1.036 2.431 2.271 2.624 1.233.34 1.29-1.403 2.622-1.23z" transform="translate(0 .08)"/><path id="a3554110-b166-43dd-a379-b93409921afe" data-name="Path 1491" class="b749764b-d20f-424a-af70-ea5279af83ae" d="M631.023 208.06c1.5.494 6.526 6.6 5.067 9.962a3.962 3.962 0 01-3.844 1.918c-3.459-.548-2.8-8.244-1.747-11.355a.9.9 0 01.524-.525z" transform="translate(0 .08)"/><path id="a33dc21d-f71f-4ec9-8d72-d558dd5bd8d0" data-name="Path 1492" class="b749764b-d20f-424a-af70-ea5279af83ae" d="M514.847 296.466a7.927 7.927 0 012.271-4.549c1.612-1.2 3.79-1.072 5.417-1.92a13.65 13.65 0 004.192-3.144c.843-1.09.887-2.333 1.575-3.146.467-.56 1.526-.71 2.091-1.395.507-.617.4-1.764 1.227-2.444 2.426-1.038 3.122 3.406 3.5 6.458a21.338 21.338 0 01.516 2.445c-.25 1.393-1.787 1.68-2.267 2.63-.119 3.827-1.622 7.154-2.973 10.3-1.16 2.718-1.834 5.7-2.79 8.038-.35.852-1.082 1.517-1.4 2.267-1.262 2.974-1.726 7.642-4.022 8.913a18.328 18.328 0 01-4.893 1.222 4.978 4.978 0 01-4.54-3.49c-.3-.994-.005-2.03-.176-3.147-.212-1.4-1.047-2.6-.874-4.2.388-3.555 3.851-5.28 4.02-8.21.128-2.2-1.117-4.392-.874-6.628z" transform="translate(0 .08)"/><path id="af720034-1a1f-440a-ab48-5070765b5b94" data-name="Path 1493" class="b749764b-d20f-424a-af70-ea5279af83ae" d="M430.643 47.86c.2 2.93-4.477 2.563-5.068 5.068-.266 1.134.547 2.647.353 3.666-.358 1.836-2.132 1.3-4.369 2.273-1.142.494-2.249 2.311-3.493 2.444-1.15.124-1.853-.672-2.62-.52-1.147.216-.764 1.622-2.449 1.918-1.34.234-3.688-1.2-3.842.525-.1 1.107 2.11 1.707 3.495 1.57 1.1-.105 1.9-.86 2.968-.873 2.07-.018 3.416 1.535 4.717 1.575 3 .084 5.942-2.77 9.088-2.448 1.421.145 2.263 1.151 3.318 1.05 1.684-.16 3.118-2.1 4.366-2.8-.528-2.944.05-6.826 2.8-6.989 1.888-.11 4.72 3.23 5.064 0 .15-1.4-1.49-2.644-2.62-2.622-1.006.022-2.325 1.991-3.146.354.005-1.6 1.8-1.178 2.8-1.576.741-.295 1.267-1.1 2.1-1.4 4.156-1.46 9.916 1.434 11.531-2.095-3.687-3.146-9.965 1.147-14.152.873-1.785-.115-4.142-1.442-4.715-3.146-.18-.537-.03-1.26-.176-2.267-.159-1.115-.737-2.285-.7-2.973.176-3.155 8.033-3.749 8.033-7.684-1.5-1.439-5.9-1.2-7.337.348-.516.556-.49 1.68-1.222 2.8-1.567 2.387-6.627 2.67-8.21 5.59a6.257 6.257 0 00-.7 3.494c.406 1.657 4.068 2.102 4.186 3.844zm-41.579 170.857c-5.034-.737-10.182 1.293-13.628 2.791-1.99.87-4.015 2.194-5.766 2.273-1.659.08-3.29-.88-4.888-1.045a26.843 26.843 0 00-6.817.35c-2.007.356-3.82 1.79-5.589 1.917-3.388.257-6.609-3.052-8.735-4.715-1.3-1.014-2.624-1.845-3.842-2.793-1.306-1.023-3-1.642-4.019-2.622-1.377-1.33-1.377-3.647-2.1-5.417-.85-2.082-3.44-3.613-5.417-5.589-1.479-1.477-4.87-3.687-5.24-5.588-.187-.972.412-2.092.347-3.146-.092-1.53-1.244-2.4-1.222-3.495.036-1.535 1.843-2.723 2.271-4.02.221-.66.115-1.6.35-2.444.49-1.774 1.663-2.823 1.4-5.417-.106-1.032-.992-1.976-1.05-3.317-.036-.919.6-1.43.525-2.273-.133-1.492-2.07-1.783-2.273-3.493-.2-1.77 1.691-3.23 2.8-5.242.5-.9.773-2.28 1.222-2.969.98-1.487 2.577-2.205 3.322-3.67.548-1.08.724-2.683 1.223-3.495.644-1.042 1.922-1.6 3.144-2.969.993-1.117 1.4-2.466 2.1-2.969a17.475 17.475 0 013.144-1.222 13.781 13.781 0 007.162-6.468c-.477-2.81.241-4 1.4-5.937 1.067-1.8 1.847-3.512 3.67-4.545 2.184-1.235 4.236-1.35 5.762-3.666.762-1.16 1.911-3.163 1.924-4.368a4.852 4.852 0 00-3.318-4.2c-1.579-.25-4.005 1.2-4.893-.52-.282-.552.107-1.84 0-2.449-.2-1.143-1.18-1.95-1.22-2.793-.085-1.64 1.612-3.349 2.094-5.24.653-2.578.022-4.549-.176-7.514 2.444-3.852 7.87-1.94 13.28-1.575.81.057 1.741-.195 2.62-.172 3.207.075 5.73 1.042 6.81-1.747a18.613 18.613 0 00.525-5.94 13.536 13.536 0 00-3.67-4.89c-1.734-1.1-4.249-.623-5.242-2.62.807-3.45 4.672-.578 6.988-1.4 1.182-.42 1.05-2.466 2.1-2.8.715-.225 1.627.72 2.62.7a17.935 17.935 0 004.716-2.1c1.115-.754 1.46-2.32 2.444-2.969a13.952 13.952 0 012.273-.7 13.155 13.155 0 004.366-3.146c1.443-1.729 2.092-3.874 3.844-4.19 2.342-.429 7.64.462 8.037-2.1.375-2.44-2.148-4.359-1.222-6.989.732-2.078 2.6-1.712 5.242-2.969 1.275.9.9 3.491 1.046 5.07 1.623.012 4.927-.482 5.241-1.925.392-1.8-2.365-3.63-2.969-4.717-.653-1.177-.794-3.246-2.1-3.493-2.66-.512-5.244 3.666-8.563 3.666a5.84 5.84 0 01-5.064-3.317c-.327-.936-.03-1.818-.176-2.8-.212-1.43-1.068-2.913-.7-4.889 1.336-2.294 4.42-2.664 6.64-3.846.838-.446 1.512-1.4 2.443-1.747 1.567-.578 3.882 0 5.417-.874.972-.55.7-1.5 1.4-2.62.436-.7 1.5-1.11 2.095-1.919.411-.56.46-1.408.874-1.924 1.517-1.888 4.287-2.585 5.413-4.54.5-.865-.86-1.186-.52-2.448.563-1.218 2.743-.323 4.013-.525 1.74-.269 3.345-2.382 5.241-2.793 1.982-.428 4.1-.167 5.944-.873 1.1-.424 2.108-1.42 3.146-1.575.366-.053 1.4.2 1.918.176.666-.026 1.385-.437 2.271-.525 1.285-.128 2.877.313 4.545.35 2.761.061 5.385-.83 7.684.175 1.2.524 1.068 1.888 2.62 2.444.781.282 1.812-.11 2.97 0 1.71.163 3.5 1.346 5.765 1.575.807.08 1.641-.1 2.443 0 2.5.3 5.242 1.62 7.691 2.444 2.046.693 6.383 1.554 6.462 3.495.1 2.3-3.77 2.97-5.417 2.97-2.748 0-6.387-1.607-9.255-.7.042 3.952 4.308 6.943 8.21 6.463.342-1.858-2.207-.826-1.924-2.62 1.742-1.315 3.83.881 6.291.524.96-.259.8-1.65 1.046-2.62 2.076-1.263 4.68-3.114 7.862-1.747a1.54 1.54 0 01.7-.7c.207-1.92-2.1-2.92-.874-4.72.61-1.24 3.866-.81 4.368.176.252 1.182-.807 1.055-.7 2.095a2.815 2.815 0 002.8 1.575c1.716-.092 2.055-1.627 3.671-2.448.652-.33 1.61-.366 2.444-.7.99-.392 1.826-1.186 2.62-1.4.582-.153 1.46 0 2.273-.175 1.031-.22 2.121-1.05 2.968-1.045 1.055 0 1.808 1.217 3.146 1.4.728.1 1.558-.413 2.62-.524.856-.094 1.742.1 2.445 0 1.667-.242 2.814-1.12 4.194-1.049.976.053 2.648 1.367 3.318.7 1.13-1.12-1.508-1.954-.693-2.973 2.677.2 5.525.141 8.211.525 3.991.57 7.75 2.545 11.35 2.62-.34-2.427-3.119-1.729-4.368-2.793-.379-.327-1.94-2.885-1.918-3.67a20.937 20.937 0 012.445-4.192c1.54-1.447 6.59-1.438 8.032.521.99 1.34.661 3.362 2.1 3.321 1.235-.034 1.892-3.069 3.321-3.146 1.182-.062 1.783 1.947 2.97 1.924 1.447-.03 2.453-2.726 4.368-2.8 1.032-.039 1.376.53 2.968.7 1.094-.7-.365-1.629.178-2.62 1.953-1.42 6.414-.34 8.906-1.223.7-.83-.888-1.415-.173-2.27 2.153-1.5 5.771-1.643 9.437-2.268 2.241-.384 4.354-1.94 6.11-2.1 1.836-.163 3.587 1.076 5.242 1.05a9.749 9.749 0 003.146-.7c.984-.384 1.655-1.338 2.624-1.576 1.531-.375 3.467.18 5.241 0 1.875-.19 3.531-.918 4.89-.7 1.268.2 2.29 1.556 3.494 1.746 3.68.574 7.478-.552 10.83.35.6.162 1.2.784 1.924 1.05 2.245.82 3.775.564 4.2 3.317 1.764.627 2.8 2.246 4.89 2.8 1.392.366 2.8-.176 4.367-.176a48.766 48.766 0 016.461.35c1 .153 1.828.89 2.8 1.048.706.115 1.641-.075 2.444 0 1.094.1 2.078.552 2.97.525 1.83-.058 3.22-1.69 4.714-1.924a12.3 12.3 0 012.622.35c2.943.247 6.335-.385 8.735.175a17.272 17.272 0 014.893 2.793c1.027.785 1.65 2.033 2.62 2.62.918.556 3.247 1.552 4.2 1.4 1.116-.176 1.163-1.42 2.266-1.92 3.468-.772 9.617 1.1 12.406-.176 1.08-.5.87-1.64 1.747-2.27 5.24-.256 10.464.215 15.374.348 1.726.05 3.508-.44 5.07-.172 1.728.3 2.99 2.034 4.71 2.62 1.147.388 3.168.186 4.893.525 1.16.225 2.11.922 2.968 1.045 1.867.265 3.65-.208 5.424-.349 4-.32 9.154-.533 13.1 1.051 2.1.843 2.982 2.545 5.237 2.793 3.23.357 8.228-.266 11.532 0a20.541 20.541 0 002.095.348c1.11-.079 1.783-1.019 3.147-1.045 1.73-.04 4.482 2.7 6.992 2.273 1.081-.732-.869-1.75.167-2.449.984-.816 2.331-.008 3.847 0 .826.01 1.841-.419 2.62-.348 1.92.166 3.742 1.892 6.115 2.444a21.8 21.8 0 006.817.353c1.676-.186 3.114-.75 4.715-.525a23.913 23.913 0 012.267.874c.747.188 1.475.008 2.1.171.582.16 1.16.706 1.75.874 3.247.93 7.571 1.39 11.008 2.448 2.02.621 4.086 1.875 5.765 1.918.827.028 1.562-.357 2.62-.348 5.277.036 11.486 2.232 11 7.164-6.177 1.354-11.344-4.253-17.819-2.62a2.784 2.784 0 00-2.092 2.444c.24 3.044 7.912 2.788 8.555 5.766-1.256.94-2.629.053-3.666.176a12.756 12.756 0 00-5.242 2.793c-1.18 1.107-2.219 3.944-3.493 4.2-1.562.3-3.943-1.539-6.29-1.049-.86.18-1.687 1.252-2.444 1.4-1.929.366-4.382-1.05-5.586 1.222.635 1.6.247 3.821 1.57 4.716.852.582 1.92.132 2.97.524 1.226.46 1.904 1.955 2.963 2.8.87.685 1.8.7 2.277 1.571.111 1.288-.512 1.43-.352 2.271.274 1.466 2.564 1.8 2.62 2.794.08 1.261-1.443.993-1.742 2.271-.11.812.94 1.028 1.045 2.1.07.714-.578 1.46-.522 2.271.075 1.165.993 1.941.87 2.97a2.717 2.717 0 01-1.576 1.923c-3.345-2.149-6.357-5.109-9.957-7.862-3.684-2.823-9.525-6.29-10.13-12.228-.02-.91 1.928-1.624 2.27-2.969.14-.552-.218-1.338-.173-2.1.124-2.05 1.818-4.023 1.751-5.24-.084-1.337-2.577-3.82-3.848-4.2-1.014.532-.012 1.591-.176 2.447a3.454 3.454 0 01-2.62 2.444c-3.3.287-3.675-4.257-8.91-2.968a4.415 4.415 0 00-2.792 4.892c.144.762 2.245 1.584 2.095 2.62-.146 1.006-4.76 1.3-5.767 1.223-2.819-.226-4.269-2.334-6.81-2.273-1.248.03-2.342 1.045-3.323 1.222-5.5 1.006-13.667-2.708-15.54 2.095-.27.681-.12 1.567-.354 2.273a24.485 24.485 0 01-1.4 2.448c-.213.54-.178 1.6-.525 2.445-.317.762-3.62 3.745-.7 4.544.7.186 1.023-.3 1.925-.176 1.5.2 4 2.611 5.761 2.62 1.053 0 2.515-1.186 3.318-1.222 1.62-.079 2.787.966 4.017 1.571 1.176.577 2.971 1.791 3.847 1.746 1.65-.083.861-1.226 2.445-1.746 3.022.9 4.437 4.1 7.335 6.64 1.051.917 2.6 1.707 4.02 2.968.79.706 3.22 2.6 3.322 3.495.092.834-.68 1.19-.878 1.922-.283 1.063.38 1.845-.349 2.62-2.787-1.03-3.414-3.78-5.417-6.114-.74-.869-1.488-1.9-2.616-3.146-.512-.56-2.364-2.528-3.5-2.095-2.2.834 1.2 4.164 1.75 4.892 1.158 1.54 2.7 3.613 2.8 5.241.064 1.042-.68 2.934-.7 4.716-.014 1.2.3 2.3.174 3.317a22.783 22.783 0 01-1.224 3.323c-.41 1.28-.5 2.81-.87 3.666-.678 1.575-2.964 3.427-4.548 3.495-1.45.061-2.073-1.118-3.493-1.047-2.149.1-2.546 2.083-3.84 3.666.111 1.721.65 2.312.35 3.495-.472 1.854-3.049 2.175-2.97 4.02.071 1.707 2.356 2.04 3.49 2.8a29.387 29.387 0 015.77 5.24c.97 1.243 2.373 3.567 2.271 4.887-.132 1.73-5.108 4.135-7.17 3.495-1.953-.6-1.282-2.47-1.742-4.19-.357-1.324-1.393-1.893-1.917-2.97-.28-.565-.153-1.46-.53-2.095-1.054-1.779-2.895-.808-5.07-1.925-1.423-.73-1.01-2.27-1.57-3.668-.75-1.88-3.917-2.768-6.46-2.269-1.87.362-2.452 1.933-4.2 2.27-2.564-1.519.525-5.265-2.62-5.592-2.408-.252-4.007 3.46-5.418 4.544-.953.728-2.68.878-2.79 1.92-.208 1.928 2.033 1.535 3.836 2.271 1.638.67 1.828 2.524 3.322 2.62 1.25.084 2.08-1.288 3.32-1.4a8.674 8.674 0 015.238 1.575c-.873 2.117-5.576 3.671-5.589 6.462-.008 1.62 1.876 1.9 3.322 2.97 1.218.9 2.824 3.458 4.54 5.241.741.768 1.941 1.275 2.276 1.747.807 1.156.678 2.562 1.566 3.322.151.956-.436 1.192-.348 2.095.432 1.257 2.365 1.02 2.8 2.273-.358 3.013.9 5.85-1.57 6.988-1.139 5.4-2.422 9.631-6.116 12.577-3.322 2.643-7.707 3.423-11.708 4.716-1.038.334-1.867 1.43-2.793 1.746-2.324.79-6.464.31-6.635 3.146-.1 1.4 1.774 2.242 1.92 3.667.22 2.188-1.738 4.39-3.147 4.544-1.014.11-3.2-.6-3.322-2.449-.137-2.082 2.585-2.934 2.8-4.19.371-2.225-1.92-4.39-4.54-4.192-2.308.172-7.557 4.8-7.684 7.337-.1 1.893 3.75 5.832 5.064 6.988 4.906 4.324 10.116 6.917 9.255 17.47-1.225 2.673-4.358 3.243-6.81 4.717-1.867 1.12-2.8 4.6-5.944 4.893-1.26-.433-.525-2.406-.873-3.318-.477-1.252-2.978-1.866-4.54-3.146-1.28-1.05-1.817-2.7-2.8-3.67-1.222-1.2-3.049-1.456-4.544-2.272-.94-.512-1.672-2.31-2.62-2.267-1.54.062-1.006 1.544-1.394 4.015-.388 2.431-2.162 4.3-1.575 7.164.246 1.173 1.712 2.123 2.443 3.317 1.214 1.982 1.383 4.29 2.623 5.418.82.745 2.213.908 3.144 1.571 1.853 1.323 5.113 4.191 5.767 5.766.757 1.84.025 4.005.524 5.942.582 2.236 3.508 3.838 1.751 6.115a14.157 14.157 0 01-4.548-2.273 13.963 13.963 0 01-5.066-5.24 16.094 16.094 0 01-1.4-2.096c-.608-1.567-.477-3.34-1.045-5.242a16.305 16.305 0 00-3.847-5.593c-1.226-1.156-3.4-1.83-3.493-3.493-.128-2.344.794-5.1.7-7.863-.022-.6-.428-1.2-.52-1.918-.185-1.342.132-2.982-.18-4.2a19.698 19.698 0 00-1.572-3.14 32.411 32.411 0 01-1.393-3.322c-.71-2.02-1.506-5.916-3.147-6.115-1.75-.21-3.48 3.283-5.765 3.322a3.185 3.185 0 01-2.969-2.1c-.22-1.072.55-2.153.524-3.317-.066-2.342-1.729-3.247-2.972-4.893-.5-.665-.636-1.6-1.052-2.1-.794-.948-2.31-1.477-3.317-2.443a13.825 13.825 0 01-2.448-3.146c-.675-1.368-.893-3.142-1.92-3.322-.985-.172-2.12 1.24-3.144 1.575a29.228 29.228 0 01-4.718.873c-3.506.242-6.352-.693-5.938 3.495-.546 1.88-2.53 1.9-3.846 2.793-1.672 1.138-2.89 3.418-4.715 5.241-.887.891-2.17 1.447-2.969 2.273-.668.687-.874 1.791-1.575 2.448-1.863 1.76-4.66 1.911-5.934 4.368-.074 2.9 1.372 5.1 1.045 7.857-.15 1.257-1.09 2.374-1.226 3.671-.109 1.111.458 2.307.18 3.493-.154.636-.86.97-1.4 1.747-.486.7-.68 1.623-1.04 2.1-.59.753-1.558 1.28-2.105 1.924-.886 1.051-1.073 1.8-1.92 1.922-3.828.552-4.773-6.73-6.462-9.785-.782-1.4-2.369-2.669-3.146-4.368-.9-1.958-1.169-4.416-2.449-6.639-1.085-1.9-2.585-3.8-3.317-5.767-.623-1.663-1.16-3.745-1.747-5.589a30.009 30.009 0 01-1.4-5.937c-.146-2.269.436-3.667-1.4-4.544-1.684.4-2.435 2.095-4.368 2.095-1.863 0-6.869-3.229-5.41-6.115-1.22-1.729-4.3-2.677-6.642-4.715-1.342-1.169-2.556-3.954-4.889-4.19a12.316 12.316 0 00-2.1.348c-1.479.128-4.1-.133-5.767 0a37.134 37.134 0 01-7.337.348c-1.708-.186-3.829-.516-5.589-.7-2.236-.23-5.21-.76-6.459-1.924-.777-.715-1.089-3-2.453-3.318-1.618-.375-2.51.878-4.015 1.222-3.2.733-5.875-.656-8.039-2.095-1.534-1.019-2.934-1.548-4.017-2.27-2.656-1.78-3.133-7.127-7.166-7.167-1.4-.013-3.634.865-3.842 2.448-.137 1.113 1.327 3.177 1.924 4.02 1.96 2.761 5.558 3.8 6.64 7.51.723.281 2.2-.637 2.968.174.676 1.593-.009 4.55 1.571 5.242 7.262 1.2 9.334-2.78 12.583-5.589 1.883 1.231 1.261 2.307 1.918 3.666a5.778 5.778 0 002.97 2.973c.876.336 2 .022 3.321.521.826.313 4.27 3.574 4.371 4.72.088 1.027-2.263 4.526-2.977 5.413-.693.865-1.764 1.314-2.1 2.095-.246.6-.167 1.888-.349 2.273-.323.7-1.89 1.605-2.8 2.444a35.142 35.142 0 01-2.969 2.271c-1.1.848-1.787 2.012-2.969 2.45-2.324.855-4.535.49-6.462 1.746-1.263.82-1.267 2.673-2.793 3.666-1.6 1.038-4.328 1.045-6.644 2.1-1.485.674-2.378 1.986-3.662 2.444-.525.186-1.182.026-1.75.176-1.163.3-2.234 1.121-3.322 1.394-.86.22-1.774.111-2.622.353-2.69.777-5.156 3.512-7.862 1.92-1.275-2.943-1.48-6.649-2.968-9.26-.758-1.333-2.25-1.743-2.793-3.142-.075-1.124 1.28-.816 1.394-1.747-.445-1.888-2.228-2.77-3.318-4.372-.535-.78-.78-1.893-1.4-2.793-2.083-3.03-6.19-4.606-6.989-8.386-.216-1.028.036-1.836-.17-2.622a9.966 9.966 0 00-2.1-3.666c-.669-.776-2.03-1.3-2.795-2.448-.507-.754-.618-1.817-1.049-2.62a28.983 28.983 0 00-6.988-8.386c-1.425.207-2.956.3-3.666 1.226a26.853 26.853 0 002.97 6.114c1.067 1.743 2.584 3.622 3.316 5.591.274.727.225 1.68.525 2.444 1.1 2.77 4.552 3.622 5.241 6.817.465 2.138-.1 3.621.525 5.761.6 2.055 3.634 3.27 4.893 5.241 1.023 1.61 1.032 3.887 1.746 5.418 1.045 2.241 3.97 3.212 6.115 4.716 1.924 1.354 3.3 3.441 4.888 4.892.935.848 2.22 1 2.448 1.924.3 1.182-.5 1.58-.7 2.616 1.342 1.4 2.647 3.98 4.893 4.2.923.088 2.087-.843 3.495-1.05.71-.1 1.5.111 2.095 0 .931-.168 1.742-1 2.8-1.223 1.784-.383 3.851-.229 6.111-.524 2.136-.279 3.605-2.083 5.24-1.57 1.8 1.971.508 4.21 0 6.114-.176.67-.176 1.363-.344 1.924-.944 3.11-3.414 5.413-4.548 8.21-.349.856-.288 1.907-.693 2.793-1.3 2.8-4.015 5.563-6.12 7.862a34.442 34.442 0 01-3.493 3.493c-1.252 1.031-2.785 1.593-4.2 2.62a37.835 37.835 0 00-7.684 7.69c-.764 1.05-1.128 2.258-1.924 3.146-1.138 1.271-2.9 1.9-3.842 3.146-.745.984-1.24 2.766-2.1 4.54-.96 2-2.969 3.348-2.619 6.114.13 1.06 1.08 1.717 1.4 2.8.541 1.86.126 3.427-.178 5.412.99 2.4 1.7 5.061 3.495 6.64.216 3.534-.29 6.965 0 9.957.186 1.905.927 3.31.176 5.065a16.367 16.367 0 01-4.716 5.24c-1.65 1.064-4.173 1.341-5.942 2.626-1.23.89-2.249 2.453-3.495 3.5-2.059 1.717-4.882 3.322-5.064 5.064-.105 1 .791 2.52 1.046 3.491.683 2.581 1.346 6.291.178 9.083-1.268 3.023-7.673 2.4-8.386 5.59-.217.972.427 1.747.348 2.8a23.6 23.6 0 01-1.747 5.064c-.772 1.447-2.527 2.095-3.666 3.322-1.43 1.55-2.154 3.79-3.67 5.413a52.701 52.701 0 01-7.513 6.464 21.938 21.938 0 01-10.129 3.67c-2.12.15-4.4-.5-6.639-.172-.82.115-1.712.87-2.8 1.047-.63.1-1.276-.11-1.92 0-1.1.184-2.126 1.06-3.146 1.05-2.263-.027-5.17-2.727-5.24-5.414-.027-1.038.887-2.02.872-2.975-.017-1.115-1.385-2.515-2.448-4.543-1.019-1.95-1.42-4.16-2.445-5.758-1.084-1.7-2.518-2.51-3.317-3.847-1.61-2.686-1.729-5.867-2.27-9.088-.177-1.049-.9-2.188-1.052-3.495-.19-1.605.195-3.387-.173-4.715-.282-1.023-1.415-2.063-2.1-3.32-1.23-2.266-2.1-5.226-3.142-6.986-.984-1.65-2.968-3.37-3.146-5.239a25.927 25.927 0 01.35-4.893c.19-1.227 1.1-2.2 1.4-3.49.2-.86-.04-1.848.171-2.8.89-4 5.293-5.455 4.72-10.31-.247-2.062-1.7-3.078-1.923-5.42-.1-1.095.546-2.055.525-3.145-.032-1.473-1.28-3.666-1.924-5.065-1.77-3.855-2.855-7.379-5.413-10.306-1.395-1.6-3.22-2.722-4.368-4.2a11.05 11.05 0 01-2.1-4.366c-.018-1 .768-1.62 1.05-2.622.365-1.288.393-3.728.873-5.766.22-.935 1.231-3.2 1.05-4.715-.177-1.462-2.353-4.262-4.2-4.717-2.44-.6-4.95.781-8.034.524-2.637-1.658-2.444-6.057-6.272-6.618zm96.61 62.544c.807-1.284 1.821-4.893 0-5.767h-.349c-.78 1.454-1.61 4.957.348 5.77zm-2.449-36.515c.591-1.209 1.976-2.487 1.747-4.013-.5-3.367-6.8-1.709-7.508.7-.483 1.618.286 2.9-.354 4.543.687 1.292 2.414 1.548 4.544 1.4 1.18-.525 1.033-1.517 1.571-2.629zm-10.654 18c.693-1.284-1.1-2.123-1.4-3.5-.345-1.612.391-3.5-1.05-4.369h-.52c-1.265 2.866.525 7.591 2.971 7.87zM591.715 89.264c-.656-1.319-2.544.387-1.742 1.575 1.182.078 1.606-.61 1.742-1.575zm-40.7 7.164c2.832-.548.03-5.073-2.1-4.544-2.784.697.167 4.914 2.1 4.544zm-12.929 22.534c.872-6.057-3.847-6.512-4.718-10.83.4.053.194-.5.525-.525 1.147-.552 2.881.882 3.49-.52.012-2.07-2.613-3.613-5.243-2.622-.757-.52-.858-1.7-1.045-2.8-1.98-1.177-6.88-3.754-6.814-6.115.057-1.94 2.562-3.03 5.417-2.969 1.2-.912.428-3.718-.7-4.368-4.518-.988-6.925-.32-9.786 1.747-1.37.993-2.9 1.676-3.67 2.273a4.494 4.494 0 00-1.57 2.793c.111 1.081 1.66 1.716 2.273 3.146.312.736.245 1.658.524 2.271.764 1.685 2.718 2.776 4.191 4.191 1.042 1 3.961 3.172 4.02 4.368.053 1-.9 1.218-1.219 2.271a13.083 13.083 0 00-.524 4.368c.383 1.92 2.37 1.986 4.186 2.8s3.543 2.223 5.417 2.267a7.364 7.364 0 005.245-1.746zm-41.057-12.579c4.735-.854 2.573-4.856.172-6.286-1.818-1.085-3.992-2.029-6.114-3.322-1.23-.749-5.908-2.166-5.938-3.666-.036-1.64 3.48-2.179 2.095-5.068-2.39-.582-8.078.335-7.684 2.97.225 1.52 2.03.677 2.444 2.27-1.712.608-3.795 2.206-5.59 1.924-2.14-.336-2.69-2.965-3.842-4.545-1.663.054-2.757-1.61-4.718-1.4-2.054.224-3.144 3.206-4.194 4.72-.557.794-1.443 1.2-1.749 1.92-.18.432.02 1.12-.17 1.746-.6 1.941-2.282 2.652-2.1 4.368.164 1.513 1.81 2.192 1.925 3.493-.116 1.342-2.27.644-2.1 2.273 3.127 2.581 3.3-1.218 4.893-1.747 1.28-.428 3.79.353 5.413 0 1.31-.287 2.342-1.535 3.844-2.095a10.72 10.72 0 013.322-.7c5.558-.23 9.145 3.388 13.976 3.493a37.745 37.745 0 006.114-.347zM485.846 127c.1-1.875-.714-3.288-.873-5.938-3.226-1.946-5.636 1.8-8.908 1.394-2.012-.252-3.455-2.6-5.59-2.267-1.178.176-1.76 1.7-2.974 1.92-2.5.457-3.634-2-6.286-1.046-3.74-2.85-5.413-7.492-6.29-12.754-2.038-2.674-5.148-.5-6.639 1.221-.918-.008-2.065-.507-2.267.525-.689 3.23 4.565 3.573 4.54 5.766-.018 1.425-2.053 1.293-2.969 2.27-.976 1.035-.328 1.957-1.57 2.62-3.447.414-4.59-1.47-4.546-4.54-1.487-2.26-3.366-3.9-4.715-5.767a7.1 7.1 0 01-1.4-2.8c-.124-.816.388-1.853.176-2.793-.379-1.667-3.485-2.924-5.418-3.842-2.063-.985-4.649-1.915-6.114-3.146-1.038-.874-1.526-2.39-2.445-2.969-.78-.49-1.75-.388-2.448-.873-.957-.67-.8-1.788-2.095-2.1-.658-.244-1.672.653-2.1 1.226-.852 3.812 2.25 4.073 3.666 5.762.976 1.16 1.46 2.907 2.45 3.67 1.052.816 2.486.666 3.841 1.222.936.385 1.545 1.55 2.444 2.1 1.668 1.015 4.345 1.192 4.544 3.146-1.036.706-3.388-1.028-4.19.7-.208 1.135.9 1.717.873 2.793-.045 1.721-1.955 3.605-3.67 3.322-.173-1.023.913-1.86.873-2.972-.075-2.224-4.545-5.617-6.81-6.636-1.065-.48-2.358-.507-3.324-1.049a25.036 25.036 0 01-5.765-4.716c-1.25-1.655-2.316-4.717-5.065-4.544-1.12.071-2.047 1.1-2.969 1.575a25.266 25.266 0 00-2.62 1.394 6.127 6.127 0 01-2.8 1.4c-2.194.092-4.056-1.627-5.938-1.222a4.978 4.978 0 00-1.924 1.4 23.955 23.955 0 01.176 2.793c-.569.984-2.258.922-3.493 1.575-1.809.953-3.419 2.911-4.893 4.367-.948.935-1.8 1.706-1.924 2.444-.092.578.49 1.672.353 2.45-.154.842-1.738 2.588-2.8 3.316-.618.424-1.438.482-2.1.874-1.376.815-1.993 1.88-3.144 2.095-3.053.57-8.6-.614-8.56 2.622.028 2.161 2.944 2.17 4.716 2.094 2.47-.1 4.57.527 5.938.176.944-.237 1.976-1.3 2.97-1.746.626-.282 1.274-.287 1.746-.524 1.046-.525 1.637-1.377 2.448-1.749a21.757 21.757 0 016.287-1.4c2.356-.138 4.817.242 7.861 0 1.085-.084 2.158-.782 3.322-.874 1.9-.15 4.4.751 5.938.7 1.064-.034 2.25-1.067 3.493-1.049a3.579 3.579 0 013.146 1.924c.146.512-.295 1.327-.175 2.1.2 1.271 1.292 1.795 1.226 2.62-.094 1.1-2.819 2.555-2.449 3.843.244.83 2.2 1.695 3.146 2.271a11.37 11.37 0 003.842 1.571c.988.111 1.862-.274 2.8-.17a13.654 13.654 0 014.892 1.745c1.642 1.156 1.411 3.01 3.318 3.666.811.283 2.275.124 3.317.354 2.547.55 4.435 2.66 6.291 2.444 2.926-.34 1.593-3.1 1.924-5.064.745-4.46 9.458-4.258 11.18-1.227 1.275.34 2.39.053 3.841.525.84.274 1.464 1.19 2.271 1.4.61.154 1.5-.088 2.273 0 3.348.38 6.383 2.872 9.261 2.444 1.825-.27 3.148-1.986 4.888-2.1 3.343-.207 5.483 2.49 9.088 1.222 2.652-.93 2.061-3.678 2.97-6.462.643-1.943 1.86-3.262 1.93-4.72zm188.33-59.575a6.253 6.253 0 00-1.748-5.938c-2.017.348-.56 2.444-.7 3.67-.2 1.734-2.038 2.94-1.924 4.717-.67.785-1.816 1.094-1.917 2.444 1.11.77 1.6-.6 2.443-1.4 1.34-1.25 3.381-1.992 3.844-3.492zm-45.773-60.62c-1.922 0-2.648.758-3.842 1.4-.657.348-1.995.542-1.57 1.571 1.676-.206 5.011-.959 5.412-2.97zm-73.722 21.49c4.107.956 6.035-3.68 3.317-6.292-.635-.608-2.78-.847-3.662-2.267-1.07-1.708-.922-3.988-3.5-3.495-.026.2.032.494-.176.521-.242 3.82 5.32 4.781 5.241 7.861-.038 1.616-1.746 1.787-1.22 3.671z" transform="translate(0 .08)"/><path id="a7463708-8b7c-435d-a088-2f4bbac9a379" data-name="Path 1494" class="b749764b-d20f-424a-af70-ea5279af83ae" d="M497.2 21.656c-.508-1.889 3.075-1.585 2.448.176-.563.524-2.09.48-2.448-.176z" transform="translate(0 .08)"/><path id="e8b1d933-0f88-435e-b7ed-279938ba2e34" data-name="Path 1495" class="b749764b-d20f-424a-af70-ea5279af83ae" d="M475.716 126.126c.08-1.442 3.371-1.97 4.015-.7-.216 1.407-3.338 2.373-4.015.7z" transform="translate(0 .08)"/><path id="f8510bc8-b1ea-4728-a38b-511ead521a74" data-name="Path 1496" class="b749764b-d20f-424a-af70-ea5279af83ae" d="M415.794 116.695c1.821-1.475 5.875-.477 8.386-.525-.473 1.336-.544 3.071-1.575 3.843-2.863-.517-5.532-1.223-6.81-3.318z" transform="translate(0 .08)"/><path id="b19c5a5c-009a-4fcd-9f42-1c6885aea0f4" data-name="Path 1497" class="b749764b-d20f-424a-af70-ea5279af83ae" d="M403.04 107.434c2.4-2.506 4.918-1.182 4.02 3.667-.575 1.446-3.073 3.38-4.2 1.226a18.3 18.3 0 00.18-4.893z" transform="translate(0 .08)"/><path id="be812ed4-7974-40da-9105-6295a9fe47a1" data-name="Path 1498" class="b749764b-d20f-424a-af70-ea5279af83ae" d="M406.53 101.846a2.32 2.32 0 01-1.222 2.62c-2.299-.406-.548-4.539 1.222-2.62z" transform="translate(0 .08)"/><path id="b70351a6-287e-48c4-bdb0-517706b5d004" data-name="Path 1499" class="b749764b-d20f-424a-af70-ea5279af83ae" d="M372.644 66.38a2.962 2.962 0 00-1.576-2.8c-.573-.32-1.45-.17-2.1-.524-1.7-.936-2.32-2.886-3.315-3.318.126-1.915-.527-3.3 0-4.544a10.3 10.3 0 013.842-3.317c1.526-.539 3.123-.058 4.02-1.222a1.135 1.135 0 01.872.171c-.008 1.1-.935 1.284-1.049 2.273.216 1.588 3.013.6 3.317 2.095-.265 1.633-1.734 1.954-1.746 3.146-.005 1.036 2.117 3 3.146 4.368.766 1.01 2.108 1.76 2.8 2.8.6.9.733 1.982 1.222 2.444.918.87 2.992 1.015 3.147 2.273.2 1.667-2.074 2.325-1.747 4.191-2.4 1.883-6.4.91-10.31 1.4-1.77.225-3.72 1.984-5.589.525-.433-1.173 1.552-1.332 1.747-2.444-.137-1.032-1.443-.887-1.747-1.749.507-1.359 2.091-1.635 1.924-3.67.971-1.069 2.846-.664 3.142-2.098z" transform="translate(0 .08)"/><path id="eee28d95-1f9d-4c37-a762-dad28599c7bc" data-name="Path 1500" class="b749764b-d20f-424a-af70-ea5279af83ae" d="M359.546 62.185c2.333-1.425 6.408-.334 6.635 1.4.171 1.311-1.24 1.5-1.747 2.97-.454 1.335.088 2.923-.52 3.846-.534.8-1.987.75-2.974 1.045-2.2.657-6.44 3.238-8.21.348.255-1.547 1.757-1.857 2.271-3.14.032-1.01-1.046-1.543-.873-2.62.212-1.319 1.2-.865 2.62-1.4 1.024-.392 1.465-1.637 2.798-2.449z" transform="translate(0 .08)"/><path id="fbb23bdb-bc1f-4dd8-a360-27647ae120eb" data-name="Path 1501" class="b749764b-d20f-424a-af70-ea5279af83ae" d="M240.22 24.275c.365 1.554-4.6 3.583-5.07 1.576-.376-1.606 3.802-3.613 5.07-1.576z" transform="translate(0 .08)"/><path id="ab5cbd15-f100-4eab-98a0-02355de06678" data-name="Path 1502" class="b749764b-d20f-424a-af70-ea5279af83ae" d="M234.453 418.051h-2.62a4.11 4.11 0 012.62 0z" transform="translate(0 .08)"/><path id="a142fe60-9b99-49b5-a9d7-19a012720992" data-name="Path 1503" class="b749764b-d20f-424a-af70-ea5279af83ae" d="M226.591 11.874a.85.85 0 011.051 0c-.172.411-.309.856-1.05.7z" transform="translate(0 .08)"/><path id="ab7e195e-5f29-4c6d-9904-4d4690f6195b" data-name="Path 1504" class="b749764b-d20f-424a-af70-ea5279af83ae" d="M211.044 39.65c.036.961-3.472 2.554-3.847.7a1.374 1.374 0 01.7-1.394c.933-.577 3.112-.25 3.147.694z" transform="translate(0 .08)"/><path id="fbbfe8aa-3dc1-4c20-accb-97e20acb8073" data-name="Path 1505" class="b749764b-d20f-424a-af70-ea5279af83ae" d="M138.367 201.946c-.092.26-.259.44-.348.7-1.858-.065-.18-2.439.348-.7z" transform="translate(0 .08)"/><path id="ee2f48f9-c081-4cc4-93d4-f90a375a8c7a" data-name="Path 1506" class="b749764b-d20f-424a-af70-ea5279af83ae" d="M67.436 79.831c1.227-.715 2.4 1.077 1.576 1.924-1.35.26-1.694-1.284-1.576-1.924z" transform="translate(0 .08)"/><path id="beb93b1c-bf17-42bd-9588-ea74e93f9161" data-name="Path 1507" class="b749764b-d20f-424a-af70-ea5279af83ae" d="M257.86 86.295c-.815-.2-1.926-.163-2.968-.349-.89-.159-1.95-.424-2.793-.525-2.157-.255-4.49.371-5.767-.873a56.776 56.776 0 017.515-7.862c.793-.71 2.5-1.2 2.095-2.62-1.487-1.306-3.313.08-4.717.873-1.473.83-3.229 2.025-4.893 2.273-2.889.428-6.722-.848-9.083.7-.327 1.32 2.686.81 2.267 2.8a3.48 3.48 0 01-3.142-.524c-.81-.732-.348-1.832-.873-2.273-.9-.74-4.26-.944-5.766-.7-1.836.3-3.458 1.4-3.67 2.97 2.206 1.031 5.841-1.065 6.64 1.574-1.21 2.175-4.055 3.371-3.672 6.287a3.946 3.946 0 002.45 2.8c.964.167 1.508-.79 2.443-.7.99.092.764 1.222 1.924 1.05 1.681-.72 2.611-3.08 4.54-2.97 2.311 2.806-2.087 4.174-4.54 5.065-2.8 1.014-6.432 1.552-8.564 2.448-1.115.47-5.342 4.553-5.937 1.394-.428-2.277 2.091-1.618 2.62-3.495-2.7-.524-5.223 1.165-7.684 2.1-3.513 1.33-9.463 2.171-10.31 6.115-.169.79.344 2.267-.173 2.793-.419.424-2.924.5-4.02.873-1.684.578-3.154 1.813-4.2 2.1-.785.216-1.945.154-2.444.353-1.389.54-1.9 2.418-3.495 3.666-.652.511-2.1.882-2.62 1.4-.9.9-1.023 3.155-2.62 3.493-1.014.09-1.839-.762-2.8-.175-.115 2.228.785 5.26-.173 7.513a47.788 47.788 0 01-6.988 4.366c-1.464.826-2.774 1.038-4.544 1.925-1.252.625-2.4 2.117-3.842 2.968-3.335 1.963-7.363 4.29-7.337 9.261.005 1.077.561 2.237.7 3.495.083.74-.09 1.464 0 2.271.207 1.826 1.53 4.152 0 5.413-2.353-.966-5.343-1.293-6.989-2.968-.45-1.726.91-3.146.7-4.716-.167-1.263-1.942-3.508-2.973-3.67-1.064-.17-2.044.96-3.142.872-1.3-.1-2.519-1.9-4.2-2.095-2.457-.287-4.266.56-6.988.176-2.635 1.408-3.406 3.913-6.635 3.666-1.139-.083-2.179-.952-3.495-1.222a21.794 21.794 0 00-5.069-.7c-2.973.2-5.13 2.337-7.684 3.666-2.254 1.173-5.445 2.633-6.115 5.07-.366 1.31-.058 3.153-.525 4.365a21.127 21.127 0 01-1.4 2.27c-1.959 3.576-3.58 8.306-2.095 13.455a31.1 31.1 0 002.968 5.937 9.691 9.691 0 005.065 2.445c1.28.026 2.78-.649 4.02-.873a39.102 39.102 0 004.543-.7c3.776-1.209 3.031-6.318 6.811-8.039 1.65-.745 3.56-.9 6.464-1.045a3.918 3.918 0 011.226 3.318c-.1.891-.943 1.7-1.4 2.97-.4 1.116-.48 2.42-.873 3.32-.52 1.178-1.68 2.038-2.1 3.146-.273.72-.124 1.616-.348 2.267-.4 1.152-1.94 1.963-1.227 3.146 3.742 1.487 8.268-.423 11.532.176 1.377.252 4.217 1.9 4.191 4.02-.017 1.588-1.226 2.63-1.4 4.368-.212 2.188-1.124 4.867-1.222 6.635-.154 2.9 4.253 7.9 7.337 7.861 3.322-.043 5.26-3.3 9.26-1.57 1.328.573 2.73 2.726 4.2 2.62 1.208-.088 3.034-2.205 3.841-3.67.984-1.788 1.055-3.29 2.793-4.192 1.875-.97 3.367-.5 5.766-1.4a13.943 13.943 0 002.97-1.747c.846-.582 1.737-2.108 2.8-1.049 1.393 1.395-1.707 2.18-.526 3.67 2.423 1.285 3.662-2.386 5.418-2.444a12.342 12.342 0 013.493 1.747c1.364.9 1.828 2.153 3.318 2.444.957.191 2.5-.366 3.842-.176 1.783.257 2.845 1.787 4.2 1.747 1.646-.043 2.436-1.835 3.844-2.1 3.084-.564 4.231.345 5.59 2.273 1.521.265 1.574-1.76 2.968-1.045-.764 1.522.26 2.224.873 3.495.4.815.331 1.393.7 1.747.834.794 2.444.794 3.666 1.571 1.29.811 2.016 2.32 3.495 4.02 1.522 1.737 4.081 3.537 6.113 3.665 1.92.124 3.481-.544 5.07-.349 3.612.446 5.858 2.25 8.385 4.2 1.413 1.084 2.687 1.84 3.142 3.14.317.91.163 2.126.525 3.147.772 2.174 3.944 3.223 2.8 6.988.524 1.1 1.7 1.5 2.97 2.27 1.013.623 1.87 1.92 2.968 2.1a16.962 16.962 0 002.095-.176 16.33 16.33 0 015.07 1.575 20.3 20.3 0 013.145 1.055c.886.6 1 2.607 2.095 3.138.715.346 2.3-.133 3.495 0 1.875.22 4.42 1.367 6.114 1.4 1.028.021 1.88-.425 2.793-.353 4.28.33 6.706 5.45 10.835 6.988 1.28.481 3.31.146 4.191.525 1.548.67 2.855 5.408 2.97 7.508.352 6.35-4.523 8.386-7.338 12.581-.587.88-.912 2.27-1.747 3.495-1.676 2.466-3.542 2.978-3.317 7.512.062 1.246.7 2.46.7 3.843a25.11 25.11 0 01-.525 5.417c-.286 1.157-1.243 2.095-1.4 3.147s.313 1.888.176 2.8c-.15 1.007-1.156 2.428-1.924 3.84-1.616 2.982-1.969 6.49-5.242 7.684-1.922.706-4.53.312-6.635 1.05-.85.3-1.928 1.085-2.973 1.57-3.039 1.417-7.372 3.327-8.21 6.464-.747 2.8 1.04 5.025.524 8.214a27.944 27.944 0 01-2.095 2.97c-.754.992-1.13 2.156-1.924 3.145-1.05 1.315-2.682 1.9-3.317 3.671-.217.6-.08 1.314-.349 2.267-.1.353-.745.9-1.05 1.571-.283.621-.27 1.417-.525 1.928-.8 1.61-3.173 5.276-4.893 5.765-3.626 1.015-7.45-1.539-9.957-1.055.362 1.753 1.633 1.571 2.448 2.8a19.259 19.259 0 001.394 2.445c.785.91 1.48 1.243 1.575 2.271a6.217 6.217 0 01-2.62 5.068 15.994 15.994 0 01-5.069 1.4c-1.292.216-4.627.23-5.24 1.053-.9 1.214.476 4.21-.172 5.413-1.306 2.554-4.818-.07-6.64.7a3.345 3.345 0 001.4 3.318c1.1.644 2.766-.193 3.493 1.051-.357 1.738-2.227 1.962-2.62 3.671.05 1.667.561 2.1.35 3.14-.455 2.245-3.945 2.153-3.843 4.544.15 3.578 6.864 2.112 6.988 5.593.07 2.11-1.924 2.132-2.62 4.187-.375 1.1.216 1.36 0 2.271-.29 1.24-1.747 1.6-1.747 2.97 0 1.671 2.444 3.511 3.666 4.892 1.2 1.355 2.731 3.286 4.368 4.2 2.453 1.354 6.106 1.051 7.166 3.493-.336 1.471-1.753 1.863-3.146 2.27h-.349a4.11 4.11 0 00-2.62 0h-2.445c-2.337-1.078-5.175-1.775-8.037-2.794-1.032-.366-2.2-1.24-3.318-1.742-.84-.386-1.79-.535-2.448-.878-1.505-.789-3.2-3.348-4.717-4.364-.922-.622-2.369-.949-2.969-1.579a26.11 26.11 0 01-1.4-2.616c-.564-.8-1.6-1.389-2.27-2.273-1.452-1.928-3.306-4.522-3.319-5.942-.013-1.4 1.333-2.346.873-3.662-.427-1.24-3.11-.97-3.493-2.452-.234-.893.772-2.4.7-3.663-.04-.736-1.415-1.738-.873-2.8.627-1.223 1.81.1 2.8-.52-.74-2.524.058-6.582-2.448-7.342-1.289 1.085 1.314 3.526-.874 4.2-2.112-.94-1.622-3.722-2.1-5.766a22.072 22.072 0 01-1.044-4.019 21.275 21.275 0 00.171-2.44c-.37-2.356-2.99-4.285-3.146-6.644-.07-1.138.7-2.1.874-3.318.122-.824-.116-1.75 0-2.62.154-1.11.768-2.13.873-3.144a27.466 27.466 0 00-.348-6.817c-.433-2.017-2.034-3.732-2.273-5.935-.084-.8.265-2.127.176-3.146-.083-.949-.6-1.888-.7-2.973a20.234 20.234 0 01.348-3.146c.186-2.19-.428-4.636-.348-6.815.021-.64.357-1.117.348-1.743-.02-1.8-.62-3.62-.7-5.417-.137-3.318.366-5.668-.172-8.735-.406-2.32-.909-5.876-1.747-7.333-.935-1.628-4.61-4.39-6.462-5.42-1.223-.68-2.687-.913-4.019-1.572-2.845-1.394-8.36-4.345-9.609-7.159-.36-.818-.313-1.895-.7-2.8-.76-1.792-2.36-3.34-3.495-5.069-2.157-3.3-3.9-7.428-6.115-10.83a43.257 43.257 0 00-3.318-5.064c-.719-.812-3.022-1.57-3.317-2.8-.392-1.614-1.588-3.833-1.4-5.064.251-1.672 3.5-3.023 3.493-4.54 0-1.3-1.733-2.05-2.095-3.144-.882-2.673.516-4.24 1.571-6.469.348-.728.687-1.9 1.05-2.444.64-.96 1.94-1.23 2.792-2.27.477-.583.777-1.8 1.4-2.623 1.33-1.764 3.472-2.425 4.02-4.019a33.29 33.29 0 00.171-9.957c-.3-1.253-1.473-2.3-1.918-3.495-.79-2.108-.976-4.41-3.146-4.366-1.342.026-2.286 1.51-3.146 2.444-.208 1.244-.1 2.59-1.4 2.97-1.986.586-2.749-2.093-5.065-2.794-.922-.282-2.39-.265-2.969-.524-1.689-.76-2.236-3.235-4.019-4.2-1.49-.8-2.766-.52-3.67-1.747-.375-.84-.08-2.365-.172-3.495-1.915-1.119-3.538-5.3-5.766-6.286-1.477-.657-3.74-.6-5.589-1.222a21.374 21.374 0 00-2.449-.873 14.621 14.621 0 01-3.14-.7c-3.459-1.716-5.325-7.279-9.609-7.16-1.826.05-3.585 1.755-5.24 1.747s-4.4-1.314-6.469-2.27c-2.145-1-4.516-1.542-6.287-2.446-1.429-.732-2.42-2.069-3.67-2.624-.957-.424-2.356-.5-3.142-.869a34.554 34.554 0 01-3.67-2.626c-1.319-.912-2.744-2.307-2.8-3.489-.058-1.368 1.257-2.532 1.4-3.847.45-4.159-2.616-7.15-4.544-9.608-1.429-1.826-3.106-3.375-4.54-5.065a12.428 12.428 0 000-2.444 34.426 34.426 0 01-3.146-4.2c-1.036-1.425-3.057-2.943-3.317-4.54-.323-1.962.745-3.687 0-5.593-1.244-3.163-5.634-1.734-5.069 2.448.16 1.152 1.783 2.7 2.273 3.844.5 1.164.406 2.616.873 4.02.45 1.345 1.8 2.505 2.273 4.018.74 2.391.72 4.968 1.4 6.464.6 1.327 2.811 2.585 1.571 4.191-1.654.344-2.29-1.31-3.317-2.273-.574-.533-2.652-1.548-2.969-2.79-.265-1.029.653-2.415.35-3.672-.6-2.466-5.577-2.528-5.596-5.065-.009-1.592 2.083-1.78 2.1-3.322.013-1.684-2.3-3.109-2.8-4.539a26.2 26.2 0 01-.7-5.24c-.165-1.73.047-3.734-.353-5.07-.358-1.2-2.162-2.85-3.318-3.495-1.53-.85-2.744-.5-3.493-1.746a14.373 14.373 0 01-1.223-4.54c-.252-2.1-.057-4.4-.176-6.64a33.826 33.826 0 010-6.81c.865-1.69 2.44-2.525 3.322-4.2.614-1.165.7-2.6 1.394-3.843 1.28-2.282 4.067-4.39 5.942-6.64a30.9 30.9 0 005.064-7.513c.424-.984 1.563-3.163 1.4-4.366-.229-1.68-3.4-3.068-3.146-5.065.16-1.24 1.924-1.222 2.45-2.444a12.436 12.436 0 00.524-3.146c.026-1.685-.865-3.442-.525-5.24.287-1.538 2.572-2.159 1.4-3.843-1.165-1.668-3.256.9-4.544-.178-1.182-.993.238-2.192.35-4.019.042-.728-.425-1.558-.35-2.095.105-.78 1.63-2.1 1.222-2.622-.944-1.194-2-4.23-4.019-5.24-2.562-1.289-5.338-.42-8.906-1.05-2.19-.385-3.226-2.43-5.242-2.269-1.244.1-1.958 1.522-3.67 2.27-1.695.74-3.909.487-5.59.872s-2.47 1.535-4.2 1.4c-1.439-.11-1.448-1.408-3.14-1.57a27.394 27.394 0 00-2.97.524 40.624 40.624 0 01-10.292-.193 29.86 29.86 0 01-6.81-2.62C3.692 44.806-.163 43.62.004 42.1c.105-.98 3.654-2.017 5.065-2.445 2.277-.693 3.68-1.813 5.417-1.924.67-.039 1.552.415 2.445.353s2-.89 3.144-1.049c2.44-.34 5.88.124 5.59-2.27-1.854-1.467-9.41 1.083-9.609-2.1-.12-1.925 2.868-2.507 5.07-2.97a33.591 33.591 0 016.81-1.049c1.995.1 4.62 2.333 5.766-.172.556-1.782-.679-3.279-1.05-4.72 1.482-2.048 4.213-1.793 6.29-2.096a25.6 25.6 0 006.64-1.747 25.477 25.477 0 016.635-1.747c2.373-.308 4.676-1.2 6.815-1.4a48.922 48.922 0 005.064-.349c1.5-.29 3.076-1.12 4.722-1.045 1.1.05 2.038.852 3.14 1.045 1.036.182 2.224-.053 3.322.176.843.176 1.6.745 2.444.873 1.325.2 2.744-.184 4.02 0 1.172.17 2.17.9 3.317 1.047 2.691.348 5.77-.142 8.386.352.993.186 1.888.676 2.97.874 1.023.186 2.148-.026 3.145.172 1.39.277 2.55 1.592 4.02 1.747 2.7.282 5.74-1.174 8.558-1.4 2.042-.158 4.148.084 6.291-.348 1.95-.394 3.838-1.148 5.59-1.222.951-.04 1.75.291 2.62.175.9-.122 1.99-1.207 2.968-1.049 1.3.208 1.072 1.853 2.45 2.273 1.521-.79 3.038.053 4.714 0 1.633-.058 3.093-.807 4.893-.525 3.18.5 7.624 3.613 10.128 1.924.632-.428.482-1.165 1.051-2.273.773-1.5 2.294-3.273 1.924-5.417-3.5.057-6.847 1.768-10.835 1.922-4.028-2.523 1.077-4.088 4.02-5.24 2.426-.953 4.346-3.068 7.341-3.494 2.444-.353 5.13.54 8.033.873 1.693.195 3.388-.119 4.368.172 1.716.516 2.6 2.215 4.02 2.62.613.176 1.62.158 2.444.353 1.57.362 2.977 1.192 4.543 0 1.231.22 1.376 1.53 2.622 1.747 1.16-.627 2.055-2.22 3.842-2.62.777-.176 1.592.132 2.444 0 1.425-.229 3.322-2.158 4.2-.353-.357 1.261-2.263 1.451-3.322 2.448-.939.886-2.386 2.921-2.267 3.842.208 1.667 2.7 1.023 2.793 3.146-.37 1.222-1.79.676-2.969 1.222-1.077.5-1.477 1.531-2.62 1.747-3.176.6-5.81-.8-8.559-.7-.128 1.19 1.36 1.884 2.095 2.267 2.493 1.31 4.523 1.13 8.035 1.051 1.8-.04 3.87.537 5.417-.527.98-.669.927-2.148 1.747-2.968a6.7 6.7 0 014.716-1.747c.794.133 1.91 1.077 1.922 1.747.028 1.587-2.245 1.081-2.27 2.8 1.478.886 5.382-.97 5.588-2.448.15-1.077-1.27-1.7-1.222-2.794.084-1.83 2.572-1.8 2.273-3.67-1.2-.944-2.454.2-3.672 0-1.716-.287-3.26-2.342-4.019-3.67.758-.94 2.348-.314 3.495-.172 1.284-1.779 3.675-2.47 6.99-2.8 1.176-.115 2.746-.582 3.32.525.283 1.655-2.448 2.648-1.924 4.544 2.352.587 3.123-2.585 5.07-3.846a18.765 18.765 0 013.316-1.394c1.077-.41 2.265-1.425 3.146-1.4.966.026 1.14.82 2.1 1.222.86.361 1.986-.248 2.271.873-2.024 3.508-9.573 1.491-11.532 5.064.437 2.4-1.182 4.681.176 6.291.97 1.148 3.16.367 3.667 1.571.683 1.61-2.119 1.61-1.394 3.495 1.85 1.107 4.05-1.055 5.762-1.92 1.834-.93 4.156-2.029 4.366-4.2-.922-1.774-4.362-.4-4.888-2.267-.286-1.015 1.055-3.288 1.394-3.67 1.822-2.043 8.183-4.95 12.754-4.544.87.078 1.747.607 2.62.7 3 .308 6.552-1.3 8.912 0 1.9-1.107 4.174.15 6.811-.176 2.034 1.2 1.473 3.754 4.545 4.892.833.31 1.874.09 2.97.35.81.194 1.688 1.146 2.618 1.574 1.325.6 2.338.463 2.622 1.394.278.914-.962 1.5-.874 2.45.754.621.124 1.557.525 2.443.755 1.618 2.656 1.5 4.54 2.273 1.324.541 4.147 2.2 4.02 3.493-.085.865-2.653 2.382-3.494 2.8-.6.291-3.543 1.716-4.54 1.571-1.65-.242-2.294-3.583-4.544-3.495a1.868 1.868 0 00-1.924 1.81v.114c-.036 2.3 2.568 2.382 2.62 4.368.071 2.374-1.3 2.536-3.317 4.015-1.448-.587-2.665-1.41-4.544-1.57-1.117 1.328 1.836 1.8.873 3.494-2.806.6-4.946-.794-7.509-1.57a14.729 14.729 0 01-2.62-.526c-.993-.573-1.284-2.27-2.1-3.146-.944-1.014-2.83-2.453-4.369-2.444-2.157 0-5.28 2.687-6.988.172 1.184-4 6.785-1.032 10.482-2.444 1.376-.525 1.85-1.98 2.973-2.622 2.26-1.288 5.93-1.468 5.59-4.017-.172-1.285-1.968-1.267-2.97-1.924-1.367-.89-2.412-4.037-4.368-4.19-1-.08-1.729.771-2.8.872-2.258.212-4.773-.909-6.81 0-.949.542-.309 1.412-1.05 2.444-.61.847-2.048 1.085-2.62 1.924-.672.984-.535 2.205-1.4 2.97-1.434 1.27-4.468 1.472-6.286 2.094-.81.278-1.835 1.231-2.622 1.227-1.442-.009-2.059-1.94-3.67-1.227-.14 1.871 1.976 2.63 3.318 3.495 1.451.935 2.977 1.866 3.495 3.493-1.422 3.018-3.689-.158-5.94-.17-2.478-.019-6.1 4.72-8.21.872.525-2.038 2.77-2.356 3.318-4.368-2.466.42-4.615 2.5-7.513 3.146-1.218.27-2.4.2-3.495.52-2.09.614-3.55 2.158-5.76 2.974-.866.317-1.9.22-2.8.52a46.713 46.713 0 00-6.812 3.146 39.296 39.296 0 00-6.115 3.67c-.747.644-2.687 2.94-2.622 3.667.088 1.042 2.047 1.385 2.1 2.448-.045.644-1.134 2.034-.349 2.97.715.851 2.15.162 3.667.348 2.67.33 4.415 2.536 6.462 3.671a18.071 18.071 0 005.595 2.095c2.4.3 5.087-.7 5.412 1.222.32 1.85-2.258 2.51-2.444 3.671 1.293 1.706-.878 2.523-.873 4.02a3.775 3.775 0 002.793 3.14c1.76.15 4.336-1.734 5.07-3.494.867-2.1.5-4.936 2.094-6.464 8.14.225 15.026-3.7 14.5-12.052a11.436 11.436 0 01-.349-2.8c.255-1.35 2.577-2.485 2.27-4.19 2.278-.7 2.182-4.36 4.542-4.894 1.978-.445 4.214 1.4 6.811 1.222.848-.057 1.946-.816 2.8-.7 1.706.237 2.735 2.342 4.02 3.318 1.133.868 2.328.591 2.62 1.746-.34 1.96-1.717 2.008-1.576 3.842a3.778 3.778 0 002.62 2.974c1.276.237 3.1-.446 4.368-1.05 2.338-1.108 4.341-4.444 6.291-4.02 1.54.336 2.744 5.227 2.97 6.988.241 1.888-.256 3.331-.173 5.07.225 2.946 3.936 2.646 5.762 4.19.552.467.768 1.663 1.226 2.271.887 1.182 1.96 1.182 2.1 2.444.327 3.018-2.735 3.273-2.449 6.64-.63 1.3-2.224 1.226-2.095 2.97.2 2.756 4.165.643 5.241 2.8.582 1.155-.1 2.015-.524 3.665 1.354 1.614 1.344 4.191-1.047 4.2-1.457.008-1.857-1.554-3.328-1.915zm-188.848-4.54c.824-.847-.349-2.639-1.576-1.924-.118.64.225 2.185 1.576 1.924zm121.941 15.9c-.728-.71-3.1-.508-4.72-.349-1.143.116-2.5.358-2.62 1.222 1.817.83 6.772 1.43 7.341-.877zm-9.088-2.969a2.142 2.142 0 00-.7-3.67c-.574-.15-1.336.423-2.273.352-.988-.075-1.975-.98-2.793-1.049a4.2 4.2 0 00-3.322 1.222c-.053 1.046.77 1.213.7 2.271-1.7 1.214-.8 5.272.874 5.418 1.774.155 2.69-4.486 5.064-4.893.867-.155 1.308.485 2.451.344zm-2.444 6.988c-2.483-.882-4.778.6-6.81.873-1.214.163-3.424-.246-3.147 1.571.225 1.483 2.515.944 3.844.525a16.651 16.651 0 006.114-2.974zm-7.685-13.285c3.481-1.483-.687-6.048-2.27-6.464-2.833-.74-6.86 2.078-10.134 2.971-1.845.5-3.6.546-4.019 2.1 1.654 2.736 4.923-.6 7.335-.176 1.223.216 1.937 1.888 3.146 2.1a36.515 36.515 0 005.942-.53zm-2.448 2.8c-.724-.85-4.64.1-5.766.874-.773.533-1.3 1.836-2.095 2.8-.826.993-1.749 1.76-2.445 2.62-.63.776-4.169 5.881-1.4 6.464 1.182.246 3.613-2.207 3.843-3.146.79-3.2 2.232-5.488 4.715-6.989 1.441-.873 2.914-.763 3.148-2.623zM147.45 71.624c1.95-.07 3.27-5.832 0-5.069-2.188.51-2.717 5.164.001 5.067zm-9.432 131.026c.088-.26.255-.44.348-.7-.529-1.743-2.205.631-.347.697zm-73.9-146.224c.04-.33-.2-.387-.173-.7-.533 0-1.15-.1-1.05.525a.727.727 0 001.224.172zM247.732 28.99c.86.107 1.346-.167 1.222-1.044-.777-.545-1.91.174-1.222 1.044zm-20.09-17.117a.85.85 0 00-1.052 0v.7c.742.158.88-.283 1.051-.698zm-66.387 13.452c.582-.375 1.473-.882 1.046-1.747-1.929-.9-5.189-.216-8.035-.525-1.614-2.28-4.314-2.633-4.543 1.051 3.251 2.64 8.18-1.23 11.532 1.223zM129.98 43.318c.993-.344 2.37-.167 2.62-1.226-.816-.653-1.654-1.535-2.62-1.57-1.267-.044-1.875 1.076-3.146 1.746-1.477.781-3.525.972-3.666 2.273 2.705.532 5.14-.647 6.812-1.22zm-.873-12.58c1.117-.19 2.262.312 2.973-.7-.833-3.848-6.154-1.5-9.26-1.224-.654 1.094-1.527 1.97-1.747 3.495 2.41.613 5.317-1.108 8.034-1.57zm52.41 178.551c1.381-.225.98-3.4-.7-2.626-1.263.586-.605 2.831.7 2.626z" transform="translate(0 .08)"/><path id="bc15b39a-dbce-44dd-b135-a8d2922674dd" data-name="Path 1508" class="b749764b-d20f-424a-af70-ea5279af83ae" d="M63.947 55.722c-.026.313.212.37.173.7a.727.727 0 01-1.223-.175c-.1-.626.517-.529 1.05-.525z" transform="translate(0 .08)"/><path id="ec8ab112-0771-4e78-bd0f-dbb3a01f3ad9" data-name="Path 1509" class="b749764b-d20f-424a-af70-ea5279af83ae" d="M58.706 66.032a3.715 3.715 0 01-2.449 2.095 4.35 4.35 0 01-.873-.873c.075-1.659 2.435-2.88 3.322-1.222z" transform="translate(0 .08)"/></g></g><circle id="a6fa01f8-f981-4629-8e54-3f7a1cd2a2a6" data-name="Ellipse 36" cx="418.23" cy="79.99" r="3" fill="#e1332b"/></g></svg>