<svg width="56" height="56" viewBox="0 0 56 56" fill="none" xmlns="http://www.w3.org/2000/svg"><path d="M50.15 21.438a4.902 4.902 0 001.256-3.282 4.927 4.927 0 00-4.922-4.922h-2.187V9.867l4.375-4.375V0H45.39v4.133l-3.414 3.414h-4.11l-3.414-3.414V0h-3.281v5.492l4.375 4.375v3.367h-3.535l-4.703 2.188h-7.403V9.406H4.594v37.188h15.312v-7.11h7.25l4.703 3.282h3.688v3.258l-4.484 4.484V56h3.28v-4.133l3.415-3.414h4.11l3.413 3.414V56h3.282v-5.492l-4.266-4.266v-3.476h2.187a4.927 4.927 0 004.922-4.922c0-1.26-.475-2.41-1.256-3.282a4.902 4.902 0 001.256-3.28c0-1.26-.475-2.41-1.256-3.282a4.902 4.902 0 001.256-3.281c0-1.26-.475-2.41-1.256-3.282zM16.625 43.313h-8.75V12.686h8.75v30.626zm22.203-32.485h2.188v2.406h-2.188v-2.406zm2.188 34.344h-2.188v-2.406h2.188v2.406zm7.109-20.453c0 .904-.736 1.64-1.64 1.64v3.282c.904 0 1.64.736 1.64 1.64 0 .905-.736 1.64-1.64 1.64v3.282c.904 0 1.64.736 1.64 1.64 0 .905-.736 1.641-1.64 1.641H32.89l-4.703-3.28h-8.282v-17.5h8.129l4.703-2.188h13.746c.905 0 1.641.736 1.641 1.64 0 .905-.736 1.64-1.64 1.64v3.282c.904 0 1.64.736 1.64 1.64z" fill="#fff"/></svg>