<svg xmlns="http://www.w3.org/2000/svg" width="24" height="24" viewBox="0 0 24 24"><path d="M11.538.978a.937.937 0 00-1.326 0 .938.938 0 000 1.326l.615.615a39.067 39.067 0 01-9.006 15.339l-.224-.221a.938.938 0 00-1.326.007.938.938 0 00.007 1.326l4.406 4.359a.935.935 0 00.659.271.935.935 0 00.666-.278A.937.937 0 006 22.4l-.24-.238q.785-.746 1.613-1.449l.425.682a2.789 2.789 0 001.793 1.26 2.79 2.79 0 002.153-.409l.008-.006 1.956-1.333a2.817 2.817 0 00.777-3.893l-.635-.956-.463-.7a.937.937 0 00-1.253-.293 41.173 41.173 0 00-7.709 5.779l-1.276-1.262a41.413 41.413 0 005.4-7.041 39.6 39.6 0 003.773-8.123L19.6 11.69a38.911 38.911 0 00-3.285 1.255.937.937 0 00-.486 1.234.938.938 0 00.86.564.933.933 0 00.373-.078 36.845 36.845 0 014.032-1.48l.6.6a.934.934 0 00.663.275.934.934 0 00.663-.275.937.937 0 000-1.326zm.783 16.156l.607.913a.939.939 0 01-.261 1.3l-.008.005-1.959 1.332a.93.93 0 01-.715.134.93.93 0 01-.6-.42l-.547-.876a39.467 39.467 0 013.483-2.388zM18.6 5.4a.937.937 0 010-1.326l2.3-2.3a.938.938 0 011.326 0 .937.937 0 010 1.326l-2.3 2.3a.935.935 0 01-.663.274.935.935 0 01-.663-.274zm-2.945-3.069l.563-1.687a.938.938 0 011.186-.593A.938.938 0 0118 1.234l-.562 1.688a.938.938 0 01-.889.641.939.939 0 01-.3-.048.938.938 0 01-.592-1.186zm7.694 5.454l-1.734.562a.934.934 0 01-.289.046.938.938 0 01-.892-.648.937.937 0 01.6-1.181L22.773 6a.937.937 0 011.181.6.938.938 0 01-.603 1.182z" fill="#fff"/></svg>