<svg xmlns="http://www.w3.org/2000/svg" width="31.39" height="31.39" viewBox="0 0 31.39 31.39"><path data-name="008-whatsapp" d="M12.783 10.77a2.548 2.548 0 00-.534.057q-1.3.344-1.3 2.328a5.411 5.411 0 001.2 2.862 9.58 9.58 0 003.611 3.245 10.655 10.655 0 002.614.878h.226a3.079 3.079 0 001.317-.324 1.911 1.911 0 001.145-1.794 2.024 2.024 0 00-.019-.286 7.049 7.049 0 00-1.126-.63 5.194 5.194 0 00-1.317-.534h-.019q-.134 0-.63.63t-.668.648h-.038a3.3 3.3 0 01-1.2-.515 6.523 6.523 0 01-1.832-1.622 3.383 3.383 0 01-.668-1.107q0-.019.458-.61a1.2 1.2 0 00.363-.706 11.048 11.048 0 00-.5-1.278 4.343 4.343 0 00-.611-1.145 1.228 1.228 0 00-.477-.1zm2.442-3.855h.668a8.121 8.121 0 016.526 3.034 7.932 7.932 0 012.1 5.3 9.547 9.547 0 01-.363 2.538 8.737 8.737 0 01-8.3 6.106 7.771 7.771 0 01-.935-.058 9 9 0 01-3.74-1.374L7.918 23.51l.763-2.309.305-.8q-.019 0-.553-.9a8.136 8.136 0 01-1.011-3.263 6.511 6.511 0 01-.076-.992 8.065 8.065 0 013.606-6.784 8.054 8.054 0 014.274-1.546zm.076-1.6a10.123 10.123 0 00-6.678 3.091 9.99 9.99 0 00-2.9 6.908 10.616 10.616 0 001.183 4.748 1.472 1.472 0 01.134.592 1.779 1.779 0 01-.114.629q-1.641 4.751-1.641 4.789l.076-.133c.013.064.038.1.076.1q1.03-.382 2.767-.935 2.252-.687 2.786-.858a10.934 10.934 0 004.9 1.259h.286a10.195 10.195 0 009.924-9.468v-1.26a10.219 10.219 0 00-3-6.526 10.093 10.093 0 00-6.564-2.939zm.391-5.313A15.693 15.693 0 110 15.694 15.693 15.693 0 0115.693 0z"/></svg>