<svg width="56" height="56" viewBox="0 0 56 56" fill="none" xmlns="http://www.w3.org/2000/svg"><g clip-path="url(#clip0_136_17)" fill="#fff"><path d="M16.625 0v12.98c-2.646 1.239-4.484 3.926-4.484 7.036v7.109c0 2.702 1.048 5.163 2.758 7H9.297C4.17 34.125 0 38.295 0 43.422V56h44.844V43.422c0-4.088-2.654-7.566-6.328-8.808l10.041-9.458H56V0H16.625zm-1.203 20.016a4.49 4.49 0 014.484-4.485h5.032a4.49 4.49 0 014.484 4.485v7.109c0 3.86-3.14 7-7 7s-7-3.14-7-7v-7.11zm26.14 23.406v9.297h-7.656V45.5h-3.281v7.219H14.219V45.5h-3.281v7.219H3.28v-9.297a6.023 6.023 0 016.016-6.016h26.25a6.023 6.023 0 016.016 6.016zm-11.617-9.297a10.242 10.242 0 002.758-7v-1.969h4.156v9.063a9.332 9.332 0 00-1.312-.094h-5.602zm10.196-5.549v-3.42h3.63l-3.63 3.42zm12.578-6.701H32.703v-1.86c0-4.281-3.484-7.765-7.766-7.765h-5.03V3.281h32.812v18.594z"/><path d="M39.484 16.844h-3.28v3.281h3.28v-3.281zM39.484 4.703h-3.28v10.063h3.28V4.703zM47.688 16.844h-3.282v3.281h3.282v-3.281zM46.047 4.703a4.38 4.38 0 00-4.375 4.375h3.281a1.095 1.095 0 111.094 1.094h-1.64v4.594h3.28v-1.632a4.382 4.382 0 002.735-4.056 4.38 4.38 0 00-4.375-4.375z"/></g><defs><clipPath id="clip0_136_17"><path fill="#fff" d="M0 0h56v56H0z"/></clipPath></defs></svg>