<svg width="56" height="56" viewBox="0 0 56 56" fill="none" xmlns="http://www.w3.org/2000/svg"><g clip-path="url(#clip0_136_38)" fill="#fff"><path d="M20.266 17.947l-2.32 2.32 17.787 17.788 2.32-2.32-17.787-17.788zM11.829 37.992l-5.405 5.405a4.341 4.341 0 00-1.28 3.09 4.34 4.34 0 001.28 3.09 4.355 4.355 0 003.09 1.278 4.356 4.356 0 003.088-1.278l5.406-5.406-6.18-6.18zm-1.547 9.265a1.089 1.089 0 01-1.538 0 1.081 1.081 0 01-.319-.77c0-.291.113-.564.319-.77l3.085-3.085 1.539 1.54-3.086 3.085z"/><path d="M52.044 12.452L56 8.496v-5.99L53.495 0h-5.99L43.55 3.957l1.158 1.158L29.55 20.27l-8.823-8.823c.035-.347.053-.7.053-1.056C20.781 4.66 16.12 0 10.391 0 9.02 0 7.686.264 6.425.786l-2.271.938 4.518 4.518-2.32 2.32-4.527-4.526-.962 2.207A10.319 10.319 0 000 10.39c0 5.729 4.661 10.39 10.39 10.39.357 0 .71-.018 1.057-.053l5.35 5.35-3.815 3.814 1.16 1.16a1.636 1.636 0 010 2.311 1.636 1.636 0 01-2.31 0l-1.16-1.16-7.953 7.952c-3.62 3.62-3.62 9.508 0 13.127a9.253 9.253 0 006.563 2.714 9.253 9.253 0 006.563-2.715l7.953-7.952-1.16-1.16a1.623 1.623 0 01-.48-1.155c0-.437.17-.847.48-1.156a1.623 1.623 0 011.155-.478c.436 0 .847.17 1.155.478l1.16 1.16 3.815-3.814 5.349 5.349c-.035.347-.053.7-.053 1.056C35.219 51.34 39.88 56 45.609 56c1.407 0 2.772-.277 4.059-.823l2.238-.95-4.468-4.469 2.32-2.32 4.469 4.468.95-2.238c.546-1.287.823-2.652.823-4.059 0-5.729-4.661-10.39-10.39-10.39-.357 0-.71.018-1.057.053L35.73 26.45l15.156-15.156 1.158 1.158zm-3.18-9.17h3.272l.583.582v3.273l-.675.675-3.855-3.855.676-.676zM10.392 17.5a7.117 7.117 0 01-7.105-7.363l3.066 3.066 6.96-6.961-2.96-2.96h.039c3.92 0 7.109 3.189 7.109 7.109S14.31 17.5 10.39 17.5zM25.91 38.577a4.924 4.924 0 00-5.593.96 4.883 4.883 0 00-1.44 3.477c0 .745.165 1.465.478 2.118l-5.83 5.83a6.008 6.008 0 01-8.486 0 5.961 5.961 0 01-1.758-4.244c0-1.602.624-3.11 1.758-4.243l5.831-5.83a4.924 4.924 0 005.592-.962 4.924 4.924 0 00.961-5.592l1.694-1.693 8.486 8.485-1.694 1.694zm19.7-.077a7.117 7.117 0 017.107 7.257l-2.96-2.96-6.96 6.961 2.96 2.96A7.117 7.117 0 0138.5 45.61c0-3.92 3.19-7.11 7.11-7.11zm-4.65-2.18a10.461 10.461 0 00-4.64 4.64L15.04 19.68a10.46 10.46 0 004.64-4.64l21.28 21.28zm-7.55-12.19l-1.539-1.54L47.027 7.435l1.539 1.539L33.41 24.129z"/></g><defs><clipPath id="clip0_136_38"><path fill="#fff" d="M0 0h56v56H0z"/></clipPath></defs></svg>