<svg width="56" height="56" viewBox="0 0 56 56" fill="none" xmlns="http://www.w3.org/2000/svg"><path d="M19.797 16.406h8.75V0H17.062c-1.212 0-2.143 1.007-2.558 1.551a37.29 37.29 0 00-8.15 12.33A37.431 37.431 0 003.61 28c0 4.873.924 9.623 2.745 14.12a37.29 37.29 0 008.15 12.329c.415.544 1.347 1.551 2.559 1.551h11.484V39.594h-8.921a24.429 24.429 0 010-23.188h.17zm3.281 26.469h2.188v9.844h-2.188v-9.844zm0-39.594h2.188v9.844h-2.188V3.281zm-5.823 10.651a27.707 27.707 0 000 28.136l.476.807h2.066v9.844h-2.445c-.089-.084-.441-.504-.441-.504C10.449 45.748 6.89 37.148 6.89 28c0-9.148 3.558-17.747 10.02-24.216 0 0 .344-.41.441-.503h2.445v9.844H17.73l-.476.807zM44.254 8.356l-2.32 2.32A24.339 24.339 0 0149.109 28a24.34 24.34 0 01-7.175 17.324l2.32 2.32C49.5 42.397 52.39 35.421 52.39 28c0-7.42-2.89-14.397-8.137-19.644z" fill="#fff"/><path d="M38.074 14.536l-2.32 2.32c6.145 6.145 6.145 16.143 0 22.288l2.32 2.32c7.425-7.424 7.425-19.504 0-26.928z" fill="#fff"/><path d="M31.95 20.66l-2.32 2.32A7.052 7.052 0 0131.707 28a7.052 7.052 0 01-2.079 5.02l2.32 2.32c4.047-4.048 4.047-10.633 0-14.68z" fill="#fff"/></svg>