<svg width="56" height="56" viewBox="0 0 56 56" fill="none" xmlns="http://www.w3.org/2000/svg"><g clip-path="url(#clip0_136_53)" fill="#fff"><path d="M48.16 9.861c-4.53 0-8.217-3.686-8.217-8.217V0H16.057v1.644c0 4.53-3.687 8.217-8.218 8.217H6.196v26.735c0 4.667 3.649 9.339 10.846 13.886 5.115 3.233 10.15 5.204 10.362 5.287L28 56l.596-.231c.212-.083 5.247-2.054 10.363-5.287 7.196-4.547 10.845-9.22 10.845-13.886V9.861h-1.643zm-1.643 26.735c0 4.306-5.044 8.403-9.275 11.082-3.863 2.446-7.782 4.173-9.242 4.784-1.454-.608-5.344-2.32-9.203-4.759-7.698-4.864-9.314-8.725-9.314-11.107V13.031c5.03-.723 9.021-4.713 9.744-9.744h17.546c.723 5.031 4.713 9.021 9.744 9.744v23.565z"/><path d="M42.573 15.298a5.116 5.116 0 01-5.114-5.108V8.546H18.54v1.644a5.116 5.116 0 01-5.113 5.108h-1.643v18.788c0 3.36 2.693 6.894 8.006 10.5 3.72 2.526 7.383 4.178 7.537 4.248l.673.301.672-.301c.155-.07 3.818-1.723 7.537-4.248 5.313-3.606 8.007-7.14 8.007-10.5V15.298h-1.643zm-11.834 28.79c-.295.164-.579.319-.848.463l-1.89.945-1.892-.945a56.406 56.406 0 01-.848-.463V33.803h5.478v10.285zM24.51 30.516l-3.317-5.118 1.64-2.532V24.5L28 28.765l5.166-4.265v-1.634l1.641 2.532-3.317 5.118h-6.98zm9.888 11.327l-.372.25v-9.448l4.698-7.248-5.448-8.405h-3.397v5.959L28 24.502l-1.879-1.551v-5.959h-3.397l-5.448 8.405 4.698 7.248v9.448a41.638 41.638 0 01-.372-.25c-4.212-2.865-6.531-5.62-6.531-7.757V18.424a8.422 8.422 0 006.595-6.59h12.668a8.422 8.422 0 006.595 6.59v15.662c0 2.137-2.32 4.892-6.53 7.757z"/></g><defs><clipPath id="clip0_136_53"><path fill="#fff" d="M0 0h56v56H0z"/></clipPath></defs></svg>