<svg xmlns="http://www.w3.org/2000/svg" width="32" height="31.94" viewBox="0 0 32 31.94"><defs><style>.a{fill:#264afb}</style></defs><path class="a" d="M24.001 26.788l1.489 2a16.1 16.1 0 002.024-1.789l-1.8-1.724a13.593 13.593 0 01-1.713 1.513zM19.952 28.844l.737 2.384a15.92 15.92 0 002.505-1.015l-1.13-2.224a13.421 13.421 0 01-2.112.855zM27.143 23.5l2.068 1.4a16 16 0 001.318-2.361l-2.274-1.027a13.5 13.5 0 01-1.112 1.988zM14.783 14.722H7.797v2.5h9.481V4.741h-2.5z"/><path class="a" d="M29.5 2.869V7.49a15.986 15.986 0 00-4.581-4.745 15.888 15.888 0 00-8.95-2.743A15.865 15.865 0 004.677 4.679 15.865 15.865 0 000 15.969a15.865 15.865 0 004.677 11.292 15.865 15.865 0 0011.292 4.677 16.181 16.181 0 002.078-.134l-.322-2.474a13.667 13.667 0 01-1.756.113A13.489 13.489 0 012.5 15.969 13.489 13.489 0 0115.974 2.495a13.443 13.443 0 0111.6 6.612h-4.3v2.5H32V2.874zM29.395 17.092q-.017.2-.039.4a13.467 13.467 0 01-.344 1.87l2.415.626a15.978 15.978 0 00.453-2.665l.019-.229z"/></svg>