<svg xmlns="http://www.w3.org/2000/svg" width="32" height="32" viewBox="0 0 32 32"><path d="M22.268 18.813l.481-2.5h-9.827l1.058-6.25h-2.3c.961-.812 1.837-2.273 2.012-4.9a7.527 7.527 0 00-3 1.68A14.667 14.667 0 0011.114 0a11.64 11.64 0 00-3.385 6.348A11.64 11.64 0 004.345 0c-.8 5.36.88 8.5 2.183 10.063H4.146l1.058 6.25H0V32h2.5V18.813zm-14.529-2.5l-.634-3.75h3.916l-.634 3.75zm24.261 0V32h-2.5V18.813h-2.141l-1.2 6.25h-6.034v4.438h3.812v2.5H13.875v-2.5h3.75v-4.437H12v-2.5h12.093l2.93-15.236 2.455.472-1.637 8.514z" fill="#264afb"/></svg>