<svg xmlns="http://www.w3.org/2000/svg" width="32.16" height="32.16" viewBox="0 0 32.16 32.16"><path d="M21.684 10.4a2.511 2.511 0 010 3.552 2.511 2.511 0 01-3.552 0 2.511 2.511 0 010-3.552 2.512 2.512 0 013.552 0zm2.239-3.947a1.256 1.256 0 000 1.776 1.256 1.256 0 001.776 0 1.256 1.256 0 000-1.776 1.256 1.256 0 00-1.777.005zm-9.483 9.483a1.256 1.256 0 000 1.776 1.256 1.256 0 001.776 0 1.256 1.256 0 000-1.776 1.256 1.256 0 00-1.777.005zM32.157 3.888a20.809 20.809 0 01-5.782 13.572l-.013.013-.612.608v8.489l-5.571 5.571L.065 11.964 5.633 6.4h8.356l.7-.705A20.853 20.853 0 0128.326 0h.042c1.5 0 2.412 0 3.1.708s.688 1.637.688 3.185zM3.614 11.967L6.041 14.4l5.455-5.5H6.674zm19.624 8.609l-5.553 5.509 2.5 2.5 3.057-3.057zm6.407-16.684c0-.472 0-1.033-.031-1.356-.292-.026-.782-.025-1.264-.026h-.023a18.449 18.449 0 00-11.874 4.967l-8.638 8.7 8.1 8.125 8.675-8.606a18.405 18.405 0 005.055-11.803zM7.252 23.065L0 30.317l1.776 1.776 7.252-7.252zM3.39 19.33L0 22.72l1.776 1.78 3.39-3.391zm4.27 11.05l1.776 1.776 3.39-3.391-1.776-1.776z" fill="#264afb"/></svg>