<svg xmlns="http://www.w3.org/2000/svg" width="31.81" height="31.81" viewBox="0 0 31.81 31.81"><path d="M13.048 13.545h-4.97c0-1.713 1.115-3.107 2.485-3.107s2.485 1.394 2.485 3.107zm8.45-3.107c-1.37 0-2.485 1.394-2.485 3.107h4.971c0-1.713-1.115-3.106-2.484-3.106zm5.655 16.716a15.8 15.8 0 004.659-11.248 15.8 15.8 0 00-4.659-11.247A15.8 15.8 0 0015.906 0 15.8 15.8 0 004.658 4.659 15.8 15.8 0 000 15.907a15.8 15.8 0 004.659 11.248 15.8 15.8 0 0011.248 4.659 15.8 15.8 0 0011.247-4.66zm2.174-11.248a13.437 13.437 0 01-13.421 13.421 13.437 13.437 0 01-13.421-13.42A13.437 13.437 0 0115.906 2.486a13.437 13.437 0 0113.422 13.421zm-4.934 3.7l-2.186-1.182a7.579 7.579 0 01-6.3 3.7 6.968 6.968 0 01-4.7-1.8 8 8 0 01-1.6-1.894L7.419 19.6a10.043 10.043 0 008.487 5 10.043 10.043 0 008.488-5z" fill="#264afb"/></svg>