<svg xmlns="http://www.w3.org/2000/svg" width="28.91" height="32" viewBox="0 0 28.91 32"><path d="M24.68 21.777a14.4 14.4 0 00-5.517-3.455 7.5 7.5 0 002.8-5.849 7.507 7.507 0 00-1.025-3.788l3.591-1.323v7.426h2.5V4.624L14.495 0 1.878 4.61v1.821l6.106 2.233a7.5 7.5 0 00-1.037 3.81 7.5 7.5 0 002.8 5.849 14.4 14.4 0 00-5.517 3.455A14.362 14.362 0 000 32h2.5a11.972 11.972 0 017.382-11.045l3.32 4.743v6.3h2.5v-6.3l3.32-4.743A11.973 11.973 0 0126.411 32h2.5a14.362 14.362 0 00-4.231-10.223zm-18-16.256l7.812-2.854 7.771 2.865-7.747 2.854zm7.778 17.6l-2.031-2.9a11.987 11.987 0 012.031-.173 11.981 11.981 0 012.031.173zm0-5.64a5.012 5.012 0 01-5.007-5.007 5 5 0 01.945-2.928l4.123 1.507 4.02-1.481a5 5 0 01.926 2.9 5.012 5.012 0 01-5.008 5.008z" fill="#264afb"/></svg>