<svg xmlns="http://www.w3.org/2000/svg" width="48" height="48" viewBox="0 0 48 48"><defs><clipPath id="a"><path d="M48-429.3a24 24 0 01-24 24 24 24 0 01-24-24 24 24 0 0124-24 24 24 0 0124 24z" transform="translate(0 453.304)" fill="none" clip-rule="evenodd"/></clipPath><style>.d{fill:#602825}.e{fill:#ffcfca}.f{fill:#f9beba}.h{fill:#ef5c2f}.i{fill:#201a17}.j{fill:#cd7872}.k{fill:#fff}</style></defs><g clip-path="url(#a)"><path d="M48 24.003a24 24 0 01-24 24 24 24 0 01-24-24 24 24 0 0124-24 24 24 0 0124 24z" fill="#eafbc2"/><path class="d" d="M42.092 35.321a6.135 6.135 0 00-6.134-6.135 6.158 6.158 0 00-1.271.133c-.493-2.473-.067-5.488.055-7.316.281-4.236.144-9.745-3.558-12.781a8.65 8.65 0 00-8.107-1.286c-3.025 1.092-4.854 3.882-5.716 6.681-.553 1.794-.745 3.644-1.219 5.424a2.594 2.594 0 00-1.1-.244 2.6 2.6 0 00-2.533 2.005 6.477 6.477 0 00-.814-.053 6.414 6.414 0 00-6.414 6.414 6.414 6.414 0 00.372 2.153 5.946 5.946 0 00-2.881 5.1 5.95 5.95 0 005.092 5.887 6.229 6.229 0 006.062 4.8c.129 0 .256-.005.383-.013a6.787 6.787 0 006.31 4.289 6.783 6.783 0 006.035-3.685 6.752 6.752 0 003.819 1.175 6.784 6.784 0 006.78-6.552 6.136 6.136 0 004.839-5.996z"/><path class="e" d="M60.231 88.84l-1.84-4.606a33.547 33.547 0 00-1.875-4.131 44.265 44.265 0 00-1.111-1.882q-2.586-4.752-5.17-9.506l-3.27-6.015a35.661 35.661 0 01-1.98-4.034 32.1 32.1 0 01-1.445-5.377 81.2 81.2 0 00-2.63-11.12 18.45 18.45 0 00-4.455-7.39 15.5 15.5 0 00-11.756-3.8 18 18 0 00-2.176.281 18.232 18.232 0 00-5.631 2.1 13 13 0 00-4.453 4.047 17.217 17.217 0 00-1 1.692c-1.15 2.207-1.9 4.6-2.835 6.9-1.661 4.1-4.047 7.972-4.821 12.324-.8 4.519 1.159 15.47 1.147 21.878a57.782 57.782 0 01-1.242 6.888 12.479 12.479 0 00-.229 3.234 23.733 23.733 0 00.707 3.346 1.439 1.439 0 00.195.5.524.524 0 00.828.049 2.833 2.833 0 00.052-2.2 11.848 11.848 0 01-.352-1.907 3.9 3.9 0 01.382-1.793c.181-.417.345-.841.536-1.256.053-.114.109-.232.173-.343.023-.043.049-.084.075-.125a1.25 1.25 0 01.5-.477.845.845 0 01.664-.046c.2.106.195.371.212.567a2.847 2.847 0 01-.042.7 6.542 6.542 0 00-.123.941 1.723 1.723 0 00.015.256 1.5 1.5 0 00.038.2c.191.708 1.151 1.338 1.516.391a2.957 2.957 0 00.134-.637 17.226 17.226 0 00.464-3.074 18.085 18.085 0 00-.228-1.982c-.166-1.095-.655-2.692-.77-3.218.683-6.534 1.026-12.084 1.4-18.594a9.041 9.041 0 01.277-2.047 9.173 9.173 0 011.228-2.335q4.46-6.822 8.474-13.921a10.688 10.688 0 001.836-5.322 9.334 9.334 0 008.8 1.086c3.564 7.99 5.229 16.8 9.5 24.432 3.428 6.12 8.508 10.942 12.65 16.6.15.205.084.821.1 1.082.046.847-.025 1.692.078 2.537a11.894 11.894 0 00.59 2.505c.13.367.484.7.859.375a.413.413 0 00.1-.079 1.867 1.867 0 00.349-1.441 3.368 3.368 0 01.255-1.656.522.522 0 01.34-.308.562.562 0 01.285.035 1.565 1.565 0 01.731.534 2.768 2.768 0 01.266.4c.076.136.144.276.21.417.083.176.16.352.24.519.017.035.033.069.05.1s.031.061.047.092l.3.589.54 1.072.471.935a4.392 4.392 0 001.062 1.541.467.467 0 00.758-.523z"/><path class="e" d="M30.314 32.965a3.939 3.939 0 01-1.682.436 14.417 14.417 0 01-2.1.12 14.1 14.1 0 01-3.913-.978c.022-.79.042-1.581.066-2.371a29.45 29.45 0 00-.018-2.965c-.022-.3-.052-.6-.091-.9-.091-.748-.226-1.491-.359-2.234l-.33-1.832a4.724 4.724 0 001.119.757c1.818 1 3.674 1.937 5.541 2.846a8.8 8.8 0 001.739.7l.017 3.463z"/><path class="f" d="M30.3 29.997a21.239 21.239 0 01-5.959-2.522 29.361 29.361 0 01-1.767-1.173c-.091-.748-.226-1.491-.359-2.234l-.33-1.832a4.724 4.724 0 001.119.757c1.818 1 3.674 1.937 5.541 2.846a8.8 8.8 0 001.739.7z"/><path class="e" d="M33.892 16.771a14.3 14.3 0 00-.4-1.468 7.823 7.823 0 00-2.78-3.871 6.452 6.452 0 00-8.3.716 6.539 6.539 0 00-1.237 1.8 8.283 8.283 0 00-.518 5.1 13.341 13.341 0 001.683 4.293 10.964 10.964 0 001.71 2.214 8.057 8.057 0 001.266 1.014 6.444 6.444 0 003.054 1.056 5.088 5.088 0 002.854-.659 5.034 5.034 0 002-2.423 12.65 12.65 0 00.668-7.772z"/><path class="e" d="M22.805 22.838a3.045 3.045 0 01-3-.281 3 3 0 01-1.216-2.269 2.843 2.843 0 01.021-.483 2.15 2.15 0 01.26-.8 1.866 1.866 0 011.788-.865 2.157 2.157 0 011.638 1.177l.194 1.356z"/><path class="d" d="M31.09 10.558a11.055 11.055 0 01-4.624 5.6 14.735 14.735 0 01-7.014 2.095 18.708 18.708 0 01.427-3.555 7.7 7.7 0 013.02-4.108 7.347 7.347 0 01.666-.4 7.666 7.666 0 014.669-.8 5.779 5.779 0 011.875.57c.113.055 1.031.457.981.598z"/><path class="e" d="M34.701 58.227c.462-3.677.811-7.347 1.556-10.983.661-3.226 1.417-6.639.19-9.82a8.754 8.754 0 00-1.784-1.393c-5.506-3.4-12.419-3.049-18.522-.906-.326 5.05.33 10.123.754 15.18.127.725.218 1.457.3 2.189.534 4.575.821 9.171 1.13 13.766a4.341 4.341 0 01.445-.038 15.462 15.462 0 013.078.307l7.863 1.315c1.015.17 2.036.342 3.036.585.587-2.637 1.211-5.266 1.834-7.894a15.582 15.582 0 01.12-2.308z"/><path d="M43.312 48.042a7.228 7.228 0 01-2.985 2.222 15.02 15.02 0 01-.885.335 14.394 14.394 0 01-3.405.641l-1.136 11.379a17.74 17.74 0 01-4.478.671 60.988 60.988 0 01-7.049-.253 16.73 16.73 0 01-6.288-1.516q.076-4.131-.168-8.261-.1-1.723-.251-3.443v-.041a11.785 11.785 0 00-.807 1.149 36.789 36.789 0 01-7.459-6.557c.048-.113.094-.227.141-.343a14.842 14.842 0 01.961-1.917c.775-1.34 1.565-2.679 2.4-3.982q.233-.364.481-.72a16.4 16.4 0 014.026-4.164 13.227 13.227 0 012.74-1.47c.5-.2 3.3-.964 3.328-.917a2 2 0 001.314.978 11.055 11.055 0 004.7.3 6.706 6.706 0 002.082-.889 22.268 22.268 0 014.127 1.623 13.827 13.827 0 011.722 1.247 14.351 14.351 0 013.819 5.041 57.034 57.034 0 012.217 6.223c.294.89.582 1.773.853 2.664z" fill="#f9703c"/><path class="h" d="M36.65 45.794a12.023 12.023 0 00.014-1.538 10.789 10.789 0 00-.31-1.785 31.35 31.35 0 00-1.188-3.813c.1.2.221.4.338.6a13.022 13.022 0 011.882 4.606c.194 1.281.066 2.618.367 3.873a5.763 5.763 0 001.617 2.8l.073.067a14.394 14.394 0 01-3.405.641c.29-1.927.501-3.507.612-5.451zM18.876 46.72a23.537 23.537 0 01-1.955 6.54q-.1-1.723-.251-3.443a7.2 7.2 0 002.206-3.097z"/><path class="i" d="M26.864 16.389a2.218 2.218 0 01.409.008l.723.059c.08.006.18 0 .215-.07a.146.146 0 000-.116.445.445 0 00-.379-.205 2.172 2.172 0 00-1.111.126c-.068.029-.456.206-.429.3s.494-.094.572-.102zM32.121 16.226a2.231 2.231 0 00-.408.038l-.717.111c-.079.012-.179.016-.219-.054a.141.141 0 01-.005-.115c.049-.143.216-.2.363-.233a2.173 2.173 0 011.117.044c.07.023.47.172.45.264s-.502-.052-.581-.055z"/><path class="j" d="M31.694 22.565a1.732 1.732 0 01-1.371 1.238 1.7 1.7 0 01-1.512-.927 3.562 3.562 0 01-.5-1.538l.113-.009 3.358-.277.125-.011a3.608 3.608 0 01-.213 1.524z"/><path class="k" d="M31.781 21.052a2.149 2.149 0 01-1.608 1 2.146 2.146 0 01-1.749-.723z"/><path d="M31.694 22.565a1.732 1.732 0 01-1.371 1.238 1.7 1.7 0 01-1.512-.927 3.491 3.491 0 01.514-.283 2.962 2.962 0 011.657-.241 2.949 2.949 0 01.712.213z" fill="#e98b8b"/><path class="i" d="M28.194 18.563c.014.458-.237.836-.56.846s-.6-.353-.609-.811.236-.836.559-.846.597.356.61.811z"/><path class="k" d="M27.77 18.302a.146.146 0 00.01.292.146.146 0 00-.01-.292z"/><path class="i" d="M31.313 18.47c.014.458.287.821.61.811s.573-.389.559-.846-.286-.821-.609-.811-.575.388-.56.846z"/><path class="k" d="M32.072 18.081a.146.146 0 00.008.292.146.146 0 00-.008-.292z"/><path class="j" d="M30.314 19.499a.537.537 0 00-.667.018l.522.9a.4.4 0 00.318-.266.58.58 0 00-.173-.652z"/><path class="f" d="M27.354 20.9a1.437 1.437 0 01-1.469 1.373 1.436 1.436 0 01-1.643-1.157 1.437 1.437 0 011.469-1.373 1.436 1.436 0 011.643 1.157zM33.984 20.168a.805.805 0 01-.824.77.805.805 0 01-.922-.649.805.805 0 01.824-.77.805.805 0 01.922.649z"/></g></svg>