<svg xmlns="http://www.w3.org/2000/svg" width="48" height="48" viewBox="0 0 48 48"><defs><clipPath id="a"><path d="M48-429.3a24 24 0 01-24 24 24 24 0 01-24-24 24 24 0 0124-24 24 24 0 0124 24z" transform="translate(0 453.3)" clip-rule="evenodd" fill="none"/></clipPath><clipPath id="b"><path d="M48-429.3a24 24 0 01-24 24 24 24 0 01-24-24 24 24 0 0124-24 24 24 0 0124 24z" transform="translate(0 453.3)" fill="none"/></clipPath><style>.f{fill:#ffcfca}.g{fill:#ab1b34}.h{fill:#f9beba}.i{fill:#1f3c49}.j{fill:#fff}.n{fill:#f98080}</style></defs><g clip-path="url(#a)"><path d="M48 24a24 24 0 01-24 24A24 24 0 010 24 24 24 0 0124 0a24 24 0 0124 24z" fill="#fbe3c2"/><g clip-path="url(#b)"><path class="f" d="M-26.303 67.942l3.51-2.932a30.9 30.9 0 013.33-2.53 38.62 38.62 0 011.725-1.04l8.356-5.449 5.286-3.448a33.051 33.051 0 003.372-2.406c1.307-1.108 8.79-12.273 9.6-13.243a14.315 14.315 0 014.26 8.3c-2.662 2.459-8.844 9.12-11.9 11.06-5.46 3.465-11.692 5.152-17.531 7.931-.211.1-.427.629-.553.834-.408.667-.72 1.385-1.174 2.025a10.958 10.958 0 01-1.576 1.775c-.266.24-.7.359-.861-.072a.4.4 0 01-.042-.107 1.716 1.716 0 01.347-1.322 3.1 3.1 0 00.518-1.456.479.479 0 00-.141-.4.515.515 0 00-.246-.1 1.455 1.455 0 00-.827.113 2.553 2.553 0 00-.392.212c-.122.076-.238.16-.354.246-.144.107-.283.216-.423.317l-.084.059-.077.054-.5.347-.907.633-.792.553a4.053 4.053 0 01-1.536.785.43.43 0 01-.388-.739z"/><path class="g" d="M20.539 19.473a7.313 7.313 0 01-.536-1.567 7.325 7.325 0 015.575-8.732 7.326 7.326 0 018.732 5.576c.025.114.048.229.068.343a4.945 4.945 0 012.647 3.377 4.961 4.961 0 01.111 1.308 4.95 4.95 0 013 3.537 4.957 4.957 0 01-3.773 5.91 4.98 4.98 0 01-1.323.109 4.934 4.934 0 01-2.323 1.225 4.936 4.936 0 01-3.158-.346 4.919 4.919 0 01-2.012.956 4.957 4.957 0 01-5.144-2.019 4.957 4.957 0 01-5.249-3.871 4.958 4.958 0 013.385-5.806z"/><path class="f" d="M29.235 29.647c-.671-.356-1.262-.844-1.94-1.186a1.658 1.658 0 00-.178-.025c-1.075-.088-2.145-.247-3.224-.307a5.626 5.626 0 00-1.008.026 12.889 12.889 0 01-3.442 1.553 12.919 12.919 0 01-1.75.323.822.822 0 00-.463 1.2 5.457 5.457 0 001.138 1.659q.206.224.431.43c2.051 1.873 5.687 2.854 8.338 1.636a8.837 8.837 0 003.369-2.864 8.353 8.353 0 00.66-1.179l.094-.2c-.678-.352-1.353-.708-2.025-1.066z"/><path class="f" d="M22.21 30.334a3.2 3.2 0 001.32.5 11.752 11.752 0 001.69.282 11.472 11.472 0 003.247-.447q.076-.961.156-1.921a23.6 23.6 0 01.274-2.394c.044-.241.094-.483.152-.722.14-.6.313-1.184.487-1.774l.428-1.452a3.839 3.839 0 01-.971.514 99.636 99.636 0 01-4.728 1.813 7.1 7.1 0 01-1.464.409l-.318 2.8z"/><path class="h" d="M22.484 27.938a17.25 17.25 0 005.036-1.514c.5-.242 1.027-.5 1.53-.792.14-.6.313-1.184.487-1.774l.428-1.452a3.839 3.839 0 01-.971.514 99.636 99.636 0 01-4.728 1.813 7.1 7.1 0 01-1.464.409z"/><path class="f" d="M19.633 23.101a4.651 4.651 0 001.354 2.546 4.5 4.5 0 002.42 1.079 5.715 5.715 0 002.892-.451 7.441 7.441 0 001.3-.713 10.181 10.181 0 001.9-1.733 12.623 12.623 0 002.233-3.635 7.884 7.884 0 00.419-4.742 6.076 6.076 0 00-.787-1.849 5.711 5.711 0 00-7.248-2.046 7.265 7.265 0 00-3.134 3.066 13.5 13.5 0 00-.607 1.273 12.048 12.048 0 00-.742 7.205z"/><path class="f" d="M28.866 23.344a2.753 2.753 0 002.635.666 2.708 2.708 0 001.721-1.564 2.484 2.484 0 00.128-.418 1.947 1.947 0 00.021-.762 1.685 1.685 0 00-1.261-1.277 1.947 1.947 0 00-1.749.506l-.575 1.1z"/><path class="g" d="M21.443 12.697c.252-.2.506-.4.767-.592.032-.024.067-.047.1-.07l.037-.026c.125-.081.249-.164.376-.241a6.807 6.807 0 01.806-.428c.048-.021.113-.038.165-.064.1-.029.2-.055.3-.078a2.807 2.807 0 011.863-1.4 2.8 2.8 0 012.041.328 2.457 2.457 0 01.833-.356 2.442 2.442 0 012.91 1.858 2.3 2.3 0 01.042.249 2.812 2.812 0 011.5 1.913 2.8 2.8 0 01-.25 1.9 2.254 2.254 0 011.488 1.654 2.257 2.257 0 01-1.718 2.691 2.257 2.257 0 01-2.69-1.718 2.239 2.239 0 01.041-1.134 2.812 2.812 0 01-2.348-2.115 2.854 2.854 0 01-.635.222 2.811 2.811 0 01-2.772-.955 2.493 2.493 0 01-1.164.611 2.5 2.5 0 01-2.789-1.353c.369-.305.732-.604 1.097-.896z"/><path class="f" d="M19.068 31.975h.018c-.09.025-.18.049-.271.07a2.588 2.588 0 01.253-.07z"/><path class="i" d="M24.97 19.621c.124.015.307-.173.373-.463a.767.767 0 00-.015-.427c-.016-.041-.059-.138-.134-.155h-.012c-.124-.015-.307.173-.373.463a.776.776 0 00.015.427c.016.041.059.138.134.155zM21.275 19.029c.1.012.291-.154.358-.448a.761.761 0 00-.015-.414.216.216 0 00-.127-.147h-.011c-.1-.012-.291.152-.358.448a.752.752 0 00.014.414c.032.082.077.136.127.147zM23.096 19.821a.458.458 0 00-.409-.15.537.537 0 00-.395.259.538.538 0 00-.047.471.459.459 0 00.324.292.633.633 0 01-.158-.338.48.48 0 01.068-.311.484.484 0 01.245-.206.624.624 0 01.372-.017zM26.059 17.461a.082.082 0 00.064-.026.086.086 0 000-.122 1.3 1.3 0 00-.964-.353.086.086 0 00-.08.091.085.085 0 00.091.082 1.124 1.124 0 01.833.3.082.082 0 00.056.028zM22.335 16.76a.088.088 0 00.049-.037.087.087 0 00-.026-.12 1.206 1.206 0 00-.918-.156.087.087 0 00-.064.1.085.085 0 00.1.064 1.028 1.028 0 01.785.133.089.089 0 00.074.016z"/><path class="j" d="M25.095 18.762a.145.145 0 01.041.286.145.145 0 01-.041-.286zM21.337 18.163a.145.145 0 01.041.286.145.145 0 01-.041-.286z"/><path d="M21.054 21.182a1.945 1.945 0 00.217 1.027 1.514 1.514 0 001.232.838 1.513 1.513 0 001.344-.717 1.939 1.939 0 00.319-.961v-.039l-3.107-.187a.596.596 0 00-.005.039z" fill="#d55353"/><path class="j" d="M21.183 21.151a1.96 1.96 0 001.391.686 1.957 1.957 0 001.463-.516z"/><path d="M21.27 22.209a1.514 1.514 0 001.232.838 1.513 1.513 0 001.344-.717 5.684 5.684 0 00-1.613-.215 5.758 5.758 0 00-.963.094z" fill="#f27c7c"/><path class="h" d="M24.724 20.878c-.054.471.42.914 1.061.988a1.049 1.049 0 001.258-.72c.055-.471-.42-.914-1.061-.988a1.05 1.05 0 00-1.258.72zM19.762 19.673c-.037.319.284.617.716.667a.709.709 0 00.85-.486c.036-.318-.284-.617-.717-.667a.709.709 0 00-.849.486z"/><path class="f" d="M39.061 80.363a49.061 49.061 0 01-.247-5.944c.731-5.4 3.655-14.4 3.5-18.3-.147-3.756-1.708-7.3-2.633-10.942-.521-2.052-.875-4.151-1.588-6.144a14.77 14.77 0 00-.647-1.542 11.058 11.058 0 00-3.283-3.925 15.533 15.533 0 00-3.828-2.176l-.762 5.538.039-.02a9.106 9.106 0 00.93 4.7q2.559 6.442 5.526 12.711a7.782 7.782 0 01.765 2.109 7.627 7.627 0 010 1.758c-.437 5.527-.791 10.244-.973 15.828-.158.43-.755 1.719-1.023 2.622a15.521 15.521 0 00-.421 1.643 14.719 14.719 0 00.035 2.644 2.469 2.469 0 00.04.553c.2.841 1.079.421 1.322-.154a1.217 1.217 0 00.056-.165 1.466 1.466 0 00.042-.214 5.542 5.542 0 00.005-.807 2.465 2.465 0 01.044-.592c.038-.163.061-.388.245-.453a.718.718 0 01.554.115 1.057 1.057 0 01.368.46 3.412 3.412 0 01.155.423c.113.372.2.748.306 1.12a3.323 3.323 0 01.114 1.554 10.048 10.048 0 01-.518 1.566 2.413 2.413 0 00-.212 1.862.447.447 0 00.7.055 1.228 1.228 0 00.221-.395 20.27 20.27 0 00.985-2.737 10.593 10.593 0 00.183-2.751z"/><path d="M40.543 44.653c-3.333 2.517-5.084 3.884-7.44 4.9l-.005.014c-.217.66-.438 1.344-.663 2.043l-.184.577c-.257.809-.517 1.636-.773 2.471-3.177.971-15.349 2.923-16.946 3.135-.162-.88-.32-1.727-.478-2.672-.348-2.086-.7-4.642-1.1-9.051l-.024.052c-.148.3-.445.942-.951 1.974q-.1.2-.212.43c-1.445-1.304-6.622-7.189-6.622-7.189s3.5-6.1 6.289-8.165a27.436 27.436 0 018.445-3.8s1.215 1.273 1.582 1.55a6.285 6.285 0 003.541 1.325 5.989 5.989 0 005.215-2.47c4.518 1.835 7.754 4.004 10.326 14.876z" fill="#fe8f8b"/><path class="n" d="M11.981 48.092c.506-1.031.8-1.67.951-1.974a10.7 10.7 0 01.122-2.793 7.489 7.489 0 00-1.131 2.941 5.319 5.319 0 00.058 1.826zM33.098 49.561c-.217.66-.438 1.344-.663 2.043a10.019 10.019 0 01-1.278-6.773 12.788 12.788 0 001.941 4.73z"/></g></g></svg>