<svg xmlns="http://www.w3.org/2000/svg" width="48" height="48" viewBox="0 0 48 48"><defs><clipPath id="a"><path d="M48-429.3a24 24 0 01-24 24 24 24 0 01-24-24 24 24 0 0124-24 24 24 0 0124 24z" transform="translate(0 453.303)" fill="none" clip-rule="evenodd"/></clipPath><style>.d{fill:#1d1d1b}.e{fill:#ffe3ca}.g{fill:#b9ddd4}.h{fill:#97c6b6}.i{fill:#82b1a2}.j{fill:#1f3c49}.m{fill:#fff}</style></defs><g clip-path="url(#a)"><path d="M48.001 24.004a24 24 0 01-24 24 24 24 0 01-24-24 24 24 0 0124-24 24 24 0 0124 24z" fill="#f8d7da"/><path class="d" d="M32.974 33.253c-.783 4.156-1.622 8.282-2.155 12.477-.505 3.972-.992 7.949-1.624 11.9-3.256.073-6.5-.064-9.748-.316a32.814 32.814 0 01-9.462-1.88 30.02 30.02 0 01-4.652-2.292 36.207 36.207 0 003.314-6.9 70.741 70.741 0 002.674-7.729 82.891 82.891 0 002.644-17.376 15.925 15.925 0 013.447-9.487c2.275-2.6 6.086-4.081 9.434-2.816a9.907 9.907 0 014.878 4.305 14.077 14.077 0 011.272 2.874c.087.266.165.536.238.807a21.714 21.714 0 01.522 2.585 29.909 29.909 0 01.283 4.065 52.16 52.16 0 01-1.065 9.783z"/><path class="e" d="M30.254 33.931a3.83 3.83 0 01-1.578.606 14.05 14.05 0 01-2.022.347 13.732 13.732 0 01-3.892-.517l-.2-2.3a28.8 28.8 0 00-.342-2.866q-.082-.435-.187-.865c-.171-.714-.382-1.417-.593-2.122l-.52-1.736a4.592 4.592 0 001.166.609c1.869.771 3.767 1.47 5.673 2.145a8.55 8.55 0 001.758.481l.4 3.348z"/><path d="M29.914 31.062a20.687 20.687 0 01-6.042-1.785c-.605-.287-1.234-.6-1.838-.94-.171-.714-.382-1.417-.593-2.122l-.52-1.736a4.592 4.592 0 001.166.609c1.869.771 3.767 1.47 5.673 2.145a8.55 8.55 0 001.758.481z" fill="#f8d6b7"/><path class="e" d="M33.117 25.673a5.564 5.564 0 01-1.776 2.963 5.38 5.38 0 01-2.96 1.144 6.844 6.844 0 01-3.432-.717 8.753 8.753 0 01-1.51-.932 12.162 12.162 0 01-2.167-2.189 15.09 15.09 0 01-2.45-4.485 9.452 9.452 0 01-.213-5.7 7.261 7.261 0 011.055-2.163 6.84 6.84 0 018.8-2.005 8.7 8.7 0 013.563 3.859 15.922 15.922 0 01.648 1.56 14.422 14.422 0 01.442 8.665z"/><path class="d" d="M32.996 16.014a20.267 20.267 0 00-3.11-3.929 6.978 6.978 0 00-3.965-1.788 9.243 9.243 0 00-7.869 3.077 6.908 6.908 0 00-1.37 4.006 13.617 13.617 0 00.591 4.077 8.96 8.96 0 006.481-4.142 13.552 13.552 0 001.907-5.322 15.732 15.732 0 002.863 2.937 8.854 8.854 0 004.711 1.892 16.182 16.182 0 00-.239-.808z"/><path class="g" d="M43.493 64.845c-.874-1.25-2.787-3.674-2.787-3.674s1.187-15.836-2.073-22.6c-2.072-2.144-4.088-4.071-7.054-4.622-2.171 3.639-2.832 6.922-3.189 11.144-.474 5.6-.61 11.506 1.917 16.524a30.528 30.528 0 002.492 3.941 68.1 68.1 0 008.043 9.451 2.572 2.572 0 003 .424l2.871-1.531a1.918 1.918 0 00.783-2.607 66.014 66.014 0 00-4.003-6.45z"/><path class="g" d="M34.849 35.881c-.159-.423-1.443-1.337-1.443-1.337s-7.683-1.55-11.329-1.086a28.37 28.37 0 00-5.369 1.22 15.78 15.78 0 00-5.165 2.667 34.821 34.821 0 00-4.389 4.38c-.653.755-1.289 1.524-1.921 2.3a66.879 66.879 0 00-5.238 6.892c-2.191 3.529-3.78 8.037-1.661 11.98a20.476 20.476 0 005.4 5.851 38.264 38.264 0 007.976 5.1 1.742 1.742 0 002.226-.669 25.567 25.567 0 001.587-3.159 2.283 2.283 0 00-.124-2.031 49.065 49.065 0 00-7.33-9.689 50.448 50.448 0 006.129-6.72 48.567 48.567 0 01.127 6.306 3.336 3.336 0 00.222 1.781 3.059 3.059 0 001.886 1.218 31.635 31.635 0 0016.563.643 4.691 4.691 0 002.939-1.567 7.07 7.07 0 00.951-3.014 40.53 40.53 0 00.537-5.306 40.76 40.76 0 00-2.574-15.76z"/><path class="h" d="M31.74 33.184c-.042-.164-.092-.328-.123-.484-.124-.643-.005-1.463-.714-1.907a2.223 2.223 0 00-1.181-.186c-.475-.006-.949 0-1.424-.008a18.8 18.8 0 01-2.973-.3q-.751-.137-1.487-.334a8.689 8.689 0 00-1.347-.363 1.029 1.029 0 00-.878.274 1.081 1.081 0 00-.2.514 8.056 8.056 0 00-.187 2.767 1.326 1.326 0 00.359.8 5.566 5.566 0 002.36.784 12.771 12.771 0 006.976-.24 1.87 1.87 0 00.709-.4c.267-.275.192-.593.11-.917z"/><path class="i" d="M22.301 34.112a.085.085 0 01-.075-.064 12.25 12.25 0 01-.06-4.081.081.081 0 01.094-.06.079.079 0 01.073.085 12.128 12.128 0 00.059 4.039.072.072 0 01-.071.081zM23.03 34.368a.08.08 0 01-.074-.085 10.841 10.841 0 00.066-1.873l-.047-2.057c0-.06-.012-.078-.02-.084a.069.069 0 01-.023-.1.093.093 0 01.119-.016.226.226 0 01.1.205l.047 2.057a10.923 10.923 0 01-.067 1.895.08.08 0 01-.101.058zM23.921 34.552a.082.082 0 01-.076-.075 57.55 57.55 0 01.119-4.007.079.079 0 01.09-.066.083.083 0 01.08.08 57.313 57.313 0 00-.119 4 .077.077 0 01-.085.071zM24.649 34.702a.081.081 0 01-.076-.081 31.355 31.355 0 00.06-3.97.076.076 0 01.082-.073.085.085 0 01.089.073 31.494 31.494 0 01-.061 3.986.079.079 0 01-.091.065zM25.456 34.928a.08.08 0 01-.075-.084 11.755 11.755 0 00.058-2.1v-.081a4.7 4.7 0 01.015-.892c.015-.1.036-.2.058-.3a2.315 2.315 0 00.073-.565.076.076 0 01.083-.073.085.085 0 01.088.074 2.451 2.451 0 01-.076.6c-.021.1-.042.2-.056.3a4.62 4.62 0 00-.014.868v.081a11.861 11.861 0 01-.059 2.125.08.08 0 01-.095.047zM26.156 34.866a.079.079 0 01-.072-.086 16.433 16.433 0 00.209-3.788.075.075 0 01.081-.074.084.084 0 01.09.073 16.56 16.56 0 01-.21 3.817.081.081 0 01-.098.058zM27.095 34.836a.079.079 0 01-.071-.086 3.2 3.2 0 00-.006-.88c-.013-.137-.027-.279-.033-.419a7.239 7.239 0 01.044-.928 4.1 4.1 0 00-.053-1.525.071.071 0 01.062-.087.09.09 0 01.1.057 4.2 4.2 0 01.057 1.573 7.14 7.14 0 00-.043.912c.005.136.019.276.032.412a3.293 3.293 0 010 .915.081.081 0 01-.089.056zM27.834 34.78a.081.081 0 01-.076-.081 29.371 29.371 0 00.105-3.714.076.076 0 01.083-.073.084.084 0 01.088.074 29.529 29.529 0 01-.106 3.73.079.079 0 01-.092.064zM28.668 34.595a.081.081 0 01-.076-.082 11.414 11.414 0 00.019-3.411.072.072 0 01.07-.082.088.088 0 01.1.064 11.513 11.513 0 01-.017 3.449.08.08 0 01-.093.063zM29.391 34.719a.082.082 0 01-.076-.076l.015-3.542a.077.077 0 01.086-.07.084.084 0 01.085.077l-.015 3.542a.077.077 0 01-.086.07zM30.25 34.494a.081.081 0 01-.076-.078 24.769 24.769 0 00-.087-3.316.075.075 0 01.078-.076.086.086 0 01.092.07 24.908 24.908 0 01.088 3.333.078.078 0 01-.088.068zM31.081 34.171h-.018a.074.074 0 01-.054-.095 1.6 1.6 0 00.008-.853 3.9 3.9 0 01-.054-.425c-.006-.113 0-.227 0-.337s.009-.224 0-.335a3.657 3.657 0 00-.293-1.069.069.069 0 01.054-.091.092.092 0 01.108.05 3.761 3.761 0 01.3 1.109c.007.117 0 .234 0 .347s-.008.218 0 .325a3.885 3.885 0 00.053.411 1.71 1.71 0 01-.015.92.084.084 0 01-.089.043z"/><path class="e" d="M22.057 25.399a3.3 3.3 0 01-3.193.636 3.242 3.242 0 01-1.963-1.977 3.068 3.068 0 01-.128-.507 2.347 2.347 0 01.021-.914 2.021 2.021 0 011.587-1.451 2.334 2.334 0 012.063.713l.62 1.346z"/><path class="h" d="M34.332 61.132c.421-.244.854-.455 1.251-.7a2.688 2.688 0 00.972-.923 2.416 2.416 0 00.249-.624 1.807 1.807 0 00.057-.66c-.021-.227-.065-.465-.1-.7s-.062-.48-.088-.721a25.792 25.792 0 01-.095-2.89c.018-.962.071-1.921.125-2.879.108-1.916.256-3.829.214-5.746a43.818 43.818 0 00-.472-5.729 43.793 43.793 0 01.57 5.728c.075 1.921-.041 3.843-.118 5.758a76.573 76.573 0 00-.077 2.873c0 .479 0 .955.031 1.432s.056.953.111 1.425c.029.236.059.471.1.706s.084.469.111.719a2.122 2.122 0 01-.053.767 2.756 2.756 0 01-.272.712 2.545 2.545 0 01-.474.6 4.019 4.019 0 01-.6.456c-.416.265-.844.481-1.25.724zM14.153 36.763a4.572 4.572 0 011.172 1.276 6.657 6.657 0 01.715 1.6 10.116 10.116 0 01.358 1.711 16.094 16.094 0 01.12 1.738c.006.581-.019 1.161-.068 1.739s-.13 1.152-.241 1.721a11.593 11.593 0 01-1.106 3.277 16.268 16.268 0 00.814-3.325c.074-.565.142-1.132.175-1.7s.059-1.137.047-1.706-.035-1.137-.1-1.7c-.027-.283-.066-.563-.112-.842s-.105-.556-.175-.83a8.229 8.229 0 00-.251-.809c-.045-.134-.1-.262-.156-.394s-.116-.258-.185-.381a5.231 5.231 0 00-1.007-1.375zM21.135 34.7a.1.1 0 01-.089-.063.1.1 0 01.058-.121l.358-.126a.1.1 0 01.121.058.1.1 0 01-.058.121l-.358.126a.1.1 0 01-.032.005z"/><path class="h" d="M19.697 35.217a.1.1 0 01-.089-.062.1.1 0 01.057-.122l.718-.26a.1.1 0 01.121.057.1.1 0 01-.057.121l-.718.26a.1.1 0 01-.032.006zm-1.432.532a.1.1 0 01-.089-.062.1.1 0 01.055-.122l.716-.268a.1.1 0 01.122.056.1.1 0 01-.056.122l-.715.267a.093.093 0 01-.033.007zm-1.426.547a.1.1 0 01-.088-.06.1.1 0 01.053-.123l.5-.193.217-.083a.1.1 0 01.123.055.1.1 0 01-.055.123l-.217.083-.494.192a.094.094 0 01-.039.006zm-1.4.6a.1.1 0 01-.086-.054.1.1 0 01.044-.127c.217-.1.446-.208.7-.316a.1.1 0 01.125.05.1.1 0 01-.05.125c-.251.107-.478.209-.692.312a.1.1 0 01-.044.012zm-1.327.753a.1.1 0 01-.079-.042.1.1 0 01.025-.132c.2-.139.425-.275.656-.406a.1.1 0 01.129.036.1.1 0 01-.036.129 8.101 8.101 0 00-.643.4.1.1 0 01-.055.018zm-1.177.97a.094.094 0 01-.068-.029.1.1 0 010-.134c.191-.186.384-.36.573-.516a.1.1 0 01.134.012.1.1 0 01-.012.134 9.395 9.395 0 00-.562.506.1.1 0 01-.068.03zm-1.036 1.122a.094.094 0 01-.062-.023.1.1 0 01-.011-.134c.182-.214.348-.4.507-.576a.1.1 0 01.134-.006.1.1 0 01.006.134c-.157.172-.322.358-.5.57a.1.1 0 01-.077.038zm-.974 1.177a.094.094 0 01-.06-.021.1.1 0 01-.013-.134l.484-.59a.1.1 0 01.134-.013.1.1 0 01.013.134l-.484.59a.1.1 0 01-.076.036zM9.958 42.1a.1.1 0 01-.06-.021.1.1 0 01-.014-.134l.483-.591a.1.1 0 01.134-.013.1.1 0 01.013.134l-.483.591a.1.1 0 01-.076.036zm-.963 1.186a.1.1 0 01-.06-.021.1.1 0 01-.014-.134l.481-.594a.1.1 0 01.134-.014.1.1 0 01.014.134l-.48.593a.1.1 0 01-.077.038zm-.955 1.192a.1.1 0 01-.059-.021.1.1 0 01-.015-.133l.476-.6a.1.1 0 01.133-.015.1.1 0 01.015.133l-.476.6a.1.1 0 01-.076.038zm-.943 1.2a.094.094 0 01-.058-.02.1.1 0 01-.017-.133l.47-.6a.1.1 0 01.133-.016.1.1 0 01.016.133q-.236.3-.469.6a.094.094 0 01-.077.04zm-.927 1.213a.094.094 0 01-.057-.019.1.1 0 01-.019-.133q.23-.305.462-.609a.1.1 0 01.133-.018.1.1 0 01.018.133q-.232.3-.461.608a.1.1 0 01-.078.043zm-.908 1.228a.094.094 0 01-.056-.018.1.1 0 01-.021-.133q.225-.309.452-.617a.1.1 0 01.133-.02.1.1 0 01.02.133q-.227.307-.451.615a.1.1 0 01-.079.045zm-.885 1.245a.1.1 0 01-.054-.017.1.1 0 01-.024-.132q.218-.314.44-.625a.1.1 0 01.132-.022.1.1 0 01.022.132q-.221.311-.439.624a.1.1 0 01-.079.044zm-.86 1.268a.094.094 0 01-.052-.016.1.1 0 01-.027-.132q.211-.319.426-.635a.1.1 0 01.132-.025.1.1 0 01.025.132q-.214.315-.425.633a.1.1 0 01-.079.043zm-.826 1.284a.094.094 0 01-.05-.015.1.1 0 01-.03-.131q.2-.324.41-.646a.1.1 0 01.127-.027.1.1 0 01.028.131q-.206.32-.408.644a.1.1 0 01-.078.044zm-.785 1.31a.1.1 0 01-.046-.012.1.1 0 01-.036-.129c.119-.211.246-.428.387-.662a.1.1 0 01.13-.032.1.1 0 01.032.13c-.14.233-.266.447-.384.657a.1.1 0 01-.084.048zm-.7 1.358a.1.1 0 01-.039-.009.1.1 0 01-.047-.126c.1-.223.215-.456.337-.691a.1.1 0 01.128-.041.1.1 0 01.041.128c-.12.232-.232.462-.333.682a.1.1 0 01-.087.057zm-.547 1.425H.631a.1.1 0 01-.063-.118c.072-.237.157-.482.252-.728a.1.1 0 01.123-.054.1.1 0 01.054.123 9.661 9.661 0 00-.247.715.1.1 0 01-.09.062zm-.311 1.493h-.01a.1.1 0 01-.084-.1 7.533 7.533 0 01.121-.764.1.1 0 01.112-.073.1.1 0 01.073.112 7.368 7.368 0 00-.118.744.1.1 0 01-.094.081zm.022 1.523a.1.1 0 01-.094-.082l-.013-.1a6.11 6.11 0 01-.046-.674.1.1 0 01.094-.1.1.1 0 01.1.094 5.965 5.965 0 00.044.653l.013.1a.1.1 0 01-.081.107zm.383 1.474a.1.1 0 01-.089-.061 7.278 7.278 0 01-.236-.736.1.1 0 01.068-.116.1.1 0 01.116.068 7.1 7.1 0 00.23.717.1.1 0 01-.055.122.094.094 0 01-.032.007zm.668 1.371a.1.1 0 01-.082-.046 9.852 9.852 0 01-.368-.678.1.1 0 01.044-.127.1.1 0 01.133.044c.108.22.229.443.36.664a.1.1 0 01-.033.13.1.1 0 01-.052.014zm.867 1.262a.1.1 0 01-.075-.037 14.311 14.311 0 01-.455-.619.1.1 0 01.024-.132.1.1 0 01.132.024c.139.2.29.406.449.611a.1.1 0 01-.017.133.1.1 0 01-.058.02zm.992 1.16a.094.094 0 01-.07-.03 20.625 20.625 0 01-.511-.572.1.1 0 01.01-.134.1.1 0 01.134.01c.158.184.329.375.506.567a.1.1 0 01-.005.134.1.1 0 01-.064.021zm1.073 1.088a.093.093 0 01-.066-.026 28.356 28.356 0 01-.546-.538.1.1 0 010-.134.1.1 0 01.134 0c.17.172.352.352.543.535a.1.1 0 010 .134.1.1 0 01-.065.025zm1.119 1.041a.092.092 0 01-.064-.024q-.281-.254-.564-.517a.1.1 0 010-.134.1.1 0 01.129-.014q.282.262.562.516a.1.1 0 01.007.134.1.1 0 01-.07.035zm1.144 1.011a.1.1 0 01-.061-.022c-.2-.167-.391-.337-.578-.5a.094.094 0 01-.008-.133.1.1 0 01.134-.008c.185.165.379.334.574.5a.1.1 0 01.011.134.1.1 0 01-.072.029zm1.186.963a.093.093 0 01-.058-.02c-.2-.158-.4-.318-.6-.475a.1.1 0 01-.014-.134.1.1 0 01.134-.014c.194.158.395.318.6.473a.1.1 0 01.017.133.094.094 0 01-.079.034zm1.222.916a.092.092 0 01-.055-.019 38.98 38.98 0 01-.616-.453.094.094 0 01-.019-.132.094.094 0 01.133-.019q.3.229.614.451a.1.1 0 01.021.132.093.093 0 01-.078.037zm1.25.878a.1.1 0 01-.054-.017q-.316-.216-.629-.435a.1.1 0 01-.023-.132.094.094 0 01.132-.023c.208.146.417.29.627.434a.094.094 0 01.025.131.094.094 0 01-.078.038zm1.269.849a.1.1 0 01-.052-.016q-.319-.21-.637-.423a.094.094 0 01-.026-.131.1.1 0 01.132-.026q.317.213.636.421a.1.1 0 01.027.132.1.1 0 01-.08.037zm1.281.831a.091.091 0 01-.051-.015l-.642-.414a.1.1 0 01-.028-.131.094.094 0 01.131-.029l.641.414a.1.1 0 01.028.131.094.094 0 01-.079.041z"/><path class="j" d="M26.722 21.108c-.089-.533-.444-.918-.793-.86s-.559.538-.47 1.071.444.918.793.86.56-.538.47-1.071zM31.549 20.636c-.087-.52-.433-.9-.773-.839s-.545.525-.458 1.045.433.9.773.839.545-.524.458-1.045zM24.796 19.047a.189.189 0 01-.149-.072.19.19 0 01.03-.267 1.855 1.855 0 011.864-.24.19.19 0 01.1.251.19.19 0 01-.251.1 1.466 1.466 0 00-1.474.19.189.189 0 01-.12.038zM29.764 18.602a.19.19 0 01-.153-.077.19.19 0 01.039-.266 1.725 1.725 0 011.726-.167.19.19 0 01.09.253.19.19 0 01-.253.09 1.335 1.335 0 00-1.337.129.189.189 0 01-.112.038zM28.616 22.389a.6.6 0 01.542-.165.7.7 0 01.492.366.7.7 0 01.026.613.6.6 0 01-.441.355.816.816 0 00.229-.426.625.625 0 00-.065-.409.622.622 0 00-.3-.284.813.813 0 00-.483-.05z"/><path d="M31.456 24.251v.013a2.323 2.323 0 01-.334 1.632 2.429 2.429 0 01-1.657 1.092 2.422 2.422 0 01-2.038-.6 2.311 2.311 0 01-.73-1.335v-.013z" fill="#e95353"/><path d="M31.124 25.896a2.428 2.428 0 01-1.657 1.092 2.422 2.422 0 01-2.038-.6 5.445 5.445 0 01.566-.285 4.446 4.446 0 012.351-.4 4.072 4.072 0 01.778.193z" fill="#ff948f"/><path class="m" d="M31.014 24.325a4.677 4.677 0 01-.173.172c-.885.824-2.632 1.33-3.633.462zM26.234 20.815a.23.23 0 000 .459.23.23 0 000-.459zM31.083 20.306a.229.229 0 000 .458.229.229 0 000-.458z"/></g></svg>